<svg width="140" height="137" viewBox="0 0 140 137" fill="none" xmlns="http://www.w3.org/2000/svg">
<path d="M5.71114 31.3538H19.2598V34.8802H5.71114V31.3538Z" fill="#EBEBEB"/>
<path d="M75.921 112.989C75.9197 111.806 76.1958 110.637 76.7279 109.576C77.2601 108.514 78.0338 107.587 78.9892 106.868C79.9445 106.148 81.0556 105.655 82.2361 105.426C83.4167 105.198 84.6349 105.24 85.796 105.55C86.9572 105.86 88.0301 106.429 88.9313 107.214C89.8326 107.998 90.5379 108.976 90.9924 110.072C91.4469 111.168 91.6384 112.353 91.5521 113.533C91.4657 114.714 91.1038 115.859 90.4945 116.88L90.4722 116.908C90.1715 117.406 89.7955 117.762 89.414 118.278L84.8745 124.207C84.743 124.379 84.5726 124.518 84.3768 124.614C84.1811 124.71 83.9654 124.76 83.7466 124.76C83.5279 124.76 83.3122 124.71 83.1164 124.614C82.9207 124.518 82.7503 124.379 82.6188 124.207L78.1629 118.382C77.7555 117.909 77.3762 117.414 77.0266 116.899L77.0099 116.88C76.3005 115.702 75.9246 114.359 75.921 112.989ZM83.7606 116.34C84.442 116.34 85.1082 116.142 85.6748 115.769C86.2413 115.396 86.6829 114.867 86.9435 114.247C87.2042 113.628 87.2723 112.946 87.1391 112.289C87.006 111.631 86.6776 111.027 86.1955 110.553C85.7135 110.079 85.0994 109.757 84.4309 109.626C83.7625 109.496 83.0697 109.563 82.4403 109.82C81.8109 110.077 81.273 110.512 80.8948 111.07C80.5166 111.628 80.3151 112.283 80.3156 112.954C80.3156 113.399 80.4047 113.839 80.5779 114.25C80.7511 114.661 81.0049 115.035 81.3248 115.349C81.6447 115.664 82.0245 115.913 82.4425 116.083C82.8604 116.253 83.3083 116.341 83.7606 116.34Z" fill="#E0E0E0"/>
<path d="M104.971 14.5905H118.52V18.1169H104.971V14.5905Z" fill="#EBEBEB"/>
<path d="M110.876 21.8323C110.877 21.8113 110.877 21.7902 110.876 21.7692V21.5884C110.876 21.4213 110.876 21.1911 110.876 20.8924C110.876 20.2842 110.876 19.4101 110.898 18.3059L110.856 18.347L124.421 18.3744L124.352 18.3059V19.2073C124.352 19.506 124.352 19.8047 124.352 20.0978V21.8323L124.421 21.7665L114.766 21.7966L111.917 21.8158H111.146H110.945H110.873C110.873 21.8158 110.892 21.8158 110.934 21.8158H111.129H111.884L114.719 21.835L124.421 21.898H124.488V21.8323C124.488 21.2642 124.488 20.686 124.488 20.0978V18.3114L124.419 18.2429L110.87 18.2703H110.828V18.3114C110.828 19.4265 110.845 20.3088 110.851 20.9226C110.851 21.2158 110.851 21.4459 110.851 21.6076C110.851 21.6788 110.851 21.7364 110.851 21.7829C110.851 21.8295 110.873 21.835 110.876 21.8323Z" fill="#E0E0E0"/>
<path d="M7.21311 107.764H20.7617V111.291H7.21311V107.764Z" fill="#EBEBEB"/>
<path d="M13.1164 115.003C13.1188 114.982 13.1188 114.961 13.1164 114.94C13.1164 114.894 13.1164 114.833 13.1164 114.759C13.1164 114.592 13.1164 114.362 13.1164 114.066C13.1164 113.455 13.1303 112.581 13.1387 111.477L13.0969 111.518L26.6455 111.545C26.6149 111.515 26.7152 111.614 26.5787 111.477V115.001L26.6455 114.935L16.9902 114.965L14.1412 114.984H13.3698H13.1693H13.0969H13.1609H13.3531H14.1106L16.9429 115.003L26.6706 115.08H26.7402V111.48C26.6038 111.345 26.7012 111.444 26.6706 111.411L13.1219 111.439H13.0802V111.48C13.0802 112.595 13.0969 113.477 13.1025 114.094C13.1025 114.384 13.1025 114.614 13.1025 114.779C13.1025 114.85 13.1025 114.905 13.1025 114.951C13.1057 114.969 13.1103 114.986 13.1164 115.003Z" fill="#E0E0E0"/>
<path d="M43.1013 16.2345C43.1025 16.2135 43.1025 16.1924 43.1013 16.1715V15.9906C43.1013 15.8235 43.1013 15.5933 43.1013 15.2974C43.1013 14.6891 43.1013 13.8123 43.1236 12.7081L43.0818 12.7492L56.6305 12.7766L56.5608 12.7081V14.4973C56.5608 15.0855 56.5608 15.6636 56.5608 16.2317L56.6277 16.166L46.9724 16.1961L44.1234 16.2153H43.352H43.1487H43.1013C43.1013 16.2153 43.1208 16.2153 43.1626 16.2153H43.3575H44.1122L46.9473 16.2345L56.65 16.2646H56.7168V16.1961C56.7168 15.6289 56.7168 15.0508 56.7168 14.4617V12.7108L56.6472 12.6451L43.0985 12.6697H43.0568V12.7108C43.0568 13.826 43.0735 14.7083 43.079 15.3248C43.079 15.618 43.079 15.8454 43.079 16.0098V16.1824C43.1013 16.218 43.1013 16.2372 43.1013 16.2345Z" fill="#E0E0E0"/>
<path d="M41.2638 12.7081C41.266 12.6862 41.266 12.6642 41.2638 12.6423V12.456C41.2638 12.2807 41.2638 12.045 41.2638 11.7491C41.2638 11.1299 41.2805 10.2558 41.2916 9.18173L41.2415 9.23105L49.3818 9.25023C49.4431 9.31051 49.2983 9.16803 49.315 9.18173V10.9956C49.315 11.5874 49.315 12.1574 49.315 12.7054L49.379 12.6423L43.5558 12.6725L41.8597 12.6889H41.403H41.2387C41.2878 12.6928 41.3372 12.6928 41.3863 12.6889H41.8319L43.5028 12.7081L49.3707 12.7382H49.4375V12.6725C49.4375 12.1245 49.4375 11.5546 49.4375 10.9627V9.18447L49.3679 9.11597L41.2276 9.13515H41.1774V9.18447C41.1774 10.2805 41.1997 11.1545 41.2053 11.7792C41.2053 12.0724 41.2053 12.3053 41.2053 12.4752C41.2053 12.6451 41.261 12.7136 41.2638 12.7081Z" fill="#E0E0E0"/>
<path d="M119.564 116.557C119.564 116.557 119.564 116.532 119.564 116.491V116.31C119.564 116.146 119.564 115.913 119.564 115.617C119.564 115.009 119.564 114.132 119.589 113.031L119.547 113.072L133.096 113.096L133.026 113.031V114.817C133.026 115.403 133.026 115.984 133.026 116.551L133.093 116.483L123.438 116.516L120.589 116.532H119.818H119.614H119.545H119.606H119.801H120.556L123.391 116.551L133.093 116.582H133.16V116.516C133.16 115.949 133.16 115.368 133.16 114.781V112.995L133.091 112.926L119.542 112.954H119.5V112.995C119.5 114.107 119.517 114.992 119.522 115.606C119.522 115.899 119.522 116.127 119.522 116.291V116.464C119.529 116.497 119.543 116.529 119.564 116.557Z" fill="#E0E0E0"/>
<path d="M117.736 113.03C117.738 113.008 117.738 112.985 117.736 112.962C117.736 112.913 117.736 112.85 117.736 112.776C117.736 112.603 117.736 112.367 117.736 112.069C117.736 111.449 117.753 110.575 117.764 109.504L117.714 109.551L125.854 109.57L125.788 109.504V111.315C125.788 111.904 125.788 112.477 125.788 113.025L125.852 112.959L120.028 112.989L118.332 113.009H117.876H117.711C117.76 113.012 117.81 113.012 117.859 113.009H118.305L119.975 113.025L125.843 113.055H125.91V112.992C125.91 112.444 125.91 111.871 125.91 111.282V109.471L125.841 109.403L117.7 109.422H117.65V109.471C117.65 110.567 117.672 111.439 117.678 112.066C117.678 112.359 117.678 112.589 117.678 112.762C117.678 112.935 117.722 113.033 117.736 113.03Z" fill="#E0E0E0"/>
<path d="M12.484 126.755C12.484 126.793 39.1551 126.826 72.0478 126.826C104.94 126.826 131.617 126.793 131.617 126.755C131.617 126.717 104.952 126.684 72.0478 126.684C39.144 126.684 12.484 126.717 12.484 126.755Z" fill="#263238"/>
<path d="M18.1704 23.2878H125.913C127.887 23.2878 129.486 24.8617 129.486 26.8033V98.5392C129.486 100.481 127.887 102.055 125.913 102.055H18.1704C16.197 102.055 14.5973 100.481 14.5973 98.5392V26.8033C14.5973 24.8617 16.197 23.2878 18.1704 23.2878Z" fill="#263238"/>
<path d="M14.5976 26.8027L14.6143 26.5561C14.6189 26.4549 14.631 26.3541 14.6505 26.2547C14.6712 26.1146 14.7029 25.9763 14.7452 25.8409C14.8786 25.383 15.1058 24.9567 15.4128 24.5882C15.7198 24.2197 16.1001 23.9169 16.5303 23.6983C16.8302 23.5473 17.1497 23.4376 17.48 23.3722C17.848 23.3126 18.2213 23.2906 18.5939 23.3064H21.1811H27.6338L68.7531 23.3311H97.1593H125.471C125.821 23.3175 126.171 23.3358 126.518 23.3859C126.863 23.4434 127.196 23.5534 127.507 23.712C128.134 24.0286 128.65 24.523 128.988 25.1313C129.152 25.4376 129.272 25.765 129.345 26.104C129.402 26.4498 129.424 26.8004 129.411 27.1507V33.5979C129.411 36.4895 129.411 39.4122 129.411 42.3659V60.4499C129.411 72.7388 129.411 85.4606 129.411 98.492C129.414 99.294 129.131 100.072 128.611 100.69C128.092 101.308 127.369 101.727 126.568 101.876C126.165 101.935 125.758 101.955 125.351 101.936H92.8566H56.8364H24.2529H18.5856C18.2786 101.946 17.9714 101.932 17.6666 101.895C16.9227 101.794 16.2319 101.459 15.6966 100.941C15.1613 100.422 14.8101 99.7483 14.695 99.0181C14.6605 98.7262 14.6484 98.4322 14.6588 98.1386C14.6588 97.8427 14.6588 97.5495 14.6588 97.2536V95.4972C14.6588 90.8374 14.6588 86.3684 14.6588 82.0904C14.6588 65.012 14.6394 51.1887 14.6338 41.6343C14.6338 36.8612 14.6338 33.1403 14.6199 30.6359C14.6199 29.381 14.6199 28.422 14.6199 27.7754C14.6199 27.1287 14.6199 26.8027 14.6199 26.8027C14.6199 26.8027 14.6199 27.1315 14.6199 27.7754C14.6199 28.4193 14.6199 29.381 14.6199 30.6359C14.6199 33.1513 14.6199 36.8612 14.6199 41.6343C14.6199 51.1887 14.6031 65.012 14.592 82.0904C14.592 86.3611 14.592 90.8301 14.592 95.4972C14.592 96.0808 14.592 96.6645 14.592 97.2536V98.1386C14.5829 98.4378 14.5959 98.7372 14.631 99.0346C14.7186 99.6425 14.9633 100.218 15.3417 100.707C15.7201 101.195 16.2194 101.58 16.7921 101.824C17.0819 101.944 17.386 102.028 17.6972 102.073C18.0075 102.111 18.3203 102.126 18.6329 102.117H24.2417H56.8253H92.8454H125.345C125.761 102.136 126.178 102.114 126.59 102.054C127.428 101.899 128.185 101.46 128.729 100.813C129.272 100.166 129.569 99.3531 129.567 98.514C129.567 85.4825 129.567 72.7579 129.567 60.4718C129.567 54.3287 129.567 48.3007 129.567 42.3878V27.1781C129.579 26.8186 129.555 26.4588 129.495 26.104C129.42 25.7508 129.295 25.4096 129.125 25.0902C128.769 24.457 128.231 23.9412 127.579 23.6078C127.255 23.4439 126.908 23.3303 126.548 23.2708C126.194 23.219 125.835 23.1998 125.476 23.2133H112.975H97.1565H68.7503L27.631 23.2379H21.1783H18.5939C18.2211 23.2255 17.848 23.2494 17.48 23.3092C17.1461 23.3751 16.8235 23.4877 16.5219 23.6435C16.089 23.8651 15.7069 24.1718 15.3994 24.5446C15.0919 24.9174 14.8654 25.3484 14.734 25.8108C14.6933 25.9462 14.6635 26.0845 14.6449 26.2245C14.6262 26.325 14.615 26.4266 14.6115 26.5287C14.5976 26.7177 14.5976 26.8027 14.5976 26.8027Z" fill="#263238"/>
<path d="M20.3702 59.647C19.7643 59.647 19.172 59.8238 18.6683 60.155C18.1645 60.4862 17.7718 60.9569 17.54 61.5076C17.3081 62.0584 17.2474 62.6644 17.3656 63.249C17.4838 63.8337 17.7756 64.3707 18.204 64.7923C18.6325 65.2138 19.1783 65.5008 19.7725 65.6171C20.3668 65.7334 20.9827 65.6737 21.5425 65.4456C22.1023 65.2175 22.5807 64.8312 22.9173 64.3355C23.2539 63.8399 23.4336 63.2571 23.4336 62.661C23.4336 61.8617 23.1108 61.095 22.5363 60.5298C21.9618 59.9646 21.1827 59.647 20.3702 59.647Z" fill="#455A64"/>
<path d="M123.416 54.6V70.692C123.416 70.8394 123.445 70.9854 123.502 71.1217C123.559 71.258 123.643 71.3819 123.749 71.4862C123.855 71.5906 123.981 71.6734 124.119 71.7298C124.257 71.7863 124.406 71.8154 124.555 71.8154C124.705 71.8154 124.854 71.7864 124.992 71.7299C125.131 71.6734 125.257 71.5907 125.363 71.4864C125.469 71.3821 125.553 71.2582 125.61 71.1219C125.668 70.9856 125.697 70.8395 125.697 70.692V54.6082C125.697 54.3103 125.577 54.0245 125.363 53.8138C125.149 53.6032 124.858 53.4848 124.555 53.4848C124.254 53.4848 123.965 53.6021 123.752 53.8111C123.539 54.0201 123.418 54.3037 123.416 54.6Z" fill="#455A64"/>
<path d="M25.345 25.8382H121.291V99.6374H25.345V25.8382Z" fill="#EBEBEB"/>
<path d="M59.4297 79.1121L52.0107 91.9764L33.7694 91.7106L34.8027 77.7503L59.4297 79.1121Z" fill="#E0E0E0"/>
<path d="M83.5416 35.6693L86.2207 56.0028L80.6871 57.3016L69.8677 56.2439L71.8533 34.0308L83.5416 35.6693Z" fill="#E0E0E0"/>
<path d="M100.348 77.2844H113.137V62.1349L99.24 62.2719L100.348 77.2844Z" fill="#F5F5F5"/>
<path d="M47.7012 77.7502C47.7012 77.32 45.4482 62.272 45.4482 62.272C45.4482 62.272 36.6311 59.8964 36.5977 60.2361C36.5643 60.5759 34.8432 77.3502 34.8432 77.3502L47.7012 77.7502Z" fill="#F5F5F5"/>
<path d="M111.666 39.2094C111.641 39.5766 105.559 51.6107 105.559 51.6107L98.5156 49.7749V35.9297L105.779 35.7653L111.666 39.2094Z" fill="#E0E0E0"/>
<path d="M68.6557 64.3188H78.3945V68.8398H68.6557V64.3188Z" fill="#E0E0E0"/>
<path d="M68.611 70.3385L78.4195 70.8262L78.918 79.9888L67.717 79.112L68.611 70.3385Z" fill="#E0E0E0"/>
<path d="M29.3218 53.3478L30.6836 34.7487H25.37L25.3449 52.9779L29.3218 53.3478Z" fill="#E0E0E0"/>
<path d="M51.082 31.7018L48.868 54.8794L37.2521 53.8547L39.2795 34.0856L48.4753 31.7018H51.082Z" fill="#E0E0E0"/>
<path d="M104.454 35.8474L121.225 35.598L121.208 34.502L105.362 34.7377L103.532 25.8464L102.438 26.0628L104.454 35.8474Z" fill="white"/>
<path d="M113.217 53.7506L121.344 35.82L121.09 35.7077L113.059 53.4245L98.5492 49.6406L98.4796 49.9064L113.217 53.7506Z" fill="white"/>
<path d="M99.2371 61.998H121.213V62.546H99.2371V61.998Z" fill="white"/>
<path d="M113.001 53.5889H113.279V77.2872H113.001V53.5889Z" fill="white"/>
<path d="M100.273 77.1638H121.213V77.4378H100.273V77.1638Z" fill="white"/>
<path d="M101.358 98.7249L121.301 94.3957L121.061 93.3244L102.374 97.3823L99.169 53.5012L98.6872 35.2501L97.9381 25.9122L96.8297 25.9971L97.5761 35.3213L98.0551 53.556L101.358 98.7249Z" fill="white"/>
<path d="M98.1788 36.5132L104.963 35.8392L104.849 34.7487L98.8528 35.346L97.8614 33.2636L88.9245 35.3953L48.7382 30.888L34.7384 34.4664L25.3867 34.2007L25.3532 35.2939L34.8637 35.5679L48.8189 32.0004L88.9942 36.505L97.2375 34.5404L98.1788 36.5132Z" fill="white"/>
<path d="M51.4569 78.6024L52.5625 78.4599L49.4322 54.874L51.8384 31.7237V25.8382H50.7244V31.6963L48.3099 54.8877L51.4569 78.6024Z" fill="white"/>
<path d="M100.822 81.8465L100.889 80.7533L35.2008 76.8241L26.2612 58.9155L25.2614 59.3977L34.4851 77.879L34.8081 77.8982L100.822 81.8465Z" fill="white"/>
<path d="M67.9313 79.7724L72.131 34.0555L72.3594 25.9643L71.8024 25.9478L71.574 34.0253L67.3772 79.7231L67.9313 79.7724Z" fill="white"/>
<path d="M76.7486 99.3442L81.6055 79.8299V57.7565L87.0723 56.4194L84.6995 35.4666L84.9195 25.8492L83.8056 25.8245L83.5828 35.5159L83.5855 35.5515L85.858 55.5864L80.4915 56.9016V79.6957L75.6652 99.0839L76.7486 99.3442Z" fill="white"/>
<path d="M81.0491 62.1349H99.2402V62.409H81.0491V62.1349Z" fill="white"/>
<path d="M98.5884 53.4049L98.6445 53.6733L86.4952 56.1335L86.439 55.8651L98.5884 53.4049Z" fill="white"/>
<path d="M81.0782 71.3441L85.4004 70.4043V62.272H85.1219V70.1851L81.0169 71.0756L81.0782 71.3441Z" fill="white"/>
<path d="M87.8261 99.3305L90.2545 91.6612H101.369V90.5652H89.4358L86.7622 99.0044L87.8261 99.3305Z" fill="white"/>
<path d="M52.0908 92.1161L59.5488 79.1778L59.3065 79.0435L51.9293 91.8393L25.4058 91.4502L25.4002 91.7242L52.0908 92.1161Z" fill="white"/>
<path d="M39.0398 91.9763H39.3184V99.3634H39.0398V91.9763Z" fill="white"/>
<path d="M33.9077 91.7215L34.9409 77.7612L40.2656 25.8519L39.9871 25.8245L34.6624 77.7366L33.6292 91.6996L33.9077 91.7215Z" fill="white"/>
<path d="M25.3545 52.8359L81.0586 57.1877L81.0365 57.4608L25.3325 53.109L25.3545 52.8359Z" fill="white"/>
<path d="M30.4081 35.1997L30.9629 35.2487L29.3087 53.3776L28.7539 53.3286L30.4081 35.1997Z" fill="white"/>
<path d="M29.7741 45.3839L37.9355 47.3711L37.8686 47.6371L29.7072 45.6499L29.7741 45.3839Z" fill="white"/>
<path d="M33.3631 46.2978L34.8085 38.2367L38.8828 37.812L38.855 37.5408L34.5718 37.9874L33.0902 46.2485L33.3631 46.2978Z" fill="white"/>
<path d="M60.9451 33.0952L61.5 33.142L59.5656 55.3422L59.0106 55.2954L60.9451 33.0952Z" fill="white"/>
<path d="M50.1258 45.2339L59.9961 47.3708L59.9362 47.6384L50.0659 45.5015L50.1258 45.2339Z" fill="white"/>
<path d="M52.279 91.9441L53.293 99.678L52.7406 99.7481L51.7266 92.0142L52.279 91.9441Z" fill="white"/>
<path d="M98.1318 62.7377L99.2402 79.7477L81.9598 78.9202V72.2455L86.4853 71.2619V63.4693L98.1318 62.7377Z" fill="#E0E0E0"/>
<path d="M102.891 66.8806C102.89 66.2867 103.029 65.7008 103.296 65.1683C103.564 64.6358 103.952 64.1711 104.431 63.8102C104.911 63.4494 105.468 63.2021 106.06 63.0876C106.653 62.9731 107.264 62.9945 107.846 63.1501C108.429 63.3057 108.967 63.5914 109.419 63.9848C109.871 64.3783 110.225 64.869 110.453 65.4188C110.681 65.9687 110.777 66.5628 110.734 67.1552C110.691 67.7475 110.509 68.3221 110.204 68.8342V68.8479C110.053 69.0973 109.867 69.2754 109.675 69.5384L107.397 72.5086C107.33 72.5948 107.245 72.6648 107.146 72.713C107.048 72.7611 106.94 72.7862 106.83 72.7862C106.72 72.7862 106.612 72.7611 106.513 72.713C106.415 72.6648 106.329 72.5948 106.263 72.5086L104.035 69.5877C103.831 69.3506 103.641 69.1027 103.464 68.8452C103.096 68.2534 102.898 67.5745 102.891 66.8806ZM106.817 68.563C107.16 68.5635 107.494 68.4641 107.779 68.2773C108.064 68.0906 108.286 67.8249 108.417 67.5138C108.549 67.2028 108.583 66.8605 108.517 66.5301C108.45 66.1998 108.285 65.8964 108.043 65.6582C107.801 65.4201 107.493 65.258 107.157 65.1924C106.821 65.1269 106.473 65.1608 106.157 65.2899C105.841 65.4191 105.571 65.6376 105.381 65.9178C105.191 66.198 105.09 66.5274 105.091 66.8642C105.091 67.3145 105.274 67.7462 105.597 68.0646C105.921 68.383 106.36 68.5622 106.817 68.563Z" fill="#0956A3"/>
<path d="M65.9375 53.2875C65.9361 52.6931 66.074 52.1064 66.3406 51.573C66.6073 51.0397 66.9954 50.574 67.4748 50.2123C67.9542 49.8506 68.512 49.6026 69.1047 49.4876C69.6974 49.3727 70.3091 49.3938 70.8922 49.5494C71.4753 49.705 72.014 49.9909 72.4664 50.3848C72.9189 50.7787 73.2729 51.27 73.5008 51.8204C73.7287 52.3709 73.8245 52.9657 73.7807 53.5585C73.7368 54.1513 73.5545 54.7262 73.248 55.2384V55.2548C73.0976 55.5042 72.9082 55.6823 72.716 55.9453L70.4324 58.91C70.3662 58.9963 70.2806 59.0662 70.1822 59.1144C70.0839 59.1626 69.9755 59.1877 69.8657 59.1877C69.7558 59.1877 69.6475 59.1626 69.5491 59.1144C69.4508 59.0662 69.3651 58.9963 69.2989 58.91L67.0515 55.9919C66.8518 55.7549 66.6658 55.507 66.4945 55.2494C66.1326 54.6568 65.9401 53.9789 65.9375 53.2875ZM69.8643 54.9699C70.2063 54.9699 70.5407 54.8701 70.8251 54.6831C71.1095 54.4962 71.3312 54.2304 71.4621 53.9195C71.593 53.6086 71.6272 53.2665 71.5605 52.9364C71.4938 52.6063 71.329 52.3031 71.0872 52.0652C70.8453 51.8272 70.5372 51.6652 70.2017 51.5995C69.8662 51.5338 69.5185 51.5675 69.2025 51.6963C68.8864 51.8251 68.6163 52.0432 68.4263 52.323C68.2363 52.6028 68.1349 52.9318 68.1349 53.2683C68.1349 53.492 68.1797 53.7135 68.2668 53.9201C68.3538 54.1267 68.4815 54.3144 68.6424 54.4725C68.8033 54.6305 68.9942 54.7558 69.2044 54.8412C69.4145 54.9265 69.6397 54.9702 69.8671 54.9699H69.8643Z" fill="#0956A3"/>
<path d="M82.2409 86.7539C82.2396 86.3461 82.3339 85.9435 82.5166 85.5774C82.6993 85.2114 82.9654 84.8918 83.2942 84.6435C83.623 84.3952 84.0056 84.2249 84.4123 84.146C84.8189 84.067 85.2386 84.0814 85.6386 84.1881C86.0386 84.2948 86.4082 84.4909 86.7186 84.7611C87.029 85.0314 87.2718 85.3685 87.4281 85.7462C87.5844 86.1239 87.65 86.5319 87.6198 86.9386C87.5895 87.3453 87.4643 87.7397 87.2538 88.091C87.1507 88.2609 87.0198 88.3842 86.889 88.5623L85.3266 90.6008C85.2811 90.6593 85.2225 90.7068 85.1554 90.7394C85.0883 90.772 85.0144 90.789 84.9395 90.789C84.8646 90.789 84.7908 90.772 84.7236 90.7394C84.6565 90.7068 84.5979 90.6593 84.5524 90.6008L83.0151 88.5979C82.8752 88.4349 82.7441 88.2648 82.6225 88.0882C82.3766 87.6849 82.2448 87.2242 82.2409 86.7539ZM84.9339 87.9074C85.1687 87.9079 85.3984 87.8399 85.5938 87.712C85.7893 87.5841 85.9418 87.402 86.032 87.1888C86.1222 86.9755 86.1461 86.7407 86.1006 86.5141C86.0552 86.2875 85.9424 86.0793 85.7766 85.9158C85.6108 85.7523 85.3994 85.6408 85.1692 85.5956C84.939 85.5503 84.7003 85.5733 84.4834 85.6615C84.2664 85.7498 84.081 85.8994 83.9505 86.0914C83.82 86.2834 83.7504 86.5092 83.7503 86.7402C83.75 86.8933 83.7803 87.045 83.8396 87.1866C83.899 87.3282 83.9861 87.4569 84.096 87.5654C84.206 87.6738 84.3366 87.7598 84.4804 87.8185C84.6241 87.8772 84.7783 87.9074 84.9339 87.9074Z" fill="#0956A3"/>
<path d="M33.3908 38.6614C33.3937 38.0014 33.6468 37.3662 34.1007 36.8801C34.5545 36.3941 35.1764 36.0922 35.8446 36.0336C36.5128 35.975 37.1792 36.1639 37.7133 36.5632C38.2474 36.9626 38.6108 37.5437 38.7323 38.1929C38.8472 38.814 38.7306 39.4552 38.4036 39.9985C38.3006 40.1684 38.1697 40.2917 38.0388 40.4725L36.4765 42.5084C36.431 42.5669 36.3724 42.6143 36.3053 42.6469C36.2381 42.6796 36.1643 42.6965 36.0894 42.6965C36.0145 42.6965 35.9406 42.6796 35.8735 42.6469C35.8064 42.6143 35.7478 42.5669 35.7023 42.5084L34.165 40.5054C34.0251 40.3425 33.894 40.1724 33.7723 39.9958C33.5264 39.5924 33.3947 39.1317 33.3908 38.6614ZM36.0838 39.8149C36.3187 39.8155 36.5484 39.7474 36.744 39.6194C36.9395 39.4913 37.092 39.309 37.1821 39.0956C37.2723 38.8823 37.296 38.6473 37.2503 38.4207C37.2046 38.194 37.0916 37.9857 36.9255 37.8223C36.7594 37.6589 36.5477 37.5477 36.3173 37.5028C36.087 37.4578 35.8482 37.4811 35.6313 37.5698C35.4144 37.6585 35.2291 37.8086 35.099 38.0009C34.9688 38.1933 34.8997 38.4193 34.9002 38.6504C34.9002 38.9593 35.0249 39.2555 35.2469 39.4739C35.4688 39.6922 35.7699 39.8149 36.0838 39.8149Z" fill="#0956A3"/>
<path d="M90.7228 39.9218C90.722 39.1997 90.8904 38.4872 91.215 37.8396C91.5395 37.192 92.0115 36.6267 92.5941 36.1877C93.1768 35.7487 93.8545 35.4479 94.5746 35.3085C95.2947 35.169 96.0377 35.1949 96.746 35.3839C97.4543 35.573 98.1087 35.9202 98.6585 36.3985C99.2082 36.8769 99.6384 37.4735 99.9157 38.1421C100.193 38.8106 100.31 39.533 100.257 40.2532C100.205 40.9734 99.9839 41.672 99.6123 42.2946L99.5984 42.311C99.4173 42.6152 99.1862 42.8316 98.9551 43.1495L96.1841 46.7635C96.1035 46.868 95.9995 46.9527 95.8802 47.011C95.7609 47.0693 95.6294 47.0997 95.4962 47.0997C95.3629 47.0997 95.2315 47.0693 95.1122 47.011C94.9928 46.9527 94.8888 46.868 94.8083 46.7635L92.0819 43.2015C91.8335 42.9133 91.602 42.6114 91.3884 42.2973C90.9552 41.578 90.7254 40.7578 90.7228 39.9218ZM95.499 41.9658C95.9149 41.9658 96.3216 41.8444 96.6674 41.617C97.0132 41.3895 97.2827 41.0663 97.4418 40.6881C97.6009 40.31 97.6423 39.8939 97.561 39.4925C97.4796 39.0911 97.2791 38.7225 96.9848 38.4333C96.6904 38.1441 96.3155 37.9473 95.9075 37.8678C95.4994 37.7883 95.0766 37.8297 94.6924 37.9867C94.3082 38.1436 93.9801 38.4092 93.7494 38.7498C93.5187 39.0903 93.3958 39.4906 93.3964 39.8998C93.3971 40.448 93.6189 40.9735 94.0132 41.3609C94.4074 41.7482 94.9418 41.9658 95.499 41.9658Z" fill="#0956A3"/>
<path d="M116.345 114.962C116.345 114.962 122.616 107.879 124.978 100.794C127.34 93.708 126.215 94.53 126.215 94.53C126.215 94.53 123.029 101.405 120.609 104.728C118.188 108.052 113.88 112.932 113.88 112.932L116.345 114.962Z" fill="#455A64"/>
<path d="M115.111 95.626C115.153 95.5526 115.219 95.4959 115.299 95.4658C115.379 95.4356 115.467 95.4339 115.548 95.461C115.628 95.488 115.697 95.5421 115.742 95.6138C115.786 95.6855 115.803 95.7703 115.791 95.8534C115.409 98.344 114.585 104.183 114.619 107.97C114.66 112.902 114.619 114.792 114.619 114.792H112.015C112.015 114.792 112.477 104.621 113.065 101.52C113.474 99.3469 114.351 96.9329 115.111 95.626Z" fill="#455A64"/>
<path d="M113.693 113.965C112.601 111.533 111.878 108.956 111.549 106.317C111.335 104.506 111.716 102.057 112.287 98.7907C112.506 97.5962 112.616 96.3849 112.616 95.1711C112.612 95.0367 112.563 94.9073 112.477 94.8029C112.391 94.6985 112.272 94.625 112.139 94.5938C112.006 94.5626 111.866 94.5754 111.742 94.6302C111.617 94.6851 111.514 94.7789 111.449 94.8971C111.134 95.4451 110.226 97.333 109.995 98.5167C109.363 101.742 108.65 103.353 109.196 106.413C109.742 109.474 111.758 114.187 111.758 114.187L113.693 113.965Z" fill="#455A64"/>
<path d="M111.332 114.173C111.332 114.173 104.464 99.6511 103.988 97.4947C103.512 95.3383 101.894 90.3707 101.702 90.6447C101.51 90.9187 101.226 93.5491 102.465 96.5466C103.704 99.5442 108.987 114.603 108.987 114.603H111.332" fill="#455A64"/>
<path d="M114.446 113.524C114.513 113.485 114.577 113.441 114.638 113.392C114.76 113.302 114.944 113.173 115.17 112.992C115.626 112.639 116.267 112.102 117.016 111.389C118.95 109.512 120.625 107.394 121.998 105.087C123.367 102.787 124.507 100.362 125.401 97.8454C125.747 96.8809 125.997 96.0918 126.162 95.5438C126.245 95.2698 126.304 95.0561 126.346 94.9108C126.368 94.8372 126.386 94.7621 126.398 94.6862C126.365 94.756 126.337 94.8284 126.315 94.9026C126.265 95.0561 126.195 95.2643 126.106 95.5273C125.928 96.0753 125.66 96.8535 125.304 97.8125C124.384 100.313 123.236 102.725 121.873 105.021C120.503 107.316 118.847 109.433 116.944 111.323C116.208 112.041 115.579 112.589 115.133 112.967C114.913 113.156 114.735 113.291 114.618 113.389C114.556 113.429 114.499 113.474 114.446 113.524Z" fill="#263238"/>
<path d="M113.693 106.556C113.725 106.415 113.745 106.272 113.754 106.128C113.788 105.827 113.83 105.435 113.88 104.964C113.988 103.983 114.158 102.627 114.403 101.128C114.648 99.6291 114.916 98.3002 115.127 97.333C115.228 96.87 115.311 96.4836 115.378 96.1877C115.417 96.0488 115.442 95.9066 115.453 95.763C115.399 95.8966 115.355 96.034 115.322 96.174C115.244 96.448 115.141 96.8289 115.024 97.3111C114.788 98.2728 114.501 99.6127 114.258 101.103C114.016 102.594 113.86 103.958 113.777 104.939C113.735 105.432 113.71 105.833 113.696 106.109C113.681 106.258 113.68 106.407 113.693 106.556Z" fill="#263238"/>
<path d="M112.084 94.7684C112.05 94.8276 112.023 94.8901 112.003 94.9547L111.797 95.5027C111.705 95.7356 111.602 96.0233 111.502 96.3658C111.401 96.7083 111.268 97.0919 111.167 97.5303C111.114 97.7468 111.056 97.9742 110.997 98.2126C110.939 98.4509 110.9 98.703 110.847 98.9606C110.736 99.4757 110.666 100.035 110.569 100.621C110.421 101.899 110.366 103.185 110.404 104.471C110.459 105.758 110.606 107.04 110.847 108.307C110.972 108.888 111.084 109.441 111.231 109.951C111.304 110.203 111.362 110.452 111.438 110.685C111.513 110.918 111.588 111.14 111.658 111.354C111.788 111.784 111.936 112.156 112.075 112.491C112.214 112.825 112.323 113.104 112.432 113.332L112.677 113.855C112.701 113.918 112.733 113.978 112.771 114.033C112.754 113.969 112.732 113.906 112.705 113.844L112.485 113.31C112.384 113.08 112.267 112.798 112.15 112.461C112.033 112.124 111.872 111.751 111.755 111.323L111.546 110.652C111.474 110.419 111.418 110.173 111.351 109.921C111.206 109.414 111.103 108.863 110.981 108.277C110.75 107.018 110.606 105.746 110.549 104.468C110.512 103.187 110.564 101.906 110.702 100.632C110.78 100.048 110.847 99.4894 110.953 98.988C111.003 98.7304 111.039 98.4783 111.095 98.2427L111.254 97.5604C111.348 97.122 111.471 96.7384 111.566 96.3959C111.66 96.0534 111.755 95.763 111.844 95.5246C111.933 95.2862 111.981 95.1164 112.025 94.9766C112.053 94.9097 112.072 94.8398 112.084 94.7684Z" fill="#263238"/>
<path d="M101.794 90.946C101.793 90.9679 101.793 90.9899 101.794 91.0118C101.794 91.0639 101.814 91.1241 101.825 91.2009C101.856 91.3653 101.895 91.6119 101.961 91.9242C102.095 92.5489 102.315 93.4477 102.658 94.5382C103 95.6287 103.471 96.9083 104.028 98.3139C104.585 99.7195 105.225 101.251 105.835 102.881C106.445 104.512 106.93 106.101 107.378 107.539C107.827 108.978 108.244 110.279 108.654 111.348C108.968 112.195 109.329 113.024 109.737 113.831C109.876 114.118 110.015 114.332 110.085 114.48L110.183 114.647C110.193 114.666 110.205 114.685 110.219 114.702C110.219 114.702 110.219 114.68 110.194 114.639L110.113 114.466C110.038 114.316 109.921 114.096 109.787 113.806C109.509 113.23 109.138 112.384 108.748 111.312C108.358 110.241 107.946 108.945 107.509 107.501C107.072 106.057 106.593 104.462 105.972 102.829C105.351 101.196 104.713 99.6647 104.153 98.2618C103.593 96.859 103.112 95.5876 102.761 94.5053C102.41 93.423 102.17 92.527 102.02 91.9078C101.945 91.5982 101.897 91.3598 101.858 91.1926C101.839 91.1187 101.825 91.0556 101.814 91.0063C101.811 90.9854 101.804 90.965 101.794 90.946Z" fill="#263238"/>
<path d="M122.976 87.7375C123.071 87.6491 123.193 87.5941 123.324 87.5811C123.454 87.5681 123.585 87.5979 123.696 87.6657C123.807 87.7336 123.892 87.8357 123.939 87.9563C123.985 88.0768 123.989 88.2089 123.951 88.3321C123.716 89.082 123.428 89.8145 123.087 90.5241C122.143 92.4969 119.37 99.5825 118.075 103.473C116.78 107.364 114.953 114.614 114.953 114.614L112.168 114.173C112.168 114.173 114.705 102.246 117.181 97.9495C119.177 94.4971 121.169 89.5048 122.976 87.7375Z" fill="#455A64"/>
<path d="M117.311 105.898C117.253 106.003 117.206 106.113 117.169 106.227C117.085 106.441 116.974 106.753 116.848 107.142C116.592 107.92 116.291 109.008 115.965 110.214C115.64 111.419 115.389 112.521 115.208 113.318L114.999 114.263C114.972 114.379 114.956 114.496 114.952 114.614C115.003 114.506 115.041 114.393 115.066 114.277C115.133 114.028 115.219 113.715 115.319 113.343C115.531 112.521 115.809 111.444 116.119 110.249C116.428 109.055 116.728 107.956 116.954 107.172L117.233 106.243C117.272 106.132 117.298 106.016 117.311 105.898Z" fill="#263238"/>
<path d="M113.561 114.395C113.57 114.371 113.575 114.346 113.577 114.321C113.577 114.263 113.597 114.192 113.608 114.107C113.639 113.918 113.664 113.636 113.722 113.285C113.822 112.567 114.001 111.537 114.304 110.271C114.658 108.797 115.091 107.341 115.602 105.912C116.159 104.295 116.883 102.55 117.691 100.742C119.323 97.1302 120.952 93.9299 122.024 91.5598C122.564 90.3789 122.985 89.4144 123.261 88.7431C123.4 88.4088 123.5 88.1458 123.572 87.9677L123.648 87.7649C123.658 87.7422 123.666 87.7182 123.67 87.6937C123.67 87.6937 123.67 87.7129 123.634 87.7594L123.545 87.9567L123.208 88.7212C122.904 89.387 122.472 90.3432 121.915 91.516C120.821 93.8724 119.178 97.0645 117.543 100.681C116.733 102.492 116.023 104.243 115.46 105.865C114.953 107.302 114.528 108.766 114.187 110.249C113.958 111.245 113.78 112.251 113.653 113.263C113.602 113.622 113.586 113.904 113.566 114.085C113.566 114.176 113.566 114.247 113.547 114.302C113.546 114.333 113.551 114.365 113.561 114.395Z" fill="#263238"/>
<path d="M112.168 114.173C112.209 114.022 112.24 113.868 112.259 113.713C112.315 113.395 112.388 112.97 112.477 112.46C112.666 111.403 112.958 109.948 113.379 108.35C113.8 106.753 114.262 105.356 114.621 104.342L115.056 103.142C115.116 102.998 115.165 102.849 115.203 102.698C115.124 102.833 115.057 102.976 115.003 103.123C114.883 103.397 114.724 103.802 114.524 104.306C114.023 105.619 113.593 106.957 113.237 108.315C112.879 109.67 112.591 111.041 112.374 112.425C112.296 112.956 112.234 113.387 112.204 113.688C112.177 113.848 112.165 114.011 112.168 114.173Z" fill="#263238"/>
<path d="M106.481 113.781H117.303V126.755H106.481V113.781Z" fill="#0956A3"/>
<g opacity="0.3">
<path opacity="0.3" d="M106.481 113.781H117.303V126.755H106.481V113.781Z" fill="black"/>
</g>
<path d="M109.931 113.781H119.533V126.755H109.931V113.781Z" fill="#0956A3"/>
<path d="M68.2241 86.4498C68.2241 86.4498 68.2241 96.0836 68.3466 96.6261C68.4691 97.1686 68.756 100.057 68.0403 101.396C67.3245 102.736 65.6229 105.452 64.1414 105.83C62.6598 106.208 61.8215 105.83 61.8215 105.83C61.8215 105.83 60.9109 99.5552 61.2088 97.755C61.5068 95.9548 62.1836 92.0257 62.1836 92.0257L66.7731 86.9019L68.2241 86.4498Z" fill="#FFBE9D"/>
<path d="M56.6875 73.2265L52.3625 71.9195L44.1832 71.3824L39.2344 72.3058L44.6093 80.7807L52.3625 80.2053L56.6875 73.2265Z" fill="#FFBE9D"/>
<path d="M39.5658 55.7371C39.52 57.7746 39.9132 59.7986 40.7196 61.6759C41.526 63.5531 42.7273 65.241 44.2445 66.6286C44.9426 64.643 45.6397 62.6556 46.3359 60.6664" fill="#263238"/>
<path d="M55.3359 43.8784C53.5396 42.9139 51.3701 42.7824 49.365 43.1714C47.3599 43.5605 45.4884 44.4593 43.7172 45.4676C42.7258 46.032 41.7343 46.654 41.0186 47.539C39.7153 49.1529 38.4286 51.8025 38.3005 53.8602C38.2003 55.5234 38.8575 59.6882 39.5621 61.2007C40.2193 62.5871 43.2883 63.642 44.8033 63.9845L58.6973 48.0761C58.4477 47.1921 58.022 46.3658 57.4449 45.6452C56.8679 44.9245 56.151 44.324 55.3359 43.8784Z" fill="#263238"/>
<path d="M57.7323 46.032L54.3904 45.4457C56.2117 49.7146 56.7046 59.4745 57.749 63.99C58.9771 62.2364 61.8289 56.8961 61.6757 54.7699C61.5225 52.6437 61.6924 45.6621 57.7323 46.032Z" fill="#263238"/>
<path d="M41.9274 53.1314C41.9869 51.9341 42.435 50.7872 43.2059 49.8591C43.9769 48.9309 45.03 48.2704 46.2106 47.9747L53.8859 46.0567C57.2027 45.706 59.4195 49.7201 59.6367 52.9971C59.8762 56.6358 60.0266 60.4746 59.595 63.1927C58.7261 68.6535 54.4735 69.3604 54.4735 69.3604C54.4735 69.3604 54.4735 71.9579 54.4735 73.5526L47.617 78.8983L43.629 72.7635L41.9135 53.2081C41.9079 53.104 41.9191 53.2547 41.9274 53.1314Z" fill="#FFBE9D"/>
<path d="M57.9687 57.1099C57.971 57.2927 57.9007 57.4692 57.7727 57.6017C57.6448 57.7343 57.4693 57.8124 57.2836 57.8195C57.1931 57.8266 57.102 57.8158 57.0158 57.7879C56.9295 57.7599 56.8498 57.7152 56.7813 57.6565C56.7129 57.5978 56.657 57.5263 56.617 57.446C56.577 57.3658 56.5537 57.2785 56.5484 57.1893C56.5461 57.0065 56.6164 56.8301 56.7443 56.6975C56.8723 56.565 57.0478 56.4868 57.2335 56.4797C57.3241 56.4722 57.4153 56.4827 57.5017 56.5106C57.5881 56.5384 57.668 56.5831 57.7365 56.6418C57.8051 56.7006 57.861 56.7723 57.9008 56.8527C57.9407 56.9331 57.9638 57.0206 57.9687 57.1099Z" fill="#263238"/>
<path d="M58.8058 55.1233C58.7167 55.2165 58.1765 54.8247 57.4134 54.8274C56.6503 54.8301 56.0878 55.211 56.0042 55.1178C55.9625 55.0767 56.0516 54.9123 56.2967 54.737C56.6273 54.5099 57.0213 54.3893 57.4245 54.3917C57.824 54.3883 58.2142 54.5102 58.5385 54.7397C58.7669 54.9178 58.8476 55.074 58.8058 55.1233Z" fill="#263238"/>
<path d="M51.291 57.1099C51.2927 57.2897 51.2239 57.4632 51.0989 57.5944C50.9739 57.7255 50.8023 57.8042 50.6198 57.8141C50.5292 57.8215 50.438 57.811 50.3516 57.7832C50.2652 57.7553 50.1853 57.7107 50.1168 57.6519C50.0482 57.5932 49.9923 57.5215 49.9524 57.4411C49.9126 57.3607 49.8895 57.2732 49.8846 57.1839C49.8815 57.0013 49.9512 56.8249 50.0787 56.6922C50.2063 56.5596 50.3815 56.4813 50.5669 56.4742C50.6571 56.4683 50.7475 56.4801 50.833 56.509C50.9185 56.5379 50.9972 56.5832 51.0646 56.6424C51.132 56.7016 51.1868 56.7735 51.2257 56.8537C51.2645 56.934 51.2867 57.0211 51.291 57.1099Z" fill="#263238"/>
<path d="M51.5305 55.1234C51.4413 55.2165 50.9011 54.8247 50.138 54.8274C49.3749 54.8302 48.8096 55.211 48.7288 55.1179C48.6871 55.0768 48.7762 54.9124 49.0213 54.737C49.3519 54.5099 49.7459 54.3893 50.1491 54.3918C50.5486 54.3887 50.9386 54.5106 51.2631 54.7398C51.4915 54.9179 51.5722 55.074 51.5305 55.1234Z" fill="#263238"/>
<path d="M53.9231 61.0444C53.9231 61.0006 54.3965 60.9184 55.1679 60.8198C55.3629 60.8006 55.5495 60.7595 55.5801 60.6307C55.5971 60.4311 55.5514 60.2312 55.4492 60.058L54.8672 58.5949C54.0596 56.5097 53.4747 54.7972 53.5583 54.7589C53.6418 54.7205 54.3687 56.4029 55.1763 58.4771L55.7333 59.9512C55.8549 60.1831 55.8913 60.4493 55.8363 60.7047C55.8069 60.7714 55.7626 60.8306 55.7067 60.8781C55.6507 60.9255 55.5846 60.9599 55.5133 60.9787C55.4054 61.0084 55.2939 61.0241 55.1819 61.0253C54.4077 61.0828 53.9259 61.0855 53.9231 61.0444Z" fill="#263238"/>
<path d="M47.1102 67.404C47.1102 67.404 48.9176 71.1551 54.4707 70.6317V69.3494C51.8815 69.3838 49.3333 68.7104 47.1102 67.404Z" fill="#EB996E"/>
<path d="M51.2888 52.3998C51.2136 52.6053 50.4533 52.5094 49.551 52.619C48.6487 52.7286 47.9274 52.9697 47.8076 52.7861C47.7519 52.6984 47.88 52.5121 48.1725 52.3066C48.5612 52.0592 49.0041 51.9061 49.4647 51.86C49.9236 51.8028 50.3898 51.8554 50.8237 52.0135C51.1551 52.1422 51.3222 52.3039 51.2888 52.3998Z" fill="#263238"/>
<path d="M58.5549 52.819C58.4212 52.9916 57.892 52.819 57.2571 52.819C56.6221 52.819 56.0846 52.9368 55.9621 52.7559C55.9064 52.671 55.9927 52.4984 56.2267 52.3367C56.5412 52.1409 56.9079 52.0417 57.2799 52.052C57.652 52.0622 58.0125 52.1814 58.3154 52.3943C58.5409 52.5587 58.6133 52.734 58.5549 52.819Z" fill="#263238"/>
<path d="M58.1392 47.9966C57.7994 47.1746 56.8832 46.6814 55.9837 46.6266C55.0767 46.6252 54.1883 46.88 53.4243 47.361C50.1186 49.2406 48.4115 53.7808 45.1531 55.7262C44.3483 56.2057 43.304 55.7673 42.6216 56.4002C41.9393 57.0332 41.4938 58.0442 41.8725 58.8909C41.4045 58.3194 41.0228 57.6845 40.739 57.0058C40.5989 56.665 40.5346 56.2987 40.5504 55.9315C40.5663 55.5642 40.6619 55.2046 40.8309 54.8768C41.1094 54.3945 41.6135 54.0274 41.75 53.4876C41.8697 53.0136 41.6803 52.5177 41.6998 52.0272C41.7561 51.5302 41.9307 51.0533 42.2095 50.6353C43.4878 48.4076 45.2478 46.3965 47.5147 45.1553C48.9932 44.3128 50.6774 43.8836 52.3856 43.914C54.1005 43.9539 55.7444 44.5964 57.0197 45.7252C57.7521 46.3937 58.5179 47.0952 58.1336 47.9966" fill="#263238"/>
<path d="M42.6895 57.0879C42.631 56.9317 39.7374 55.9042 39.6985 58.9319C39.6622 61.872 42.6783 61.2938 42.6839 61.2089C42.6895 61.1239 42.6895 57.0879 42.6895 57.0879Z" fill="#FFBE9D"/>
<path d="M41.7715 60.0855C41.7576 60.0855 41.7186 60.1211 41.6295 60.1594C41.5043 60.2085 41.3648 60.2085 41.2396 60.1594C40.9249 60.0416 40.6631 59.5457 40.6548 59.0169C40.6486 58.7638 40.7009 58.5127 40.8079 58.2825C40.8369 58.191 40.888 58.1078 40.9569 58.04C41.0258 57.9723 41.1104 57.922 41.2034 57.8935C41.2636 57.881 41.3263 57.8885 41.3817 57.9147C41.4371 57.941 41.4822 57.9846 41.5098 58.0387C41.5487 58.1209 41.5292 58.1784 41.5432 58.1839C41.5571 58.1894 41.61 58.1346 41.5849 58.014C41.5703 57.9406 41.5299 57.8747 41.4708 57.8277C41.391 57.7687 41.2916 57.7413 41.1923 57.751C41.0679 57.7723 40.9513 57.8249 40.8538 57.9036C40.7562 57.9824 40.6809 58.0846 40.6353 58.2003C40.5042 58.4548 40.4391 58.7372 40.4459 59.0223C40.4459 59.6142 40.7634 60.1731 41.1951 60.2992C41.275 60.3227 41.3593 60.3283 41.4417 60.3155C41.5241 60.3027 41.6026 60.2718 41.6713 60.2252C41.7632 60.1567 41.7799 60.0909 41.7715 60.0855Z" fill="#EB996E"/>
<path d="M41.4997 55.5754C41.5632 55.5486 41.6239 55.5155 41.6807 55.4768C41.7949 55.4055 41.9731 55.3096 42.182 55.1644C42.7702 54.7388 43.3115 54.254 43.7973 53.7177C44.502 52.9135 45.1602 52.071 45.769 51.1941C46.5057 50.1243 47.331 49.1162 48.2364 48.1801C48.7206 47.713 49.2547 47.2987 49.8294 46.9444C50.3691 46.6197 50.947 46.3612 51.5505 46.1745C52.5719 45.8514 53.6464 45.7221 54.7169 45.7936C55.4396 45.8361 56.1533 45.9734 56.839 46.2019C57.0841 46.2758 57.2651 46.3553 57.396 46.4046C57.4597 46.4326 57.5259 46.4546 57.5938 46.4704C57.5339 46.4357 57.4716 46.4055 57.4072 46.38C57.2267 46.2923 57.0407 46.2164 56.8502 46.1525C56.1646 45.9023 55.4463 45.7492 54.7169 45.6977C53.6331 45.6141 52.543 45.7359 51.5059 46.0566C50.8923 46.2434 50.3041 46.5028 49.7542 46.8293C49.1708 47.1895 48.6284 47.6102 48.1362 48.0842C47.2241 49.0279 46.3967 50.0473 45.6632 51.1311C45.0591 52.0083 44.4084 52.8534 43.7137 53.6629C43.2392 54.201 42.7122 54.692 42.1402 55.1288C41.9341 55.2822 41.7643 55.3836 41.6557 55.4631C41.6007 55.4963 41.5485 55.5339 41.4997 55.5754Z" fill="#455A64"/>
<path d="M41.429 60.6061C41.2822 60.5809 41.1311 60.6115 41.0064 60.6918C40.8817 60.772 40.7926 60.8959 40.7573 61.0383C40.7219 61.1807 40.7428 61.331 40.8158 61.4589C40.8888 61.5867 41.0084 61.6824 41.1505 61.7267C41.2942 61.776 41.4518 61.7686 41.59 61.7059C41.7283 61.6432 41.8364 61.5301 41.8916 61.3906C41.9468 61.251 41.9449 61.0958 41.8861 60.9577C41.8273 60.8195 41.7164 60.7092 41.5766 60.6499" fill="white"/>
<path d="M41.572 60.65C41.7041 60.7499 41.8014 60.8878 41.8505 61.0445C41.8721 61.1252 41.8727 61.2099 41.8523 61.2908C41.8319 61.3717 41.791 61.4463 41.7335 61.5076C41.6664 61.5846 41.5777 61.6404 41.4785 61.668C41.3793 61.6955 41.2741 61.6937 41.1759 61.6627C41.0778 61.6317 40.9911 61.5729 40.9268 61.4936C40.8625 61.4143 40.8234 61.3182 40.8145 61.2171C40.8042 61.1351 40.8149 61.0518 40.8455 60.9748C40.8762 60.8978 40.9258 60.8295 40.9899 60.776C41.1203 60.6755 41.2786 60.6163 41.4439 60.6061C41.4439 60.6061 41.3965 60.576 41.3018 60.5732C41.2167 60.5745 41.1327 60.5929 41.0551 60.6273C40.9775 60.6616 40.9078 60.7113 40.8504 60.7731C40.793 60.835 40.7491 60.9078 40.7214 60.9869C40.6936 61.0661 40.6827 61.1501 40.6891 61.2336C40.6983 61.3599 40.7458 61.4806 40.8255 61.58C40.9051 61.6795 41.0133 61.7532 41.1359 61.7915C41.2586 61.8299 41.3901 61.8312 41.5135 61.7952C41.6369 61.7592 41.7466 61.6877 41.8282 61.5898C41.8959 61.5127 41.9422 61.4198 41.9627 61.3199C41.9832 61.2201 41.9772 61.1167 41.9452 61.0199C41.9054 60.8927 41.8254 60.7813 41.7168 60.702C41.6249 60.65 41.5748 60.6417 41.572 60.65Z" fill="#263238"/>
<path d="M42.2523 56.4084C42.205 57.2112 42.1688 58.0524 42.5448 58.773C42.9207 59.4936 43.8759 59.9731 44.5833 59.5731C45.1626 59.2497 45.338 58.5182 45.4355 57.8688C45.714 55.9974 45.8477 54.1013 46.1484 52.2299L42.2523 56.4084Z" fill="#263238"/>
<path d="M57.3926 46.5992C57.3926 46.6156 57.128 46.5499 56.649 46.5334C55.9725 46.5227 55.3005 46.6438 54.6717 46.8896C54.2374 47.0555 53.822 47.2658 53.4324 47.5171C52.9868 47.813 52.5591 48.1341 52.1514 48.4788C51.2112 49.2623 50.3697 50.1536 49.6449 51.1339C49.2634 51.6572 48.9264 52.197 48.5644 52.6984C48.2192 53.1849 47.8162 53.6292 47.3641 54.0218C46.5906 54.6709 45.7429 55.229 44.8381 55.685C44.0723 56.0851 43.4457 56.3618 42.9917 56.5563L42.4821 56.7701C42.4235 56.798 42.3619 56.8192 42.2983 56.8331C42.3505 56.7948 42.4076 56.7634 42.4682 56.7399L42.9639 56.4961C43.3983 56.2878 44.0277 55.9919 44.7825 55.5836C45.6678 55.1154 46.4988 54.5541 47.261 53.9095C47.7008 53.5204 48.0924 53.0817 48.4279 52.6025C48.7872 52.1093 49.1241 51.5695 49.5057 51.038C50.2376 50.0457 51.0916 49.1466 52.0483 48.361C52.4615 48.0155 52.8959 47.6952 53.3489 47.402C53.7494 47.149 54.1772 46.9404 54.6244 46.78C55.2688 46.5386 55.9577 46.4331 56.6462 46.4704C56.8336 46.4801 57.0199 46.5049 57.2032 46.5444C57.2684 46.555 57.3319 46.5734 57.3926 46.5992Z" fill="#455A64"/>
<path d="M42.1699 54.5918C42.0845 54.661 41.991 54.7198 41.8914 54.7672L41.1339 55.2056L40.8777 55.3481C40.7782 55.4063 40.6671 55.4428 40.5519 55.4549C40.4808 55.4618 40.4093 55.4454 40.3486 55.4083C40.3172 55.3854 40.291 55.3563 40.2718 55.3227C40.2526 55.2892 40.2408 55.2521 40.2372 55.2138C40.2446 55.0782 40.2942 54.9481 40.3792 54.8412C40.6577 54.4165 40.9362 53.9507 41.2565 53.4575L41.3762 53.5671C40.7905 53.9918 40.0725 54.2021 39.346 54.1616C39.2512 54.1612 39.1572 54.1455 39.0675 54.1151C39.0167 54.1008 38.9697 54.0757 38.9297 54.0416C38.8898 54.0075 38.858 53.9653 38.8364 53.9178C38.8191 53.8678 38.8146 53.8144 38.8234 53.7623C38.8321 53.7102 38.8538 53.661 38.8865 53.6191C38.9375 53.5531 38.9943 53.4916 39.0564 53.4355C39.4505 53.0599 39.7932 52.6353 40.0757 52.1724C40.3237 51.7361 40.5396 51.2828 40.7218 50.8161C40.709 50.9522 40.6771 51.0859 40.6271 51.2134C40.5119 51.5659 40.3618 51.9064 40.1787 52.2299C39.9043 52.7124 39.5632 53.155 39.165 53.5451C39.0536 53.6493 38.9422 53.7671 38.9868 53.8602C39.0313 53.9534 39.1901 54 39.3488 54C40.0369 54.0327 40.7157 53.8336 41.2732 53.4355L41.6297 53.178L41.3901 53.5451L40.4934 54.9151C40.4265 54.9932 40.3831 55.0881 40.3681 55.1891C40.3696 55.2088 40.3754 55.2279 40.3851 55.2452C40.3948 55.2624 40.4082 55.2774 40.4243 55.2891C40.4404 55.3008 40.4589 55.309 40.4785 55.313C40.4982 55.317 40.5184 55.3168 40.538 55.3124C40.73 55.2763 40.9128 55.2027 41.0755 55.096L41.858 54.7014C41.9568 54.6519 42.0616 54.6151 42.1699 54.5918Z" fill="#455A64"/>
<path d="M51.0108 62.4337C51.067 62.2099 51.2012 62.0125 51.3899 61.8758C51.5786 61.7392 51.8101 61.6719 52.044 61.6857C52.2145 61.7077 52.377 61.7704 52.5173 61.8683C52.6575 61.9662 52.7714 62.0963 52.8488 62.2474C52.9221 62.4003 52.9637 62.5659 52.9714 62.7348C52.979 62.9037 52.9525 63.0723 52.8934 63.231L52.8767 63.3023C52.7179 63.4722 52.5095 63.5897 52.2802 63.6388C52.0509 63.6878 51.8119 63.666 51.5956 63.5763C51.3838 63.4759 51.2116 63.3094 51.1058 63.1028C51 62.8962 50.9666 62.6609 51.0108 62.4337Z" fill="#EB996E"/>
<path d="M53.4335 63.3186C53.4335 63.2036 52.6593 63.2392 52.0744 62.6145C51.4896 61.9897 51.5369 61.1732 51.4283 61.1732C51.3782 61.1732 51.2863 61.3623 51.2947 61.7048C51.3107 62.1515 51.4862 62.5783 51.7904 62.9104C52.0815 63.2325 52.4895 63.4293 52.9266 63.4584C53.2525 63.4639 53.439 63.3707 53.4335 63.3186Z" fill="#263238"/>
<path d="M62.177 104.235L61.815 106.309L62.1547 107.438C62.1547 107.438 65.6554 111.822 66.7777 115.05C67.9 118.278 67.9863 126.78 67.9863 126.78L28.1063 126.755C28.1063 126.755 29.4988 114.126 34.5116 110.151V109.244L33.2723 107.438C33.2723 107.438 32.8546 106.041 34.6648 106.249C35.3833 106.331 62.177 104.235 62.177 104.235Z" fill="#455A64"/>
<path d="M34.2897 108.937H34.5682L35.3786 108.918C36.0804 108.901 37.0969 108.888 38.3557 108.896C39.6145 108.904 41.11 108.931 42.7726 108.964C44.4352 108.997 46.2621 109.03 48.1837 109C49.9902 108.976 51.7943 108.862 53.5892 108.66C55.0551 108.494 56.5082 108.233 57.9392 107.879C58.9039 107.643 59.8534 107.35 60.7826 107.002C61.114 106.885 61.3619 106.77 61.5346 106.701L61.7267 106.616C61.7713 106.597 61.7936 106.586 61.7908 106.583L61.7212 106.602L61.5234 106.674C61.348 106.734 61.0973 106.841 60.7632 106.948C59.8286 107.27 58.8776 107.544 57.9142 107.77C56.4843 108.107 55.0342 108.356 53.5725 108.515C51.9238 108.704 50.0997 108.808 48.1809 108.844C46.2621 108.879 44.438 108.844 42.7754 108.819C41.1128 108.794 39.6145 108.773 38.3557 108.781C37.0969 108.789 36.0776 108.814 35.3758 108.849C35.0249 108.863 34.752 108.882 34.5682 108.896L34.3566 108.912C34.312 108.929 34.2869 108.934 34.2897 108.937Z" fill="#263238"/>
<path d="M34.2889 110.756C34.3119 110.761 34.3355 110.761 34.3585 110.756H34.5702L35.3806 110.737C36.0824 110.721 37.0989 110.707 38.3577 110.715C39.6164 110.723 41.1119 110.751 42.7745 110.784C44.4371 110.817 46.264 110.849 48.1856 110.819C50.1072 110.789 51.9369 110.674 53.5912 110.48C55.057 110.313 56.5102 110.053 57.9412 109.699C58.906 109.461 59.8555 109.168 60.7846 108.819C61.116 108.701 61.3639 108.589 61.5365 108.52L61.7287 108.436C61.7732 108.416 61.7955 108.405 61.7927 108.403L61.7231 108.422L61.5254 108.493C61.3499 108.553 61.0993 108.657 60.7651 108.767C59.8306 109.089 58.8796 109.364 57.9161 109.589C56.4862 109.927 55.0361 110.176 53.5744 110.334C51.9258 110.523 50.1017 110.628 48.1829 110.663C46.264 110.699 44.4399 110.663 42.7773 110.638C41.1147 110.614 39.6164 110.592 38.3577 110.6C37.0989 110.608 36.0796 110.633 35.3778 110.669C35.0269 110.682 34.754 110.702 34.5702 110.715L34.3585 110.732C34.3112 110.751 34.2861 110.754 34.2889 110.756Z" fill="#263238"/>
<path d="M60.4707 112.888C60.4485 112.694 60.3959 112.505 60.3147 112.326C60.1497 111.885 59.9388 111.462 59.6854 111.063C59.4348 110.663 59.1437 110.29 58.8165 109.948C58.6897 109.798 58.5404 109.668 58.3737 109.562C58.3402 109.592 58.9863 110.214 59.5628 111.137C60.1393 112.061 60.4289 112.888 60.4707 112.888Z" fill="#263238"/>
<path d="M59.0524 115.412C59.0699 115.336 59.0746 115.258 59.0663 115.181C59.0641 114.972 59.0501 114.762 59.0245 114.554C58.9395 113.866 58.7884 113.188 58.5734 112.529C58.3628 111.871 58.1002 111.229 57.788 110.611C57.6711 110.348 57.5265 110.099 57.3564 109.866C57.4532 110.134 57.5667 110.397 57.6961 110.652C57.9761 111.278 58.2224 111.919 58.4341 112.57C58.6461 113.223 58.809 113.891 58.9215 114.568C59.0078 115.08 59.0301 115.414 59.0524 115.412Z" fill="#263238"/>
<path d="M58.1086 105.49C58.067 105.614 58.0399 105.743 58.0278 105.874C57.9625 106.179 57.875 106.479 57.766 106.772C57.5182 107.463 57.1868 107.97 57.2091 107.992C57.5236 107.658 57.7561 107.258 57.8886 106.822C58.0044 106.521 58.0802 106.207 58.1141 105.887C58.146 105.756 58.1441 105.62 58.1086 105.49Z" fill="#263238"/>
<path d="M56.9277 106.312C56.7854 106.598 56.6859 106.902 56.6325 107.216C56.5315 107.519 56.478 107.835 56.4738 108.153C56.7187 107.566 56.8718 106.945 56.9277 106.312Z" fill="#263238"/>
<path d="M49.8006 106.038C49.7041 106.967 49.7041 107.904 49.8006 108.833C49.8972 107.904 49.8972 106.967 49.8006 106.038Z" fill="#263238"/>
<path d="M48.9109 106.753C48.7026 107.454 48.7221 108.201 48.9666 108.89C49.0084 108.89 48.9277 108.408 48.9137 107.822C48.8998 107.235 48.9499 106.759 48.9109 106.753Z" fill="#263238"/>
<path d="M46.5003 113.222C46.6031 112.827 46.6812 112.427 46.7342 112.022C46.8358 111.626 46.9102 111.223 46.957 110.817C46.769 111.186 46.6457 111.585 46.5922 111.995C46.49 112.396 46.4589 112.811 46.5003 113.222Z" fill="#263238"/>
<path d="M70.393 85.9018C70.471 85.6524 67.5412 77.4078 65.8035 76.1583C64.0657 74.9089 56.2206 73.1197 56.2206 73.1197C56.2206 73.1197 52.9176 76.3255 48.4896 75.6597C44.0616 74.9938 40.6612 71.9196 40.6612 71.9196C40.6612 71.9196 32.2814 72.9991 30.8583 73.9965C29.4352 74.9938 25.567 84.0331 25.567 84.0331L32.3956 89.6309L32.9999 94.6999C32.9999 94.6999 32.6824 105.257 33.3954 106.339C34.1083 107.422 62.0132 104.668 62.0132 104.668C62.0132 104.668 63.4363 104.419 62.3307 101.928C61.2251 99.4374 60.4314 97.7715 60.4314 97.7715C60.4314 97.7715 62.4086 95.6096 62.7261 91.7846C63.0436 87.9595 63.8206 87.5485 63.8206 87.5485L70.393 85.9018Z" fill="#0956A3"/>
<path d="M33.0362 94.5054C33.078 94.5054 32.6575 91.0639 32.0977 86.8334C31.5379 82.6028 31.0561 79.1614 31.0171 79.1751C30.9781 79.1888 31.4042 82.6138 31.9612 86.858C32.5182 91.1023 32.9972 94.5109 33.0362 94.5054Z" fill="#263238"/>
<path d="M62.9464 88.9514C62.9826 88.9651 63.5033 87.7321 64.1132 86.1949C64.7231 84.6578 65.1826 83.4029 65.1464 83.3892C65.1102 83.3755 64.5894 84.6085 63.9768 86.1429C63.3641 87.6773 62.9074 88.9377 62.9464 88.9514Z" fill="#263238"/>
<g opacity="0.3">
<path opacity="0.3" d="M54.099 93.3436C54.2253 92.6296 54.5275 91.957 54.979 91.3845C55.6335 90.6556 56.6695 90.346 57.6553 90.3515C58.6438 90.4034 59.6198 90.5925 60.5544 90.9132L62.334 93.6532C62.2759 93.8187 62.1807 93.9692 62.0553 94.0935C61.9299 94.2178 61.7777 94.3127 61.6099 94.3711C61.2747 94.4858 60.9232 94.5477 60.5684 94.5546C58.7266 94.6862 56.8849 94.762 55.0431 94.7821C54.8053 94.8063 54.5655 94.7625 54.3524 94.656C53.9626 94.3875 53.9904 93.8039 54.099 93.3436Z" fill="black"/>
</g>
<path d="M66.2598 80.7807C66.2005 80.8709 66.152 80.9674 66.115 81.0684C66.0286 81.2547 65.9117 81.5287 65.7724 81.8712C65.4939 82.5535 65.1207 83.5152 64.7448 84.5646C64.3688 85.6141 64.0569 86.595 63.848 87.3047C63.7422 87.6554 63.6587 87.9431 63.6085 88.1431C63.5727 88.244 63.5503 88.3489 63.5417 88.4555C63.592 88.3612 63.6321 88.262 63.6615 88.1595L63.9399 87.3375C64.1739 86.6388 64.4969 85.6744 64.8757 84.6167C65.2544 83.5591 65.6053 82.6028 65.8615 81.9123C65.9813 81.589 66.0815 81.315 66.1623 81.0903C66.2071 80.9913 66.2398 80.8873 66.2598 80.7807Z" fill="#263238"/>
<path d="M66.2737 81.652L63.1518 92.8558C63.0973 93.0392 62.9829 93.1997 62.8264 93.3127C62.6698 93.4256 62.4798 93.4846 62.2857 93.4806H55.5155C55.3852 93.4849 55.2555 93.4601 55.1364 93.4079C55.0172 93.3558 54.9117 93.2777 54.8277 93.1795C54.7438 93.0813 54.6836 92.9656 54.6517 92.8412C54.6199 92.7168 54.6172 92.5869 54.6438 92.4613L57.3814 81.2629C57.4314 81.074 57.5446 80.9073 57.7028 80.7895C57.8609 80.6717 58.0548 80.6097 58.2531 80.6135H65.4103C65.5422 80.6092 65.6733 80.6348 65.7934 80.6884C65.9136 80.742 66.0195 80.8222 66.1031 80.9226C66.1866 81.0231 66.2454 81.1412 66.275 81.2677C66.3046 81.3942 66.3041 81.5257 66.2737 81.652Z" fill="#263238"/>
<path d="M63.9237 83.7454C63.9237 83.7454 64.7313 83.3673 65.369 83.7454C66.0068 84.1235 67.04 85.7949 67.04 85.7949L67.6777 88.4527L67.2405 92.064L67.0678 93.7382L62.9462 94.1985V92.8586L58.2257 89.387C58.2257 89.387 56.5687 88.9349 56.6968 88.45C56.8249 87.965 57.0365 87.628 57.5044 87.7156C57.9723 87.8033 63.0297 89.0856 63.0297 89.0856C63.0297 89.0856 63.8373 89.2528 63.7956 89.0418C63.7538 88.8308 61.4145 87.7458 61.0329 87.4937C60.6514 87.2416 58.8635 86.8251 59.0835 86.0305C59.1101 85.8872 59.1693 85.7517 59.2567 85.6342C59.3441 85.5166 59.4575 85.4201 59.5883 85.3518C59.719 85.2835 59.8638 85.2453 60.0118 85.2399C60.1597 85.2346 60.307 85.2622 60.4425 85.3209L64.5252 86.784L65.2047 86.9512L65.1184 85.9045L64.3971 84.9428C64.3326 84.9629 64.2646 84.97 64.1972 84.9637C64.1298 84.9574 64.0644 84.9378 64.0049 84.9061C63.9454 84.8744 63.893 84.8312 63.8508 84.7791C63.8086 84.727 63.7775 84.6671 63.7593 84.603C63.7021 84.4593 63.6872 84.3026 63.7163 84.151C63.7453 83.9993 63.8172 83.8587 63.9237 83.7454Z" fill="#FFBE9D"/>
<path d="M64.4715 86.7648C64.7851 86.9416 65.1213 87.0761 65.4713 87.1649C65.8049 87.303 66.1564 87.3952 66.5156 87.4389C66.2013 87.2635 65.8653 87.1291 65.5158 87.0388C65.1817 86.9022 64.8304 86.8101 64.4715 86.7648Z" fill="#EB996E"/>
<path d="M63.5416 89.1788C63.8343 89.3376 64.1484 89.4547 64.4745 89.5268C64.7871 89.6443 65.1155 89.7163 65.4492 89.7405C64.8444 89.466 64.2015 89.2813 63.5416 89.1925V89.1788Z" fill="#EB996E"/>
<path d="M58.4841 89.4282C58.5565 89.4848 58.6361 89.5317 58.7209 89.5679C58.8796 89.6501 59.1107 89.7624 59.4032 89.894C60.1604 90.2306 60.9347 90.5287 61.723 90.7872C62.5116 91.0479 63.3138 91.2665 64.1264 91.4421C64.4383 91.5106 64.6834 91.5571 64.8699 91.5845C64.9612 91.6054 65.0547 91.6155 65.1484 91.6147C64.8228 91.5042 64.4908 91.4128 64.1542 91.3407C63.5388 91.1845 62.6921 90.9516 61.7731 90.6502C60.8541 90.3488 60.0353 90.0337 59.4449 89.7981C59.132 89.6571 58.8112 89.5336 58.4841 89.4282Z" fill="#EB996E"/>
<path d="M65.9593 91.3927C65.9732 91.4283 66.2378 91.2913 66.3213 90.9735C66.4049 90.6556 66.2656 90.4063 66.235 90.4255C66.2044 90.4447 66.2601 90.6666 66.1821 90.9296C66.1041 91.1927 65.937 91.3598 65.9593 91.3927Z" fill="#EB996E"/>
<path d="M66.7717 89.2802C66.7717 89.2966 66.8469 89.2802 66.9416 89.2336C67.06 89.1536 67.149 89.038 67.1951 88.9042C67.2413 88.7704 67.2422 88.6254 67.1978 88.491C67.1588 88.3896 67.1087 88.343 67.092 88.3513C67.0753 88.3595 67.1532 88.5951 67.0558 88.8582C66.9583 89.1212 66.7717 89.2418 66.7717 89.2802Z" fill="#EB996E"/>
<path d="M67.2441 86.6936C67.2418 86.7379 67.2465 86.7823 67.258 86.8251C67.2775 86.9265 67.3026 87.0471 67.3304 87.1978C67.4 87.543 67.4975 88.0198 67.6089 88.5842V88.5678C67.4279 89.8391 67.18 91.6804 66.9099 93.7464V93.7628V93.782C66.9628 93.9217 67.0213 94.0697 67.077 94.2204C67.6846 95.9107 67.9679 97.6973 67.9125 99.4894C67.897 100.032 67.8515 100.574 67.776 101.111C67.751 101.29 67.7315 101.435 67.7147 101.55C67.7032 101.601 67.6986 101.654 67.7008 101.706C67.7195 101.657 67.7335 101.607 67.7426 101.555C67.7649 101.457 67.8011 101.311 67.8345 101.12C67.9291 100.581 67.9896 100.038 68.0155 99.4921C68.1022 97.684 67.8298 95.8766 67.2135 94.1711C67.1578 94.0204 67.0993 93.8697 67.0464 93.7299V93.7655C67.3249 91.6968 67.5477 89.8556 67.698 88.5787L67.3666 87.2087C67.3276 87.0608 67.297 86.9347 67.2719 86.8416C67.2666 86.7916 67.2572 86.7421 67.2441 86.6936Z" fill="#EB996E"/>
<path d="M62.2658 92.4668C62.5333 92.7383 62.8547 92.9528 63.2099 93.097C63.5453 93.2821 63.9161 93.3968 64.2988 93.434C64.2988 93.3956 63.831 93.2367 63.274 92.9682C62.717 92.6997 62.2909 92.4311 62.2658 92.4668Z" fill="#EB996E"/>
<path d="M36.1387 98.1605C36.1387 98.1605 35.0609 98.4345 34.9551 99.125C34.8493 99.8155 35.7098 111.729 35.7098 111.729H34.685C34.685 111.729 34.2756 99.9278 34.2923 99.0839C34.309 98.24 34.7156 98.1852 34.8688 98.1249C35.2856 98.0067 35.7294 98.0192 36.1387 98.1605Z" fill="#263238"/>
<path d="M36.6813 98.1386L31.7492 98.3249L32.7323 92.4668L32.3953 89.6309L25.8591 84.2605C25.8591 84.2605 23.5727 97.3084 23.3666 98.8154C23.1215 100.624 23.478 103.021 24.3692 103.879C25.1294 104.608 30.6074 103.879 32.7239 103.879C33.8936 103.879 36.6896 103.898 36.6896 103.898L37.6699 99.399L36.6813 98.1386Z" fill="#FFBE9D"/>
<path d="M24.3691 98.3413C24.3886 98.366 24.7228 98.0673 25.3661 97.7933C26.1996 97.4227 27.1133 97.2608 28.0257 97.3221C28.5255 97.355 29.0179 97.4583 29.4878 97.6289C29.9195 97.7824 30.2927 97.9851 30.6241 98.1112C30.8852 98.2206 31.1609 98.2926 31.4428 98.3249C31.545 98.3438 31.6498 98.3438 31.752 98.3249C31.3762 98.2838 31.0096 98.1839 30.6658 98.029C30.3428 97.892 29.978 97.6837 29.5352 97.5166C29.0545 97.3338 28.5483 97.2239 28.0341 97.1906C27.0992 97.127 26.1637 97.3065 25.3216 97.7111C25.0696 97.8343 24.8291 97.9792 24.6031 98.1441C24.5175 98.2006 24.439 98.2668 24.3691 98.3413Z" fill="#EB996E"/>
<path d="M41.7671 108.942C41.9481 109.17 44.0312 126.826 44.0312 126.826L22.3841 126.755L25.8151 108.997L41.7671 108.942Z" fill="#0956A3"/>
<path d="M38.1774 126.78C38.2164 126.78 38.442 122.812 38.6787 117.913C38.9154 113.014 39.0742 109.052 39.0324 109.052C38.9906 109.052 38.7706 113.02 38.5339 117.919C38.2971 122.818 38.1384 126.777 38.1774 126.78Z" fill="#263238"/>
<path d="M46.9991 98.4345C46.4011 98.349 45.8095 98.2255 45.2279 98.0646C44.9553 97.9342 44.692 97.7859 44.4397 97.6207L41.6548 97.3988L36.6837 98.1386C36.6837 98.1386 35.8482 98.7304 35.968 100.547C36.0698 101.764 36.3357 102.962 36.7589 104.109C36.7589 104.109 38.9868 105.893 39.5828 106.002C40.1788 106.112 43.5764 105.926 43.9134 105.665C44.1125 105.517 44.2792 105.331 44.4035 105.117C44.585 105.026 44.7312 104.879 44.8197 104.699C44.9082 104.518 44.9342 104.314 44.8937 104.117C44.8937 104.117 46.0605 102.635 46.2109 102.005C46.3613 101.375 46.1747 101.227 46.1747 101.227C46.1747 101.227 46.5117 100.374 46.2499 100.079C46.184 100.006 46.104 99.9479 46.0147 99.9069C45.9253 99.8658 45.8284 99.8429 45.7299 99.8396C45.6313 99.8363 45.5331 99.8526 45.4411 99.8875C45.3491 99.9224 45.2652 99.9753 45.1944 100.043C44.9299 100.339 43.2728 100.117 43.2728 100.117L41.8052 99.1524C42.5604 99.3412 43.3281 99.4776 44.1027 99.5607C44.8909 99.5826 47.2636 100.103 46.9991 98.4345Z" fill="#FFBE9D"/>
<path d="M41.2383 101.928C41.2383 101.95 41.5418 102.002 42.0152 102.164C42.252 102.243 42.5332 102.347 42.8507 102.438C43.1995 102.553 43.5635 102.617 43.9313 102.629C44.308 102.641 44.6801 102.546 45.0035 102.355C45.259 102.196 45.4859 101.996 45.6746 101.764C45.801 101.61 45.9173 101.449 46.0227 101.281C46.0979 101.164 46.1341 101.095 46.1258 101.09C46.1174 101.084 45.928 101.331 45.5966 101.698C45.4069 101.913 45.1843 102.098 44.9366 102.246C44.6317 102.416 44.2845 102.5 43.934 102.487C43.1821 102.468 42.5416 102.186 42.0431 102.06C41.7846 101.97 41.5122 101.926 41.2383 101.928Z" fill="#EB996E"/>
<path d="M40.2236 100.624C40.2097 100.624 40.1568 100.657 40.1178 100.758C40.0704 100.89 40.0704 101.034 40.1178 101.166C40.1632 101.3 40.2549 101.413 40.3768 101.487C40.4714 101.542 40.5383 101.542 40.5466 101.525C40.555 101.509 40.3433 101.38 40.2542 101.12C40.1651 100.859 40.2598 100.64 40.2236 100.624Z" fill="#EB996E"/>
<path d="M40.335 103.865C40.5631 103.93 40.7973 103.971 41.034 103.989C41.4685 104.049 42.07 104.12 42.7329 104.189C43.0468 104.23 43.363 104.254 43.6797 104.26C43.943 104.265 44.2051 104.224 44.4539 104.139C44.6922 104.076 44.8984 103.929 45.0332 103.725C44.8475 103.863 44.6406 103.97 44.4205 104.043C44.18 104.111 43.9297 104.14 43.6797 104.128C43.4012 104.128 43.081 104.082 42.7496 104.049C42.084 103.978 41.4824 103.923 41.0452 103.89C40.8099 103.858 40.572 103.85 40.335 103.865Z" fill="#EB996E"/>
<path d="M39.0487 102.692C39.032 102.692 38.979 102.747 38.9428 102.871C38.8953 103.032 38.8953 103.203 38.9428 103.364C38.9894 103.525 39.0799 103.671 39.2046 103.786C39.3021 103.868 39.3801 103.893 39.3884 103.879C39.3968 103.865 39.174 103.66 39.0821 103.331C39.0447 103.12 39.0334 102.906 39.0487 102.692Z" fill="#EB996E"/>
<path d="M39.8487 105.358C40.0641 105.421 40.2871 105.454 40.5115 105.457C41.5887 105.542 42.6726 105.475 43.7309 105.26C43.9535 105.23 44.171 105.17 44.377 105.082C44.154 105.089 43.9322 105.115 43.7142 105.161C43.3076 105.221 42.745 105.29 42.1212 105.328C41.4974 105.367 40.9292 105.367 40.5171 105.358C40.2948 105.338 40.071 105.338 39.8487 105.358Z" fill="#EB996E"/>
<path d="M35.1367 98.0591C35.1367 98.0591 34.162 98.777 33.981 99.2127C33.8 99.6483 31.8533 108.94 31.8533 108.94H31.0178C31.0178 108.94 33.0035 98.8729 33.4881 98.4838C33.6622 98.3453 33.8486 98.2224 34.045 98.1167C34.2088 98.0315 34.3893 97.9818 34.5742 97.9709C34.7591 97.96 34.9443 97.9882 35.1172 98.0536L35.1367 98.0591Z" fill="#263238"/>
<path d="M54.1544 99.884C54.4317 99.9201 54.7126 99.9201 54.9899 99.884C56.3146 99.7617 57.5918 99.3357 58.7189 98.64C58.9585 98.506 59.1803 98.3431 59.3789 98.1551C59.365 98.1359 59.1004 98.3112 58.666 98.5524C58.0959 98.8708 57.4963 99.1351 56.8753 99.3415C56.2544 99.5463 55.6159 99.6949 54.9676 99.7854C54.4663 99.8456 54.1544 99.8621 54.1544 99.884Z" fill="#263238"/>
<g opacity="0.3">
<path opacity="0.3" d="M49.2727 99.736C49.7837 99.6922 50.2983 99.7115 50.8044 99.7935C53.4083 100.068 56.0957 100.068 58.4824 98.7551C58.1397 99.4595 57.5533 100.021 56.8282 100.339C56.0026 100.616 55.1357 100.756 54.2633 100.753C52.1686 100.837 50.0704 100.745 47.9916 100.479C48.136 100.269 48.3258 100.094 48.5474 99.9656C48.7689 99.8372 49.0166 99.7588 49.2727 99.736Z" fill="black"/>
</g>
</svg>
