<svg width="16" height="16" viewBox="0 0 16 16" xmlns="http://www.w3.org/2000/svg">
<path d="M6.45747 8.00338L12.443 2.01756C12.6078 1.85314 12.6985 1.6333 12.6985 1.39889C12.6985 1.16436 12.6078 0.94465 12.443 0.779967L11.9185 0.25574C11.754 0.0907967 11.534 0 11.2996 0C11.0652 0 10.8455 0.0907967 10.6808 0.25574L3.55405 7.38237C3.38872 7.54758 3.29818 7.76832 3.29883 8.00299C3.29818 8.2387 3.38859 8.45919 3.55405 8.62452L10.6742 15.7443C10.8389 15.9092 11.0586 16 11.2931 16C11.5275 16 11.7472 15.9092 11.912 15.7443L12.4364 15.22C12.7776 14.8788 12.7776 14.3234 12.4364 13.9823L6.45747 8.00338Z" fill="currentColor"/>
</svg>
