<svg width="12" height="11" viewBox="0 0 12 11" xmlns="http://www.w3.org/2000/svg">
<path d="M10.3425 2.89435C10.1147 3.00457 10.0194 3.27872 10.1296 3.50643C10.4307 4.12847 10.5833 4.79896 10.5833 5.5C10.5833 8.02721 8.52721 10.0833 6 10.0833C3.47279 10.0833 1.41667 8.02721 1.41667 5.5C1.41667 2.97279 3.47279 0.916667 6 0.916667C7.04725 0.916667 8.03106 1.25863 8.84534 1.90551C9.04284 2.06317 9.33165 2.03016 9.48931 1.83199C9.64697 1.63393 9.61396 1.34546 9.41568 1.18802C8.45168 0.421855 7.2386 0 6 0C2.96746 0 0.5 2.46746 0.5 5.5C0.5 8.53254 2.96746 11 6 11C9.03254 11 11.5 8.53254 11.5 5.5C11.5 4.65965 11.3165 3.85432 10.9546 3.10729C10.8446 2.87902 10.5696 2.78391 10.3425 2.89435Z" fill="currentColor"/>
<path d="M5.99935 1.83203C5.74635 1.83203 5.54102 2.03736 5.54102 2.29036V5.4987C5.54102 5.7517 5.74635 5.95703 5.99935 5.95703H8.29101C8.54402 5.95703 8.74935 5.7517 8.74935 5.4987C8.74935 5.2457 8.54402 5.04037 8.29101 5.04037H6.45768V2.29036C6.45768 2.03736 6.25235 1.83203 5.99935 1.83203Z" fill="currentColor"/>
</svg>
