<svg width="26" height="35" viewBox="0 0 26 35" xmlns="http://www.w3.org/2000/svg">
<path d="M15.1667 9.29688V0H1.625C0.724479 0 0 0.731445 0 1.64062V33.3594C0 34.2686 0.724479 35 1.625 35H24.375C25.2755 35 26 34.2686 26 33.3594V10.9375H16.7917C15.8979 10.9375 15.1667 10.1992 15.1667 9.29688ZM20.343 23.7453L13.8145 30.2873C13.3643 30.7392 12.6371 30.7392 12.1868 30.2873L5.65839 23.7453C4.97115 23.0569 5.45323 21.875 6.4201 21.875H10.8333V16.4062C10.8333 15.802 11.3181 15.3125 11.9167 15.3125H14.0833C14.6819 15.3125 15.1667 15.802 15.1667 16.4062V21.875H19.5799C20.5468 21.875 21.0289 23.0569 20.343 23.7453ZM25.526 7.17773L18.8974 0.478516C18.5927 0.170898 18.1797 0 17.7464 0H17.3333V8.75H26V8.33301C26 7.90234 25.8307 7.48535 25.526 7.17773Z" fill="currentColor"/>
</svg>
