<svg width="24" height="16" viewBox="0 0 24 16" xmlns="http://www.w3.org/2000/svg">
<path d="M9.54253 8.00338L3.55697 2.01756C3.39216 1.85314 3.30149 1.6333 3.30149 1.39889C3.30149 1.16436 3.39216 0.94465 3.55697 0.779967L4.08146 0.25574C4.24601 0.0907967 4.46598 0 4.70039 0C4.93479 0 5.1545 0.0907967 5.31918 0.25574L12.4459 7.38237C12.6113 7.54758 12.7018 7.76832 12.7012 8.00299C12.7018 8.2387 12.6114 8.45919 12.4459 8.62452L5.32582 15.7443C5.16114 15.9092 4.94143 16 4.70689 16C4.47249 16 4.25278 15.9092 4.08797 15.7443L3.56361 15.22C3.2224 14.8788 3.2224 14.3234 3.56361 13.9823L9.54253 8.00338Z" fill="currentColor"/>
<path d="M17.5425 8.00338L11.557 2.01756C11.3922 1.85314 11.3015 1.6333 11.3015 1.39889C11.3015 1.16436 11.3922 0.94465 11.557 0.779967L12.0815 0.25574C12.246 0.0907967 12.466 0 12.7004 0C12.9348 0 13.1545 0.0907967 13.3192 0.25574L20.4459 7.38237C20.6113 7.54758 20.7018 7.76832 20.7012 8.00299C20.7018 8.2387 20.6114 8.45919 20.4459 8.62452L13.3258 15.7443C13.1611 15.9092 12.9414 16 12.7069 16C12.4725 16 12.2528 15.9092 12.088 15.7443L11.5636 15.22C11.2224 14.8788 11.2224 14.3234 11.5636 13.9823L17.5425 8.00338Z" fill="currentColor"/>
</svg>
