<svg width="23" height="23" viewBox="0 0 23 23" fill="none" xmlns="http://www.w3.org/2000/svg">
<path d="M22.998 11.547C22.9983 11.5415 22.9985 11.5359 22.9987 11.5305C23.0141 11.0375 22.6284 10.6246 22.1356 10.6065C21.9104 10.5982 16.5884 10.4385 13.4783 13.5479C12.2905 14.7354 11.6926 16.0247 11.7011 17.38C11.7069 18.2849 11.9829 19.0249 12.223 19.5391C11.7084 20.1852 11.221 20.8735 10.7624 21.6038C10.4991 22.0232 10.6255 22.5766 11.0449 22.84C11.1931 22.9331 11.358 22.9774 11.521 22.9774C11.8192 22.9774 12.1108 22.8288 12.2812 22.5575C13.9331 19.9271 15.887 17.971 18.2542 16.5776C18.681 16.3264 18.8233 15.7768 18.5721 15.35C18.3208 14.9233 17.7713 14.781 17.3445 15.0321C15.9815 15.8344 14.7214 16.8288 13.5732 18.0059C13.5267 17.8073 13.4959 17.5935 13.4945 17.3686C13.4889 16.4986 13.8984 15.6637 14.7463 14.8161C16.6253 12.9375 19.6825 12.5138 21.1825 12.4216C21.0929 13.9189 20.6728 16.97 18.7858 18.8565C18.0999 19.5423 17.4 19.9503 16.7054 20.0695C16.2173 20.1532 15.8895 20.6168 15.9732 21.1048C16.0481 21.5416 16.4271 21.85 16.8559 21.85C16.9062 21.85 16.9572 21.8457 17.0085 21.837C18.0758 21.6539 19.1004 21.0778 20.0537 20.1248C22.9989 17.1804 23.012 12.2525 22.998 11.547Z" fill="currentColor"/>
<path d="M9.21649 15.9748C8.68272 16.013 8.1588 16.0652 7.64898 16.1303C7.35223 14.9808 7.1636 13.7114 7.10426 12.398H11.4325C11.8845 12.398 12.2573 12.0633 12.3191 11.6284C12.354 11.5327 12.374 11.4298 12.374 11.3221V7.05032C13.3803 7.02211 14.3628 6.94687 15.2971 6.82823C15.4839 7.53728 15.6305 8.29911 15.7278 9.09907C15.7876 9.59065 16.2345 9.94082 16.7262 9.8809C17.2178 9.8211 17.5678 9.37404 17.508 8.88251C17.4093 8.07158 17.2632 7.2849 17.0748 6.53803C17.9303 6.36499 18.7224 6.15166 19.4272 5.9019C19.9575 6.65038 20.3874 7.48261 20.6934 8.38271C20.8202 8.75596 21.1688 8.99099 21.5422 8.99099C21.638 8.99099 21.7353 8.97558 21.8309 8.94302C22.2998 8.78363 22.5506 8.27431 22.3912 7.80546C20.8089 3.15115 16.441 0.0240479 11.5222 0.0240479C11.5179 0.0240479 11.5137 0.0246318 11.5095 0.0246768C11.4988 0.0245869 11.4881 0.0240479 11.4774 0.0240479C8.41167 0.0240479 5.52943 1.21789 3.36164 3.38564C1.19389 5.55348 0 8.43567 0 11.5014C0 13.9647 0.768928 16.313 2.22377 18.2923C3.64878 20.2311 5.60423 21.6525 7.87871 22.403C7.96357 22.431 8.06119 22.4479 8.1646 22.4479C8.42631 22.4479 8.72486 22.3394 8.94579 22.0272C9.06371 21.8605 9.192 21.5769 9.32713 21.1843C9.4826 20.7326 9.64338 20.2654 9.31738 19.8437C8.89983 19.3035 8.53057 18.6328 8.21814 17.8676C8.58619 17.8258 8.96209 17.7908 9.34447 17.7635C9.83843 17.7282 10.2102 17.2991 10.1748 16.8052C10.1395 16.3111 9.71067 15.9393 9.21649 15.9748ZM18.1454 4.43282C17.647 4.57944 17.1092 4.7085 16.5395 4.81847C16.25 4.05004 15.9109 3.34988 15.529 2.74196C15.5117 2.71424 15.4939 2.68729 15.4763 2.66002C16.4593 3.0994 17.3615 3.69911 18.1454 4.43282ZM12.374 2.04329C13.2666 2.49264 14.0933 3.58712 14.718 5.09308C13.9656 5.17758 13.1795 5.23274 12.374 5.25632V2.04329ZM8.53853 4.42073C9.12839 3.24095 9.84234 2.42036 10.5807 2.04634V5.25628C9.77361 5.23265 8.98599 5.17735 8.23216 5.09258C8.3287 4.86083 8.43067 4.63636 8.53853 4.42073ZM10.5807 7.05032V10.6048H7.10336C7.16127 9.26771 7.34841 7.98874 7.65276 6.8276C8.58848 6.94655 9.57263 7.02207 10.5807 7.05032ZM7.45676 2.69187C7.27402 2.97923 7.09968 3.28834 6.9345 3.6187C6.74502 3.99761 6.57108 4.39859 6.41264 4.81793C5.86001 4.7112 5.33712 4.58663 4.85156 4.44535C5.61461 3.72849 6.49337 3.13327 7.45676 2.69187ZM3.56981 5.91672C4.26331 6.15984 5.03979 6.36791 5.87735 6.53745C5.55962 7.80191 5.36592 9.17764 5.3086 10.6047H1.83452C1.99453 8.86988 2.61396 7.26617 3.56981 5.91672ZM1.83443 12.398H5.30891C5.36637 13.8112 5.55872 15.1731 5.86927 16.4224C5.01854 16.5952 4.23213 16.8073 3.53589 17.0532C2.59078 15.7 1.99107 14.1032 1.83443 12.398ZM4.80444 18.5272C5.29759 18.3824 5.83221 18.254 6.39944 18.144C6.69974 18.9484 7.05556 19.6807 7.46175 20.3176C6.46727 19.8659 5.57314 19.2572 4.80444 18.5272Z" fill="currentColor"/>
</svg>
