<svg width="19" height="20" viewBox="0 0 19 20" xmlns="http://www.w3.org/2000/svg">
<path d="M17.2188 3.46875H1.78125C1.45283 3.46875 1.1875 3.73408 1.1875 4.0625V15.9375C1.1875 16.2659 1.45283 16.5312 1.78125 16.5312H17.2188C17.5472 16.5312 17.8125 16.2659 17.8125 15.9375V4.0625C17.8125 3.73408 17.5472 3.46875 17.2188 3.46875ZM16.4766 5.52461V15.1953H2.52344V5.52461L2.01133 5.12568L2.74053 4.18867L3.53467 4.80654H15.4672L16.2613 4.18867L16.9905 5.12568L16.4766 5.52461ZM15.4672 4.80469L9.5 9.44336L3.53281 4.80469L2.73867 4.18682L2.00947 5.12383L2.52158 5.52275L8.85986 10.4509C9.04214 10.5925 9.26639 10.6694 9.49722 10.6694C9.72804 10.6694 9.95229 10.5925 10.1346 10.4509L16.4766 5.52461L16.9887 5.12568L16.2595 4.18867L15.4672 4.80469Z" fill="currentColor"/>
</svg>
