<svg width="38" height="38" viewBox="0 0 38 38" xmlns="http://www.w3.org/2000/svg">
<path d="M34.0665 4.12202C33.9888 4.11887 33.9111 4.11834 33.8334 4.12053H30.9032V1.60243C30.9033 0.595194 29.9418 0 28.9346 0H26.2334C25.2262 0 24.4937 0.595194 24.4937 1.60243V4.12044H13.5057V1.60243C13.5057 0.595194 12.7732 0 11.766 0H9.06471C8.05756 0 7.09606 0.595194 7.09606 1.60243V4.12044H4.16601C2.2956 4.0683 0.737065 5.54235 0.684925 7.41268C0.682734 7.49032 0.68326 7.56814 0.686414 7.64578V34.1084C0.686414 36.1228 2.15144 37.9999 4.16592 37.9999H33.8335C35.8479 37.9999 37.313 36.1228 37.313 34.1084V7.64578C37.3895 5.77624 35.936 4.19861 34.0665 4.12202ZM26.2334 1.83133H29.072V6.86743H26.2334V1.83133ZM9.06479 1.83133H11.6745V6.86743H9.06479V1.83133ZM35.4816 34.1084C35.4816 35.1156 34.8407 36.1686 33.8335 36.1686H4.16601C3.15877 36.1686 2.51783 35.1156 2.51783 34.1084V14.6506H35.4816V34.1084ZM35.4816 7.64578V12.8193H2.51774V7.64578C2.44019 6.78962 3.0714 6.03265 3.92756 5.9551C4.00678 5.94791 4.08652 5.94686 4.16592 5.95186H7.09606V6.9591C7.09606 7.96634 8.05747 8.69885 9.06471 8.69885H11.766C12.7012 8.72453 13.48 7.9871 13.5057 7.0519C13.5066 7.02097 13.5066 6.99003 13.5057 6.9591V5.95177H24.4937V6.95901C24.468 7.89422 25.2054 8.67309 26.1406 8.69876C26.1716 8.69964 26.2025 8.69964 26.2334 8.69876H28.9347C29.9419 8.69876 30.9033 7.96625 30.9033 6.95901V5.95177H33.8335C34.6915 5.8977 35.4308 6.54942 35.4849 7.40742C35.4899 7.48681 35.4888 7.56656 35.4816 7.64578Z" fill="currentColor"/>
<path d="M13.9187 27.1497L13.0946 31.7281C13.062 31.9244 13.0942 32.1262 13.1865 32.3026C13.4209 32.7506 13.9742 32.9239 14.4223 32.6895L18.5427 30.5377L22.6632 32.6895L23.0752 32.781C23.2739 32.7845 23.4678 32.7199 23.6246 32.5979C23.8983 32.398 24.0391 32.0634 23.9909 31.728L23.1668 27.1496L26.509 23.9449C26.7481 23.6864 26.8349 23.3219 26.7379 22.9835C26.6146 22.6706 26.3368 22.445 26.0054 22.3883L21.427 21.7015L19.3668 17.5352C19.277 17.3498 19.1273 17.2 18.9419 17.1103C18.4867 16.8899 17.9391 17.0802 17.7186 17.5352L15.6584 21.7015L11.0801 22.3883C10.7487 22.4449 10.4709 22.6706 10.3476 22.9835C10.2506 23.3219 10.3374 23.6864 10.5765 23.9449L13.9187 27.1497ZM16.4368 23.4413C16.7243 23.3983 16.9679 23.2069 17.0777 22.9377L18.5427 20.0076L20.0078 22.9377C20.1177 23.2069 20.3612 23.3983 20.6487 23.4413L23.8993 23.8991L21.5644 26.1425C21.3469 26.3578 21.2449 26.6638 21.2896 26.9666L21.839 30.2172L18.9547 28.6606L18.5426 28.569L18.1306 28.6606L15.2463 30.2172L15.7957 26.9666C15.8405 26.6638 15.7384 26.3578 15.5209 26.1425L13.186 23.8991L16.4368 23.4413Z" fill="currentColor"/>
</svg>
