<svg width="16" height="15" viewBox="0 0 16 15" xmlns="http://www.w3.org/2000/svg">
<path d="M8.00098 12.7734C7.6943 12.7737 7.39401 12.6858 7.13584 12.5203C6.40342 12.0495 4.99482 11.0833 3.80332 9.9035C2.34111 8.45448 1.59961 7.08983 1.59961 5.84647C1.59961 4.9825 1.85508 4.1909 2.33848 3.5575C2.79688 2.95523 3.44441 2.52453 4.17706 2.33458C4.90971 2.14463 5.68494 2.20646 6.37822 2.51014C6.99873 2.77791 7.55215 3.22938 8.00098 3.8285C8.4498 3.22791 9.00322 2.77645 9.62373 2.51014C10.317 2.20646 11.0922 2.14463 11.8249 2.33458C12.5575 2.52453 13.2051 2.95523 13.6635 3.5575C14.1469 4.1909 14.4023 4.9825 14.4023 5.84647C14.4023 7.08983 13.6608 8.45389 12.1986 9.90233C11.0071 11.0821 9.59912 12.0483 8.86611 12.5191C8.60807 12.6851 8.30777 12.7733 8.00098 12.7734ZM5.01738 2.96073C4.78566 2.96052 4.55494 2.99106 4.33125 3.05155C3.76981 3.20568 3.27433 3.5395 2.92061 4.00194C2.53564 4.50643 2.33203 5.14451 2.33203 5.84764C2.33203 6.88827 3.00029 8.07772 4.31865 9.38319C5.46123 10.5158 6.82266 11.4486 7.53164 11.9027C7.67163 11.9921 7.83428 12.0397 8.00039 12.0397C8.1665 12.0397 8.32915 11.9921 8.46914 11.9027C9.17813 11.4474 10.5384 10.5146 11.6821 9.38319C13.0005 8.07772 13.6687 6.88827 13.6687 5.84764C13.6687 5.14451 13.4651 4.5076 13.0802 4.00194C12.7264 3.5395 12.231 3.20568 11.6695 3.05155C10.6685 2.77967 9.26191 3.06385 8.31562 4.67694C8.28337 4.73206 8.23724 4.77778 8.18184 4.80956C8.12643 4.84133 8.06367 4.85805 7.9998 4.85805C7.93594 4.85805 7.87318 4.84133 7.81777 4.80956C7.76237 4.77778 7.71624 4.73206 7.68398 4.67694C6.94043 3.40721 5.91035 2.96073 5.01738 2.96073Z" fill="currentColor"/>
</svg>
