<svg width="15" height="15" viewBox="0 0 15 15" xmlns="http://www.w3.org/2000/svg">
<path d="M12.5928 0.199219H2.25556C1.08845 0.199219 0.199219 1.08845 0.199219 2.25556V12.5928C0.199219 13.7599 1.08845 14.6492 2.25556 14.6492H12.5928C13.7599 14.6492 14.6492 13.7599 14.6492 12.5928V2.25556C14.6492 1.08845 13.7599 0.199219 12.5928 0.199219ZM7.4242 11.7592C9.814 11.7592 11.7592 9.86956 11.7592 7.59092C11.7592 7.20188 11.7036 6.75727 11.5925 6.42381H12.8151V12.3149C12.8151 12.5928 12.5928 12.8707 12.2594 12.8707H2.58902C2.31114 12.8707 2.03325 12.6484 2.03325 12.3149V6.36823H3.31152C3.20037 6.75727 3.14479 7.14631 3.14479 7.53534C3.08921 9.86957 5.0344 11.7592 7.4242 11.7592ZM7.4242 10.0919C5.86805 10.0919 4.64536 8.86918 4.64536 7.36861C4.64536 5.86804 5.86805 4.64535 7.4242 4.64535C8.98035 4.64535 10.203 5.86804 10.203 7.36861C10.203 8.92476 8.98035 10.0919 7.4242 10.0919ZM12.7596 4.14516C12.7596 4.47862 12.4817 4.75651 12.1482 4.75651H10.5921C10.2586 4.75651 9.98073 4.47862 9.98073 4.14516V2.64459C9.98073 2.31113 10.2586 2.03325 10.5921 2.03325H12.1482C12.4817 2.03325 12.7596 2.31113 12.7596 2.64459V4.14516Z" fill="currentColor"/>
</svg>
