<svg width="22" height="32" viewBox="0 0 22 32" xmlns="http://www.w3.org/2000/svg">
<path d="M11.0672 0.0078125H10.9328C8.66403 0.0460443 0 1.22358 0 11.4773C0 20.8671 10.3874 24.1627 10.3874 31.5108C10.3874 31.8014 10.6482 31.9543 10.9328 31.9925H11.0672C11.3597 31.9925 11.6126 31.8014 11.6126 31.5108C11.6126 24.1627 22 20.8671 22 11.4773C22 1.22358 13.336 0.0460443 11.0672 0.0078125Z" fill="currentColor"/>
<path d="M5.19366 13.3951C4.9761 12.7878 4.86651 12.1492 4.86955 11.5065C4.86987 10.1231 5.37904 8.785 6.30597 7.73151C7.2329 6.67803 8.51711 5.97791 9.92884 5.75643V6.88809L11.8498 4.93827L9.92884 2.99609V4.14305C8.78224 4.28358 7.68318 4.67249 6.71351 5.28083C5.74384 5.88917 4.92854 6.70126 4.32832 7.65662C3.72811 8.61199 3.35844 9.68601 3.24684 10.7987C3.13524 11.9114 3.2846 13.0342 3.68378 14.0833L4.21342 13.0128L5.19366 13.3951Z" fill="var(--color2)"/>
<path d="M18.5759 11.5091C18.5746 9.76695 17.9407 8.08054 16.7848 6.74445C15.6289 5.40836 14.0245 4.50751 12.2518 4.19922L12.9474 5.17031L12.1016 5.78966C12.963 5.95247 13.7772 6.29541 14.4873 6.79447C15.1974 7.29354 15.7861 7.93667 16.2123 8.67886C16.6385 9.42105 16.8919 10.2444 16.9547 11.0912C17.0175 11.938 16.8882 12.7879 16.5759 13.5813L15.564 13.0155L16.3545 15.5999L19.0581 14.9653L18.0304 14.3842C18.4105 13.4711 18.596 12.4932 18.5759 11.5091Z" fill="var(--color2)"/>
<path d="M15.4143 15.3379C14.8395 15.9787 14.1266 16.4899 13.3257 16.8358C12.5248 17.1816 11.6554 17.3537 10.7785 17.3398C9.90152 17.326 9.03835 17.1266 8.24958 16.7556C7.46081 16.3847 6.76556 15.8512 6.21268 15.1927L7.22454 14.6268L4.52098 13.9922L3.73047 16.5767L4.75814 15.9955C5.45373 16.8865 6.34849 17.6139 7.37556 18.1233C8.40263 18.6328 9.53545 18.9112 10.6894 18.9376C11.8433 18.9641 12.9885 18.738 14.0394 18.2762C15.0903 17.8144 16.0197 17.1289 16.7581 16.2708L15.5407 16.3626L15.4143 15.3379Z" fill="var(--color2)"/>
</svg>
