<svg width="22" height="32" viewBox="0 0 22 32" xmlns="http://www.w3.org/2000/svg">
<path d="M11.0672 0.0078125H10.9328C8.66403 0.0460443 0 1.22358 0 11.4773C0 20.8671 10.3874 24.1627 10.3874 31.5108C10.3874 31.8014 10.6482 31.9543 10.9328 31.9925H11.0672C11.3597 31.9925 11.6126 31.8014 11.6126 31.5108C11.6126 24.1627 22 20.8671 22 11.4773C22 1.22358 13.336 0.0460443 11.0672 0.0078125Z" fill="currentColor"/>
<path d="M5.19366 13.3961C4.9761 12.7888 4.86651 12.1502 4.86955 11.5075C4.86987 10.1241 5.37904 8.78598 6.30597 7.73249C7.2329 6.679 8.51711 5.97889 9.92884 5.75741V6.88907L11.8498 4.93925L9.92884 2.99707V4.14402C8.78224 4.28455 7.68318 4.67347 6.71351 5.28181C5.74384 5.89015 4.92854 6.70223 4.32832 7.6576C3.72811 8.61296 3.35844 9.68699 3.24684 10.7997C3.13524 11.9124 3.2846 13.0351 3.68378 14.0843L4.21342 13.0138L5.19366 13.3961Z" fill="var(--color2)"/>
<path d="M18.5759 11.5082C18.5746 9.76597 17.9407 8.07957 16.7848 6.74348C15.6289 5.40739 14.0245 4.50653 12.2518 4.19824L12.9474 5.16933L12.1016 5.78868C12.963 5.95149 13.7772 6.29443 14.4873 6.7935C15.1974 7.29256 15.7861 7.93569 16.2123 8.67788C16.6385 9.42007 16.8919 10.2434 16.9547 11.0902C17.0175 11.937 16.8882 12.7869 16.5759 13.5803L15.564 13.0145L16.3545 15.599L19.0581 14.9643L18.0304 14.3832C18.4105 13.4701 18.596 12.4922 18.5759 11.5082Z" fill="var(--color2)"/>
<path d="M15.4143 15.3389C14.8395 15.9797 14.1266 16.4909 13.3257 16.8368C12.5248 17.1826 11.6554 17.3546 10.7785 17.3408C9.90152 17.3269 9.03835 17.1275 8.24958 16.7566C7.46081 16.3857 6.76556 15.8522 6.21268 15.1936L7.22454 14.6278L4.52098 13.9932L3.73047 16.5776L4.75814 15.9965C5.45373 16.8875 6.34849 17.6148 7.37556 18.1243C8.40263 18.6338 9.53545 18.9121 10.6894 18.9386C11.8433 18.9651 12.9885 18.739 14.0394 18.2772C15.0903 17.8154 16.0197 17.1298 16.7581 16.2718L15.5407 16.3635L15.4143 15.3389Z" fill="var(--color2)"/>
</svg>
