<svg width="19" height="20" viewBox="0 0 19 20" xmlns="http://www.w3.org/2000/svg">
<path d="M17.8333 13.9152C17.8018 13.8891 14.2458 11.3442 13.281 11.5111C12.8173 11.593 12.5519 11.9089 12.0205 12.5424C11.935 12.6446 11.7289 12.8886 11.5698 13.0626C11.2339 12.9531 10.9063 12.8198 10.5895 12.6636C8.95406 11.8673 7.63265 10.5459 6.83644 8.91047C6.6802 8.59365 6.54686 8.26606 6.43744 7.93019C6.612 7.77047 6.85663 7.56444 6.96112 7.47656C7.59109 6.94812 7.90697 6.68272 7.98891 6.21841C8.15694 5.25712 5.61094 1.69819 5.58481 1.66612C5.46887 1.50169 5.31786 1.36505 5.14269 1.26607C4.96752 1.16708 4.77256 1.10823 4.57187 1.09375C3.53994 1.09375 0.59375 4.91512 0.59375 5.55934C0.59375 5.59675 0.647781 9.39913 5.33663 14.1687C10.1009 18.8522 13.9032 18.9062 13.9407 18.9062C14.5849 18.9062 18.4062 15.9601 18.4062 14.9281C18.3918 14.7274 18.3329 14.5324 18.2338 14.3572C18.1347 14.182 17.9979 14.031 17.8333 13.9152ZM13.8753 17.7152C13.3564 17.6724 10.1656 17.2515 6.17619 13.3321C2.23666 9.32134 1.82638 6.12163 1.78541 5.62584C2.56368 4.40429 3.5036 3.29361 4.57959 2.324C4.60334 2.34775 4.63481 2.38338 4.67519 2.42969C5.5004 3.55617 6.21126 4.7621 6.79725 6.02959C6.60669 6.2213 6.40528 6.4019 6.194 6.5705C5.86636 6.82014 5.56551 7.10309 5.29625 7.41481L5.15197 7.61669L5.19472 7.86072C5.32037 8.40503 5.51282 8.93172 5.76769 9.42881C6.68081 11.3039 8.19599 12.8189 10.0712 13.7317C10.5682 13.987 11.0949 14.1796 11.6393 14.3053L11.8833 14.348L12.0852 14.2037C12.3981 13.9333 12.6822 13.6313 12.9331 13.3024C13.1189 13.0804 13.3677 12.7841 13.4615 12.7004C14.7326 13.2858 15.9416 13.9975 17.0703 14.8248C17.1196 14.8664 17.154 14.8984 17.1772 14.9192C16.2077 15.9955 15.097 16.9357 13.8753 17.714V17.7152Z" fill="currentColor"/>
</svg>
