<svg width="14" height="14" viewBox="0 0 14 14" xmlns="http://www.w3.org/2000/svg">
<path fill-rule="evenodd" clip-rule="evenodd" d="M1.4 5.95C1.4 3.4371 3.4371 1.4 5.95 1.4C8.4629 1.4 10.5 3.4371 10.5 5.95C10.5 8.4629 8.4629 10.5 5.95 10.5C3.4371 10.5 1.4 8.4629 1.4 5.95ZM5.95 0C2.66391 0 0 2.66391 0 5.95C0 9.23609 2.66391 11.9 5.95 11.9C7.34081 11.9 8.62016 11.4228 9.63327 10.6232L12.805 13.795C13.0784 14.0683 13.5216 14.0683 13.795 13.795C14.0683 13.5216 14.0683 13.0784 13.795 12.805L10.6232 9.63327C11.4228 8.62016 11.9 7.34081 11.9 5.95C11.9 2.66391 9.23609 0 5.95 0Z" fill="currentColor"/>
</svg>
