<svg width="18" height="18" viewBox="0 0 18 18" xmlns="http://www.w3.org/2000/svg">
<path d="M0.616455 8.46846L4.52484 10.1391L6.04843 15.7587C6.11468 16.1384 6.51214 16.2143 6.77712 15.9865L8.96314 13.9361C9.16187 13.7083 9.4931 13.7083 9.75807 13.9361L13.6664 17.2016C13.9314 17.4294 14.3289 17.2775 14.3951 16.8978L17.3098 0.9504C17.3761 0.570701 17.0449 0.191004 16.7136 0.342884L0.616455 7.48124C0.218994 7.63312 0.218994 8.31658 0.616455 8.46846ZM5.84971 9.3038L13.5339 3.91206C13.6664 3.83612 13.7989 4.06394 13.6664 4.13988L7.3733 10.8985C7.17457 11.1264 6.97584 11.4301 6.97584 11.8098L6.77712 13.6324C6.77712 13.8602 6.44589 13.9361 6.37965 13.6324L5.58472 10.291C5.38599 9.91132 5.51849 9.45568 5.84971 9.3038Z" fill="currentColor"/>
</svg>
