<svg width="9" height="13" viewBox="0 0 9 13" xmlns="http://www.w3.org/2000/svg">
<path d="M1.23318 10.1843C1.23318 9.89568 1.23783 9.62055 1.23195 9.34614C1.22119 8.85168 1.416 8.46328 1.81737 8.16242C2.51487 7.63983 3.20479 7.10737 3.89764 6.579C3.92995 6.55495 3.96078 6.52754 4.00166 6.49411C3.69059 6.24784 3.38687 6.00951 3.08364 5.77094C2.64311 5.42511 2.20552 5.07639 1.76206 4.73536C1.37659 4.43907 1.19353 4.05452 1.20112 3.57642C1.20503 3.32726 1.20112 3.07811 1.20112 2.82319C1.11668 2.81477 1.04106 2.8126 0.967882 2.79914C0.702586 2.74935 0.510956 2.53988 0.506796 2.27726C0.500269 1.86505 0.500269 1.45276 0.506796 1.04039C0.510711 0.772 0.70846 0.55844 0.977427 0.514189C1.03592 0.504768 1.0951 0.500023 1.15437 0.5C3.38394 0.5 5.61342 0.5 7.84282 0.5C8.18301 0.5 8.44757 0.645981 8.46837 0.928082C8.50227 1.41305 8.50276 1.89972 8.46984 2.38476C8.45295 2.63897 8.20332 2.79986 7.93337 2.8126C7.89201 2.81477 7.85041 2.8126 7.79534 2.8126C7.79534 3.09134 7.79412 3.35709 7.79534 3.62283C7.79779 3.98935 7.6786 4.30945 7.41893 4.57471C7.34981 4.64233 7.27623 4.70539 7.19867 4.7635C6.50786 5.30782 5.81647 5.85142 5.12451 6.3943C5.08585 6.4246 5.04865 6.45731 5.00215 6.49675C5.31076 6.72739 5.60983 6.95081 5.90768 7.17471C6.36289 7.51493 6.81802 7.85531 7.27307 8.19585C7.64214 8.47218 7.82251 8.84182 7.82765 9.29468C7.83083 9.58592 7.82765 9.8774 7.82765 10.1903C7.8739 10.1903 7.91404 10.1884 7.95418 10.1903C8.09775 10.1963 8.23359 10.2559 8.33397 10.3569C8.43435 10.458 8.4917 10.5929 8.49431 10.734C8.4997 11.1381 8.4997 11.542 8.49431 11.9459C8.49089 12.248 8.253 12.4808 7.94684 12.494C7.91306 12.4954 7.87904 12.494 7.84502 12.494C5.6157 12.494 3.38614 12.4889 1.15658 12.4988C0.768176 12.5007 0.47963 12.2472 0.498964 11.8514C0.51634 11.5108 0.502146 11.1686 0.502635 10.8271C0.502635 10.4103 0.715394 10.1979 1.14091 10.19C1.16661 10.1884 1.19108 10.1864 1.23318 10.1843ZM7.21751 10.1843C7.21751 9.88702 7.21605 9.60444 7.21751 9.32185C7.21898 9.03927 7.10396 8.81946 6.87317 8.64847C6.11236 8.08474 5.35367 7.5179 4.5971 6.94792C4.52221 6.89165 4.47596 6.89405 4.40352 6.94985C3.66278 7.51886 2.91991 8.08539 2.17493 8.64943C1.94879 8.81994 1.83719 9.03422 1.8416 9.31416C1.84576 9.56812 1.8416 9.82208 1.8416 10.076C1.8416 10.1119 1.84747 10.1482 1.85065 10.1843H7.21751ZM1.82055 2.8191C1.81786 2.8571 1.81321 2.89293 1.81296 2.929C1.81296 3.15796 1.81296 3.38595 1.81296 3.6161C1.81296 3.87896 1.91575 4.08843 2.1277 4.25293C2.63969 4.65023 3.14776 5.05234 3.65755 5.45252L4.49358 6.10956C4.50572 6.10543 4.51743 6.1002 4.52858 6.09392C5.32593 5.46864 6.12721 4.84575 6.91649 4.20964C7.02956 4.11849 7.14116 3.96386 7.15511 3.8287C7.18937 3.49705 7.16636 3.15988 7.16636 2.81862L1.82055 2.8191ZM1.12329 1.10749V2.20511H7.88051V1.10749H1.12329ZM7.88173 10.7961H1.12182V11.8851H7.88173V10.7961Z" fill="currentColor"/>
</svg>
