<svg width="15" height="15" viewBox="0 0 15 15" xmlns="http://www.w3.org/2000/svg">
<path d="M14.411 7.20722C14.286 7.02391 11.3059 2.71875 7.49993 2.71875C3.69392 2.71875 0.713774 7.02391 0.58884 7.20704C0.470387 7.38095 0.470387 7.61682 0.58884 7.79073C0.713774 7.97404 3.69392 12.2792 7.49993 12.2792C11.3059 12.2792 14.286 7.97401 14.411 7.79087C14.5296 7.617 14.5296 7.38095 14.411 7.20722ZM7.49993 11.2902C4.6964 11.2902 2.26824 8.43277 1.54946 7.49864C2.26731 6.56368 4.69038 3.70776 7.49993 3.70776C10.3033 3.70776 12.7313 6.56468 13.4504 7.49931C12.7326 8.43423 10.3095 11.2902 7.49993 11.2902Z" fill="currentColor"/>
<path d="M7.49971 4.53125C5.97278 4.53125 4.73047 5.8623 4.73047 7.4983C4.73047 9.1343 5.97278 10.4653 7.49971 10.4653C9.02664 10.4653 10.2689 9.1343 10.2689 7.4983C10.2689 5.8623 9.02664 4.53125 7.49971 4.53125ZM7.49971 9.47631C6.4817 9.47631 5.65357 8.58899 5.65357 7.4983C5.65357 6.4076 6.48173 5.52028 7.49971 5.52028C8.51769 5.52028 9.34585 6.4076 9.34585 7.4983C9.34585 8.58899 8.51771 9.47631 7.49971 9.47631Z" fill="currentColor"/>
</svg>
