<svg width="19" height="13" viewBox="0 0 19 13" xmlns="http://www.w3.org/2000/svg">
<path d="M18.055 11.396C18.055 11.3155 17.9838 11.3155 17.9838 11.235C17.6989 10.5908 17.0578 9.78557 16.203 8.89983C15.7756 8.49722 15.5619 8.17513 15.4194 8.01408C15.2057 7.692 15.2058 7.45044 15.277 7.12835C15.3482 6.88679 15.6331 6.48417 16.1318 5.75947C16.4167 5.35687 16.5591 5.11531 16.7728 4.87374C17.8413 3.26331 18.3399 2.21652 18.1975 1.73339L18.1263 1.65287C18.055 1.57235 17.9838 1.49183 17.8413 1.49183C17.6988 1.41131 17.4852 1.41131 17.2715 1.49183H14.5647C14.4934 1.49183 14.4934 1.49183 14.351 1.49183C14.2797 1.49183 14.2085 1.49183 14.2085 1.49183H14.1373H14.066L13.9948 1.57235C13.9236 1.65287 13.9236 1.65287 13.9236 1.73339C13.6387 2.61913 13.2825 3.34382 12.9263 4.14904C12.7126 4.55165 12.499 4.95426 12.2853 5.27635C12.0716 5.59844 11.9291 5.84 11.7866 6.00104C11.6442 6.16209 11.5017 6.24261 11.4305 6.40365C11.3592 6.48417 11.2168 6.5647 11.2168 6.48418C11.1456 6.48418 11.0743 6.48417 11.0743 6.40365C11.0031 6.32313 10.9319 6.2426 10.8606 6.16208C10.7894 6.08156 10.7894 5.92052 10.7182 5.75947C10.7182 5.59843 10.7182 5.43739 10.7182 5.35687C10.7182 5.27634 10.7182 5.03479 10.7182 4.87374C10.7182 4.63218 10.7182 4.47113 10.7182 4.39061C10.7182 4.14904 10.7182 3.82696 10.7182 3.50488C10.7182 3.18279 10.7182 2.94122 10.7182 2.78017C10.7182 2.61913 10.7182 2.37757 10.7182 2.21652C10.7182 1.97496 10.7182 1.81391 10.7182 1.73339C10.7182 1.65287 10.6469 1.49183 10.6469 1.41131C10.5757 1.33078 10.5045 1.25026 10.4332 1.16974C10.362 1.08922 10.2195 1.08922 10.1483 1.0087C9.79216 0.928176 9.36478 0.847656 8.86616 0.847656C7.72645 0.847656 6.9429 0.92818 6.65797 1.08922C6.51551 1.16975 6.37305 1.25026 6.30182 1.41131C6.15935 1.57235 6.15935 1.65287 6.23058 1.65287C6.58674 1.7334 6.87167 1.89443 7.01413 2.136L7.08537 2.29705C7.1566 2.37757 7.15659 2.53861 7.22782 2.78017C7.29905 3.02174 7.29905 3.2633 7.29905 3.58539C7.29905 4.06852 7.29905 4.55166 7.29905 4.87374C7.29905 5.27635 7.22782 5.51791 7.22782 5.75947C7.22782 6.00104 7.1566 6.16209 7.08537 6.24261C7.01414 6.40365 7.01413 6.48418 6.94289 6.48418C6.94289 6.48418 6.94289 6.56469 6.87166 6.56469C6.80043 6.56469 6.7292 6.64522 6.58674 6.64522C6.51551 6.64522 6.37305 6.5647 6.30182 6.48418C6.15935 6.40366 6.01689 6.24261 5.94566 6.08157C5.80319 5.92053 5.66073 5.67895 5.51826 5.35687C5.3758 5.03478 5.1621 4.7127 5.01963 4.22957L4.87718 3.90748C4.80595 3.74644 4.66349 3.42435 4.52103 3.02174C4.37856 2.61913 4.2361 2.29705 4.09363 1.89444C4.0224 1.7334 3.95118 1.65287 3.87995 1.57235H3.80871C3.80871 1.57235 3.73747 1.49183 3.66624 1.49183C3.59501 1.49183 3.52379 1.41131 3.45255 1.41131H0.888214C0.603288 1.41131 0.460827 1.49183 0.389595 1.57235L0.318359 1.65287C0.318359 1.65287 0.318359 1.73339 0.318359 1.81391C0.318359 1.89444 0.318364 1.97495 0.389595 2.136C0.745753 3.10226 1.17314 4.06852 1.60053 5.03478C2.02792 5.92052 2.45531 6.72574 2.74024 7.28939C3.0964 7.85305 3.38132 8.4167 3.73748 8.89983C4.09363 9.38296 4.30732 9.70504 4.37856 9.86609C4.52102 10.0271 4.59225 10.1076 4.66348 10.1882L4.87718 10.4297C5.01965 10.5908 5.23334 10.8323 5.51826 11.0739C5.80319 11.3155 6.15934 11.557 6.5155 11.7986C6.87166 12.0402 7.29906 12.2012 7.72645 12.3623C8.22507 12.5233 8.65245 12.6038 9.07984 12.5233H10.1483C10.362 12.5233 10.5045 12.4428 10.6469 12.2817L10.7182 12.2012C10.7182 12.1207 10.7894 12.1207 10.7894 12.0402C10.7894 11.9597 10.7894 11.8791 10.7894 11.7181C10.7894 11.396 10.7894 11.1544 10.8606 10.9129C10.9319 10.6713 10.9319 10.5103 11.0031 10.3492C11.0743 10.1882 11.1456 10.1076 11.2168 10.0271C11.288 9.94661 11.3593 9.86609 11.3593 9.86609H11.4305C11.5729 9.78557 11.7866 9.86609 11.9291 10.0271C12.1428 10.1882 12.3565 10.4297 12.4989 10.6713C12.6414 10.9129 12.8551 11.1544 13.14 11.4765C13.425 11.7986 13.6387 12.0402 13.7811 12.1207L13.9948 12.2817C14.1373 12.3623 14.2797 12.4428 14.4934 12.5233C14.7071 12.6038 14.8496 12.6038 14.9921 12.6038L17.4139 12.5233C17.6276 12.5233 17.8413 12.4428 17.9838 12.3623C18.1262 12.2817 18.1975 12.2012 18.1975 12.0402C18.1975 11.9597 18.1975 11.7986 18.1975 11.7181C18.055 11.557 18.055 11.4765 18.055 11.396Z" fill="currentColor"/>
</svg>
