<svg width="20" height="15" viewBox="0 0 20 15" xmlns="http://www.w3.org/2000/svg">
<path d="M19.5881 2.19109C19.3574 1.33443 18.682 0.658976 17.8253 0.428334C16.2602 0 9.99996 0 9.99996 0C9.99996 0 3.73969 0 2.17462 0.41186C1.33443 0.642501 0.642501 1.33443 0.41186 2.19109C0 3.75616 0 7.00162 0 7.00162C0 7.00162 0 10.2635 0.41186 11.8121C0.642501 12.6688 1.31795 13.3443 2.17462 13.5749C3.75616 14.0032 9.99996 14.0032 9.99996 14.0032C9.99996 14.0032 16.2602 14.0032 17.8253 13.5914C18.682 13.3607 19.3574 12.6853 19.5881 11.8286C19.9999 10.2635 19.9999 7.01809 19.9999 7.01809C19.9999 7.01809 20.0164 3.75616 19.5881 2.19109Z" fill="currentColor"/>
<path d="M8.00781 4.00391V10.0006L13.2137 7.00224L8.00781 4.00391Z" fill="white"/>
</svg>
