<svg width="19" height="20" viewBox="0 0 19 20" xmlns="http://www.w3.org/2000/svg">
<path d="M18.1826 5.41821C18.1 5.33491 18.0017 5.26885 17.8934 5.22388C17.7851 5.17891 17.669 5.15592 17.5517 5.15625H16.9219V3.67188C16.9216 3.43575 16.8277 3.20937 16.6607 3.0424C16.4938 2.87543 16.2674 2.78152 16.0312 2.78125H3.21467C2.51956 2.78126 1.85293 3.0574 1.36141 3.54891C0.869895 4.04043 0.59376 4.70706 0.59375 5.40217V15.5978C0.59376 16.2929 0.869895 16.9596 1.36141 17.4511C1.85293 17.9426 2.51956 18.2187 3.21467 18.2188H17.5166C17.7522 18.2183 17.978 18.1247 18.1449 17.9584C18.3117 17.7921 18.406 17.5666 18.4073 17.331L18.4423 6.04992C18.443 5.93266 18.4204 5.81643 18.3758 5.70798C18.3313 5.59953 18.2656 5.50103 18.1826 5.41821ZM17.2207 17.0312H3.21467C2.83451 17.0312 2.46991 16.8802 2.20109 16.6114C1.93227 16.3426 1.78125 15.978 1.78125 15.5978V5.40217C1.78125 5.02201 1.93227 4.65741 2.20109 4.38859C2.46991 4.11977 2.83451 3.96875 3.21467 3.96875H15.7344V5.15625H3.26562V6.34375H17.2539L17.2207 17.0312Z" fill="currentColor"/>
<path d="M14.5469 10.7969H15.7344V11.9844H14.5469V10.7969Z" fill="currentColor"/>
</svg>
