<svg width="16" height="12" viewBox="0 0 16 12" xmlns="http://www.w3.org/2000/svg">
<path d="M15.4058 5.07462C15.4058 4.74492 15.3509 4.36028 15.3509 3.92068C15.2959 3.48108 15.241 3.04148 15.186 2.65683C15.0761 2.21723 14.9113 1.88754 14.5816 1.61279C14.3068 1.33804 13.9222 1.17318 13.5375 1.11823C12.2737 0.953384 10.4054 0.898438 7.87772 0.898438C5.35004 0.898438 3.42679 0.953384 2.21789 1.11823C1.83325 1.17318 1.4486 1.33804 1.17385 1.61279C0.899106 1.88754 0.679304 2.21723 0.569405 2.65683C0.459505 3.04148 0.404562 3.42613 0.404562 3.92068C0.349613 4.36028 0.349609 4.74492 0.349609 5.07462C0.349609 5.40432 0.349609 5.78897 0.349609 6.33847C0.349609 6.88796 0.349609 7.32756 0.349609 7.60231C0.349609 7.93201 0.404562 8.31666 0.404562 8.75626C0.459512 9.19586 0.514455 9.63545 0.569405 10.0201C0.679304 10.4597 0.844156 10.7894 1.17385 11.0642C1.4486 11.3389 1.83325 11.5037 2.21789 11.5587C3.48174 11.7235 5.35004 11.7785 7.87772 11.7785C10.4054 11.7785 12.3286 11.7235 13.5375 11.5587C13.9222 11.5037 14.3068 11.3389 14.5816 11.0642C14.8563 10.7894 15.0761 10.4597 15.186 10.0201C15.2959 9.63545 15.3509 9.25081 15.3509 8.75626C15.4058 8.31666 15.4058 7.93201 15.4058 7.60231C15.4058 7.27261 15.4058 6.88796 15.4058 6.33847C15.4058 5.78897 15.4058 5.34937 15.4058 5.07462ZM10.79 6.77807L6.44903 9.4706C6.39408 9.52555 6.28418 9.58051 6.17428 9.58051C6.06438 9.58051 6.00943 9.58051 5.89953 9.52556C5.73468 9.41566 5.62478 9.25081 5.62478 9.03101V3.59097C5.62478 3.37118 5.73468 3.20633 5.89953 3.09643C6.06438 2.98653 6.28418 2.98653 6.44903 3.09643L10.79 5.78897C10.9549 5.89887 11.0648 6.06372 11.0648 6.22857C11.0648 6.39342 10.9549 6.66817 10.79 6.77807Z" fill="currentColor"/>
</svg>
