<svg width="322" height="252" viewBox="0 0 322 252" fill="none" xmlns="http://www.w3.org/2000/svg">
<g clip-path="url(#clip0_1212_180496)">
<path d="M100.974 14.1011C100.974 14.1011 50.0435 39.9457 24.642 79.7705C-0.759482 119.595 1.25032 170.829 32.1166 208.86C62.9829 246.89 121.98 241.895 171.378 265.986C220.776 290.076 275.276 285.115 298.634 234.075C321.992 183.035 286.77 163.96 280.72 104.892C274.671 45.8244 221.213 -40.6681 100.974 14.1011Z" fill="#0956A3"/>
<path d="M100.974 14.1011C100.974 14.1011 50.0435 39.9457 24.642 79.7705C-0.759482 119.595 1.25032 170.829 32.1166 208.86C62.9829 246.89 121.98 241.895 171.378 265.986C220.776 290.076 275.276 285.115 298.634 234.075C321.992 183.035 286.77 163.96 280.72 104.892C274.671 45.8244 221.213 -40.6681 100.974 14.1011Z" fill="#F5F5F5"/>
<path d="M236.869 22.7397C231.801 19.9878 229.475 22.2844 227.653 19.9878C225.832 17.6913 232.722 11.7256 218.915 5.75988C218.915 5.75988 217.994 -7.08878 199.099 -7.55077C180.205 -8.01276 185.28 5.30459 180.211 8.51843C175.143 11.7323 173.758 6.68386 168.69 9.8977C163.622 13.1115 165.914 19.5124 161.767 20.4498C157.62 21.3872 152.088 16.3187 147.019 19.5325C141.951 22.7464 141.951 25.4982 139.625 25.4982C137.3 25.4982 132.709 23.6637 129.946 25.4982C127.183 27.3328 123.957 29.6293 123.957 29.6293H240.559C240.559 29.6293 241.937 25.4982 236.869 22.7397Z" stroke="#EBEBEB" stroke-linecap="round" stroke-linejoin="round"/>
<path d="M167.91 20.8516C167.249 21.2228 166.562 21.545 165.854 21.8157" stroke="#EBEBEB" stroke-linecap="round" stroke-linejoin="round"/>
<path d="M192.848 -0.574219C191.705 -0.0659685 190.7 0.707275 189.918 1.68099C189.136 2.65471 188.599 3.80066 188.351 5.02322C187.504 9.22799 185.535 12.0267 183.29 12.3079C181.045 12.5891 172.602 11.7455 171.191 14.8321C170.815 15.7343 170.551 16.6786 170.404 17.6442" stroke="#EBEBEB" stroke-linecap="round" stroke-linejoin="round"/>
<path d="M123.07 55.7355C120.414 54.2959 119.205 55.4944 118.237 54.2959C117.269 53.0974 120.892 49.964 113.646 46.8305C113.646 46.8305 113.162 40.0948 103.261 39.8538C93.3594 39.6127 96.0078 46.5894 93.3527 48.3035C90.6976 50.0175 89.9918 47.3393 87.3031 49.0266C84.6144 50.7138 85.8579 54.0817 83.6801 54.5638C81.5022 55.0458 78.6052 52.3944 75.9501 54.0817C73.295 55.7689 73.2614 57.2085 72.0851 57.2085C70.9088 57.2085 68.4621 56.2443 67.0102 57.2085C65.5583 58.1726 63.8711 59.3711 63.8711 59.3711H124.992C124.992 59.3711 125.718 57.1817 123.07 55.7355Z" stroke="#EBEBEB" stroke-linecap="round" stroke-linejoin="round"/>
<path d="M86.9142 54.75C86.5645 54.94 86.2031 55.1078 85.832 55.2522" stroke="#EBEBEB" stroke-linecap="round" stroke-linejoin="round"/>
<path d="M99.987 43.5098C99.3874 43.7757 98.8603 44.1806 98.4499 44.6908C98.0394 45.201 97.7575 45.8015 97.6276 46.4424C97.184 48.6452 96.1556 50.1182 94.9389 50.2655C93.7223 50.4128 89.3397 49.9709 88.6003 51.6046C88.4054 52.0782 88.2655 52.5724 88.1836 53.0777" stroke="#EBEBEB" stroke-linecap="round" stroke-linejoin="round"/>
<path d="M202.112 106.098C202.112 106.098 233.791 109.225 249.836 128.782C249.836 128.782 266.802 106.125 297.271 106.587C304.714 97.6407 309.453 86.7728 310.936 75.2482C312.419 63.7236 310.584 52.0166 305.647 41.4901C300.709 30.9636 292.871 22.0508 283.046 15.7892C273.22 9.52768 261.811 6.17508 250.147 6.12174C238.483 6.0684 227.043 9.31653 217.16 15.4879C207.277 21.6594 199.358 30.5002 194.323 40.9811C189.289 51.462 187.347 63.1517 188.723 74.6893C190.1 86.227 194.738 97.1378 202.098 106.151L202.112 106.098Z" fill="#0956A3"/>
<path d="M202.112 106.098C202.112 106.098 233.791 109.225 249.836 128.782C249.836 128.782 266.802 106.125 297.271 106.587C304.714 97.6407 309.453 86.7728 310.936 75.2482C312.419 63.7236 310.584 52.0166 305.647 41.4901C300.709 30.9636 292.871 22.0508 283.046 15.7892C273.22 9.52768 261.811 6.17508 250.147 6.12174C238.483 6.0684 227.043 9.31653 217.16 15.4879C207.277 21.6594 199.358 30.5002 194.323 40.9811C189.289 51.462 187.347 63.1517 188.723 74.6893C190.1 86.227 194.738 97.1378 202.098 106.151L202.112 106.098Z" fill="#455A64"/>
<path d="M248.8 10.4453L247.725 251.684H253.075L248.8 10.4453Z" fill="#263238"/>
<path d="M250.4 122.824C250.4 122.824 261.094 103.648 280.318 97.7891C280.318 97.7891 259.998 102.583 249.842 119.094L250.4 122.824Z" fill="#263238"/>
<path d="M250.4 68.4965C250.4 68.4965 261.094 49.3273 280.318 43.4688C280.318 43.4688 259.998 48.2627 249.842 64.7671L250.4 68.4965Z" fill="#263238"/>
<path d="M250.4 95.6595C250.4 95.6595 261.094 76.4836 280.318 70.625C280.318 70.625 259.998 75.419 249.842 91.9301L250.4 95.6595Z" fill="#263238"/>
<path d="M248.814 82.3422C248.814 82.3422 238.496 63.173 219.91 57.3145C219.91 57.3145 239.518 62.1084 249.318 78.6195L248.814 82.3422Z" fill="#263238"/>
<path d="M248.814 108.971C248.814 108.971 238.496 89.8019 219.91 83.9434C219.91 83.9434 239.518 88.7373 249.318 105.248L248.814 108.971Z" fill="#263238"/>
<path d="M102.971 131.106C102.971 131.106 129.186 133.698 142.502 149.894C142.502 149.894 156.55 131.147 181.784 131.515C187.95 124.106 191.877 115.104 193.107 105.558C194.336 96.0119 192.818 86.3144 188.729 77.5946C184.64 68.8747 178.148 61.4914 170.009 56.3043C161.871 51.1172 152.42 48.3398 142.758 48.2955C133.096 48.2511 123.621 50.9417 115.434 56.0539C107.248 61.1662 100.688 68.4896 96.5186 77.1716C92.349 85.8535 90.7412 95.5367 91.8824 105.094C93.0236 114.651 96.8669 123.688 102.965 131.153L102.971 131.106Z" fill="#0956A3"/>
<path d="M102.971 131.106C102.971 131.106 129.186 133.698 142.502 149.894C142.502 149.894 156.55 131.147 181.784 131.515C187.95 124.106 191.877 115.104 193.107 105.558C194.336 96.0119 192.818 86.3144 188.729 77.5946C184.64 68.8747 178.148 61.4914 170.009 56.3043C161.871 51.1172 152.42 48.3398 142.758 48.2955C133.096 48.2511 123.621 50.9417 115.434 56.0539C107.248 61.1662 100.688 68.4896 96.5186 77.1716C92.349 85.8535 90.7412 95.5367 91.8824 105.094C93.0236 114.651 96.8669 123.688 102.965 131.153L102.971 131.106Z" fill="#263238"/>
<path d="M141.634 51.8848L140.754 251.685H145.177L141.634 51.8848Z" fill="#455A64"/>
<path d="M142.967 144.959C142.967 144.959 151.82 129.077 167.764 124.203C167.764 124.203 150.959 128.174 142.523 141.846L142.967 144.959Z" fill="#455A64"/>
<path d="M142.967 99.965C142.967 99.965 151.82 84.0833 167.764 79.209C167.764 79.209 150.959 83.1794 142.523 96.8583L142.967 99.965Z" fill="#455A64"/>
<path d="M142.967 122.461C142.967 122.461 151.82 106.579 167.764 101.705C167.764 101.705 150.959 105.676 142.523 119.354L142.967 122.461Z" fill="#455A64"/>
<path d="M141.656 111.434C141.656 111.434 133.106 95.5521 117.727 90.6777C117.727 90.6777 133.96 94.6482 142.079 108.327L141.656 111.434Z" fill="#455A64"/>
<path d="M141.656 133.488C141.656 133.488 133.106 117.607 117.727 112.732C117.727 112.732 133.96 116.703 142.079 130.382L141.656 133.488Z" fill="#455A64"/>
<path d="M164.793 251.458C164.699 249.362 164.974 245.385 167.24 239.406C170.789 230.032 177.006 248.78 177.006 248.78C177.006 248.78 177.006 246.55 183.668 239.406C190.329 232.262 196.096 244.762 196.096 244.762C196.096 244.762 192.991 214.86 200.539 217.09C208.088 219.32 207.194 244.762 207.194 244.762C207.194 244.762 212.524 226.015 219.629 226.015C226.734 226.015 228.508 239.406 228.508 239.406C228.508 239.406 230.283 215.751 237.388 215.302C244.493 214.854 252.478 234.947 252.478 234.947C252.478 234.947 250.26 208.165 257.365 206.826C264.47 205.487 267.132 216.641 267.132 216.641C267.132 216.641 273.342 179.595 285.334 184.061C297.326 188.527 287.109 229.59 287.109 229.59C287.109 229.59 299.093 201.021 308.86 207.716C317.74 213.802 306.44 245.707 304.316 251.458H164.793Z" fill="#0956A3"/>
<path d="M308.099 251.398C308.099 251.398 313.302 235.389 310.633 232.711C307.965 230.033 296.45 241.643 296.45 241.643C296.45 241.643 304.886 213.073 291.564 209.505C278.241 205.936 276.03 237.177 276.03 237.177C276.03 237.177 266.263 222.896 264.038 228.252C262.698 231.517 261.947 234.991 261.82 238.516C261.82 238.516 256.94 199.682 245.835 201.47C234.731 203.258 244.948 241.643 244.948 241.643C244.948 241.643 238.737 228.252 231.632 229.591C224.528 230.93 221.839 239.407 221.839 239.407C221.839 239.407 218.733 231.821 216.509 231.821C214.284 231.821 211.629 245.212 211.629 245.212C211.629 245.212 208.94 224.677 204.08 225.574C199.22 226.471 188.983 243.873 188.983 243.873C188.983 243.873 190.764 234.05 185.434 233.608C180.104 233.167 176.998 248.78 176.998 248.78C176.998 248.78 169.893 234.05 165.457 236.729C161.02 239.407 163.138 251.847 163.138 251.847" stroke="#263238" stroke-linecap="round" stroke-linejoin="round"/>
<path d="M284.129 251.178L287.994 232.27" stroke="#263238" stroke-linecap="round" stroke-linejoin="round"/>
<path d="M256.475 251.459L254.25 238.965" stroke="#263238" stroke-linecap="round" stroke-linejoin="round"/>
<path d="M200.328 251.397L203.198 241.193" stroke="#263238" stroke-linecap="round" stroke-linejoin="round"/>
<path d="M234.718 251.907L229.838 242.982" stroke="#263238" stroke-linecap="round" stroke-linejoin="round"/>
<path d="M284.888 243.873L281.332 236.729" stroke="#263238" stroke-linecap="round" stroke-linejoin="round"/>
<path d="M256.477 247.44L259.582 241.193" stroke="#263238" stroke-linecap="round" stroke-linejoin="round"/>
<path d="M232.5 247L234.718 242.982" stroke="#263238" stroke-linecap="round" stroke-linejoin="round"/>
<path d="M201.223 247.608L199.65 242.084" stroke="#263238" stroke-linecap="round" stroke-linejoin="round"/>
<path d="M144.539 251.559C144.613 249.932 144.405 246.872 142.745 242.185C140.143 234.907 135.579 249.463 135.579 249.463C135.579 249.463 135.579 247.729 130.699 242.185C125.819 236.641 121.584 246.343 121.584 246.343C121.584 246.343 123.863 223.13 118.324 224.864C112.786 226.598 113.444 246.343 113.444 246.343C113.444 246.343 109.586 231.814 104.343 231.814C99.1002 231.814 97.8298 242.205 97.8298 242.205C97.8298 242.205 96.5325 223.84 91.3231 223.498C86.1138 223.157 80.2524 238.737 80.2524 238.737C80.2524 238.737 81.8791 217.981 76.6697 216.91C71.4603 215.839 69.5043 224.536 69.5043 224.536C69.5043 224.536 64.947 195.779 56.1549 199.24C47.3629 202.702 54.8509 234.586 54.8509 234.586C54.8509 234.586 46.0588 212.41 38.9002 217.606C32.3868 222.333 40.6747 247.066 42.2611 251.559H144.539Z" fill="#0956A3"/>
<path d="M39.458 251.511C39.458 251.511 35.6468 239.084 37.5961 237.008C39.5454 234.933 48.0148 243.938 48.0148 243.938C48.0148 243.938 41.8308 221.763 51.5975 218.991C61.3642 216.219 63.0244 240.47 63.0244 240.47C63.0244 240.47 70.1898 229.382 71.8165 233.54C72.8014 236.087 73.3513 238.78 73.4432 241.508C73.4432 241.508 77.0258 211.378 85.1659 212.751C93.3059 214.123 85.8381 243.938 85.8381 243.938C85.8381 243.938 90.3954 233.54 95.6048 234.565C100.814 235.589 102.77 242.184 102.77 242.184C102.77 242.184 105.049 236.292 106.675 236.292C108.302 236.292 110.258 246.69 110.258 246.69C110.258 246.69 112.214 230.748 115.797 231.444C119.38 232.141 126.868 245.646 126.868 245.646C126.868 245.646 125.564 238.026 129.469 237.678C133.374 237.33 135.653 249.462 135.653 249.462C135.653 249.462 140.862 238.026 144.122 240.088C147.382 242.151 145.776 251.846 145.776 251.846" stroke="#263238" stroke-linecap="round" stroke-linejoin="round"/>
<path d="M57.0358 251.337L54.1992 236.66" stroke="#263238" stroke-linecap="round" stroke-linejoin="round"/>
<path d="M77.3203 251.559L78.947 241.857" stroke="#263238" stroke-linecap="round" stroke-linejoin="round"/>
<path d="M118.497 251.511L116.387 243.59" stroke="#263238" stroke-linecap="round" stroke-linejoin="round"/>
<path d="M93.2734 251.906L96.8561 244.977" stroke="#263238" stroke-linecap="round" stroke-linejoin="round"/>
<path d="M56.4844 245.667L59.0857 240.123" stroke="#263238" stroke-linecap="round" stroke-linejoin="round"/>
<path d="M77.3216 248.437L75.043 243.59" stroke="#263238" stroke-linecap="round" stroke-linejoin="round"/>
<path d="M94.9001 248.097L93.2734 244.977" stroke="#263238" stroke-linecap="round" stroke-linejoin="round"/>
<path d="M117.84 248.566L118.996 244.281" stroke="#263238" stroke-linecap="round" stroke-linejoin="round"/>
<path d="M0.693359 251.686H321.321" stroke="#263238" stroke-linecap="round" stroke-linejoin="round"/>
<path d="M245.553 195.992L242.273 200.9L215.318 212.57C215.318 212.57 211.568 213.273 211.568 214.438C211.568 215.603 210.862 218.877 211.568 219.346C212.273 219.815 216.945 218.174 216.945 218.174C216.945 218.174 215.54 219.808 216.945 220.277C218.35 220.745 219.755 218.643 219.755 218.643C221.131 217.779 222.461 216.845 223.741 215.844C224.401 214.98 224.952 214.038 225.381 213.039L250.251 206.738L255.407 199.032C255.407 199.032 244.854 197.86 245.553 195.992Z" fill="#B5B5B5" stroke="#263238" stroke-linecap="round" stroke-linejoin="round"/>
<path d="M247.429 184.984L244.377 194.961L252.356 199.694L255.575 191.914L247.429 184.984Z" fill="white" stroke="#263238" stroke-linecap="round" stroke-linejoin="round"/>
<path d="M244.693 191.746L254.372 197.498L252.672 200.537L243.51 195.804C243.573 194.376 243.979 192.985 244.693 191.746Z" fill="white" stroke="#263238" stroke-linecap="round" stroke-linejoin="round"/>
<path d="M225.536 244.48C225.536 244.48 218.747 247.861 216.878 249.381C215.01 250.901 214.674 250.72 215.178 251.919H236.909L236.398 244.139L225.536 244.48Z" fill="white" stroke="#263238" stroke-linecap="round" stroke-linejoin="round"/>
<path d="M236.829 250.754H215.178C214.882 251.069 214.916 251.323 215.178 251.939H236.91L236.829 250.754Z" fill="white" stroke="#263238" stroke-linecap="round" stroke-linejoin="round"/>
<path d="M254.729 204.261C254.729 204.261 246.414 200.88 239.625 200.204C232.836 199.528 218.747 199.862 218.068 202.882C217.389 205.902 228.084 239.038 228.084 239.038C228.084 239.038 226.215 240.223 226.067 241.046C225.919 241.87 225.563 244.394 225.563 244.394L236.425 246.081C236.425 246.081 236.761 242.7 236.761 239.493C236.761 236.286 233.031 216.494 233.031 216.494L254.923 223.431L246.777 240.671C246.777 240.671 244.236 245.747 247.12 248.284C250.003 250.822 254.755 250.293 254.755 250.293L293.459 250.802L292.787 244.541C292.787 244.541 287.188 243.698 286.166 243.698C285.144 243.698 265.625 238.797 265.625 238.797C265.625 238.797 281.246 222.56 282.94 219.855C283.948 218.358 284.634 216.669 284.956 214.894C285.277 213.12 285.227 211.298 284.808 209.544C283.787 205.487 283.108 204.636 283.108 204.636C283.108 204.636 271.197 210.334 265.087 208.995C261.344 208.143 257.818 206.531 254.729 204.261Z" fill="#263238" stroke="#263238" stroke-linecap="round" stroke-linejoin="round"/>
<path d="M227.06 152.351C227.06 152.351 228.25 156.241 228.25 156.75C228.25 157.259 227.396 159.79 228.082 160.633C228.768 161.477 230.771 161.651 230.771 161.651C230.771 161.651 233.822 165.2 235.18 166.552C236.538 167.905 238.064 168.413 239.764 167.57C241.465 166.726 242.991 164.523 242.991 164.523L246.217 167.737L253.685 159.113L250.996 155.732C250.996 155.732 251.669 151.842 249.128 146.774C246.587 141.705 237.755 140.346 231.981 141.364C226.207 142.381 224.855 145.756 224.855 146.432C224.855 147.108 227.06 152.351 227.06 152.351Z" fill="white" stroke="#263238" stroke-linecap="round" stroke-linejoin="round"/>
<path d="M230.12 136.964C230.12 136.964 226.551 134.286 224.178 135.444C221.805 136.603 222.834 137.641 222.477 139.669C222.121 141.698 216.199 141.865 216.199 145.247C216.199 148.628 220.441 149.813 221.288 149.98C222.135 150.148 221.462 153.87 223.976 153.87C226.49 153.87 227.035 152.351 227.035 152.351C227.035 152.351 225.166 146.941 227.203 146.097C229.239 145.253 233.824 143.559 233.145 146.767C232.466 149.974 234.845 150.991 236.203 150.657C237.561 150.322 239.255 150.483 239.564 151.159C239.873 151.835 241.581 153.02 241.581 151.333C241.581 149.646 242.427 148.119 243.953 148.119C245.479 148.119 246.642 150.657 246.501 152.685C246.386 153.907 245.919 155.07 245.157 156.033L250.93 155.692C250.93 155.692 252.456 148.086 251.099 142.676C249.741 137.266 243.348 134.259 239.45 133.75C235.551 133.242 230.624 135.444 230.12 136.964Z" fill="#263238" stroke="#263238" stroke-linecap="round" stroke-linejoin="round"/>
<path d="M231.578 155.37C232.001 156.04 232.102 156.709 231.813 156.877C231.524 157.044 230.933 156.709 230.516 156.066C230.099 155.424 229.985 154.727 230.281 154.56C230.576 154.393 231.155 154.761 231.578 155.37Z" fill="#263238"/>
<path d="M233.783 162.963C234.594 162.803 235.329 162.379 235.874 161.759C236.419 161.139 236.742 160.357 236.795 159.535" stroke="#263238" stroke-linecap="round" stroke-linejoin="round"/>
<path d="M228.613 153.958C228.613 153.958 228.896 152.385 230.764 153.101" stroke="#263238" stroke-linecap="round" stroke-linejoin="round"/>
<path d="M246.582 170.609C246.582 170.609 245.238 181.77 246.75 185.151C248.262 188.532 253.714 202.057 253.714 202.057C253.714 202.057 252.524 210.333 255.918 212.542C259.313 214.752 272.212 215.08 277.139 212.034C282.066 208.987 284.096 206.624 284.096 204.427C284.096 202.231 280.87 192.59 275.781 182.955C272.055 175.899 266.912 169.682 260.671 164.69C257.108 161.817 255.75 160.465 255.071 160.465C254.393 160.465 246.246 167.401 246.582 170.609Z" fill="white" stroke="#263238" stroke-linecap="round" stroke-linejoin="round"/>
<path d="M253.713 158.27L244.545 168.581L246.414 174.165L256.765 160.807L253.713 158.27Z" fill="white" stroke="#263238" stroke-linecap="round" stroke-linejoin="round"/>
<path d="M253.88 195.973C253.88 195.973 235.207 206.625 232.834 207.476C230.461 208.326 222.819 208.319 220.607 208.145C220.336 208.097 220.057 208.109 219.791 208.18C219.525 208.251 219.278 208.38 219.068 208.557C218.857 208.734 218.689 208.955 218.574 209.204C218.459 209.454 218.4 209.725 218.402 210L218.066 216.427C218.066 216.427 219.928 216.936 220.755 216.427C221.582 215.919 222.449 214.057 222.449 214.057C222.449 214.057 225.507 214.399 226.522 213.722C227.189 213.271 227.814 212.762 228.391 212.203C231.527 211.943 234.645 211.496 237.728 210.863C241.122 210.013 256.737 204.945 259.116 204.436C261.496 203.927 262.343 202.574 262.511 201.758C262.679 200.941 253.88 195.973 253.88 195.973Z" fill="white" stroke="#263238" stroke-linecap="round" stroke-linejoin="round"/>
<path d="M232.592 207.541C229.997 208.311 222.751 208.311 220.607 208.15C220.336 208.102 220.057 208.114 219.791 208.185C219.525 208.256 219.278 208.385 219.068 208.562C218.857 208.739 218.689 208.96 218.574 209.21C218.459 209.459 218.4 209.731 218.402 210.005L218.066 216.433C218.066 216.433 219.928 216.941 220.755 216.433C221.582 215.924 222.449 214.062 222.449 214.062C222.449 214.062 225.507 214.404 226.522 213.728C227.189 213.276 227.814 212.768 228.391 212.208C228.391 212.208 231.241 211.96 234.125 211.538L232.592 207.541Z" fill="#0956A3" stroke="#263238" stroke-linecap="round" stroke-linejoin="round"/>
<path d="M255.239 170.783C255.239 170.783 252.355 173.99 252.691 176.361C253.027 178.731 253.881 195.972 253.881 195.972L263.554 199.862L266.242 186.169C266.242 186.169 268.454 182.614 268.111 179.233" fill="white"/>
<path d="M255.239 170.783C255.239 170.783 252.355 173.99 252.691 176.361C253.027 178.731 253.881 195.972 253.881 195.972L263.554 199.862L266.242 186.169C266.242 186.169 268.454 182.614 268.111 179.233" stroke="#263238" stroke-linecap="round" stroke-linejoin="round"/>
<path d="M253.034 196.822L262.875 202.734C262.875 202.734 264.219 202.734 264.407 200.538C264.596 198.342 265.59 198 264.743 196.822C263.896 195.643 254.896 191.914 254.049 191.914C253.202 191.914 252.355 193.943 253.034 196.822Z" fill="white" stroke="#263238" stroke-linecap="round" stroke-linejoin="round"/>
<path d="M292.754 244.669C292.754 244.669 297.842 240.277 298.696 240.444C299.55 240.612 306.332 247.039 306.332 247.039C306.332 247.039 312.61 250.42 312.61 250.929C312.61 251.438 311.595 251.599 311.595 251.599L293.446 250.929L292.754 244.669Z" fill="white" stroke="#263238" stroke-linecap="round" stroke-linejoin="round"/>
<path d="M312.582 250.929C312.582 250.421 306.304 247.039 306.304 247.039C306.304 247.039 299.515 240.612 298.668 240.444C298.366 240.384 297.519 240.906 296.564 241.603L304.778 247.374L310.761 251.572L311.567 251.606C311.567 251.606 312.582 251.432 312.582 250.929Z" fill="white" stroke="#263238" stroke-linecap="round" stroke-linejoin="round"/>
<path d="M254.897 223.538L253.203 216.434" stroke="#999999" stroke-linecap="round" stroke-linejoin="round"/>
<path d="M195.839 195.39C193.822 194.252 190.858 192.712 190.858 192.712C190.858 192.712 186.865 182.668 183.733 177.982C180.601 173.295 178.745 172.726 175.324 172.444C171.903 172.163 161.652 174.855 161.208 175.564C161.208 175.564 151.664 179.963 149.244 183.09C146.824 186.217 147.671 210.475 147.671 210.475C147.671 210.475 137.427 217.385 134.725 225.064C133.004 229.932 135.007 237.973 144.27 240.39C147.36 241.214 150.603 241.285 153.727 240.598C156.133 242.62 158.798 244.315 161.652 245.64C171.197 250.179 177.462 251.029 183.303 251.317C189.144 251.605 195.126 249.757 196.269 248.639C197.412 247.521 199.69 243.102 193.849 236.721C188.815 231.211 173.623 225.078 169.523 223.491C169.931 221.108 170.156 218.697 170.195 216.28C170.195 216.28 179.028 206.237 179.606 203.933C180.184 201.63 181.622 192.296 181.622 192.296C181.622 192.296 186.469 201.101 187.894 202.373C189.319 203.645 197.58 202.661 198.433 202.661C199.287 202.661 199.717 198.972 199.717 198.972C198.634 197.571 197.323 196.36 195.839 195.39Z" fill="white" stroke="#263238" stroke-linecap="round" stroke-linejoin="round"/>
<path d="M193.849 236.687C188.815 231.177 173.623 225.044 169.523 223.457C169.651 222.714 169.758 221.991 169.839 221.308C166.006 222.151 162.026 222.071 158.231 221.073C147.402 218.234 145.123 212.416 145.123 212.416H145.043C141.809 215.027 136.546 219.868 134.725 225.044C133.004 229.911 135.007 237.953 144.27 240.37C147.36 241.193 150.603 241.265 153.727 240.577C156.133 242.599 158.798 244.295 161.652 245.619C171.197 250.159 177.462 251.009 183.303 251.297C189.144 251.585 195.126 249.737 196.269 248.619C197.412 247.5 199.69 243.068 193.849 236.687Z" fill="#696969" stroke="#263238" stroke-linecap="round" stroke-linejoin="round"/>
<path d="M140.419 226.041C140.419 226.041 145.548 219.794 152.25 222.351C175.661 231.29 181.597 241.226 183.17 245.196C184.743 249.167 184.164 251.303 182.887 252.153C181.61 253.003 168.214 249.883 161.801 247.613C155.389 245.344 146.839 246.475 139.572 240.376C132.306 234.276 133.449 228.324 135.728 223.202" fill="#696969"/>
<path d="M140.419 226.041C140.419 226.041 145.548 219.794 152.25 222.351C175.661 231.29 181.597 241.226 183.17 245.196C184.743 249.167 184.164 251.303 182.887 252.153C181.61 253.003 168.214 249.883 161.801 247.613C155.389 245.344 146.839 246.475 139.572 240.376C132.306 234.276 133.449 228.324 135.728 223.202" stroke="#263238" stroke-linecap="round" stroke-linejoin="round"/>
<path d="M199.691 198.951C198.613 197.564 197.311 196.365 195.839 195.402C193.823 194.264 190.858 192.724 190.858 192.724C190.858 192.724 189.709 189.832 188.17 186.424C186.442 187.857 183.612 190.609 182.523 193.95C184.002 196.561 186.839 201.449 187.901 202.372C189.319 203.651 197.587 202.66 198.441 202.66C199.294 202.66 199.691 198.951 199.691 198.951Z" fill="white" stroke="#263238" stroke-linecap="round" stroke-linejoin="round"/>
<path d="M181.594 192.263L181.453 184.604" stroke="#263238" stroke-linecap="round" stroke-linejoin="round"/>
<path d="M204.316 211.531C202.715 212.103 201.179 212.839 199.731 213.727C198.387 214.738 198.206 215.589 198.206 217.109C198.206 218.628 195.147 220.657 196.68 220.657C198.212 220.657 199.369 220.148 200.753 217.617C202.138 215.087 203.805 214.337 203.805 214.337C203.91 215.561 204.136 216.772 204.477 217.952C204.952 218.96 205.014 220.113 204.652 221.166C204.309 222.505 205.996 222.184 206.514 218.488C206.788 216.129 206.438 213.74 205.499 211.558L204.316 211.531Z" fill="white" stroke="#263238" stroke-linecap="round" stroke-linejoin="round"/>
<path d="M203.979 207.462C203.979 207.462 204.483 210.314 204.315 210.964C204.147 211.613 201.767 213.427 200.921 214.981C200.582 215.613 200.378 216.308 200.32 217.022C200.262 217.736 200.352 218.454 200.584 219.132C200.921 220.17 201.929 223.538 202.446 222.634C202.964 221.73 203.119 220.685 203.119 218.744C203.119 216.802 202.782 215.108 203.791 214.331L204.812 213.555C205.305 214.687 205.703 215.859 206.002 217.056C206.674 219.52 205.491 221.596 205.827 221.984C206.164 222.373 207.528 222.112 207.696 221.074C207.864 220.036 208.543 218.871 208.543 216.795C208.532 215.529 208.152 214.294 207.447 213.24C207.13 212.366 206.874 211.471 206.681 210.562C206.379 208.995 205.337 206.036 203.979 207.462Z" fill="white" stroke="#263238" stroke-linecap="round" stroke-linejoin="round"/>
<path d="M209.237 202.909C209.974 204.151 210.647 205.429 211.253 206.739C211.677 207.877 211.966 209.156 211.253 209.417C210.541 209.678 209.969 207.717 209.539 206.866C209.109 206.016 207.671 202.34 209.237 202.909Z" fill="#0956A3" stroke="#263238" stroke-linecap="round" stroke-linejoin="round"/>
<path d="M209.236 202.908C208.382 201.067 203.536 198.221 202.252 197.518C201.358 197.016 198.501 196.943 196.875 196.936C196.485 196.876 196.088 196.876 195.698 196.936C195.698 196.936 193.42 198.637 193.561 200.484C193.614 201.011 193.84 201.506 194.205 201.891C194.57 202.276 195.052 202.53 195.578 202.614H196.25C196.141 203.303 196.261 204.008 196.592 204.622C197.729 206.37 198.421 208.367 198.609 210.441C198.609 212.289 200.747 211.579 201.029 210.159C201.311 208.74 200.605 206.189 200.605 205.62C200.605 205.051 201.741 203.491 201.741 203.491C201.741 203.491 204.88 206.751 205.304 207.461C205.727 208.171 205.875 211.86 207.018 212.148C208.161 212.436 208.154 210.139 208.154 210.139C208.39 210.159 208.628 210.129 208.852 210.053C209.076 209.976 209.281 209.854 209.456 209.694C209.63 209.534 209.769 209.34 209.864 209.124C209.96 208.908 210.009 208.675 210.009 208.439C210.245 206.56 209.978 204.652 209.236 202.908Z" fill="#0956A3" stroke="#263238" stroke-linecap="round" stroke-linejoin="round"/>
<path d="M206.102 203.336C206.102 203.336 208.232 204.608 208.232 205.887C208.232 207.166 208.091 210.145 208.091 210.145" stroke="#263238" stroke-linecap="round" stroke-linejoin="round"/>
<path d="M183.592 248.498C183.592 250.506 184.728 250.767 180.311 253.466C175.895 256.164 169.2 254.316 162.647 252.897C156.093 251.477 148.255 250.339 145.264 250.339C142.273 250.339 135.128 251.444 132.439 251.444C129.75 251.444 125.321 251.162 125.892 249.743C126.463 248.324 133.723 246.047 134.294 245.485C134.866 244.922 134.724 243.777 136.149 241.648C136.472 241.064 136.994 240.615 137.62 240.382C138.247 240.148 138.936 240.146 139.564 240.376C142.081 242.673 145.207 244.2 148.571 244.775C153.949 245.625 163.809 246.047 167.661 246.047C171.513 246.047 176.352 247.754 176.776 247.754" fill="#696969"/>
<path d="M183.592 248.498C183.592 250.506 184.728 250.767 180.311 253.466C175.895 256.164 169.2 254.316 162.647 252.897C156.093 251.477 148.255 250.339 145.264 250.339C142.273 250.339 135.128 251.444 132.439 251.444C129.75 251.444 125.321 251.162 125.892 249.743C126.463 248.324 133.723 246.047 134.294 245.485C134.866 244.922 134.724 243.777 136.149 241.648C136.472 241.064 136.994 240.615 137.62 240.382C138.247 240.148 138.936 240.146 139.564 240.376C142.081 242.673 145.207 244.2 148.571 244.775C153.949 245.625 163.809 246.047 167.661 246.047C171.513 246.047 176.352 247.754 176.776 247.754" stroke="#263238" stroke-linecap="round" stroke-linejoin="round"/>
<path d="M148.573 244.775C145.219 244.195 142.102 242.668 139.593 240.376C138.965 240.146 138.275 240.148 137.649 240.382C137.022 240.615 136.5 241.064 136.178 241.648C134.753 243.777 134.894 244.916 134.323 245.485C133.751 246.054 126.485 248.324 125.921 249.743C125.356 251.162 129.752 251.444 132.441 251.444C135.129 251.444 142.275 250.305 145.266 250.305C146.82 250.349 148.37 250.476 149.911 250.687C149.911 250.56 149.857 250.433 149.823 250.305C149.406 248.538 150.603 246.228 151.268 245.13C150.28 245.023 149.359 244.902 148.573 244.775Z" fill="white" stroke="#263238" stroke-linecap="round" stroke-linejoin="round"/>
<path d="M139.564 240.376C138.936 240.146 138.247 240.148 137.62 240.382C136.994 240.615 136.472 241.064 136.15 241.648C134.725 243.777 134.866 244.916 134.294 245.485C133.723 246.054 126.457 248.324 125.892 249.743C125.684 250.245 126.114 250.6 126.867 250.854C128.541 249.067 133.858 247.58 135.343 246.502C136.829 245.424 135.719 245.056 137.286 242.927C137.676 242.43 138.161 242.015 138.714 241.707C139.267 241.399 139.876 241.204 140.505 241.133C139.887 240.691 139.564 240.376 139.564 240.376Z" stroke="#263238" stroke-linecap="round" stroke-linejoin="round"/>
<path d="M152.672 180.203C152.672 180.203 146.831 182.473 145.695 187.153C144.559 191.833 146.69 220.932 146.69 221.642C146.69 222.351 150.534 223.061 156.524 223.65C162.513 224.239 173.617 224.36 173.617 224.36C173.617 224.36 178.463 226.482 179.458 226.482C180.453 226.482 182.59 225.21 182.59 225.21C182.59 225.21 182.308 226.482 183.444 226.201C184.58 225.92 188.432 222.793 188.432 222.231C188.432 221.668 185.871 218.963 184.305 218.682C182.738 218.401 175.754 221.093 175.042 221.093C174.329 221.093 161.935 218.414 159.656 217.403C157.844 216.671 155.987 216.054 154.097 215.555L155.099 191.01" fill="white"/>
<path d="M152.672 180.203C152.672 180.203 146.831 182.473 145.695 187.153C144.559 191.833 146.69 220.932 146.69 221.642C146.69 222.351 150.534 223.061 156.524 223.65C162.513 224.239 173.617 224.36 173.617 224.36C173.617 224.36 178.463 226.482 179.458 226.482C180.453 226.482 182.59 225.21 182.59 225.21C182.59 225.21 182.308 226.482 183.444 226.201C184.58 225.92 188.432 222.793 188.432 222.231C188.432 221.668 185.871 218.963 184.305 218.682C182.738 218.401 175.754 221.093 175.042 221.093C174.329 221.093 161.935 218.414 159.656 217.403C157.844 216.671 155.987 216.054 154.097 215.555L155.099 191.01" stroke="#263238" stroke-linecap="round" stroke-linejoin="round"/>
<path d="M184.305 218.663C182.732 218.375 175.755 221.073 175.042 221.073C174.33 221.073 161.935 218.395 159.656 217.384C157.844 216.652 155.988 216.034 154.097 215.536L154.642 202.084L145.574 201.736C145.957 211.036 146.69 221.227 146.69 221.642C146.69 222.352 150.535 223.062 156.524 223.651C162.513 224.24 173.617 224.36 173.617 224.36C173.617 224.36 178.464 226.483 179.459 226.483C180.453 226.483 182.591 225.211 182.591 225.211C182.591 225.211 182.309 226.483 183.445 226.202C184.581 225.92 188.432 222.794 188.432 222.231C188.432 221.669 185.871 218.944 184.305 218.663Z" fill="white" stroke="#263238" stroke-linecap="round" stroke-linejoin="round"/>
<path d="M188.431 222.212C188.431 221.643 185.87 218.944 184.304 218.663C182.737 218.382 175.754 221.074 175.041 221.074C174.819 221.074 173.461 220.812 171.626 220.404C170.954 221.074 170.316 222.225 170.531 224.261L173.616 224.321C173.616 224.321 178.462 226.443 179.457 226.443C180.452 226.443 182.59 225.171 182.59 225.171C182.59 225.171 182.307 226.443 183.443 226.162C184.579 225.881 188.431 222.774 188.431 222.212Z" fill="#0956A3" stroke="#263238" stroke-linecap="round" stroke-linejoin="round"/>
<path d="M157.377 152.384C157.377 152.384 151.959 148.132 149.822 149.552C147.684 150.971 138.711 162.32 137.857 165.44C137.003 168.56 141.702 169.277 139.995 171.828C138.287 174.379 135.007 175.376 136.291 178.523C137.575 181.67 142.704 181.931 143.839 182.641C144.975 183.351 146.831 186.049 150.965 184.911C155.098 183.772 154.238 178.523 157.377 177.813C160.516 177.104 160.227 172.852 158.802 169.444C157.377 166.036 156.523 161.356 158.231 159.227C159.938 157.098 157.377 152.384 157.377 152.384Z" fill="#263238" stroke="#263238" stroke-linecap="round" stroke-linejoin="round"/>
<path d="M160.536 149.465C160.536 149.465 156.167 149.713 154.103 155.15C152.04 160.587 154.103 168.688 154.708 170.021C155.313 171.353 158.472 172.699 160.415 171.587C162.358 170.476 165.026 166.271 166.962 165.18C168.898 164.088 172.79 159.502 172.79 159.502L175.579 163.004C175.579 163.004 177.401 162.763 178.127 159.261C178.853 155.759 176.191 152.01 171.822 149.834C167.453 147.658 162.721 147.778 160.536 149.465Z" fill="#263238" stroke="#263238" stroke-linecap="round" stroke-linejoin="round"/>
<path d="M159.938 173.956C159.938 173.956 160.079 178.215 161.08 180.063C162.082 181.911 164.643 190.106 167.916 190.421C171.19 190.735 171.049 178.924 171.049 178.924C171.049 178.924 167.204 179.065 164.925 176.655C162.646 174.244 160.227 172.838 159.938 173.956Z" stroke="#263238" stroke-linecap="round" stroke-linejoin="round"/>
<path d="M173.275 155.992C173.275 155.992 168.18 161.918 164.173 164.455C160.167 166.993 158.352 167.354 158.352 167.354C158.352 167.354 159.925 167.113 158.836 168.205C157.747 169.296 157.492 169.544 156.894 168.566C156.295 167.589 153.862 166.631 153.372 169.048C153.163 170.057 153.318 171.107 153.81 172.013C154.302 172.92 155.099 173.624 156.06 174.003C157.096 174.437 158.245 174.522 159.334 174.244C159.334 174.244 159.697 178.355 164.55 180.772C169.403 183.189 173.9 179.808 175.231 177.27C176.562 174.733 176.084 163.25 175.836 161.315C175.587 159.38 173.275 155.992 173.275 155.992Z" fill="white" stroke="#263238" stroke-linecap="round" stroke-linejoin="round"/>
<path d="M172.051 167.43C172.051 167.43 171.762 169.699 172.192 169.84C172.622 169.981 174.209 170.55 173.617 171.407C173.026 172.264 172.192 172.826 171.197 172.398" stroke="#263238" stroke-linecap="round" stroke-linejoin="round"/>
<path d="M165.637 174.385C165.637 174.385 166.779 176.226 171.196 175.235" stroke="#263238" stroke-linecap="round" stroke-linejoin="round"/>
<path d="M168.206 168.354C168.206 169.023 167.884 169.559 167.494 169.559C167.104 169.559 166.781 169.016 166.781 168.354C166.781 167.691 167.097 167.148 167.494 167.148C167.89 167.148 168.206 167.684 168.206 168.354Z" fill="#263238"/>
<path d="M174.329 167.643C174.329 168.312 174.013 168.848 173.617 168.848C173.22 168.848 172.904 168.306 172.904 167.643C172.904 166.98 173.22 166.438 173.617 166.438C174.013 166.438 174.329 166.973 174.329 167.643Z" fill="#263238"/>
<path d="M165.375 166.143C165.764 165.667 166.27 165.3 166.843 165.077C167.417 164.854 168.039 164.783 168.648 164.871" stroke="#263238" stroke-linecap="round" stroke-linejoin="round"/>
<path d="M172.191 164.731C172.191 164.731 173.045 162.89 174.88 164.169" stroke="#263238" stroke-linecap="round" stroke-linejoin="round"/>
<path d="M219.592 214.572C219.592 214.572 205.84 218.971 202.116 220.324C198.392 221.676 186.159 221.844 185.312 223.196C184.465 224.549 178.375 232.195 177.185 236.587C175.995 240.979 177.575 252.877 178.711 253.62C183.275 256.627 195.28 255.703 200.362 255.509C209.658 255.167 218.658 258.508 223.888 249.081C225.582 246.034 223.135 235.369 222.799 231.82C222.463 228.271 221.266 222.352 221.098 221.502C220.93 220.652 222.14 215.249 219.592 214.572Z" fill="white" stroke="#263238" stroke-linecap="round" stroke-linejoin="round"/>
<path d="M202.393 231.759C209.666 229.201 215.87 221.716 217.799 220.457C219.728 219.198 220.783 216.439 220.783 216.439C217.737 218.484 214.429 220.115 210.949 221.287" stroke="#263238" stroke-linecap="round" stroke-linejoin="round"/>
<path d="M220.58 217.658C219.205 221.888 216.774 225.701 213.516 228.739" stroke="#263238" stroke-linecap="round" stroke-linejoin="round"/>
<path d="M188.055 223.625C188.055 223.625 190.192 224.69 197.465 224.69" stroke="#263238" stroke-linecap="round" stroke-linejoin="round"/>
<path d="M187.195 223.838C187.195 223.838 188.909 231.297 198.542 234.283" stroke="#263238" stroke-linecap="round" stroke-linejoin="round"/>
<path d="M185.488 226.402C186.949 228.968 188.912 231.216 191.262 233.011" stroke="#263238" stroke-linecap="round" stroke-linejoin="round"/>
<path d="M50.3953 190.764C50.3953 190.764 54.1931 201.55 54.1931 205.902C54.1931 210.254 57.2314 234.097 57.6078 236.748C57.86 238.395 58.3751 239.991 59.1336 241.475C61.7283 243.864 64.6753 245.842 67.8719 247.341C73.377 250.019 73.1888 249.236 72.241 250.367C71.2933 251.499 62.5483 251.706 58.5623 251.318C54.5763 250.929 50.5836 252.262 50.3953 250.561C50.2071 248.861 50.2004 242.045 50.2004 239.018C50.2004 235.992 42.2217 221.047 41.2739 216.307C40.3262 211.567 40.7026 204.202 40.7026 204.202L35.957 192.819L50.3953 190.764Z" fill="white" stroke="#263238" stroke-linecap="round" stroke-linejoin="round"/>
<path d="M57.8282 243.37V246.048L50.2461 244.595C50.2461 247.153 50.3133 249.65 50.4209 250.621C50.6091 252.322 54.5951 250.996 58.5878 251.378C62.5805 251.759 71.3121 251.565 72.2666 250.427C73.221 249.289 73.4025 250.052 67.8974 247.4C64.7023 245.899 61.7557 243.921 59.1591 241.535C59.1591 241.535 57.8282 241.662 57.8282 243.37Z" fill="#263238" stroke="#263238" stroke-linecap="round" stroke-linejoin="round"/>
<path d="M34.812 191.901C34.812 191.901 35.3632 203.759 33.4677 208.553C23.9699 232.77 23.5934 241.856 23.5934 241.856C23.5934 241.856 33.1047 249.04 35.1952 249.837C37.2856 250.634 38.4216 250.969 37.0907 251.913C35.7598 252.857 23.7951 252.669 21.7046 252.669C19.6142 252.669 14.4855 251.156 13.9208 250.212C13.3562 249.268 15.2652 241.695 15.2652 241.695C15.2652 241.695 16.2197 222.774 16.2197 218.422C16.2197 214.07 20.9652 205.56 20.9652 204.04C20.9652 202.52 20.0175 191.178 20.0175 191.178C20.0175 191.178 31.3974 193.983 34.812 191.901Z" fill="white" stroke="#263238" stroke-linecap="round" stroke-linejoin="round"/>
<path d="M37.0916 251.879C38.4359 250.935 37.2865 250.54 35.196 249.803C33.1056 249.067 23.6077 241.855 23.6077 241.855C23.6077 241.855 22.66 242.23 22.66 243.744C22.7028 244.54 22.5037 245.331 22.0886 246.013C22.0886 246.013 19.0504 245.451 15.4408 244.674C15.1383 244.614 14.8628 244.554 14.5939 244.487C14.1032 246.743 13.5856 249.609 13.9217 250.165C14.4863 251.109 19.615 252.622 21.7055 252.622C23.796 252.622 35.7674 252.829 37.0916 251.879Z" fill="#263238" stroke="#263238" stroke-linecap="round" stroke-linejoin="round"/>
<path d="M50.5824 134.943L57.6066 145.161L86.6714 141.003V146.486C86.6714 146.486 57.8284 154.434 56.6588 153.49C55.4892 152.546 45.8301 148 45.8301 148L50.5824 134.943Z" fill="#B5B5B5" stroke="#263238" stroke-linecap="round" stroke-linejoin="round"/>
<path d="M24.5543 121.512C24.5543 121.512 22.4638 133.624 22.4638 138.539V155.947C22.4638 155.947 16.4142 165.602 15.4396 174.112C14.4649 182.622 14.2969 192.089 14.2969 192.089C14.2969 192.089 23.4183 196.066 30.8257 195.497C35.2333 195.162 39.6127 194.527 43.9331 193.596L54.3787 191.138L46.5882 155.947C46.5882 155.947 50.3927 145.904 50.9573 145.355C51.5219 144.806 53.646 137.99 52.8596 132.861C52.0731 127.732 49.25 117.16 43.3617 114.321C37.4735 111.482 27.2161 114.89 24.5543 121.512Z" fill="#5E5E5E" stroke="#263238" stroke-linecap="round" stroke-linejoin="round"/>
<path d="M33.213 156.1C32.8012 159.186 31.4981 162.087 29.4623 164.449C26.1014 168.312 23.3321 169.055 23.3321 169.055C23.3321 169.055 21.7054 184.783 22.3305 190.916" stroke="#263238" stroke-linecap="round" stroke-linejoin="round"/>
<path d="M34.9741 156.623C34.6367 159.524 33.6982 162.324 32.2181 164.845C29.8386 168.708 24.8242 170.081 24.8242 170.081" stroke="#263238" stroke-linecap="round" stroke-linejoin="round"/>
<path d="M46.7842 120.185C45.7894 116.804 42.9058 114.575 41.4942 113.657C37.1049 112.579 31.3242 114.106 27.6138 117.353C27.5466 117.755 27.4995 118.117 27.4054 118.485C27.2172 119.241 24.3672 135.699 24.3672 135.699C24.3672 135.699 25.0394 135.833 26.088 136.02C25.0394 141.343 26.2157 150.221 26.2157 150.221C26.2157 150.221 31.8283 152.023 36.1706 151.842C40.5128 151.661 45.581 149.164 45.581 149.164C45.581 147.644 46.8514 140.018 47.4497 136.509H47.732C47.732 136.509 48.1084 124.725 46.7842 120.185Z" fill="white" stroke="#263238" stroke-linecap="round" stroke-linejoin="round"/>
<path d="M38.8864 134.721C38.8864 134.721 32.1647 141.416 28.75 142.467L38.8864 134.721Z" fill="white"/>
<path d="M38.8864 134.721C38.8864 134.721 32.1647 141.416 28.75 142.467" stroke="#263238" stroke-linecap="round" stroke-linejoin="round"/>
<path d="M38.8861 138.143C38.8861 138.143 35.0816 141.571 32.0098 144.095L38.8861 138.143Z" fill="white"/>
<path d="M38.8861 138.143C38.8861 138.143 35.0816 141.571 32.0098 144.095" stroke="#263238" stroke-linecap="round" stroke-linejoin="round"/>
<path d="M53.525 187.281C50.1635 189.068 46.4124 190.004 42.6022 190.006C42.6022 190.006 36.9021 192.47 27.9756 192.089C23.2134 191.831 18.5765 190.474 14.4313 188.125C14.3305 190.535 14.2969 192.089 14.2969 192.089C14.2969 192.089 23.4183 196.066 30.8257 195.497C35.2333 195.162 39.6127 194.526 43.9331 193.595L54.3787 191.138L53.525 187.281Z" fill="white" stroke="#263238" stroke-linecap="round" stroke-linejoin="round"/>
<path d="M42.793 193.984L43.1761 173.355" stroke="#263238" stroke-linecap="round" stroke-linejoin="round"/>
<path d="M61.599 95.2107V100.125C61.599 100.125 64.0659 102.02 62.5467 103.346C61.9361 103.959 61.2302 104.47 60.4563 104.859C60.4563 104.859 59.5085 109.211 57.418 111.293C55.3276 113.376 54.1916 112.994 51.1534 110.912C48.1151 108.829 46.2129 107.51 46.2129 107.51C46.2129 107.51 48.1084 98.2371 49.4393 95.2107C50.7702 92.1844 54.9512 91.8027 57.0416 92.1777C59.1321 92.5526 61.599 95.2107 61.599 95.2107Z" fill="white" stroke="#263238" stroke-linecap="round" stroke-linejoin="round"/>
<path d="M59.5218 99.7585C59.5218 100.328 59.2664 100.79 58.9572 100.79C58.648 100.79 58.3926 100.328 58.3926 99.7585C58.3926 99.1894 58.6413 98.7207 58.9572 98.7207C59.2731 98.7207 59.5218 99.1894 59.5218 99.7585Z" fill="#263238"/>
<path d="M57.7266 97.3134C57.7266 97.3134 58.7684 95.6261 60.18 97.0322" stroke="#263238" stroke-linecap="round" stroke-linejoin="round"/>
<path d="M56.3164 105.215C56.9408 105.848 57.7856 106.217 58.6757 106.246" stroke="#263238" stroke-linecap="round" stroke-linejoin="round"/>
<path d="M53.1216 93.6175C53.1216 93.6175 49.1289 103.152 49.3306 107.725C49.5322 112.298 54.708 125.414 52.5234 129.787C50.3388 134.159 45.7277 137.352 42.3668 132.17C39.006 126.988 37.7759 125.414 35.5846 128.588C33.3933 131.762 30.7987 137.533 25.8112 137.533C20.8236 137.533 14.8077 130.978 17.7988 124.022C20.79 117.065 27.579 114.086 31.7666 107.33C34.8413 102.529 37.0057 97.2075 38.1523 91.6289L53.5115 92.2248L53.1216 93.6175Z" fill="#263238" stroke="#263238" stroke-linecap="round" stroke-linejoin="round"/>
<path d="M37.7518 94.6089H61.6946C61.6946 94.6089 61.6946 84.4719 59.6781 82.8851C57.6616 81.2983 41.926 81.6933 40.1313 82.8851C38.3365 84.0769 36.9922 93.4171 37.7518 94.6089Z" fill="#0956A3" stroke="#263238" stroke-linecap="round" stroke-linejoin="round"/>
<path d="M54.043 94.502C54.043 94.502 59.6287 96.6847 64.6163 96.6847C69.6038 96.6847 72.1984 94.502 72.1984 94.502H54.043Z" fill="#0956A3" stroke="#263238" stroke-linecap="round" stroke-linejoin="round"/>
<path d="M93.3187 140.031C93.3187 140.031 95.4091 139.656 95.4091 141.17C95.4091 142.683 92.9423 142.509 90.8518 141.739C88.7613 140.969 91.6114 140.433 93.3187 140.031Z" fill="#B5B5B5" stroke="#263238" stroke-linecap="round" stroke-linejoin="round"/>
<path d="M93.7026 141.947C93.7026 141.947 95.793 141.565 95.793 143.085C95.793 144.605 93.3194 144.424 91.2357 143.648C89.1519 142.871 91.9952 142.329 93.7026 141.947Z" fill="#B5B5B5" stroke="#263238" stroke-linecap="round" stroke-linejoin="round"/>
<path d="M94.0851 143.842C94.0851 143.842 96.1688 143.46 96.1688 144.973C96.1688 146.486 93.7019 146.312 91.6115 145.542C89.521 144.772 92.371 144.217 94.0851 143.842Z" fill="#B5B5B5" stroke="#263238" stroke-linecap="round" stroke-linejoin="round"/>
<path d="M93.7084 145.775C93.7084 145.775 95.7989 145.394 95.7989 146.907C95.7989 148.42 93.3253 148.246 91.2415 147.476C89.1578 146.706 92.0011 146.15 93.7084 145.775Z" fill="#B5B5B5" stroke="#263238" stroke-linecap="round" stroke-linejoin="round"/>
<path d="M84.5812 141.945C84.5812 141.945 72.8047 167.676 72.8047 169.397C72.8047 171.118 72.8047 175.637 73.9474 178.288C75.0901 180.94 81.9261 185.854 84.9643 186.424C88.0026 186.993 100.922 183.966 102.441 183.585C103.96 183.203 107.953 172.611 107.758 170.528C107.563 168.446 102.629 160.485 101.87 159.18C101.11 157.874 94.8453 149.337 94.0858 147.797C93.3262 146.257 91.0408 142.314 91.0408 142.314L84.5812 141.945Z" fill="white" stroke="#263238" stroke-linecap="round" stroke-linejoin="round"/>
<path d="M86.6715 146.486L85.1523 157.654" stroke="#263238" stroke-linecap="round" stroke-linejoin="round"/>
<path d="M89.332 145.16V159.924" stroke="#263238" stroke-linecap="round" stroke-linejoin="round"/>
<path d="M91.2344 143.646L96.5513 160.298" stroke="#263238" stroke-linecap="round" stroke-linejoin="round"/>
<path d="M53.7956 143.459C53.7956 143.459 44.4927 120.024 42.019 118.859C39.5454 117.694 32.1582 117.935 32.9178 126.64C33.6774 135.344 48.3039 153.509 50.1994 153.696C52.095 153.883 81.9261 144.048 81.9261 144.048C81.9261 144.048 92.0087 145.387 92.7548 144.235C93.5009 143.084 93.7026 138.939 93.7026 138.939C93.7026 138.939 95.0469 136.1 93.7026 135.156C92.3582 134.212 86.3087 134.775 85.3475 134.775C84.3862 134.775 79.8356 139.314 79.8356 139.314L53.7956 143.459Z" fill="white" stroke="#263238" stroke-linecap="round" stroke-linejoin="round"/>
<path d="M92.7816 144.217C93.5411 143.085 93.7293 138.921 93.7293 138.921C93.7293 138.921 95.0737 136.082 93.7293 135.138C92.385 134.194 86.3354 134.756 85.3742 134.756C84.413 134.756 79.8624 139.296 79.8624 139.296L74.9219 140.086L75.7621 146.051C79.412 144.866 81.9528 144.043 81.9528 144.043C81.9528 144.043 91.9951 145.389 92.7816 144.217Z" fill="#0956A3" stroke="#263238" stroke-linecap="round" stroke-linejoin="round"/>
<path d="M96.168 132.484L106.997 138.162L104.906 141.945L96.168 132.484Z" fill="white" stroke="#263238" stroke-linecap="round" stroke-linejoin="round"/>
<path d="M87.2422 134.381L88.7613 130.404C88.7613 130.404 89.904 129.835 94.0849 130.973C98.2659 132.111 106.426 143.648 106.426 143.648C106.426 143.648 100.538 147.812 99.5901 148C98.6423 148.187 95.2209 137.957 94.8445 137.026C94.5432 136.352 94.1594 135.718 93.7018 135.138L87.2422 134.381Z" fill="white" stroke="#263238" stroke-linecap="round" stroke-linejoin="round"/>
<path d="M93.7007 135.137L90.3398 132.961" stroke="#263238" stroke-linecap="round" stroke-linejoin="round"/>
<path d="M116.112 176.938H68.1992V251.726H116.112V176.938Z" fill="#0956A3" stroke="#263238" stroke-linecap="round" stroke-linejoin="round"/>
<path d="M115.998 202.3H68.3142C67.9755 202.3 67.6507 202.166 67.4112 201.928C67.1717 201.689 67.0371 201.365 67.0371 201.028C67.0371 200.691 67.1717 200.367 67.4112 200.128C67.6507 199.89 67.9755 199.756 68.3142 199.756H115.998C116.337 199.756 116.662 199.89 116.901 200.128C117.141 200.367 117.275 200.691 117.275 201.028C117.275 201.365 117.141 201.689 116.901 201.928C116.662 202.166 116.337 202.3 115.998 202.3Z" fill="#0956A3" stroke="#263238" stroke-linecap="round" stroke-linejoin="round"/>
<path d="M115.998 178.062H68.3142C67.9755 178.062 67.6507 177.928 67.4112 177.689C67.1717 177.451 67.0371 177.127 67.0371 176.79C67.0371 176.452 67.1717 176.129 67.4112 175.89C67.6507 175.652 67.9755 175.518 68.3142 175.518H115.998C116.337 175.518 116.662 175.652 116.901 175.89C117.141 176.129 117.275 176.452 117.275 176.79C117.275 177.127 117.141 177.451 116.901 177.689C116.662 177.928 116.337 178.062 115.998 178.062Z" fill="#0956A3" stroke="#263238" stroke-linecap="round" stroke-linejoin="round"/>
<path d="M115.998 227.636H68.3142C67.9755 227.636 67.6507 227.502 67.4112 227.263C67.1717 227.025 67.0371 226.701 67.0371 226.364C67.0371 226.027 67.1717 225.703 67.4112 225.464C67.6507 225.226 67.9755 225.092 68.3142 225.092H115.998C116.337 225.092 116.662 225.226 116.901 225.464C117.141 225.703 117.275 226.027 117.275 226.364C117.275 226.701 117.141 227.025 116.901 227.263C116.662 227.502 116.337 227.636 115.998 227.636Z" fill="#0956A3" stroke="#263238" stroke-linecap="round" stroke-linejoin="round"/>
</g>
<defs>
<clipPath id="clip0_1212_180496">
<rect width="322" height="288" fill="white" transform="translate(0 -8)"/>
</clipPath>
</defs>
</svg>
