<svg width="315" height="315" viewBox="0 0 315 315" fill="none" xmlns="http://www.w3.org/2000/svg">
<path d="M223.769 80.5339L234.068 71.4342L235.673 73.2505L230.928 77.4432L239.274 77.3259L241.324 79.6459L232.472 79.7751L231.281 89.0357L229.231 86.7157L230.363 77.942L225.374 82.3503L223.769 80.5339Z" fill="#0956A3"/>
<path d="M234.863 90.833C235.258 88.9543 236.308 87.4589 238.014 86.3469C239.72 85.2349 241.512 84.877 243.391 85.273C245.288 85.673 246.797 86.7317 247.917 88.4491C249.023 90.1438 249.376 91.9399 248.976 93.8374C248.577 95.7349 247.53 97.2359 245.836 98.3405C244.142 99.4451 242.346 99.7974 240.448 99.3974C238.569 99.0013 237.074 97.9503 235.961 96.2442C234.833 94.5154 234.467 92.7117 234.863 90.833ZM239.411 88.4513C238.262 89.2001 237.543 90.1961 237.252 91.4395C236.964 92.6641 237.188 93.8394 237.922 94.9654C238.649 96.08 239.631 96.753 240.868 96.9842C242.123 97.2194 243.325 96.9626 244.473 96.2139C245.599 95.4799 246.308 94.4913 246.599 93.2479C246.89 92.0045 246.675 90.8312 245.956 89.7279C245.229 88.6133 244.238 87.9384 242.982 87.7032C241.727 87.468 240.537 87.7174 239.411 88.4513Z" fill="#0956A3"/>
<path d="M242.18 106.317L241.186 104.107L253.721 98.4706L254.715 100.681L249.534 103.011L252.434 109.456L257.615 107.126L258.61 109.336L246.075 114.973L245.08 112.762L250.391 110.374L247.491 103.929L242.18 106.317Z" fill="#0956A3"/>
<path d="M259.409 118.75L258.103 114.23L260.255 113.609L263.541 124.976L261.389 125.598L260.083 121.078L249.029 124.27L248.356 121.942L259.409 118.75Z" fill="#0956A3"/>
<path d="M251.053 132.288L250.692 129.768L265.136 133.674L265.416 135.629L252.648 143.437L252.287 140.917L254.807 139.406L253.896 133.035L251.053 132.288ZM256.872 138.165L261.871 135.147L256.226 133.649L256.872 138.165Z" fill="#0956A3"/>
<path d="M252.77 145.885L266.516 145.838L266.525 148.261L260.192 148.283L266.546 153.699L266.558 156.794L259.815 151.054L252.813 157.228L252.801 154.133L259.438 148.286L252.779 148.309L252.77 145.885Z" fill="#0956A3"/>
<path d="M263.582 164.488L264.179 159.822L266.401 160.107L264.901 171.843L262.679 171.558L263.275 166.892L251.862 165.429L252.169 163.025L263.582 164.488Z" fill="#0956A3"/>
<path d="M249.36 177.947L251.054 172.079L264.261 175.897L263.589 178.225L258.795 176.839L257.773 180.38C257.404 181.658 256.692 182.604 255.639 183.218C254.581 183.845 253.459 183.987 252.272 183.644C251.059 183.293 250.179 182.572 249.632 181.481C249.078 180.417 248.987 179.239 249.36 177.947ZM246.93 186.36L247.608 184.012L260.815 187.831L260.137 190.178L246.93 186.36ZM256.663 176.223L252.534 175.029L251.512 178.57C251.342 179.157 251.397 179.702 251.675 180.207C251.953 180.711 252.386 181.048 252.973 181.218C253.534 181.38 254.063 181.335 254.559 181.083C255.052 180.844 255.398 180.456 255.595 179.92L256.663 176.223Z" fill="#0956A3"/>
<path d="M225.926 220.537L235.496 230.408L233.757 232.094L229.347 227.547L229.854 235.879L227.632 238.033L227.09 229.196L217.784 228.431L220.006 226.277L228.823 227.006L224.186 222.224L225.926 220.537Z" fill="#0956A3"/>
<path d="M216.234 232.009C218.129 232.319 219.671 233.3 220.861 234.953C222.051 236.607 222.491 238.381 222.182 240.276C221.871 242.189 220.883 243.745 219.219 244.942C217.577 246.123 215.799 246.557 213.885 246.245C211.971 245.932 210.424 244.955 209.242 243.313C208.06 241.67 207.625 239.892 207.937 237.979C208.245 236.084 209.226 234.542 210.879 233.353C212.554 232.148 214.339 231.7 216.234 232.009ZM218.823 236.444C218.022 235.331 216.994 234.658 215.738 234.423C214.502 234.192 213.338 234.469 212.247 235.254C211.167 236.031 210.541 237.042 210.367 238.288C210.19 239.553 210.502 240.742 211.303 241.855C212.088 242.946 213.109 243.609 214.364 243.843C215.62 244.077 216.782 243.81 217.851 243.041C218.931 242.264 219.559 241.243 219.736 239.978C219.913 238.714 219.609 237.536 218.823 236.444Z" fill="#0956A3"/>
<path d="M201.071 240.051L203.234 238.958L209.435 251.229L207.272 252.321L204.709 247.249L198.403 250.435L200.966 255.506L198.803 256.599L192.602 244.328L194.765 243.236L197.392 248.435L203.699 245.25L201.071 240.051Z" fill="#0956A3"/>
<path d="M189.549 257.785L194 256.264L194.725 258.384L183.53 262.209L182.805 260.089L187.256 258.568L183.532 247.68L185.825 246.897L189.549 257.785Z" fill="#0956A3"/>
<path d="M175.642 250.058L178.142 249.579L174.933 264.191L172.993 264.562L164.582 252.176L167.082 251.697L168.713 254.143L175.032 252.932L175.642 250.058ZM170.051 256.147L173.304 260.998L174.531 255.289L170.051 256.147Z" fill="#0956A3"/>
<path d="M162.184 252.397L162.886 266.125L160.465 266.248L160.142 259.923L155.035 266.523L151.944 266.68L157.356 259.677L150.856 252.971L153.947 252.815L160.104 259.17L159.764 252.52L162.184 252.397Z" fill="#0956A3"/>
<path d="M144.158 264.066L148.847 264.443L148.669 266.676L136.874 265.728L137.053 263.495L141.742 263.872L142.659 252.403L145.075 252.597L144.158 264.066Z" fill="#0956A3"/>
<path d="M130.113 250.509L136.057 251.923L132.88 265.296L130.522 264.734L131.675 259.881L128.089 259.027C126.794 258.719 125.815 258.054 125.151 257.031C124.474 256.004 124.278 254.89 124.564 253.688C124.855 252.46 125.533 251.547 126.596 250.949C127.633 250.344 128.805 250.197 130.113 250.509ZM121.593 248.481L123.971 249.047L120.794 262.42L118.416 261.854L121.593 248.481ZM132.188 257.721L133.181 253.541L129.595 252.688C129.001 252.546 128.458 252.627 127.968 252.929C127.477 253.23 127.162 253.679 127.02 254.273C126.886 254.841 126.956 255.367 127.232 255.851C127.494 256.332 127.898 256.659 128.443 256.83L132.188 257.721Z" fill="#0956A3"/>
<path d="M86.8168 229.489L77.4422 239.539L75.6698 237.886L79.9891 233.255L71.6931 234.176L69.4292 232.064L78.2273 231.083L78.5208 221.75L80.7847 223.862L80.5029 232.705L85.0444 227.836L86.8168 229.489Z" fill="#0956A3"/>
<path d="M74.6417 220.16C74.4279 222.068 73.5253 223.657 71.9339 224.927C70.3425 226.197 68.5928 226.725 66.6847 226.511C64.7576 226.294 63.1545 225.384 61.8753 223.782C60.6131 222.2 60.09 220.446 60.3059 218.519C60.5219 216.592 61.4202 214.998 63.001 213.736C64.5818 212.475 66.3358 211.952 68.2629 212.169C70.1709 212.384 71.7603 213.287 73.031 214.879C74.3186 216.492 74.8555 218.252 74.6417 220.16ZM70.3423 222.966C71.4139 222.111 72.035 221.05 72.2058 219.785C72.3745 218.538 72.0395 217.39 71.2009 216.339C70.3707 215.299 69.3291 214.723 68.0761 214.611C66.8041 214.497 65.6323 214.868 64.5607 215.723C63.5104 216.561 62.8999 217.613 62.7291 218.879C62.5583 220.144 62.8837 221.292 63.7054 222.321C64.5356 223.361 65.5867 223.938 66.8588 224.052C68.1308 224.166 69.292 223.804 70.3423 222.966Z" fill="#0956A3"/>
<path d="M65.7945 205.347L66.9926 207.454L55.0442 214.245L53.846 212.138L58.7847 209.331L55.2909 203.187L50.3522 205.995L49.1541 203.888L61.1025 197.096L62.3007 199.203L57.2381 202.081L60.7319 208.224L65.7945 205.347Z" fill="#0956A3"/>
<path d="M47.6003 194.954L49.3364 199.327L47.2544 200.153L42.8879 189.155L44.9699 188.329L46.706 192.701L57.3998 188.459L58.2941 190.712L47.6003 194.954Z" fill="#0956A3"/>
<path d="M54.5826 180.699L55.181 183.173L40.4318 180.659L39.9675 178.738L51.9353 169.752L52.5337 172.226L50.1692 173.97L51.6819 180.226L54.5826 180.699ZM48.2318 175.402L43.5424 178.881L49.3042 179.836L48.2318 175.402Z" fill="#0956A3"/>
<path d="M51.4712 166.877L37.7868 168.172L37.5576 165.759L43.8626 165.162L37.0433 160.346L36.7505 157.264L43.9858 162.369L50.3984 155.584L50.6912 158.666L44.6127 165.091L51.242 164.464L51.4712 166.877Z" fill="#0956A3"/>
<path d="M38.9711 149.796L38.8182 154.498L36.5793 154.424L36.9638 142.598L39.2028 142.672L39.0499 147.374L50.5498 147.752L50.471 150.174L38.9711 149.796Z" fill="#0956A3"/>
<path d="M51.8813 134.626L50.7322 140.625L37.2315 138.035L37.6873 135.655L42.5875 136.595L43.2809 132.975C43.5311 131.669 44.1526 130.661 45.1453 129.953C46.1405 129.232 47.2449 128.988 48.4583 129.22C49.6983 129.458 50.6408 130.095 51.2856 131.132C51.9356 132.141 52.1341 133.306 51.8813 134.626ZM53.5284 126.026L53.0688 128.426L39.568 125.835L40.0277 123.435L53.5284 126.026ZM44.7677 137.013L48.9879 137.823L49.6812 134.203C49.7961 133.603 49.6919 133.065 49.3684 132.588C49.045 132.112 48.5833 131.816 47.9833 131.7C47.4099 131.59 46.8875 131.684 46.416 131.98C45.947 132.263 45.6389 132.681 45.4916 133.234L44.7677 137.013Z" fill="#0956A3"/>
<path d="M70.6744 90.6623L60.1982 81.7586L61.7671 79.9123L66.594 84.0146L65.2874 75.7697L67.2915 73.4114L68.682 82.1551L78.0183 82.0203L76.0142 84.3786L67.1682 84.5026L72.2434 88.816L70.6744 90.6623Z" fill="#0956A3"/>
<path d="M79.4383 78.0228C77.5224 77.8966 75.893 77.0678 74.5502 75.5362C73.2074 74.0047 72.5987 72.281 72.7242 70.3652C72.8509 68.4302 73.6848 66.7871 75.2261 65.4359C76.7469 64.1027 78.4748 63.4998 80.4098 63.6272C82.3449 63.7547 83.9793 64.5791 85.3132 66.1004C86.6471 67.6217 87.2507 69.3499 87.1239 71.2849C86.9985 73.2007 86.1702 74.8298 84.6392 76.172C83.0878 77.5321 81.3541 78.1491 79.4383 78.0228ZM76.4352 73.8566C77.3394 74.8878 78.4276 75.4597 79.6997 75.5724C80.9528 75.6838 82.0845 75.2966 83.095 74.4107C84.0952 73.5338 84.6221 72.467 84.6755 71.2102C84.7302 69.9343 84.3055 68.7807 83.4013 67.7495C82.5151 66.7386 81.4358 66.1769 80.1637 66.0642C78.8915 65.9516 77.7604 66.3292 76.7703 67.1972C75.77 68.0741 75.2426 69.1505 75.1879 70.4265C75.1332 71.7024 75.549 72.8457 76.4352 73.8566Z" fill="#0956A3"/>
<path d="M94.1126 68.2782L92.063 69.5704L84.729 57.9414L86.7786 56.6492L89.81 61.4559L95.7867 57.688L92.7553 52.8813L94.805 51.5892L102.139 63.2182L100.089 64.5103L96.9819 59.5831L91.0052 63.351L94.1126 68.2782Z" fill="#0956A3"/>
<path d="M103.721 49.6102L99.4308 51.539L98.5115 49.4959L109.301 44.6445L110.22 46.6877L105.931 48.6165L110.652 59.1108L108.442 60.1045L103.721 49.6102Z" fill="#0956A3"/>
<path d="M118.422 55.913L115.976 56.6192L117.831 41.7743L119.729 41.2263L129.24 52.7888L126.795 53.495L124.947 51.2092L118.765 52.9945L118.422 55.913ZM123.43 49.3365L119.746 44.804L119.048 50.602L123.43 49.3365Z" fill="#0956A3"/>
<path d="M131.562 52.3142L129.616 38.7059L132.015 38.3637L132.911 44.6335L137.397 37.5957L140.461 37.1585L135.708 44.6254L142.791 50.7122L139.727 51.1494L133.018 45.3795L133.961 51.972L131.562 52.3142Z" fill="#0956A3"/>
<path d="M148.054 39.0193L143.35 39.0868L143.317 36.8469L155.148 36.6773L155.181 38.9171L150.477 38.9846L150.647 50.4894L148.223 50.5241L148.054 39.0193Z" fill="#0956A3"/>
<path d="M163.806 51.1971L157.758 50.3319L159.699 36.7244L162.098 37.0676L161.394 42.0066L165.043 42.5286C166.36 42.7171 167.396 43.2904 168.151 44.2486C168.919 45.2088 169.216 46.3003 169.041 47.5233C168.863 48.7732 168.272 49.7446 167.268 50.4375C166.29 51.1343 165.137 51.3875 163.806 51.1971ZM172.475 52.4373L170.056 52.0912L171.997 38.4837L174.416 38.8297L172.475 52.4373ZM161.08 44.204L160.473 48.4576L164.122 48.9796C164.727 49.0661 165.26 48.9366 165.721 48.5911C166.181 48.2456 166.455 47.7705 166.541 47.1657C166.624 46.5878 166.506 46.0703 166.187 45.6133C165.881 45.1582 165.449 44.8701 164.891 44.7491L161.08 44.204Z" fill="#0956A3"/>
</svg>
