<svg width="230" height="230" viewBox="0 0 230 230" fill="none" xmlns="http://www.w3.org/2000/svg">
<path d="M218.168 117.67C219.626 116.419 221.37 115.872 223.4 116.029C225.431 116.186 227.07 116.995 228.319 118.456C229.58 119.932 230.132 121.693 229.974 123.741C229.867 125.124 229.425 126.352 228.648 127.424C227.883 128.51 226.903 129.301 225.708 129.795L225.016 127.388C225.778 127.038 226.389 126.526 226.85 125.852C227.31 125.178 227.573 124.414 227.639 123.56C227.742 122.231 227.367 121.09 226.514 120.138C225.662 119.185 224.566 118.657 223.226 118.553C221.859 118.447 220.682 118.799 219.693 119.609C218.72 120.407 218.181 121.477 218.077 122.82C218.012 123.674 218.154 124.469 218.506 125.206C218.858 125.943 219.383 126.543 220.083 127.006L219.029 129.278C217.924 128.605 217.07 127.673 216.468 126.48C215.878 125.302 215.636 124.022 215.743 122.639C215.902 120.578 216.71 118.921 218.168 117.67Z" fill="#0956A3"/>
<path d="M216.466 134.167C218.106 133.166 219.915 132.906 221.893 133.387C223.872 133.868 225.361 134.93 226.36 136.573C227.369 138.231 227.632 140.059 227.148 142.055C226.672 144.024 225.605 145.514 223.95 146.525C222.294 147.536 220.484 147.803 218.518 147.325C216.552 146.847 215.065 145.779 214.056 144.12C213.057 142.477 212.798 140.665 213.278 138.682C213.764 136.673 214.827 135.168 216.466 134.167ZM221.318 135.851C219.985 135.527 218.767 135.685 217.662 136.326C216.573 136.957 215.87 137.927 215.553 139.236C215.24 140.531 215.422 141.709 216.101 142.77C216.79 143.847 217.801 144.547 219.133 144.871C220.439 145.189 221.645 145.027 222.75 144.386C223.855 143.745 224.562 142.784 224.873 141.501C225.187 140.206 224.999 139.02 224.31 137.943C223.621 136.865 222.624 136.168 221.318 135.851Z" fill="#0956A3"/>
<path d="M212.146 150.167C213.925 149.444 215.752 149.48 217.628 150.275C219.503 151.069 220.801 152.358 221.523 154.141C222.251 155.941 222.216 157.787 221.418 159.678C220.63 161.545 219.338 162.843 217.541 163.573C215.744 164.303 213.914 164.273 212.051 163.484C210.189 162.694 208.893 161.4 208.164 159.599C207.443 157.817 207.479 155.986 208.272 154.107C209.076 152.203 210.367 150.89 212.146 150.167ZM216.663 152.613C215.4 152.077 214.172 152.037 212.978 152.491C211.802 152.938 210.952 153.781 210.429 155.021C209.91 156.249 209.901 157.441 210.4 158.597C210.907 159.772 211.791 160.627 213.054 161.162C214.291 161.686 215.507 161.722 216.701 161.268C217.895 160.814 218.748 159.979 219.261 158.764C219.779 157.537 219.785 156.336 219.279 155.161C218.772 153.987 217.9 153.137 216.663 152.613Z" fill="#0956A3"/>
<path d="M216.351 169.993L211.403 178.177L209.488 177.014L213.18 170.907L210.811 169.469L208.902 172.627C208.213 173.767 207.28 174.497 206.103 174.816C204.93 175.154 203.81 174.999 202.742 174.351C201.674 173.703 201.018 172.78 200.774 171.582C200.515 170.408 200.734 169.245 201.431 168.093L204.595 162.858L216.351 169.993ZM208.896 168.306L205.256 166.097L203.346 169.256C203.03 169.779 202.94 170.321 203.078 170.881C203.215 171.442 203.539 171.877 204.05 172.187C204.572 172.504 205.113 172.594 205.673 172.456C206.232 172.319 206.67 171.988 206.986 171.465L208.896 168.306Z" fill="#0956A3"/>
<path d="M208.383 183.256L206.786 185.081L198.137 177.48L194.579 181.545L203.228 189.145L201.63 190.971L192.982 183.37L189.316 187.558L197.965 195.158L196.354 196.999L187.705 189.398L186.282 191.024L182.088 187.338L183.685 185.513L186.196 187.719L198.051 174.175L208.383 183.256Z" fill="#0956A3"/>
<path d="M191.487 201.387L183.666 207.724L182.257 205.979L188.195 201.169L186.031 198.488L180.917 202.631L179.509 200.886L184.623 196.743L182.37 193.95L176.353 198.825L174.945 197.08L182.846 190.679L191.487 201.387Z" fill="#0956A3"/>
<path d="M172.105 201.27C173.965 201.75 175.412 202.868 176.448 204.624C177.483 206.381 177.762 208.19 177.283 210.053C176.8 211.935 175.676 213.398 173.912 214.442C172.72 215.148 171.463 215.489 170.14 215.466C168.813 215.462 167.605 215.11 166.516 214.412L168.087 212.464C168.81 212.889 169.579 213.097 170.394 213.089C171.209 213.08 171.984 212.858 172.721 212.422C173.866 211.744 174.584 210.782 174.874 209.536C175.164 208.29 174.968 207.088 174.284 205.928C173.587 204.746 172.624 203.981 171.394 203.634C170.184 203.292 169 203.464 167.843 204.149C167.107 204.585 166.538 205.158 166.138 205.869C165.737 206.58 165.548 207.356 165.57 208.195L163.109 208.633C163.024 207.341 163.297 206.105 163.927 204.927C164.552 203.767 165.46 202.834 166.652 202.129C168.429 201.077 170.246 200.791 172.105 201.27Z" fill="#0956A3"/>
<path d="M159.152 219.142L163.505 217.354L164.354 219.431L153.408 223.926L152.558 221.849L156.91 220.062L152.548 209.396L154.79 208.476L159.152 219.142Z" fill="#0956A3"/>
<path d="M139.453 213.608L146.234 211.85L149.678 225.181L143.291 226.837C142.135 227.137 141.079 227.039 140.123 226.542C139.168 226.045 138.561 225.297 138.302 224.296C138.013 223.177 138.232 222.151 138.958 221.218C138.265 221.032 137.675 220.7 137.187 220.223C136.699 219.745 136.368 219.171 136.195 218.499C135.919 217.433 136.094 216.425 136.718 215.476C137.333 214.544 138.244 213.922 139.453 213.608ZM140.948 219.395L145.383 218.245L144.45 214.631L140.015 215.781C139.515 215.91 139.139 216.19 138.886 216.621C138.623 217.069 138.557 217.549 138.69 218.063C138.819 218.563 139.106 218.939 139.549 219.189C139.982 219.456 140.449 219.524 140.948 219.395ZM142.73 224.665L146.771 223.617L145.939 220.398L141.898 221.446C141.438 221.565 141.096 221.815 140.872 222.196C140.635 222.581 140.576 223.004 140.695 223.465C140.814 223.925 141.071 224.266 141.464 224.487C141.848 224.725 142.27 224.784 142.73 224.665Z" fill="#0956A3"/>
<path d="M131.11 217.243C132.596 218.46 133.441 220.083 133.645 222.113C133.849 224.143 133.343 225.903 132.128 227.392C130.902 228.896 129.268 229.751 127.229 229.957C125.217 230.16 123.46 229.646 121.958 228.417C120.457 227.188 119.605 225.565 119.403 223.549C119.2 221.532 119.713 219.772 120.94 218.268C122.154 216.778 123.775 215.932 125.801 215.727C127.853 215.52 129.623 216.026 131.11 217.243ZM131.135 222.387C130.998 221.02 130.444 219.921 129.474 219.089C128.518 218.269 127.372 217.927 126.035 218.062C124.711 218.195 123.663 218.759 122.89 219.753C122.104 220.761 121.78 221.949 121.917 223.316C122.052 224.655 122.604 225.741 123.574 226.573C124.544 227.405 125.685 227.755 126.995 227.623C128.318 227.489 129.373 226.918 130.158 225.909C130.944 224.901 131.269 223.726 131.135 222.387Z" fill="#0956A3"/>
<path d="M61.419 203.358C61.7666 205.25 61.3628 207.036 60.2076 208.716C59.0524 210.396 57.5308 211.41 55.6429 211.758C53.7361 212.11 51.9387 211.703 50.2509 210.538C49.1107 209.751 48.2732 208.752 47.7382 207.54C47.1843 206.332 46.9944 205.086 47.1684 203.802L49.5933 204.411C49.5128 205.247 49.6476 206.034 49.9978 206.771C50.348 207.508 50.8752 208.12 51.5794 208.606C52.6748 209.362 53.8477 209.611 55.0979 209.351C56.3482 209.091 57.3545 208.406 58.117 207.297C58.8948 206.166 59.1823 204.969 58.9795 203.706C58.7801 202.462 58.1271 201.457 57.0205 200.694C56.3163 200.207 55.558 199.932 54.7457 199.866C53.9335 199.801 53.1517 199.955 52.4005 200.328L50.9691 198.275C52.1043 197.655 53.3378 197.383 54.6695 197.46C55.9824 197.541 57.2089 197.974 58.349 198.762C60.048 199.934 61.0714 201.467 61.419 203.358Z" fill="#0956A3"/>
<path d="M48.1599 193.686C48.2087 195.609 47.5318 197.31 46.1291 198.789C44.7265 200.267 43.0656 201.031 41.1466 201.08C39.2083 201.13 37.4963 200.447 36.0106 199.032C34.5445 197.636 33.7868 195.967 33.7375 194.025C33.6882 192.083 34.3602 190.377 35.7536 188.908C37.1469 187.439 38.8127 186.68 40.7509 186.631C42.6699 186.582 44.3674 187.26 45.8433 188.666C47.3389 190.09 48.1111 191.763 48.1599 193.686ZM44.285 197.061C45.2295 196.065 45.6999 194.927 45.6962 193.648C45.693 192.388 45.2043 191.294 44.2302 190.366C43.266 189.448 42.1557 189.019 40.8995 189.08C39.6241 189.142 38.5141 189.67 37.5697 190.666C36.6439 191.642 36.1828 192.77 36.1865 194.049C36.1902 195.328 36.6693 196.423 37.6237 197.331C38.5879 198.25 39.7078 198.678 40.9832 198.617C42.2586 198.555 43.3592 198.037 44.285 197.061Z" fill="#0956A3"/>
<path d="M36.5322 181.995C36.2746 183.901 35.3358 185.472 33.7159 186.708C32.0959 187.944 30.3348 188.433 28.4325 188.175C26.5112 187.914 24.9297 186.967 23.6879 185.333C22.4626 183.72 21.9801 181.952 22.2403 180.027C22.5005 178.101 23.4351 176.525 25.0443 175.297C26.6534 174.07 28.4187 173.586 30.34 173.847C32.2423 174.105 33.8102 175.046 35.0437 176.669C36.2937 178.314 36.7898 180.089 36.5322 181.995ZM32.1701 184.708C33.2609 183.875 33.9062 182.828 34.106 181.564C34.3033 180.319 33.9949 179.161 33.1808 178.09C32.3749 177.03 31.347 176.429 30.0971 176.289C28.8282 176.146 27.6484 176.49 26.5576 177.322C25.4885 178.138 24.854 179.178 24.6541 180.441C24.4543 181.705 24.7532 182.862 25.5509 183.911C26.3568 184.972 27.3941 185.574 28.663 185.717C29.9319 185.86 31.101 185.523 32.1701 184.708Z" fill="#0956A3"/>
<path d="M17.1989 175.677L12.5864 167.299L14.5476 166.215L17.9897 172.467L20.4144 171.127L18.6343 167.894C17.9918 166.727 17.8259 165.552 18.1366 164.371C18.4289 163.184 19.1218 162.289 20.2153 161.684C21.3087 161.08 22.4344 160.97 23.5921 161.356C24.7368 161.717 25.6336 162.487 26.2827 163.666L29.2331 169.025L17.1989 175.677ZM22.3755 170.043L26.1017 167.984L24.3216 164.75C24.0265 164.214 23.6024 163.866 23.0491 163.706C22.4959 163.546 21.9577 163.61 21.4348 163.899C20.8999 164.195 20.5526 164.62 20.3927 165.174C20.2328 165.729 20.3004 166.274 20.5954 166.81L22.3755 170.043Z" fill="#0956A3"/>
<path d="M9.73656 162.247L8.95395 159.949L19.8414 156.226L18.0986 151.109L7.21116 154.832L6.42855 152.535L17.316 148.812L15.5206 143.541L4.63315 147.264L3.84397 144.947L14.7314 141.224L14.0343 139.177L19.3142 137.372L20.0968 139.669L16.9366 140.75L22.7437 157.799L9.73656 162.247Z" fill="#0956A3"/>
<path d="M2.47701 138.552L0.933933 128.593L3.14715 128.249L4.31851 135.809L7.71882 135.28L6.70988 128.768L8.92309 128.424L9.93203 134.936L13.4732 134.385L12.2862 126.724L14.4994 126.38L16.0581 136.44L2.47701 138.552Z" fill="#0956A3"/>
<path d="M12.2962 122.057C10.9546 123.433 9.26582 124.133 7.22984 124.157C5.19386 124.18 3.48935 123.52 2.11631 122.176C0.729542 120.818 0.0242902 119.112 0.000554645 117.059C-0.0154786 115.671 0.316098 114.409 0.995284 113.273C1.66074 112.122 2.56695 111.248 3.71391 110.65L4.6165 112.986C3.88826 113.402 3.32463 113.966 2.92561 114.678C2.52659 115.39 2.33203 116.175 2.34193 117.032C2.35734 118.364 2.83163 119.467 3.76483 120.341C4.69802 121.214 5.83649 121.643 7.18024 121.627C8.55113 121.611 9.69296 121.156 10.6057 120.261C11.5051 119.38 11.947 118.267 11.9314 116.92C11.9215 116.063 11.7089 115.284 11.2935 114.581C10.8781 113.879 10.3016 113.328 9.56393 112.928L10.4123 110.572C11.5728 111.144 12.5057 111.997 13.2112 113.131C13.9029 114.252 14.2567 115.506 14.2728 116.893C14.2967 118.96 13.6378 120.682 12.2962 122.057Z" fill="#0956A3"/>
<path d="M3.3426 101.167L2.69243 105.834L0.474205 105.524L2.10948 93.7844L4.3277 94.0946L3.67753 98.7621L15.0711 100.355L14.7362 102.76L3.3426 101.167Z" fill="#0956A3"/>
<path d="M17.9098 87.1801L16.0266 93.9397L2.78888 90.2371L4.56263 83.8704C4.88381 82.7176 5.49853 81.8517 6.40679 81.2726C7.31506 80.6935 8.26602 80.5429 9.25966 80.8209C10.371 81.1317 11.1472 81.836 11.5883 82.9337C12.0961 82.4262 12.6786 82.0807 13.3356 81.8974C13.9927 81.714 14.6547 81.7156 15.3214 81.9021C16.3805 82.1983 17.1629 82.8549 17.6688 83.8719C18.1652 84.8721 18.2456 85.9748 17.9098 87.1801ZM12.1637 85.5728L10.9319 89.9941L14.5208 90.9979L15.7526 86.5767C15.8912 86.0789 15.8381 85.6121 15.593 85.1764C15.3386 84.724 14.9564 84.4265 14.4465 84.2839C13.9497 84.1449 13.482 84.2047 13.0435 84.4633C12.5957 84.7052 12.3024 85.075 12.1637 85.5728ZM6.71989 84.4738L5.59761 88.5021L8.79426 89.3962L9.91654 85.368C10.0443 84.9094 9.99977 84.4875 9.783 84.1021C9.56989 83.7036 9.23453 83.4403 8.77693 83.3123C8.31933 83.1843 7.89638 83.2355 7.50808 83.4658C7.11036 83.6793 6.84763 84.0153 6.71989 84.4738Z" fill="#0956A3"/>
<path d="M19.0556 77.7584C17.2584 78.4344 15.4328 78.3507 13.5789 77.5072C11.7249 76.6637 10.4606 75.3416 9.7859 73.5408C9.10442 71.7221 9.18742 69.8777 10.0349 68.0077C10.8711 66.1625 12.1968 64.8985 14.012 64.2157C15.8271 63.5329 17.6555 63.6104 19.4971 64.4483C21.3386 65.2862 22.6001 66.6145 23.2816 68.4332C23.9563 70.234 23.8728 72.0631 23.0309 73.9207C22.1779 75.8031 20.8527 77.0823 19.0556 77.7584ZM14.6042 75.1953C15.8525 75.7633 17.0793 75.836 18.2846 75.4134C19.4718 74.9976 20.3433 74.1767 20.8989 72.9507C21.4489 71.7371 21.4895 70.5456 21.0206 69.3762C20.5449 68.1889 19.6829 67.3112 18.4346 66.7433C17.211 66.1866 15.9966 66.1195 14.7914 66.5421C13.5861 66.9646 12.7113 67.7765 12.1669 68.9778C11.6169 70.1914 11.5797 71.3919 12.0554 72.5792C12.531 73.7666 13.3806 74.6386 14.6042 75.1953Z" fill="#0956A3"/>
<path d="M65.2597 24.7991C63.4479 24.1634 62.1005 22.9264 61.2175 21.0881C60.3345 19.2498 60.2102 17.4229 60.8447 15.6076C61.4855 13.774 62.7294 12.4119 64.5763 11.5213C65.8239 10.9197 67.1054 10.6866 68.4208 10.8221C69.7426 10.9394 70.9166 11.3921 71.9429 12.1802L70.2127 13.9881C69.5279 13.5033 68.7792 13.2304 67.9665 13.1694C67.1539 13.1085 66.3623 13.2638 65.5917 13.6354C64.3931 14.2134 63.5964 15.1108 63.2016 16.3276C62.8069 17.5443 62.9009 18.7593 63.4837 19.9726C64.0782 21.2104 64.9732 22.0543 66.1685 22.5043C67.3457 22.9479 68.5398 22.8778 69.7506 22.2938C70.5212 21.9222 71.1362 21.3993 71.5956 20.7249C72.0551 20.0505 72.3093 19.294 72.3584 18.4552L74.848 18.2282C74.8224 19.5236 74.446 20.7315 73.7188 21.852C72.9979 22.9543 72.0137 23.8063 70.7661 24.4079C68.9069 25.3044 67.0715 25.4348 65.2597 24.7991Z" fill="#0956A3"/>
<path d="M80.2651 17.9835C78.5786 17.0647 77.4468 15.627 76.8697 13.6706C76.2926 11.7141 76.4626 9.89094 77.3796 8.20113C78.3058 6.49442 79.7517 5.35002 81.7173 4.76793C83.6569 4.19355 85.4784 4.37036 87.1817 5.29838C88.8851 6.22639 90.0234 7.66212 90.5966 9.60555C91.1699 11.549 90.9934 13.3741 90.0672 15.0808C89.1502 16.7706 87.7154 17.9046 85.7628 18.4828C83.7841 19.0688 81.9515 18.9023 80.2651 17.9835ZM79.2852 12.934C79.6738 14.2513 80.4219 15.2282 81.5297 15.8646C82.6206 16.4917 83.8104 16.6145 85.0991 16.2329C86.3748 15.8551 87.3003 15.1059 87.8757 13.9853C88.4602 12.8478 88.5582 11.6204 88.1696 10.303C87.7887 9.01173 87.0444 8.04791 85.9366 7.41154C84.8289 6.77517 83.6437 6.64395 82.381 7.01788C81.1053 7.39566 80.1751 8.1533 79.5906 9.29081C79.0061 10.4283 78.9043 11.6427 79.2852 12.934Z" fill="#0956A3"/>
<path d="M96.0343 13.6911C94.5157 12.5145 93.6273 10.9144 93.3691 8.89069C93.1109 6.86702 93.5689 5.09439 94.7432 3.5728C95.9293 2.03599 97.5389 1.13737 99.572 0.87692C101.578 0.619923 103.348 1.08562 104.882 2.27402C106.416 3.46241 107.311 5.0617 107.567 7.07187C107.824 9.08205 107.359 10.8555 106.173 12.3923C104.999 13.9139 103.402 14.8041 101.382 15.0628C99.3355 15.325 97.5529 14.8678 96.0343 13.6911ZM95.8709 8.54963C96.0448 9.91224 96.6278 10.9962 97.6201 11.8015C98.5971 12.595 99.7521 12.9064 101.085 12.7356C102.405 12.5666 103.438 11.9749 104.184 10.9606C104.942 9.93111 105.234 8.73505 105.06 7.37245C104.89 6.03683 104.309 4.96638 103.316 4.1611C102.324 3.35582 101.175 3.03683 99.8689 3.20414C98.5494 3.37317 97.5106 3.97244 96.7525 5.00194C95.9943 6.03145 95.7005 7.21402 95.8709 8.54963Z" fill="#0956A3"/>
<path d="M112.184 0L121.731 0.221571L121.679 2.46512L114.554 2.29977L114.49 5.07361L118.174 5.15912C119.504 5.18999 120.601 5.63717 121.463 6.50067C122.34 7.35089 122.763 8.40148 122.735 9.65243C122.706 10.9034 122.234 11.9332 121.319 12.7418C120.431 13.5511 119.316 13.9401 117.972 13.909L111.865 13.7672L112.184 0ZM114.438 7.31716L114.34 11.5799L118.024 11.6654C118.635 11.6796 119.148 11.4874 119.565 11.089C119.981 10.6905 120.197 10.1921 120.21 9.59385C120.225 8.98197 120.033 8.46735 119.635 8.04998C119.237 7.63261 118.733 7.41684 118.123 7.40267L114.438 7.31716Z" fill="#0956A3"/>
<path d="M127.268 0.244511L129.644 0.717586L127.402 12.0234L132.695 13.0769L134.936 1.77107L137.313 2.24415L135.071 13.55L140.523 14.6353L142.765 3.32944L145.161 3.80649L142.92 15.1123L145.037 15.5337L143.95 21.0165L141.573 20.5434L142.224 17.2618L124.589 13.7515L127.268 0.244511Z" fill="#0956A3"/>
<path d="M151.833 5.9532L161.196 9.63487L160.378 11.7239L153.27 8.92913L152.013 12.1387L158.135 14.5459L157.317 16.635L151.195 14.2277L149.886 17.5702L157.089 20.4023L156.27 22.4913L146.812 18.7724L151.833 5.9532Z" fill="#0956A3"/>
<path d="M161.147 22.7739C160.642 20.9184 160.894 19.1048 161.903 17.3332C162.913 15.5615 164.344 14.4224 166.196 13.9157C168.066 13.404 169.891 13.6574 171.671 14.6758C172.874 15.3637 173.792 16.2888 174.427 17.4509C175.081 18.608 175.375 19.8335 175.31 21.1274L172.842 20.7258C172.852 19.8857 172.652 19.1131 172.241 18.4081C171.83 17.703 171.253 17.1381 170.51 16.7132C169.355 16.0522 168.165 15.9041 166.941 16.2689C165.718 16.6336 164.772 17.4006 164.106 18.5699C163.426 19.7628 163.24 20.98 163.549 22.2216C163.852 23.4445 164.588 24.3899 165.755 25.0576C166.497 25.4825 167.276 25.6931 168.091 25.6895C168.906 25.6859 169.672 25.4664 170.389 25.0309L171.988 26.9561C170.909 27.67 169.703 28.0449 168.369 28.0807C167.054 28.1115 165.796 27.7829 164.593 27.095C162.802 26.0698 161.653 24.6294 161.147 22.7739Z" fill="#0956A3"/>
<path d="M182.789 24.9401L179.078 22.0442L180.455 20.2737L189.788 27.5573L188.411 29.3278L184.701 26.4319L177.632 35.5257L175.72 34.0339L182.789 24.9401Z" fill="#0956A3"/>
<path d="M187.895 44.8171L182.997 39.8007L192.82 30.1699L197.434 34.8946C198.269 35.7501 198.71 36.7167 198.756 37.7944C198.802 38.8721 198.456 39.7724 197.719 40.4953C196.894 41.3038 195.897 41.6248 194.728 41.4581C194.912 42.1526 194.919 42.8307 194.749 43.4925C194.578 44.1543 194.246 44.7277 193.751 45.2128C192.965 45.9833 192.006 46.3335 190.874 46.2634C189.761 46.1936 188.768 45.7114 187.895 44.8171ZM192.159 40.6366L188.955 37.3555L186.292 39.9666L189.496 43.2476C189.857 43.617 190.287 43.8044 190.786 43.8099C191.304 43.8156 191.752 43.6329 192.131 43.2619C192.499 42.9005 192.682 42.4649 192.678 41.9551C192.693 41.4455 192.52 41.006 192.159 40.6366ZM195.833 36.4641L192.914 33.4747L190.542 35.8004L193.461 38.7897C193.793 39.13 194.18 39.3025 194.621 39.3073C195.072 39.3219 195.468 39.1627 195.807 38.8298C196.147 38.4969 196.314 38.1044 196.31 37.6523C196.324 37.2004 196.165 36.8043 195.833 36.4641Z" fill="#0956A3"/>
<path d="M195.262 50.2431C195.569 48.3442 196.547 46.7978 198.198 45.6037C199.849 44.4096 201.622 43.966 203.517 44.2727C205.431 44.5825 206.988 45.57 208.188 47.2352C209.371 48.8784 209.809 50.6589 209.499 52.5767C209.19 54.4946 208.216 56.0465 206.576 57.2327C204.936 58.4188 203.159 58.8569 201.245 58.5471C199.35 58.2404 197.806 57.2599 196.615 55.6057C195.407 53.9295 194.956 52.1419 195.262 50.2431ZM199.692 47.643C198.581 48.447 197.909 49.478 197.677 50.7362C197.448 51.9753 197.727 53.1408 198.513 54.2325C199.292 55.3133 200.304 55.9398 201.55 56.1123C202.815 56.2878 204.003 55.9735 205.115 55.1695C206.204 54.3814 206.865 53.3583 207.097 52.1002C207.329 50.8421 207.06 49.6781 206.289 48.6084C205.51 47.5277 204.489 46.8996 203.224 46.7241C201.959 46.5486 200.782 46.8549 199.692 47.643Z" fill="#0956A3"/>
</svg>
