<svg width="217" height="217" viewBox="0 0 217 217" fill="none" xmlns="http://www.w3.org/2000/svg">
<path d="M205.431 110.448C206.715 109.339 208.255 108.851 210.051 108.983C211.846 109.114 213.298 109.823 214.407 111.107C215.527 112.405 216.02 113.957 215.888 115.764C215.798 116.985 215.411 118.07 214.728 119.018C214.056 119.979 213.192 120.68 212.137 121.12L211.517 118.999C212.19 118.687 212.728 118.234 213.133 117.638C213.538 117.042 213.768 116.367 213.823 115.613C213.909 114.44 213.574 113.435 212.817 112.597C212.061 111.759 211.09 111.297 209.905 111.21C208.696 111.121 207.656 111.436 206.786 112.154C205.927 112.861 205.455 113.807 205.368 114.992C205.313 115.746 205.442 116.447 205.755 117.096C206.068 117.745 206.535 118.272 207.155 118.679L206.231 120.686C205.252 120.097 204.494 119.277 203.957 118.227C203.432 117.19 203.214 116.061 203.303 114.84C203.437 113.021 204.146 111.557 205.431 110.448Z" fill="#0956A3"/>
<path d="M212.229 127.583L202.302 125.373L202.767 123.282L214.627 125.922L212.335 136.218L200.475 133.578L200.945 131.47L210.872 133.679L212.229 127.583Z" fill="#0956A3"/>
<path d="M199.297 137.518L200.087 135.411L209.629 144.567L209.016 146.202L195.8 146.837L196.59 144.731L199.186 144.628L201.184 139.303L199.297 137.518ZM201.314 144.542L206.471 144.324L202.73 140.767L201.314 144.542Z" fill="#0956A3"/>
<path d="M195.682 150.726C197.312 150.255 198.915 150.454 200.491 151.323C202.067 152.193 203.091 153.443 203.562 155.073C204.038 156.72 203.838 158.336 202.963 159.923C202.372 160.995 201.568 161.819 200.551 162.395C199.539 162.988 198.461 163.264 197.319 163.223L197.641 161.037C198.382 161.035 199.061 160.847 199.678 160.475C200.294 160.102 200.785 159.585 201.151 158.923C201.719 157.893 201.834 156.84 201.496 155.763C201.158 154.686 200.469 153.86 199.429 153.286C198.368 152.701 197.292 152.553 196.2 152.842C195.125 153.126 194.301 153.788 193.727 154.828C193.362 155.49 193.186 156.181 193.2 156.901C193.214 157.622 193.418 158.296 193.811 158.924L192.134 160.363C191.49 159.418 191.143 158.357 191.094 157.179C191.05 156.017 191.323 154.9 191.915 153.828C192.796 152.231 194.051 151.197 195.682 150.726Z" fill="#0956A3"/>
<path d="M196.339 170.217L189.518 165.062L192.422 175.401L191.228 176.981L181.535 169.655L182.826 167.946L189.619 173.079L186.744 162.762L187.937 161.182L197.631 168.508L196.339 170.217Z" fill="#0956A3"/>
<path d="M188.314 180.367L182.367 186.358L180.962 184.963L185.4 180.492L183.663 178.768L181.368 181.08C180.539 181.914 179.586 182.346 178.508 182.376C177.431 182.422 176.501 182.056 175.717 181.278C174.934 180.501 174.561 179.573 174.6 178.495C174.621 177.434 175.05 176.482 175.887 175.639L179.692 171.807L188.314 180.367ZM182.258 177.373L179.588 174.722L177.293 177.034C176.912 177.418 176.723 177.864 176.725 178.373C176.727 178.882 176.915 179.322 177.29 179.694C177.673 180.075 178.119 180.264 178.628 180.262C179.137 180.261 179.582 180.068 179.962 179.685L182.258 177.373Z" fill="#0956A3"/>
<path d="M170.674 182.712C172.355 182.946 173.738 183.781 174.824 185.217C175.909 186.653 176.335 188.212 176.101 189.893C175.864 191.59 175.024 192.985 173.578 194.078C172.151 195.156 170.589 195.577 168.892 195.341C167.194 195.104 165.806 194.273 164.728 192.846C163.65 191.42 163.229 189.858 163.465 188.16C163.699 186.479 164.534 185.096 165.97 184.011C167.426 182.911 168.994 182.478 170.674 182.712ZM173.054 186.577C172.323 185.61 171.401 185.037 170.286 184.856C169.189 184.677 168.166 184.946 167.218 185.663C166.28 186.372 165.747 187.278 165.619 188.383C165.489 189.504 165.789 190.548 166.52 191.515C167.236 192.463 168.151 193.027 169.265 193.208C170.38 193.389 171.401 193.128 172.33 192.426C173.268 191.717 173.802 190.802 173.933 189.681C174.063 188.56 173.77 187.525 173.054 186.577Z" fill="#0956A3"/>
<path d="M150.14 193.798C151.208 193.279 152.241 193.071 153.238 193.173C154.225 193.281 155.127 193.67 155.946 194.339L154.422 195.94C153.45 195.119 152.326 195.017 151.053 195.636C150.34 195.982 149.842 196.411 149.557 196.923C149.261 197.441 149.229 197.937 149.459 198.411C149.659 198.822 149.986 199.096 150.44 199.236C150.884 199.38 151.327 199.345 151.77 199.13L153.858 198.115L154.708 199.864L152.668 200.855C152.279 201.044 152.013 201.333 151.869 201.723C151.714 202.119 151.723 202.495 151.896 202.851C152.111 203.293 152.484 203.553 153.015 203.628C153.545 203.704 154.134 203.585 154.782 203.27C156.001 202.677 156.586 201.753 156.536 200.497L158.752 200.28C158.773 201.338 158.526 202.285 158.012 203.122C157.487 203.964 156.701 204.639 155.654 205.148C154.445 205.735 153.313 205.918 152.259 205.697C151.187 205.497 150.432 204.943 149.991 204.037C149.519 203.065 149.568 202.068 150.138 201.044C148.824 200.921 147.9 200.31 147.365 199.209C146.899 198.248 146.926 197.261 147.447 196.247C147.979 195.228 148.877 194.412 150.14 193.798Z" fill="#0956A3"/>
<path d="M142.723 197.409L144.858 196.699L143.743 209.875L142.086 210.427L133.278 200.553L135.413 199.843L137.126 201.796L142.523 199.999L142.723 197.409ZM138.531 203.396L141.945 207.268L142.357 202.122L138.531 203.396Z" fill="#0956A3"/>
<path d="M124.771 212.642L123.52 202.549L125.646 202.286L127.141 214.344L116.673 215.641L115.178 203.583L117.322 203.318L118.573 213.411L124.771 212.642Z" fill="#0956A3"/>
<path d="M110.532 205.364C111.699 206.596 112.258 208.112 112.21 209.911C112.161 211.71 111.521 213.193 110.289 214.361C109.045 215.539 107.517 216.104 105.705 216.055C103.918 216.007 102.435 215.361 101.256 214.116C100.077 212.872 99.5121 211.356 99.5604 209.569C99.6087 207.782 100.255 206.299 101.499 205.12C102.731 203.953 104.247 203.393 106.046 203.442C107.87 203.491 109.365 204.132 110.532 205.364ZM109.978 209.869C110.011 208.657 109.648 207.633 108.891 206.796C108.145 205.972 107.178 205.543 105.99 205.511C104.815 205.479 103.832 205.855 103.043 206.638C102.241 207.433 101.824 208.436 101.791 209.647C101.759 210.835 102.122 211.847 102.879 212.684C103.637 213.521 104.598 213.955 105.761 213.986C106.937 214.018 107.926 213.636 108.727 212.842C109.529 212.047 109.946 211.056 109.978 209.869Z" fill="#0956A3"/>
<path d="M96.2909 203.108L96.8218 200.204L98.9289 200.59L98.0419 205.441L96.6962 205.195C95.7827 205.321 95.0993 206.623 94.6461 209.102L93.5746 214.963L84.7568 213.351L86.5858 203.347L84.6912 203L85.5781 198.149L87.6852 198.534L87.1543 201.438L96.2909 203.108ZM94.0933 204.719L88.6928 203.732L87.2199 211.788L91.8236 212.63L92.5229 208.805C92.8509 207.011 93.3744 205.649 94.0933 204.719Z" fill="#0956A3"/>
<path d="M81.3374 200.003L82.3224 197.221L84.3417 197.935L82.6961 202.585L81.4064 202.128C80.4846 202.107 79.6032 203.285 78.7624 205.66L76.7744 211.277L68.3241 208.286L71.7174 198.699L69.9018 198.056L71.5474 193.407L73.5667 194.122L72.5817 196.904L81.3374 200.003ZM78.9121 201.245L73.7367 199.414L71.004 207.134L75.4158 208.696L76.7131 205.031C77.3217 203.311 78.0547 202.049 78.9121 201.245Z" fill="#0956A3"/>
<path d="M62.6426 205.844L54.7633 201.722L55.681 199.968L61.6622 203.096L63.0721 200.401L57.9203 197.706L58.838 195.952L63.9898 198.646L65.4581 195.839L59.3972 192.669L60.3149 190.915L68.2739 195.078L62.6426 205.844Z" fill="#0956A3"/>
<path d="M53.9278 192.071L56.4226 188.478L58.182 189.7L51.252 199.68L46.8165 196.6C45.8407 195.922 45.2446 195.055 45.0283 193.999C44.7953 192.946 44.997 191.961 45.6336 191.045C46.2701 190.128 47.1224 189.595 48.1904 189.445C49.2555 189.279 50.2759 189.535 51.2517 190.213L53.9278 192.071ZM47.9458 194.973L50.6219 196.832L52.7984 193.697L50.1224 191.839C49.669 191.524 49.1917 191.412 48.6907 191.502C48.1897 191.593 47.7817 191.864 47.4669 192.318C47.1589 192.761 47.0501 193.234 47.1404 193.735C47.224 194.246 47.4924 194.658 47.9458 194.973Z" fill="#0956A3"/>
<path d="M46.7252 181.522L48.6428 183.371L40.6524 184.293L39.9628 191.88L38.0452 190.031L38.6917 182.877L34.8059 186.907L33.264 185.42L37.1373 181.403L30.0507 182.321L28.133 180.472L35.6769 179.495L36.3078 171.476L38.2254 173.326L37.6246 180.898L41.6979 176.674L43.2398 178.161L39.154 182.398L46.7252 181.522Z" fill="#0956A3"/>
<path d="M35.1602 169.87L25.4668 177.195L24.1754 175.486L28.6415 172.111L21.2778 171.652L19.6282 169.469L27.4384 169.952L29.1154 161.871L30.765 164.054L29.1728 171.71L33.8687 168.161L35.1602 169.87Z" fill="#0956A3"/>
<path d="M22.8877 157.809L17.6016 166.594L16.4398 164.542L20.4984 157.9L12.9901 158.449L11.8638 156.459L21.5809 155.757C24.0435 155.576 25.7329 156.295 26.6493 157.914L27.2346 158.947L25.5116 159.923L24.9972 159.014C24.6011 158.315 23.898 157.913 22.8877 157.809Z" fill="#0956A3"/>
<path d="M14.2373 139.348L12.5215 139.758L8.83657 124.315L10.5524 123.906L14.2373 139.348Z" fill="#0956A3"/>
<path d="M11.0759 107.477C9.80848 108.606 8.27628 109.118 6.4793 109.014C4.68231 108.91 3.21953 108.224 2.09095 106.957C0.951088 105.677 0.433563 104.132 0.538377 102.323C0.609178 101.101 0.978873 100.011 1.64746 99.0517C2.30476 98.0801 3.15748 97.3662 4.20562 96.9101L4.85859 99.0214C4.19085 99.3433 3.65924 99.8054 3.26374 100.407C2.86825 101.01 2.64864 101.688 2.60491 102.443C2.53689 103.617 2.88763 104.617 3.65715 105.443C4.42666 106.269 5.40442 106.716 6.59043 106.785C7.80041 106.855 8.83527 106.524 9.69502 105.793C10.5421 105.072 11 104.119 11.0687 102.933C11.1124 102.178 10.9727 101.479 10.6494 100.835C10.3261 100.192 9.85136 99.6713 9.22527 99.2744L10.1177 97.2527C11.1062 97.8268 11.8767 98.6347 12.4294 99.6764C12.9708 100.705 13.2061 101.831 13.1352 103.053C13.0297 104.874 12.3433 106.349 11.0759 107.477Z" fill="#0956A3"/>
<path d="M4.01895 90.4201L13.9786 92.478L13.5452 94.5757L1.64648 92.1172L3.78082 81.7874L15.6795 84.2459L15.2424 86.3612L5.2828 84.3033L4.01895 90.4201Z" fill="#0956A3"/>
<path d="M16.7752 80.3382L16.0165 82.4564L6.33832 73.4451L6.92707 71.8014L20.1317 70.9671L19.373 73.0854L16.7793 73.2271L14.8613 78.5819L16.7752 80.3382ZM14.6531 73.345L9.49957 73.6405L13.2935 77.1408L14.6531 73.345Z" fill="#0956A3"/>
<path d="M20.1407 67.1366C18.5175 67.6317 16.9115 67.4563 15.3227 66.6102C13.7339 65.7642 12.692 64.5296 12.1968 62.9064C11.6967 61.2669 11.8725 59.6475 12.7242 58.0481C13.2995 56.9678 14.0913 56.1318 15.0996 55.5404C16.103 54.9327 17.1761 54.6408 18.3189 54.6648L18.0292 56.8557C17.288 56.8689 16.6119 57.0662 16.0008 57.4478C15.3898 57.8294 14.9066 58.3538 14.5513 59.0211C13.9985 60.0591 13.8989 61.1141 14.2526 62.1861C14.6062 63.2581 15.3073 64.0733 16.3559 64.6317C17.4257 65.2014 18.504 65.3337 19.5909 65.0288C20.6615 64.7288 21.476 64.0545 22.0344 63.0059C22.3897 62.3387 22.5552 61.645 22.5307 60.925C22.5063 60.205 22.2926 59.5339 21.8899 58.9116L23.546 57.4483C24.2038 58.3831 24.5659 59.4393 24.6323 60.6166C24.6937 61.7778 24.4368 62.8985 23.8615 63.9789C23.0042 65.5888 21.7639 66.6414 20.1407 67.1366Z" fill="#0956A3"/>
<path d="M19.3801 47.3396L26.2574 52.4194L23.2408 42.1128L24.4172 40.5202L34.1902 47.739L32.9175 49.4619L26.0692 44.4034L29.0568 54.6887L27.8804 56.2813L18.1074 49.0625L19.3801 47.3396Z" fill="#0956A3"/>
<path d="M26.8457 37.5547L32.7057 31.4778L34.131 32.8522L29.7578 37.3872L31.52 39.0865L33.7815 36.7413C34.5978 35.8947 35.5445 35.4489 36.6215 35.4039C37.6982 35.3419 38.6338 35.6941 39.4285 36.4604C40.2232 37.2268 40.6092 38.149 40.5863 39.2273C40.5801 40.2882 40.1647 41.2463 39.3401 42.1014L35.5917 45.9886L26.8457 37.5547ZM32.9453 40.4609L35.6533 43.0723L37.9148 40.727C38.2896 40.3383 38.4724 39.8895 38.4632 39.3804C38.4539 38.8714 38.2593 38.4336 37.8792 38.0671C37.4905 37.6923 37.0416 37.5095 36.5326 37.5187C36.0236 37.528 35.5816 37.7269 35.2068 38.1157L32.9453 40.4609Z" fill="#0956A3"/>
<path d="M44.6847 34.6864C43.0006 34.477 41.6056 33.6623 40.4995 32.2423C39.3934 30.8222 38.9451 29.2701 39.1544 27.586C39.3658 25.8851 40.1863 24.4779 41.6158 23.3644C43.0265 22.2657 44.5822 21.8221 46.2832 22.0335C47.9841 22.245 49.3839 23.056 50.4826 24.4666C51.5813 25.8772 52.0249 27.433 51.8135 29.1339C51.6042 30.818 50.7895 32.2131 49.3694 33.3192C47.9304 34.44 46.3688 34.8957 44.6847 34.6864ZM42.2493 30.8565C42.9941 31.8127 43.9248 32.3731 45.0416 32.5375C46.1416 32.6999 47.1602 32.4161 48.0974 31.6861C49.0252 30.9634 49.545 30.049 49.6569 28.9428C49.7708 27.8197 49.4554 26.7801 48.7107 25.8239C47.9807 24.8867 47.0573 24.3358 45.9405 24.1713C44.8237 24.0069 43.8061 24.2823 42.8878 24.9975C41.96 25.7202 41.4392 26.643 41.3252 27.7661C41.2113 28.8891 41.5193 29.9193 42.2493 30.8565Z" fill="#0956A3"/>
<path d="M64.9873 23.3101C63.9266 23.8451 62.897 24.0687 61.8985 23.9809C60.9107 23.8877 60.0025 23.5125 59.1737 22.8553L60.6735 21.2321C61.6583 22.039 62.7829 22.1237 64.0472 21.4861C64.7544 21.1294 65.2466 20.693 65.5239 20.1769C65.8119 19.6553 65.837 19.1588 65.5992 18.6874C65.3939 18.2802 65.0629 18.0104 64.6063 17.8778C64.1604 17.7398 63.7178 17.7816 63.2785 18.0031L61.2052 19.0487L60.3299 17.313L62.3549 16.2917C62.7406 16.0972 63.0026 15.8038 63.1407 15.4115C63.2896 15.0139 63.2749 14.6383 63.0966 14.2847C62.875 13.8454 62.4985 13.5918 61.967 13.5239C61.4354 13.4559 60.8482 13.5841 60.2054 13.9083C58.9946 14.5189 58.4236 15.452 58.4924 16.7075L56.2795 16.9567C56.2437 15.8996 56.4765 14.9489 56.978 14.1046C57.4903 13.2549 58.2661 12.568 59.3054 12.0438C60.5054 11.4386 61.6344 11.2388 62.6923 11.4445C63.7663 11.6286 64.5302 12.1707 64.9841 13.0707C65.4704 14.035 65.4363 15.0333 64.8818 16.0656C66.1969 16.1684 67.1301 16.7662 67.6813 17.8591C68.1622 18.8127 68.1495 19.8002 67.6432 20.8216C67.1262 21.8484 66.2409 22.6779 64.9873 23.3101Z" fill="#0956A3"/>
<path d="M72.3144 19.5699L70.1905 20.3126L71.1071 7.12057L72.7552 6.5442L81.7104 16.284L79.5865 17.0267L77.8448 15.0997L72.4756 16.9773L72.3144 19.5699ZM76.4155 13.521L72.9438 9.70088L72.6095 14.852L76.4155 13.521Z" fill="#0956A3"/>
<path d="M90.1172 4.01002L91.4844 14.0877L89.3618 14.3757L87.7285 2.33594L98.1808 0.917967L99.8141 12.9577L97.6737 13.2481L96.3066 3.17036L90.1172 4.01002Z" fill="#0956A3"/>
<path d="M104.239 11.0803C103.053 9.86649 102.47 8.35964 102.491 6.55976C102.512 4.75988 103.129 3.26693 104.343 2.08091C105.569 0.883026 107.088 0.294576 108.9 0.315559C110.688 0.336264 112.181 0.959594 113.379 2.18555C114.577 3.4115 115.165 4.91842 115.144 6.7063C115.124 8.49418 114.5 9.98706 113.274 11.1849C112.061 12.371 110.554 12.9536 108.754 12.9327C106.93 12.9116 105.425 12.2941 104.239 11.0803ZM104.723 6.56761C104.709 7.77953 105.088 8.79798 105.858 9.62296C106.617 10.4358 107.59 10.8491 108.778 10.8629C109.954 10.8765 110.93 10.4858 111.708 9.6907C112.497 8.88379 112.899 7.87437 112.913 6.66245C112.927 5.47453 112.548 4.46808 111.778 3.64311C111.007 2.81813 110.04 2.3989 108.876 2.38542C107.7 2.3718 106.717 2.76845 105.928 3.57536C105.139 4.38228 104.737 5.37969 104.723 6.56761Z" fill="#0956A3"/>
<path d="M118.5 13.0712L118.013 15.9829L115.9 15.63L116.713 10.7654L118.062 10.9908C118.974 10.851 119.637 9.5384 120.052 7.05284L121.034 1.17626L129.876 2.65318L128.2 12.6842L130.1 13.0015L129.287 17.8661L127.174 17.5132L127.661 14.6015L118.5 13.0712ZM120.672 11.4267L126.087 12.3313L127.437 4.2532L122.821 3.48212L122.18 7.31699C121.879 9.11606 121.377 10.486 120.672 11.4267Z" fill="#0956A3"/>
<path d="M133.268 15.8149L132.325 18.6122L130.295 17.928L131.871 13.2544L133.167 13.6914C134.089 13.6983 134.953 12.5077 135.757 10.1198L137.661 4.47389L146.155 7.33725L142.906 16.9744L144.732 17.5897L143.156 22.2633L141.126 21.5791L142.069 18.7817L133.268 15.8149ZM135.674 14.5366L140.877 16.2902L143.493 8.5293L139.058 7.03438L137.816 10.7187C137.233 12.4471 136.519 13.7198 135.674 14.5366Z" fill="#0956A3"/>
<path d="M152.115 9.72656L160.055 13.7307L159.163 15.4986L153.136 12.459L151.766 15.1751L156.958 17.7932L156.066 19.5611L150.875 16.943L149.448 19.7717L155.555 22.8517L154.664 24.6196L146.644 20.575L152.115 9.72656Z" fill="#0956A3"/>
<path d="M161.094 23.3503L158.652 26.9792L156.875 25.7833L163.658 15.7031L168.138 18.7179C169.124 19.3811 169.733 20.2391 169.964 21.2918C170.213 22.3413 170.025 23.329 169.402 24.2549C168.779 25.1808 167.935 25.7263 166.869 25.8914C165.807 26.0732 164.783 25.8325 163.797 25.1692L161.094 23.3503ZM167.033 20.3606L164.33 18.5417L162.199 21.7076L164.902 23.5265C165.36 23.8347 165.839 23.9399 166.339 23.8422C166.839 23.7446 167.242 23.4667 167.551 23.0088C167.852 22.5608 167.954 22.0869 167.856 21.5873C167.765 21.0777 167.491 20.6688 167.033 20.3606Z" fill="#0956A3"/>
<path d="M168.629 33.8919L166.684 32.0708L174.661 31.033L175.24 23.4369L177.184 25.2581L176.642 32.42L180.468 28.3343L182.032 29.7986L178.217 33.8711L185.29 32.8502L187.234 34.6714L179.705 35.7581L179.191 43.7851L177.247 41.964L177.737 34.3835L173.726 38.6662L172.163 37.202L176.186 32.9061L168.629 33.8919Z" fill="#0956A3"/>
<path d="M180.557 45.556L190.17 38.125L191.48 39.8197L187.051 43.2434L194.419 43.622L196.093 45.7866L188.278 45.3894L186.689 53.4882L185.016 51.3236L186.524 43.6508L181.867 47.2507L180.557 45.556Z" fill="#0956A3"/>
<path d="M192.828 57.2052L197.984 48.3438L199.176 50.3784L195.216 57.079L202.715 56.4201L203.871 58.3926L194.165 59.2383C191.706 59.4552 190.006 58.7613 189.066 57.1564L188.465 56.1313L190.174 55.1305L190.701 56.0313C191.108 56.7251 191.817 57.1164 192.828 57.2052Z" fill="#0956A3"/>
<path d="M201.787 75.5136L203.496 75.0781L207.415 90.4627L205.706 90.8982L201.787 75.5136Z" fill="#0956A3"/>
</svg>
