<svg width="230" height="230" viewBox="0 0 230 230" fill="none" xmlns="http://www.w3.org/2000/svg">
<path d="M212.703 146.617L213.683 144.474L225.846 149.958L224.866 152.101L219.839 149.834L216.981 156.082L222.009 158.348L221.029 160.491L208.866 155.007L209.846 152.865L214.999 155.188L217.857 148.94L212.703 146.617Z" fill="#0956A3"/>
<path d="M206.842 160.892L208.208 158.829L216.218 170.908L215.158 172.509L200.802 170.019L202.167 167.956L204.981 168.469L208.433 163.253L206.842 160.892ZM207.289 168.887L212.884 169.891L209.736 165.19L207.289 168.887Z" fill="#0956A3"/>
<path d="M200.106 174.276L209.445 183.821L207.75 185.455L199.934 177.465L196.161 181.104L203.977 189.094L202.283 190.728L194.466 182.738L190.579 186.487L198.396 194.477L196.687 196.125L187.349 186.58L200.106 174.276Z" fill="#0956A3"/>
<path d="M190.49 202.598L185.102 194.895L184.613 206.65L182.823 207.885L175.166 196.938L177.104 195.602L182.469 203.273L182.98 191.55L184.771 190.316L192.427 201.263L190.49 202.598Z" fill="#0956A3"/>
<path d="M163.84 204.72L166.025 203.85L171.031 216.242L168.846 217.112L166.777 211.99L160.405 214.528L162.474 219.65L160.289 220.52L155.283 208.128L157.468 207.258L159.589 212.508L165.961 209.971L163.84 204.72Z" fill="#0956A3"/>
<path d="M149.806 213.002C151.366 214.03 152.347 215.514 152.751 217.453C153.154 219.392 152.845 221.14 151.824 222.697C150.792 224.27 149.302 225.257 147.353 225.656C145.431 226.051 143.682 225.729 142.107 224.691C140.532 223.652 139.544 222.17 139.143 220.244C138.742 218.318 139.058 216.569 140.089 214.996C141.111 213.438 142.589 212.461 144.525 212.064C146.486 211.662 148.247 211.974 149.806 213.002ZM150.354 217.965C150.083 216.659 149.436 215.653 148.414 214.946C147.408 214.249 146.266 214.032 144.989 214.294C143.724 214.553 142.769 215.201 142.124 216.236C141.468 217.287 141.276 218.466 141.547 219.771C141.814 221.051 142.458 222.044 143.479 222.751C144.501 223.458 145.638 223.683 146.889 223.427C148.154 223.167 149.114 222.512 149.77 221.461C150.426 220.41 150.621 219.244 150.354 217.965Z" fill="#0956A3"/>
<path d="M127.208 215.65L133.995 215.286L134.722 228.636L128.329 228.979C127.172 229.041 126.186 228.744 125.372 228.086C124.558 227.429 124.124 226.6 124.069 225.598C124.008 224.477 124.412 223.543 125.282 222.795C124.658 222.485 124.16 222.055 123.787 221.507C123.414 220.958 123.209 220.348 123.173 219.675C123.115 218.607 123.473 217.682 124.248 216.9C125.011 216.132 125.998 215.715 127.208 215.65ZM127.523 221.445L131.962 221.207L131.765 217.587L127.326 217.826C126.826 217.852 126.415 218.046 126.092 218.408C125.756 218.783 125.602 219.227 125.63 219.742C125.657 220.243 125.858 220.655 126.232 220.979C126.593 221.316 127.024 221.472 127.523 221.445ZM128.211 226.803L132.255 226.586L132.08 223.362L128.035 223.58C127.575 223.604 127.202 223.776 126.916 224.096C126.617 224.416 126.48 224.807 126.505 225.268C126.53 225.73 126.709 226.104 127.041 226.39C127.36 226.69 127.751 226.828 128.211 226.803Z" fill="#0956A3"/>
<path d="M116.495 218.712C117.644 220.179 118.1 221.896 117.862 223.862C117.625 225.828 116.773 227.389 115.306 228.544C113.825 229.711 112.097 230.176 110.122 229.941C108.173 229.708 106.618 228.852 105.457 227.37C104.296 225.889 103.834 224.171 104.07 222.218C104.306 220.265 105.165 218.705 106.646 217.538C108.112 216.383 109.827 215.923 111.789 216.157C113.777 216.394 115.345 217.245 116.495 218.712ZM115.427 223.592C115.587 222.268 115.296 221.109 114.554 220.117C113.823 219.138 112.81 218.572 111.515 218.418C110.233 218.265 109.121 218.578 108.178 219.357C107.22 220.147 106.661 221.204 106.501 222.528C106.344 223.825 106.636 224.971 107.379 225.963C108.121 226.956 109.127 227.528 110.395 227.679C111.677 227.832 112.797 227.514 113.755 226.723C114.713 225.933 115.27 224.889 115.427 223.592Z" fill="#0956A3"/>
<path d="M98.6077 217.297C99.4951 218.933 99.6564 220.701 99.0914 222.599C98.5264 224.497 97.4235 225.893 95.7827 226.787C94.1255 227.691 92.3425 227.862 90.4337 227.302C89.1443 226.924 88.071 226.258 87.2139 225.305C86.3403 224.36 85.7919 223.271 85.5685 222.036L87.992 221.86C88.1679 222.654 88.528 223.338 89.0723 223.91C89.6166 224.483 90.287 224.886 91.0834 225.119C92.3223 225.483 93.4806 225.355 94.5584 224.736C95.6362 224.116 96.3616 223.18 96.7345 221.928C97.1149 220.65 97.0223 219.46 96.4568 218.358C95.9001 217.273 94.996 216.547 93.7445 216.18C92.9481 215.946 92.1648 215.923 91.3944 216.109C90.6241 216.296 89.9476 216.675 89.365 217.247L87.4273 215.791C88.291 214.875 89.3499 214.25 90.6038 213.917C91.8414 213.592 93.1049 213.619 94.3943 213.997C96.3157 214.561 97.7202 215.661 98.6077 217.297Z" fill="#0956A3"/>
<path d="M75.9522 220.558L80.1007 222.465L79.1801 224.439L68.746 219.642L69.6666 217.668L73.8151 219.575L78.5435 209.438L80.6806 210.42L75.9522 220.558Z" fill="#0956A3"/>
<path d="M60.8506 216.431L66.1535 208.668L54.9299 212.444L53.1258 211.229L60.6615 200.198L62.6132 201.512L57.3326 209.242L68.5339 205.499L70.338 206.714L62.8023 217.745L60.8506 216.431Z" fill="#0956A3"/>
<path d="M44.2599 188.069L45.7535 189.889L35.3739 198.284L33.8804 196.464L38.1706 192.994L33.8154 187.686L29.5252 191.156L28.0316 189.335L38.4111 180.94L39.9047 182.761L35.5069 186.318L39.8621 191.626L44.2599 188.069Z" fill="#0956A3"/>
<path d="M34.0029 176.581L35.2602 178.712L20.8076 180.477L19.832 178.824L28.4405 167.153L29.6978 169.284L27.9882 171.561L31.1667 176.948L34.0029 176.581ZM26.5881 173.429L23.2029 177.962L28.8412 177.248L26.5881 173.429Z" fill="#0956A3"/>
<path d="M24.7664 164.624L12.0397 168.62L11.3245 166.374L21.9773 163.03L20.3848 158.029L9.732 161.374L9.01686 159.129L19.6696 155.784L18.029 150.633L7.37625 153.977L6.65511 151.713L19.3819 147.717L24.7664 164.624Z" fill="#0956A3"/>
<path d="M3.60817 143.396L12.8996 142.072L2.58547 136.319L2.27385 134.163L15.4775 132.282L15.8146 134.615L6.56228 135.933L16.8373 141.691L17.1489 143.848L3.94529 145.729L3.60817 143.396Z" fill="#0956A3"/>
<path d="M13.4904 118.569L13.2892 120.917L0 119.795L0.201178 117.447L5.69405 117.911L6.28068 111.063L0.787807 110.599L0.988985 108.25L14.2782 109.373L14.077 111.721L8.44633 111.245L7.8597 118.093L13.4904 118.569Z" fill="#0956A3"/>
<path d="M12.3632 102.242C10.747 103.18 8.98386 103.395 7.07374 102.889C5.16361 102.383 3.74322 101.323 2.81258 99.711C1.87262 98.0824 1.66144 96.3054 2.17903 94.3802C2.68976 92.4804 3.76131 91.0571 5.39366 90.1102C7.02602 89.1634 8.79089 88.9413 10.6883 89.4442C12.5857 89.947 14.0044 91.0128 14.9443 92.6414C15.875 94.2538 16.0832 96.0163 15.569 97.9288C15.048 99.8668 13.9794 101.305 12.3632 102.242ZM7.69219 100.512C8.97835 100.853 10.1658 100.724 11.2545 100.125C12.3271 99.535 13.033 98.6089 13.3724 97.3467C13.7083 96.0972 13.5594 94.9514 12.9255 93.9092C12.2824 92.851 11.3178 92.1515 10.0316 91.8106C8.77094 91.4765 7.59623 91.6091 6.50751 92.2083C5.41878 92.8076 4.70817 93.7256 4.37568 94.9623C4.03976 96.2118 4.19336 97.3657 4.83648 98.4239C5.47961 99.4822 6.43151 100.178 7.69219 100.512Z" fill="#0956A3"/>
<path d="M20.0994 80.9817L17.3597 87.2174L5.11708 81.9149L7.6975 76.0418C8.16473 74.9784 8.8754 74.2289 9.82951 73.7935C10.7836 73.3581 11.7201 73.3394 12.6391 73.7374C13.6669 74.1825 14.318 74.9608 14.5925 76.0722C15.1511 75.6525 15.7594 75.3981 16.4174 75.3091C17.0754 75.2201 17.7127 75.3091 18.3294 75.5762C19.3088 76.0004 19.9724 76.7338 20.3204 77.7763C20.6615 78.8015 20.5879 79.8699 20.0994 80.9817ZM14.7852 78.6801L12.9932 82.7586L16.3124 84.1962L18.1043 80.1176C18.3061 79.6584 18.3188 79.2036 18.1424 78.7533C17.9593 78.2856 17.632 77.9496 17.1604 77.7454C16.701 77.5464 16.2423 77.5419 15.7846 77.732C15.3201 77.9049 14.987 78.2209 14.7852 78.6801ZM9.69259 76.9059L8.05992 80.6219L11.0163 81.9024L12.649 78.1864C12.8348 77.7634 12.8497 77.3527 12.6937 76.9543C12.543 76.5438 12.2561 76.247 11.8329 76.0637C11.4097 75.8804 10.9953 75.8735 10.5898 76.0431C10.1775 76.1953 9.87842 76.483 9.69259 76.9059Z" fill="#0956A3"/>
<path d="M21.9428 70.5193C20.1092 70.8927 18.3664 70.5362 16.7143 69.4498C15.0623 68.3634 14.0517 66.9092 13.6826 65.0873C13.3097 63.2472 13.6762 61.4984 14.7818 59.8409C15.8728 58.2054 17.3443 57.1991 19.1963 56.822C21.0482 56.4449 22.7947 56.7959 24.4357 57.8751C26.0767 58.9542 27.0837 60.4139 27.4565 62.254C27.8256 64.0759 27.461 65.8101 26.3627 67.4566C25.2497 69.125 23.7764 70.1459 21.9428 70.5193ZM18.0598 67.3973C19.1721 68.1288 20.3408 68.3841 21.5656 68.1631C22.7722 67.9458 23.7379 67.2939 24.4628 66.2072C25.1804 65.1315 25.4045 63.9998 25.1353 62.8121C24.8623 61.6061 24.1696 60.6373 23.0572 59.9058C21.9669 59.1888 20.8093 58.9408 19.5844 59.1618C18.3595 59.3827 17.3919 60.0256 16.6817 61.0903C15.9641 62.166 15.7418 63.3068 16.0148 64.5128C16.2877 65.7188 16.9694 66.6803 18.0598 67.3973Z" fill="#0956A3"/>
<path d="M31.3108 55.1878C29.4401 55.2491 27.7805 54.6063 26.332 53.2592C24.8835 51.9122 24.1289 50.3099 24.0683 48.4525C24.0071 46.5765 24.6598 44.9142 26.0264 43.4655C26.9496 42.4869 28.033 41.8285 29.2767 41.4902C30.5198 41.1333 31.7463 41.1303 32.9563 41.4811L32.018 43.7153C31.225 43.5181 30.4483 43.5343 29.688 43.7638C28.9277 43.9933 28.2624 44.4102 27.6922 45.0146C26.8053 45.9548 26.396 47.042 26.4643 48.2763C26.5327 49.5106 27.0449 50.5722 28.0009 51.4613C28.9762 52.3683 30.0863 52.8153 31.3313 52.8024C32.5575 52.7901 33.6186 52.309 34.5146 51.3592C35.0848 50.7548 35.4604 50.0685 35.6413 49.3002C35.8223 48.5319 35.7878 47.7614 35.5378 46.9886L37.7219 45.9129C38.1535 47.0888 38.2355 48.3086 37.9677 49.5725C37.6994 50.8178 37.1036 51.9298 36.1804 52.9083C34.8047 54.3666 33.1815 55.1264 31.3108 55.1878Z" fill="#0956A3"/>
<path d="M38.3565 33.8178L34.7836 36.6648L33.4153 34.972L42.4016 27.8113L43.7699 29.5041L40.197 32.3511L47.2252 41.0458L45.3847 42.5124L38.3565 33.8178Z" fill="#0956A3"/>
<path d="M48.7077 22.2533L53.3653 30.4214L54.9289 18.7563L56.8246 17.6907L63.4433 29.2979L61.3925 30.4507L56.7545 22.317L55.1713 33.9477L53.2756 35.0133L46.6569 23.4061L48.7077 22.2533Z" fill="#0956A3"/>
<path d="M81.8682 20.0292L79.5722 20.5366L76.6479 7.49196L78.9439 6.98456L80.1526 12.3763L86.8477 10.8968L85.639 5.50501L87.935 4.99761L90.8593 18.0422L88.5633 18.5496L87.3242 13.0226L80.6291 14.5021L81.8682 20.0292Z" fill="#0956A3"/>
<path d="M96.4487 16.1035L93.9842 16.2642L98.8193 2.55065L100.732 2.42594L107.352 15.3925L104.887 15.5532L103.609 12.9966L97.3789 13.4029L96.4487 16.1035ZM102.56 10.9015L100.006 5.82777L98.1433 11.1895L102.56 10.9015Z" fill="#0956A3"/>
<path d="M111.753 13.2026L113.857 0L116.179 0.369204L114.418 11.4202L119.589 12.2424L121.35 1.19138L123.672 1.56058L121.911 12.6116L127.239 13.4586L129 2.40758L131.341 2.77989L129.237 15.9825L111.753 13.2026Z" fill="#0956A3"/>
<path d="M140.425 3.76652L137.434 12.6847L147.198 6.00541L149.262 6.68762L145.013 19.3608L142.78 18.6228L145.758 9.74216L136.007 16.3839L133.943 15.7017L138.192 3.02849L140.425 3.76652Z" fill="#0956A3"/>
<path d="M158.542 23.7859L156.535 22.5586L163.577 11.2047L165.584 12.432L162.673 17.1249L168.527 20.7037L171.437 16.0107L173.445 17.2381L166.402 28.592L164.395 27.3647L167.379 22.554L161.526 18.9752L158.542 23.7859Z" fill="#0956A3"/>
<path d="M173.388 29.8436C173.273 27.9887 173.873 26.3222 175.189 24.8441C176.504 23.3661 178.096 22.5691 179.964 22.4532C181.851 22.3362 183.542 22.9342 185.039 24.2472C186.516 25.5428 187.312 27.1274 187.428 29.0008C187.544 30.8743 186.948 32.5452 185.642 34.0134C184.335 35.4816 182.739 36.2742 180.852 36.3912C178.984 36.5071 177.306 35.9128 175.819 34.6085C174.313 33.2868 173.502 31.6985 173.388 29.8436ZM177.046 26.4467C176.16 27.4419 175.741 28.5572 175.789 29.7924C175.836 31.0091 176.351 32.0479 177.332 32.9088C178.303 33.7609 179.4 34.1351 180.622 34.0314C181.862 33.9266 182.926 33.3765 183.811 32.3813C184.679 31.4057 185.089 30.3003 185.041 29.0651C184.993 27.8298 184.488 26.7905 183.527 25.947C182.555 25.0949 181.449 24.7212 180.209 24.8261C178.968 24.931 177.914 25.4712 177.046 26.4467Z" fill="#0956A3"/>
<path d="M189.186 46.2328L184.792 41.0342L195.049 32.4889L199.187 37.3852C199.937 38.2718 200.294 39.2359 200.259 40.2777C200.225 41.3194 199.823 42.161 199.053 42.8024C198.192 43.5198 197.199 43.7546 196.075 43.5067C196.203 44.1896 196.16 44.8434 195.946 45.4683C195.731 46.0932 195.366 46.6208 194.849 47.0513C194.029 47.7349 193.071 48.0007 191.976 47.8487C190.899 47.6983 189.969 47.1597 189.186 46.2328ZM193.638 42.5235L190.764 39.1233L187.984 41.44L190.857 44.8402C191.181 45.2231 191.585 45.4358 192.07 45.4783C192.573 45.5224 193.023 45.3799 193.418 45.0507C193.803 44.73 194.012 44.3239 194.045 43.8325C194.097 43.3427 193.962 42.9063 193.638 42.5235ZM197.516 38.7778L194.897 35.6798L192.421 37.7433L195.039 40.8413C195.337 41.1939 195.7 41.3891 196.129 41.4267C196.567 41.4743 196.963 41.3505 197.317 41.0551C197.672 40.7597 197.863 40.394 197.892 39.9581C197.939 39.5238 197.814 39.1304 197.516 38.7778Z" fill="#0956A3"/>
<path d="M197.797 52.4284C198.272 50.6309 199.366 49.2384 201.079 48.2507C202.791 47.263 204.552 47.0095 206.36 47.4901C208.186 47.9755 209.602 49.0782 210.608 50.7981C211.601 52.4953 211.858 54.2516 211.378 56.0671C210.897 57.8825 209.807 59.2808 208.106 60.2619C206.404 61.243 204.641 61.4908 202.815 61.0054C201.006 60.5248 199.603 59.4302 198.603 57.7217C197.59 55.9903 197.321 54.2259 197.797 52.4284ZM202.335 50.3594C201.182 51.0245 200.434 51.951 200.091 53.1392C199.752 54.3093 199.913 55.4582 200.573 56.5858C201.226 57.7021 202.148 58.4042 203.339 58.692C204.549 58.9846 205.73 58.7984 206.883 58.1334C208.014 57.4815 208.75 56.5615 209.094 55.3734C209.437 54.1853 209.285 53.0388 208.639 51.9339C207.986 50.8177 207.055 50.1132 205.845 49.8206C204.636 49.528 203.466 49.7076 202.335 50.3594Z" fill="#0956A3"/>
<path d="M207.668 67.8195C208.442 66.1275 209.757 64.94 211.611 64.257C213.466 63.5739 215.242 63.623 216.941 64.4043C218.656 65.1933 219.862 66.5215 220.56 68.3887C221.031 69.6501 221.143 70.91 220.896 72.1686C220.666 73.4351 220.125 74.5277 219.273 75.4465L217.678 73.607C218.207 72.9902 218.537 72.2919 218.668 71.5123C218.799 70.7326 218.718 69.9533 218.427 69.1742C217.975 67.9624 217.178 67.1094 216.037 66.6152C214.896 66.1211 213.713 66.0994 212.489 66.5502C211.24 67.0101 210.346 67.7968 209.805 68.9102C209.273 70.0067 209.235 71.1671 209.692 72.3913C209.983 73.1704 210.434 73.8131 211.046 74.3195C211.657 74.826 212.365 75.1417 213.172 75.2668L213.171 77.6936C211.922 77.549 210.788 77.0734 209.769 76.2669C208.767 75.4682 208.031 74.4381 207.56 73.1768C206.857 71.2972 206.893 69.5114 207.668 67.8195Z" fill="#0956A3"/>
<path d="M223.789 83.7705L222.823 79.2987L224.949 78.8458L227.379 90.0929L225.254 90.5458L224.287 86.0741L213.368 88.4005L212.87 86.0969L223.789 83.7705Z" fill="#0956A3"/>
<path d="M229.529 98.1975L220.156 98.6648L229.89 105.339L230 107.515L216.68 108.179L216.561 105.825L225.895 105.359L216.2 98.6834L216.09 96.5074L229.41 95.8435L229.529 98.1975Z" fill="#0956A3"/>
</svg>
