<svg width="70" height="106" viewBox="0 0 70 106" fill="none" xmlns="http://www.w3.org/2000/svg">
<g clip-path="url(#clip0_893_20817)">
<path d="M35.2138 0.0253906H34.7862C27.5674 0.152033 0 4.05263 0 38.0182C0 69.1217 33.0507 80.0383 33.0507 104.379C33.0507 105.342 33.8807 105.848 34.7862 105.975H35.2138C36.1445 105.975 36.9493 105.342 36.9493 104.379C36.9493 80.0383 70 69.1217 70 38.0182C70 4.05263 42.4326 0.152033 35.2138 0.0253906Z" fill="#0956A3"/>
<path d="M16.5274 44.3755C15.8352 42.3638 15.4865 40.2485 15.4962 38.1194C15.4972 33.537 17.1173 29.1045 20.0666 25.6148C23.0159 22.1251 27.102 19.806 31.5939 19.0723V22.8209L37.706 16.3622L31.5939 9.92871V13.728C27.9456 14.1935 24.4486 15.4818 21.3633 17.4969C18.278 19.512 15.6838 22.2021 13.7741 25.3667C11.8643 28.5314 10.6881 32.0891 10.333 35.7749C9.97791 39.4608 10.4531 43.1798 11.7232 46.6551L13.4085 43.1091L16.5274 44.3755Z" fill="white"/>
<path d="M59.1079 38.1194C59.104 32.3484 57.087 26.7622 53.4091 22.3364C49.7312 17.9106 44.6262 14.9265 38.9857 13.9053L41.1992 17.122L38.5078 19.1736C41.2488 19.7129 43.8395 20.8489 46.0989 22.5021C48.3582 24.1552 50.2314 26.2856 51.5875 28.7441C52.9436 31.2026 53.7497 33.9298 53.9496 36.7349C54.1494 39.54 53.738 42.3552 52.7442 44.9834L49.5247 43.1091L52.04 51.6701L60.6422 49.5679L57.3723 47.6429C58.5817 44.6184 59.172 41.3792 59.1079 38.1194Z" fill="white"/>
<path d="M49.0429 50.8094C47.214 52.9319 44.9457 54.6254 42.3975 55.771C39.8493 56.9166 37.0829 57.4864 34.2926 57.4406C31.5024 57.3947 28.7559 56.7342 26.2462 55.5055C23.7365 54.2768 21.5243 52.5096 19.7651 50.3281L22.9847 48.4538L14.3825 46.3516L11.8672 54.9126L15.137 52.9876C17.3503 55.9389 20.1973 58.3484 23.4652 60.036C26.7332 61.7236 30.3376 62.6456 34.0092 62.7333C37.6807 62.821 41.3245 62.072 44.6682 60.5423C48.012 59.0126 50.9692 56.7418 53.3189 53.8995L49.4453 54.2034L49.0429 50.8094Z" fill="white"/>
</g>
<defs>
<clipPath id="clip0_893_20817">
<rect width="70" height="106" fill="white"/>
</clipPath>
</defs>
</svg>
