<svg width="45" height="16" viewBox="0 0 45 16" fill="none" xmlns="http://www.w3.org/2000/svg">
<path fill-rule="evenodd" clip-rule="evenodd" d="M32.1346 0.777494C31.4315 0.498517 30.3182 0.179688 28.9315 0.179688C25.3964 0.179688 22.9159 2.09267 22.8964 4.84258C22.8769 6.87513 24.6737 7.99103 26.0214 8.66855C27.4081 9.36599 27.8769 9.80438 27.8769 10.4221C27.8573 11.3587 26.7636 11.7971 25.7284 11.7971C24.3027 11.7971 23.5409 11.5779 22.3691 11.0399L21.9003 10.8207L21.4316 13.989C22.2714 14.3876 23.8144 14.7263 25.4159 14.7463C29.1659 14.7463 31.6073 12.8532 31.6268 9.92394C31.6464 8.30987 30.6893 7.09432 28.619 6.07805C27.369 5.44039 26.6073 5.002 26.6073 4.34441C26.6269 3.74661 27.2519 3.12887 28.6581 3.12887C29.8104 3.08902 30.6698 3.38792 31.3143 3.6669L31.6464 3.82631L32.1346 0.777494ZM9.14645 10.0435L12.6425 0.438738H16.4121L10.7871 14.5071H7.01756L3.81445 2.19231C6.08006 3.40785 8.1113 5.85886 8.75583 8.09067L9.14645 10.0435ZM15.6308 14.5271H19.1855L21.4316 0.438738H17.8574L15.6308 14.5271ZM41.2947 0.438738H38.5409C37.6814 0.438738 37.037 0.697786 36.6659 1.61443L31.3534 14.547H35.1034C35.1034 14.547 35.7284 12.8134 35.8456 12.4347H40.4354C40.533 12.9329 40.8651 14.547 40.8651 14.547H44.1658L41.2947 0.438738ZM38.3065 5.59981C38.3065 5.59981 37.1737 8.72833 36.8807 9.54533H39.8494C39.7127 8.82796 39.0291 5.46032 39.0291 5.46032L38.7752 4.24478C38.6657 4.58011 38.503 5.03929 38.4007 5.32803L38.4006 5.32824L38.4004 5.32898C38.3387 5.50297 38.2991 5.61479 38.3065 5.59981Z" fill="#00579F"/>
<path d="M5.88473 0.4375H0.142578L0.0839844 0.716477C4.57614 1.89216 7.54487 4.70186 8.7558 8.08943L7.50581 1.61319C7.3105 0.716477 6.66597 0.457427 5.88473 0.4375Z" fill="#FAA61A"/>
</svg>
