<svg width="37" height="10" viewBox="0 0 37 10" fill="none" xmlns="http://www.w3.org/2000/svg">
<path fill-rule="evenodd" clip-rule="evenodd" d="M9.87126 0.0043671V1.9025e-07H13.1315V10H9.87126V4.0655H9.59957L7.69777 10H5.43372L3.53192 4.06114H3.26023V10H0V1.9025e-07H3.26023C3.26023 1.9025e-07 4.69111 -0.00436652 5.07147 1.31004C5.42466 2.53712 6.4299 5.93886 6.4299 5.93886H6.70159C6.72876 5.84716 7.71136 2.51965 8.06002 1.31441C8.43961 0.00266051 9.86096 0.00435482 9.87126 0.0043671ZM21.7802 1.9025e-07C21.7802 1.9025e-07 20.8247 0.0829698 20.3765 1.04804L18.0671 5.93886H17.7954V1.9025e-07H14.5352V10H17.6143C17.6143 10 18.615 9.91266 19.0633 8.95197L21.3274 4.06114H21.599V10H24.8593V1.9025e-07H21.7802ZM26.3083 10V4.54148H36.4286C35.9441 5.86463 34.64 6.81223 33.1004 6.81223H29.5685V10H26.3083Z" fill="#4DB45E"/>
<path d="M32.9192 0H25.7148C26.0748 1.98784 27.5463 3.58359 29.4498 4.10334C29.8818 4.22188 30.3363 4.28571 30.8042 4.28571H36.3571C36.4066 4.04863 36.4291 3.80699 36.4291 3.55623C36.4291 1.59119 34.8587 0 32.9192 0Z" fill="#03A6DC"/>
</svg>
