<svg width="27" height="16" viewBox="0 0 27 16" fill="none" xmlns="http://www.w3.org/2000/svg">
<path d="M16.5551 14.0172H9.48047V1.70312H16.5551V14.0172Z" fill="#FF5F00"/>
<path d="M9.97447 7.80773C9.97447 10.3102 11.157 12.5624 13.0594 14.0139C11.6712 15.0649 9.92306 15.7156 8.07213 15.7156C3.59904 15.7156 0 12.2121 0 7.85778C0 3.50347 3.59904 0 8.07213 0C9.97447 0 11.6712 0.650644 13.0594 1.70168C11.157 3.05302 9.97447 5.30525 9.97447 7.80773Z" fill="#EB001B"/>
<path d="M26.1199 7.80878C26.1199 3.48162 22.5209 0 18.0478 0C16.1454 0 14.4487 0.646587 13.0605 1.69107C14.9629 3.13346 16.1454 5.32191 16.1454 7.85852C16.1454 10.3951 14.9629 12.5836 13.0605 14.026C14.4487 15.0705 16.1968 15.717 18.0478 15.717C22.5209 15.6176 26.1199 12.1359 26.1199 7.80878Z" fill="#F79E1B"/>
</svg>
