<svg width="26" height="16" viewBox="0 0 26 16" fill="none" xmlns="http://www.w3.org/2000/svg">
<path d="M16.3958 14.345H9.41797V1.80469H16.3958V14.345Z" fill="#6C6BBD"/>
<path d="M9.85702 7.97536C9.85702 10.5192 11.0481 12.7852 12.9029 14.2455C11.5465 15.3134 9.83471 15.9507 7.97435 15.9507C3.57013 15.9507 0 12.3801 0 7.97536C0 3.57063 3.57013 0 7.97435 0C9.83471 0 11.5465 0.63736 12.9029 1.7052C11.0481 3.1655 9.85702 5.4315 9.85702 7.97536Z" fill="#EB001B"/>
<path d="M25.8057 7.97536C25.8057 3.57063 22.2356 0 17.8314 0C15.971 0 14.2592 0.63736 12.9023 1.7052C14.7576 3.1655 15.9487 5.4315 15.9487 7.97536C15.9487 10.5192 14.7576 12.7852 12.9023 14.2455C14.2592 15.3134 15.971 15.9507 17.8314 15.9507C22.2356 15.9507 25.8057 12.3801 25.8057 7.97536Z" fill="#0099DF"/>
</svg>
