<svg width="30" height="30" viewBox="0 0 30 30" fill="none" xmlns="http://www.w3.org/2000/svg">
<path d="M15 30C23.2843 30 30 23.2843 30 15C30 6.71575 23.2843 0 15 0C6.71575 0 0 6.71575 0 15C0 23.2843 6.71575 30 15 30Z" fill="url(#paint0_linear_412_14002)"/>
<path d="M7.92198 14.6109C9.32498 13.8527 10.8911 13.2199 12.3544 12.5839C14.8719 11.5422 17.3994 10.5185 19.9524 9.56549C20.4491 9.4031 21.3416 9.24429 21.4291 9.96645C21.3812 10.9887 21.1841 12.0049 21.0489 13.0211C20.7057 15.2559 20.309 17.483 19.9222 19.7104C19.7889 20.4523 18.8415 20.8364 18.2353 20.3616C16.7785 19.3962 15.3105 18.4402 13.8723 17.4525C13.4012 16.9828 13.838 16.3084 14.2588 15.973C15.4587 14.813 16.7312 13.8274 17.8683 12.6073C18.1751 11.8806 17.2687 12.4931 16.9698 12.6807C15.3271 13.7912 13.7247 14.9696 11.9928 15.9456C11.1082 16.4233 10.0771 16.015 9.19291 15.7484C8.40008 15.4264 7.23829 15.102 7.9219 14.6109L7.92198 14.6109Z" fill="white"/>
<defs>
<linearGradient id="paint0_linear_412_14002" x1="11.2517" y1="1.251" x2="3.75175" y2="18.75" gradientUnits="userSpaceOnUse">
<stop stop-color="#37AEE2"/>
<stop offset="1" stop-color="#1E96C8"/>
</linearGradient>
</defs>
</svg>
