<svg width="462" height="287" viewBox="0 0 462 287" fill="none" xmlns="http://www.w3.org/2000/svg">
<path d="M79.7681 141.32L104.035 87.5781L141.869 143.772L156.271 128.807L255.55 210.341L292.086 161.98L311.366 170.968L356.68 111.794L400.735 118.747C400.735 118.747 462.309 215.741 460.889 217.615C459.468 219.49 460.889 286.662 460.889 286.662H21.0605L79.7681 141.32Z" fill="#F5F5F5"/>
<path d="M227.979 35.1982C228.378 32.3413 224.342 29.998 221.315 29.7541C219.869 29.6385 218.371 29.8568 217.002 29.3817C214.033 28.3481 212.851 24.5217 209.933 23.3019C207.767 22.3903 205.28 23.1992 203.179 24.2585C201.077 25.3178 199.014 26.6403 196.669 26.788C194.631 26.9164 192.42 26.146 190.634 27.1604C189.31 27.8987 188.609 29.4266 187.388 30.3319C186.167 31.2371 184.625 31.3976 183.14 31.481C181.656 31.5645 180.113 31.5773 178.757 32.1936C177.401 32.81 176.29 34.2416 176.566 35.7054L227.979 35.1982Z" fill="#E0E0E0"/>
<path d="M182.39 69.4169C182.955 65.3209 177.158 61.944 172.808 61.5973C170.732 61.4304 168.572 61.745 166.606 61.0581C162.345 59.575 160.648 54.0795 156.49 52.3269C153.38 51.0429 149.8 52.1792 146.786 53.6943C143.772 55.2094 140.796 57.1162 137.429 57.3345C134.505 57.5206 131.323 56.4357 128.759 57.8673C126.831 58.933 125.854 61.1287 124.093 62.4255C122.333 63.7224 120.128 63.9599 117.988 64.0755C115.848 64.191 113.644 64.2167 111.696 65.1027C109.749 65.9886 108.142 68.0494 108.547 70.1488L182.39 69.4169Z" fill="#EBEBEB"/>
<path d="M456.095 80.5742C456.66 76.4719 450.87 73.1014 446.513 72.7483C444.437 72.5813 442.284 72.9023 440.317 72.2154C436.056 70.7324 434.353 65.2304 430.195 63.4778C427.085 62.1938 423.512 63.3365 420.497 64.8517C417.483 66.3668 414.521 68.2478 411.14 68.4918C408.21 68.678 405.029 67.593 402.471 69.0182C400.543 70.084 399.559 72.2796 397.799 73.5764C396.038 74.8733 393.833 75.1172 391.7 75.2328C389.566 75.3484 387.349 75.3676 385.401 76.26C383.454 77.1524 381.848 79.2004 382.252 81.2997L456.095 80.5742Z" fill="#F5F5F5"/>
<path d="M93.4054 37.3241C93.6754 35.3981 90.9312 33.7866 88.8682 33.6197C87.8849 33.5363 86.8631 33.6903 85.9312 33.3629C83.9133 32.6631 83.1099 30.0566 81.1369 29.2284C79.6652 28.5864 77.975 29.1578 76.5483 29.8704C75.1216 30.5831 73.7077 31.4883 72.1139 31.591C70.7257 31.6809 69.2219 31.1673 68.0072 31.8478C67.1075 32.3486 66.6319 33.3886 65.7965 34.0049C64.9293 34.5362 63.9279 34.808 62.9109 34.7882C61.8949 34.7603 60.8829 34.9259 59.9289 35.2761C59.4561 35.4588 59.0553 35.7897 58.7865 36.2191C58.5178 36.6484 58.3955 37.1533 58.4379 37.6579L93.4054 37.3241Z" fill="#F5F5F5"/>
<path d="M400.194 42.3033C400.464 40.3773 397.72 38.7659 395.657 38.5989C394.674 38.5219 393.658 38.6696 392.726 38.3421C390.708 37.6424 389.899 35.0358 387.932 34.2077C386.46 33.5657 384.764 34.1435 383.337 34.8497C381.91 35.5559 380.503 36.4739 378.909 36.5766C377.521 36.6601 376.017 36.1465 374.803 36.827C373.896 37.3278 373.421 38.3678 372.592 38.9841C371.723 39.5182 370.719 39.7902 369.7 39.7674C368.684 39.7438 367.673 39.9093 366.718 40.2553C366.245 40.4401 365.845 40.7723 365.576 41.2026C365.307 41.6328 365.185 42.1382 365.227 42.6435L400.194 42.3033Z" fill="#EBEBEB"/>
<path d="M300.86 37.5398C300.608 37.5001 300.359 37.4465 300.114 37.3793C299.443 37.2436 298.754 37.224 298.077 37.3215C297.074 37.4612 296.129 37.8743 295.345 38.5157C294.386 39.2993 293.709 40.3746 293.417 41.578V41.6101L293.295 42.0659L293.122 41.6358C292.656 40.4937 291.853 39.5199 290.821 38.8431C289.977 38.2896 289.006 37.9604 288 37.8865C287.065 37.8385 286.129 37.958 285.236 38.2396C285.45 38.0972 285.687 37.9929 285.937 37.9314C286.773 37.6723 287.655 37.5955 288.523 37.7063C289.391 37.817 290.225 38.1127 290.969 38.5734C292.064 39.2693 292.915 40.2879 293.405 41.4881H293.115V41.456C293.419 40.1882 294.138 39.0583 295.159 38.246C295.854 37.7086 296.665 37.3395 297.527 37.168C298.389 36.9964 299.279 37.027 300.127 37.2573C300.385 37.3102 300.633 37.4056 300.86 37.5398Z" fill="#E0E0E0"/>
<path d="M216.818 81.6777C216.818 81.6777 216.522 81.5943 215.982 81.4851C215.225 81.3301 214.446 81.3083 213.682 81.4209C212.55 81.5795 211.484 82.0434 210.597 82.7627C209.515 83.6492 208.752 84.8642 208.425 86.2231V86.2616L208.302 86.711L208.129 86.2809C207.609 84.9977 206.713 83.9012 205.558 83.1351C204.598 82.5046 203.491 82.1331 202.345 82.0565C201.577 81.9959 200.805 82.0588 200.057 82.2427C199.524 82.3711 199.241 82.4867 199.228 82.4674C199.215 82.4481 199.292 82.416 199.427 82.3583C199.62 82.2655 199.82 82.1882 200.025 82.1271C200.968 81.8392 201.963 81.7589 202.94 81.8919C203.918 82.0249 204.855 82.368 205.687 82.8975C206.915 83.6797 207.869 84.8239 208.418 86.1717H208.129V86.1332C208.469 84.7082 209.276 83.438 210.423 82.5252C211.199 81.9084 212.109 81.481 213.08 81.277C214.05 81.0731 215.055 81.0982 216.014 81.3503C216.221 81.4025 216.423 81.4712 216.618 81.5557C216.692 81.5839 216.759 81.6252 216.818 81.6777Z" fill="#E0E0E0"/>
<path d="M466.756 286.692C466.756 286.788 365.671 286.865 241.013 286.865C116.355 286.865 15.2441 286.788 15.2441 286.692C15.2441 286.595 116.323 286.531 241 286.531C365.677 286.531 466.756 286.595 466.756 286.692Z" fill="#263238"/>
<path d="M405.383 196.009L383.757 76.668L349.856 187.541L359.798 183.689L335.248 249.905L349.278 243.748L332.324 286.865H408.307L401.874 246.83L408.307 258.38L394.252 188.524L405.383 196.009Z" fill="#263238"/>
<path d="M117.576 199.462L95.2114 47.7578L64.267 191.335L73.8042 187.637L50.2376 251.208L63.7079 245.295L47.4355 286.691H120.378L114.209 248.254L120.378 259.342L106.889 192.278L117.576 199.462Z" fill="#263238"/>
<path d="M418.892 227.506L410.479 222.684L407.69 208.207L405.338 208.849L407.375 222.524L399.316 217.079L397.549 219.102L408.217 225.888L418.892 230.883V227.506Z" fill="#455A64"/>
<path d="M423.892 206.391H417.729V286.275H423.892V206.391Z" fill="#455A64"/>
<path d="M419.123 53.8047C419.123 54.6393 402.581 106.757 402.581 106.757L410.852 98.3531L398.931 134.774L406.784 123.86L397.53 169.532L402.028 164.768L394.175 196.99L400.91 188.586L394.162 212.7L447.452 208.777L434.83 163.388L442.458 171.791L432.587 138.728L437.658 141.502L426.16 98.9116L431.488 102.552L419.123 53.8047Z" fill="#455A64"/>
<path d="M420.947 146.824C420.878 147.088 420.787 147.345 420.677 147.595L419.848 149.707C419.09 151.556 418.062 154.079 416.866 157.006L416.731 157.327L416.564 157.019C415.727 155.463 415.001 153.85 414.392 152.191C414.154 151.549 413.936 150.907 413.749 150.265H414.077C412.606 154.008 411.166 157.27 410.08 159.587C409.54 160.743 409.09 161.667 408.795 162.296C408.647 162.585 408.525 162.823 408.415 163.022C408.306 163.221 408.28 163.266 408.268 163.259C408.381 162.912 408.518 162.573 408.679 162.245C408.987 161.552 409.399 160.621 409.893 159.491C410.922 157.154 412.323 153.88 413.749 150.137L413.929 149.681L414.071 150.15C414.264 150.76 414.476 151.402 414.713 152.044C415.316 153.689 416.031 155.292 416.854 156.839H416.551C417.798 153.931 418.865 151.427 419.656 149.591C420.028 148.737 420.337 148.044 420.575 147.518C420.677 147.276 420.802 147.043 420.947 146.824Z" fill="#263238"/>
<path d="M426.589 127.372C426.468 127.196 426.367 127.006 426.287 126.807C426.082 126.384 425.831 125.851 425.523 125.215C424.88 123.861 423.897 122.005 422.637 119.861L422.945 119.816C422.676 120.843 422.393 121.947 422.091 123.09C421.904 123.809 421.724 124.503 421.544 125.177L421.422 125.645L421.223 125.202C420.086 122.679 419.102 120.451 418.415 118.853C418.093 118.095 417.823 117.466 417.618 116.965C417.501 116.745 417.417 116.51 417.367 116.266C417.507 116.468 417.627 116.683 417.727 116.908L418.614 118.75C419.359 120.323 420.388 122.532 421.532 125.048H421.21C421.39 124.406 421.57 123.681 421.757 122.968C422.059 121.825 422.348 120.721 422.624 119.694L422.727 119.309L422.926 119.655C423.957 121.414 424.888 123.23 425.715 125.093C426.017 125.78 426.242 126.339 426.39 126.724C426.485 126.93 426.552 127.148 426.589 127.372Z" fill="#263238"/>
<path d="M419.02 87.4453C418.756 88.0852 418.442 88.7034 418.082 89.2943C417.439 90.4306 416.571 92.0099 415.549 93.7883L415.318 94.1992L415.235 93.7369C415.138 93.2169 415.042 92.6776 414.945 92.1319L414.521 89.4355L414.823 89.4933C413.872 91.002 413.049 92.286 412.445 93.1912C412.151 93.6874 411.818 94.1596 411.449 94.6036C411.682 94.0753 411.957 93.5665 412.272 93.0821C412.825 92.1512 413.615 90.8415 414.547 89.32L414.772 88.954L414.849 89.3777C415.003 90.2252 415.164 91.1368 415.337 92.0806C415.434 92.6327 415.53 93.1655 415.62 93.6856L415.305 93.6342C416.34 91.8494 417.265 90.2958 417.94 89.1916C418.256 88.5837 418.617 88 419.02 87.4453Z" fill="#263238"/>
<path d="M60.7777 236.652H52.166V286.69H60.7777V236.652Z" fill="#455A64"/>
<path d="M54.6277 72.1016C54.6277 73.0196 36.5752 129.882 36.5752 129.882L45.5725 120.714L32.6035 160.447L41.1702 148.532L31.0739 198.357L35.971 193.157L27.4043 228.313L34.7436 219.12L27.4043 245.442L85.5399 241.159L71.7676 191.642L80.0837 200.81L69.3254 164.742L74.8331 167.798L62.2818 121.324L68.0658 125.298L54.6277 72.1016Z" fill="#455A64"/>
<path d="M63.2901 164.012C63.2901 164.012 63.2194 163.967 63.0973 163.851L62.5704 163.344L60.6424 161.418L53.9008 154.587L54.1771 154.504C53.7915 156.731 53.3802 159.171 52.9432 161.72C52.6926 163.151 52.4548 164.545 52.217 165.886L52.1142 166.477L51.8957 165.925C50.4319 162.293 49.3151 158.532 48.5602 154.69C48.2774 153.252 48.0975 152.122 48.0011 151.294C47.9433 150.896 47.9175 150.581 47.8983 150.376C47.8855 150.269 47.8855 150.161 47.8983 150.055C47.9409 150.152 47.9669 150.257 47.9754 150.363L48.1361 151.274C48.271 152.071 48.4831 153.2 48.7787 154.645C49.6033 158.454 50.7536 162.184 52.217 165.797L51.8892 165.829C52.1206 164.487 52.3584 163.094 52.609 161.662C53.0525 159.094 53.4766 156.68 53.8944 154.452L53.9458 154.131L54.1707 154.363C56.8442 157.149 59.1385 159.543 60.803 161.27C61.5806 162.105 62.2169 162.773 62.686 163.273L63.1745 163.813C63.2209 163.874 63.2597 163.941 63.2901 164.012Z" fill="#263238"/>
<path d="M42.1406 209.162C42.1906 207.866 42.3519 206.577 42.6226 205.31C42.7835 204.017 43.0587 202.74 43.4452 201.496C43.2468 204.097 42.8167 206.675 42.1599 209.2L42.1406 209.162Z" fill="#263238"/>
<path d="M62.0059 189.652C61.9709 189.801 61.9192 189.945 61.8517 190.082L61.3504 191.296L59.4224 195.758C57.7579 199.546 55.4636 204.746 52.9058 210.556L52.6937 211.037L52.578 210.524C52.488 210.1 52.3852 209.651 52.2824 209.195C51.4212 205.272 50.6115 201.574 49.9045 198.364L50.1809 198.422L44.866 206.242L43.3429 208.431L42.9316 209.002C42.8853 209.07 42.8337 209.135 42.7773 209.195C42.8047 209.117 42.8437 209.043 42.893 208.977L43.2658 208.379L44.7118 206.139L49.9302 198.249L50.1294 197.934L50.2066 198.287C50.9199 201.497 51.749 205.189 52.623 209.111C52.7258 209.561 52.8222 210.017 52.9186 210.434L52.5909 210.402C55.1615 204.624 57.5137 199.43 59.2039 195.636C60.0522 193.793 60.7334 192.291 61.2283 191.219C61.4597 190.724 61.646 190.333 61.7938 190.031C61.854 189.899 61.9249 189.773 62.0059 189.652Z" fill="#263238"/>
<path d="M66.5812 234.367C65.1261 232.784 63.7574 231.123 62.481 229.392C61.1012 227.737 59.814 226.007 58.625 224.211C60.0799 225.793 61.4486 227.451 62.7252 229.18C64.1051 230.837 65.3924 232.569 66.5812 234.367Z" fill="#263238"/>
<path d="M61.0537 116.675C60.8892 116.495 60.7428 116.299 60.6167 116.09L59.4792 114.389L55.5653 108.393L55.8545 108.335C55.4625 110.319 55.0962 112.54 54.8263 114.89C54.6142 116.752 54.4792 118.556 54.3957 120.206V120.848L54.1129 120.283C52.9023 117.864 51.9564 115.322 51.2916 112.701C51.0474 111.731 50.8867 110.954 50.7968 110.422C50.7353 110.149 50.6988 109.872 50.6875 109.593C50.7806 109.857 50.8516 110.127 50.8996 110.402C51.0281 110.929 51.2145 111.686 51.4844 112.649C52.2172 115.232 53.1964 117.739 54.4085 120.135L54.0936 120.199C54.1643 118.543 54.2929 116.732 54.5049 114.864C54.7813 112.502 55.1476 110.274 55.5718 108.284L55.6553 107.898L55.861 108.232L59.6656 114.299C60.1026 115.018 60.456 115.583 60.7324 116.045C60.8548 116.247 60.9622 116.457 61.0537 116.675Z" fill="#263238"/>
<path d="M297.271 57.1399C303.29 57.1399 308.17 52.265 308.17 46.2516C308.17 40.2381 303.29 35.3633 297.271 35.3633C291.251 35.3633 286.371 40.2381 286.371 46.2516C286.371 52.265 291.251 57.1399 297.271 57.1399Z" fill="#0956A3"/>
<path d="M296.647 58.3477C296.815 59.8394 296.871 61.3416 296.814 62.8417C296.871 64.3417 296.815 65.8439 296.647 67.3357C296.483 65.8436 296.428 64.3417 296.48 62.8417C296.427 61.3416 296.483 59.8397 296.647 58.3477Z" fill="#0956A3"/>
<path d="M290.554 56.8672C290.059 57.7068 289.468 58.4866 288.793 59.1912C288.206 59.9717 287.528 60.6806 286.775 61.3034C287.278 60.4664 287.87 59.6871 288.543 58.9794C289.129 58.2 289.804 57.4912 290.554 56.8672Z" fill="#0956A3"/>
<path d="M284.353 50.3672C282.922 51.3139 281.435 52.1715 279.899 52.9352C278.415 53.8039 276.876 54.5739 275.291 55.24C276.715 54.2769 278.2 53.4083 279.738 52.6399C281.225 51.7827 282.767 51.0236 284.353 50.3672Z" fill="#0956A3"/>
<path d="M282.175 42.6069C281.017 42.8608 279.838 43.0005 278.653 43.0242C277.476 43.1635 276.288 43.1893 275.105 43.1013C276.264 42.8554 277.443 42.7178 278.627 42.6904C279.805 42.555 280.992 42.527 282.175 42.6069Z" fill="#0956A3"/>
<path d="M285.78 37.3291C284.435 36.2447 283.16 35.076 281.963 33.8302C280.688 32.664 279.49 31.4159 278.377 30.0938C279.722 31.174 280.997 32.3384 282.194 33.5798C283.47 34.7501 284.668 36.0025 285.78 37.3291Z" fill="#0956A3"/>
<path d="M292.49 33.2258C292.073 32.6724 291.746 32.0572 291.52 31.4026C291.206 30.798 290.989 30.1481 290.877 29.4766C291.298 30.0284 291.628 30.6439 291.854 31.2998C292.165 31.905 292.379 32.5548 292.49 33.2258Z" fill="#0956A3"/>
<path d="M298.492 23.1797C298.633 24.7657 298.663 26.3596 298.582 27.9497C298.613 29.5412 298.534 31.1329 298.344 32.7134C298.203 31.1275 298.171 29.5337 298.248 27.9433C298.213 26.3516 298.295 24.7595 298.492 23.1797Z" fill="#0956A3"/>
<path d="M309.482 29.5938C309.077 30.4746 308.573 31.3061 307.978 32.0719C307.472 32.8993 306.872 33.6661 306.191 34.3574C306.597 33.4757 307.104 32.644 307.702 31.8793C308.203 31.0498 308.8 30.2826 309.482 29.5938Z" fill="#0956A3"/>
<path d="M319.841 32.2188C318.154 33.4572 316.401 34.6038 314.591 35.6535C312.839 36.8017 311.026 37.854 309.16 38.8057C310.851 37.57 312.606 36.4235 314.417 35.371C316.168 34.2253 317.979 33.1731 319.841 32.2188Z" fill="#0956A3"/>
<path d="M306.995 61.48C306.392 60.9166 305.909 60.2375 305.575 59.4833C305.144 58.7826 304.856 58.0037 304.727 57.1914C305.16 57.8751 305.542 58.5896 305.871 59.3293C306.295 60.0191 306.671 60.7378 306.995 61.48Z" fill="#0956A3"/>
<path d="M317.875 59.4833C316.082 58.6823 314.338 57.7777 312.65 56.7741C310.908 55.8668 309.217 54.8638 307.586 53.7695C309.379 54.5705 311.123 55.4751 312.811 56.4788C314.553 57.386 316.244 58.3891 317.875 59.4833Z" fill="#0956A3"/>
<path d="M316.712 51.291C315.589 51.0061 314.496 50.6149 313.447 50.1225C312.355 49.7354 311.302 49.243 310.305 48.6523C311.428 48.933 312.521 49.3222 313.569 49.8144C314.663 50.202 315.716 50.6966 316.712 51.291Z" fill="#0956A3"/>
<path d="M318.53 43.2534C317.293 43.5504 316.033 43.7373 314.764 43.812C313.504 43.994 312.231 44.0691 310.959 44.0367C312.195 43.739 313.456 43.5521 314.725 43.4781C315.985 43.2962 317.257 43.221 318.53 43.2534Z" fill="#0956A3"/>
<path d="M65.9766 258.172C66.1625 258.517 66.3173 258.878 66.4393 259.25C66.7221 259.95 67.0819 260.977 67.5447 262.255C68.438 264.823 69.5562 268.373 70.5588 272.373C71.5613 276.373 72.2618 280.045 72.686 282.716C72.8916 284.051 73.0459 285.136 73.1294 285.887C73.1877 286.274 73.2221 286.664 73.2323 287.055C73.1222 286.679 73.0427 286.295 72.9945 285.906C72.8531 285.104 72.6667 284.044 72.4418 282.754C71.9598 280.103 71.2271 276.45 70.2246 272.482C69.222 268.514 68.1423 264.926 67.3133 262.358C66.902 261.119 66.5678 260.091 66.3172 259.321C66.1742 258.947 66.0603 258.563 65.9766 258.172Z" fill="#FAFAFA"/>
<path d="M72.5254 263.906C72.6569 264.189 72.7623 264.484 72.8403 264.786C73.0267 265.364 73.2773 266.198 73.5794 267.238C74.177 269.312 74.9547 272.188 75.7387 275.385C76.5228 278.582 77.1719 281.491 77.596 283.609C77.8145 284.662 77.9816 285.535 78.0845 286.119C78.158 286.425 78.1989 286.737 78.2066 287.05C78.0987 286.755 78.0127 286.453 77.9495 286.145C77.7953 285.503 77.596 284.662 77.3583 283.661C76.8698 281.561 76.1886 278.659 75.4303 275.469C74.6719 272.278 73.9007 269.389 73.3673 267.302C73.1102 266.307 72.9046 265.473 72.7246 264.824C72.6273 264.526 72.5605 264.218 72.5254 263.906Z" fill="#FAFAFA"/>
<path d="M82.8597 257C82.8238 257.385 82.7593 257.767 82.6669 258.143C82.5191 258.875 82.3134 259.94 82.0885 261.25C80.8822 268.109 80.4832 275.086 80.8996 282.038C80.9767 283.373 81.0538 284.446 81.1181 285.19C81.1675 285.575 81.1869 285.964 81.1759 286.352C81.081 285.977 81.0165 285.595 80.9831 285.21C80.8739 284.465 80.7582 283.386 80.6553 282.057C80.3785 278.578 80.3398 275.084 80.5397 271.599C80.7359 268.118 81.1653 264.654 81.825 261.231C82.0885 259.915 82.3263 258.855 82.5126 258.136C82.5945 257.748 82.7106 257.368 82.8597 257Z" fill="#FAFAFA"/>
<path d="M86.4258 274.293C86.3487 274.921 86.2284 275.543 86.0659 276.155C85.4475 279.131 85.1822 282.169 85.2755 285.207C85.3348 285.837 85.3456 286.47 85.3076 287.101C85.1436 286.487 85.0509 285.855 85.0313 285.22C84.9062 283.69 84.9062 282.153 85.0313 280.623C85.1668 279.096 85.4247 277.583 85.8025 276.097C85.9421 275.474 86.1512 274.869 86.4258 274.293Z" fill="#FAFAFA"/>
<path d="M295.088 252.625C295.088 252.625 295.088 252.625 295.088 252.708C295.088 252.792 295.126 252.856 295.159 252.959C295.216 253.177 295.326 253.498 295.435 253.915C295.679 254.744 295.994 255.951 296.303 257.466C297.055 261.419 297.389 265.441 297.299 269.465C297.222 274.177 296.746 278.453 296.405 281.496C296.232 283.017 296.084 284.256 295.981 285.136C295.936 285.553 295.904 285.881 295.872 286.125C295.872 286.227 295.872 286.311 295.872 286.381C295.872 286.452 295.872 286.471 295.872 286.471V286.381C295.872 286.317 295.885 286.234 295.911 286.131C295.949 285.887 295.994 285.56 296.058 285.142C296.18 284.288 296.348 283.049 296.54 281.515C297.074 277.518 297.392 273.496 297.491 269.465C297.585 265.43 297.229 261.397 296.431 257.44C296.11 255.925 295.788 254.718 295.512 253.89C295.384 253.479 295.268 253.164 295.191 252.946C295.159 252.85 295.126 252.766 295.107 252.702L295.088 252.625Z" fill="#0956A3"/>
<path d="M297.137 262.281C297.317 262.467 298.506 261.6 299.579 260.175C300.653 258.75 301.16 257.369 300.929 257.248C300.697 257.126 299.836 258.23 298.808 259.597C297.78 260.965 296.944 262.088 297.137 262.281Z" fill="#0956A3"/>
<path d="M293.514 258.34C293.346 258.545 294.028 259.361 294.979 260.214C295.93 261.068 296.804 261.665 296.997 261.498C297.19 261.332 296.598 260.401 295.621 259.528C294.645 258.654 293.7 258.128 293.514 258.34Z" fill="#0956A3"/>
<path d="M296.648 258.444C296.873 258.566 297.857 257.16 298.493 255.138C299.129 253.115 299.136 251.408 298.891 251.375C298.647 251.343 298.184 252.929 297.574 254.849C296.963 256.768 296.404 258.316 296.648 258.444Z" fill="#0956A3"/>
<path d="M291.77 252.671C291.571 252.85 292.464 254.154 293.762 255.585C295.06 257.017 296.269 258.025 296.468 257.851C296.667 257.678 295.774 256.368 294.476 254.937C293.177 253.505 291.95 252.504 291.77 252.671Z" fill="#0956A3"/>
<path d="M297.357 266.961C297.536 267.153 298.905 266.171 300.261 264.624C301.617 263.077 302.427 261.594 302.189 261.446C301.952 261.298 300.846 262.486 299.522 264.014C298.198 265.542 297.177 266.768 297.357 266.961Z" fill="#0956A3"/>
<path d="M294.342 262.186C294.137 262.347 294.619 263.342 295.435 264.401C296.251 265.46 297.074 266.192 297.286 266.032C297.498 265.871 297.009 264.883 296.2 263.817C295.39 262.751 294.554 262.026 294.342 262.186Z" fill="#0956A3"/>
<path d="M297.362 271.764C297.541 271.951 298.84 270.955 299.99 269.325C301.14 267.694 301.648 266.147 301.41 266.038C301.173 265.929 300.305 267.219 299.2 268.773C298.094 270.326 297.169 271.597 297.362 271.764Z" fill="#0956A3"/>
<path d="M294.465 267.488C294.272 267.667 294.786 268.528 295.551 269.459C296.315 270.389 297.061 271.07 297.279 270.91C297.498 270.749 297.087 269.812 296.296 268.849C295.506 267.886 294.657 267.301 294.465 267.488Z" fill="#0956A3"/>
<path d="M297.022 275.88C297.221 276.053 298.448 274.987 299.766 273.498C301.083 272.009 301.983 270.66 301.784 270.481C301.585 270.301 300.357 271.373 299.04 272.862C297.722 274.352 296.823 275.7 297.022 275.88Z" fill="#0956A3"/>
<path d="M293.41 272.145C293.204 272.319 293.892 273.468 294.875 274.765C295.858 276.061 296.771 277.044 296.996 276.896C297.221 276.748 296.642 275.509 295.646 274.187C294.65 272.864 293.609 271.978 293.41 272.145Z" fill="#0956A3"/>
<path d="M296.558 281.099C296.738 281.291 298.229 280.168 299.881 278.595C301.533 277.022 302.721 275.577 302.535 275.385C302.349 275.192 300.864 276.316 299.213 277.895C297.561 279.474 296.372 280.906 296.558 281.099Z" fill="#0956A3"/>
<path d="M293.396 276.503C293.165 276.619 293.525 277.787 294.418 279.013C295.312 280.24 296.346 280.939 296.507 280.734C296.668 280.528 296.025 279.585 295.222 278.442C294.418 277.299 293.641 276.381 293.396 276.503Z" fill="#0956A3"/>
<path d="M282.445 250.578C282.509 250.686 282.557 250.803 282.587 250.925C282.683 251.194 282.792 251.567 282.934 251.946C283.229 252.825 283.621 254.116 284.084 255.714C285.01 258.924 286.147 263.373 287.124 268.362C288.101 273.35 288.724 277.915 289.052 281.202C289.225 282.858 289.348 284.2 289.405 285.124C289.405 285.561 289.457 285.914 289.47 286.196C289.487 286.32 289.487 286.445 289.47 286.569C289.427 286.451 289.404 286.328 289.399 286.203C289.399 285.92 289.322 285.561 289.27 285.137C289.155 284.168 289.001 282.845 288.808 281.227C288.403 277.927 287.734 273.382 286.764 268.387C285.794 263.392 284.695 258.95 283.827 255.74C283.396 254.173 283.043 252.889 282.786 251.946C282.67 251.528 282.58 251.182 282.503 250.912C282.473 250.803 282.453 250.691 282.445 250.578Z" fill="#263238"/>
<path d="M281.289 269.434C281.433 269.632 281.552 269.848 281.643 270.076C281.848 270.499 282.131 271.116 282.472 271.88C283.146 273.414 284.033 275.558 284.914 277.959C285.794 280.36 286.508 282.562 286.977 284.174C287.214 284.976 287.394 285.631 287.51 286.1C287.586 286.333 287.635 286.575 287.658 286.819C287.537 286.607 287.444 286.381 287.382 286.145C287.208 285.625 286.996 285.002 286.739 284.264C286.205 282.678 285.454 280.489 284.58 278.094C283.705 275.7 282.857 273.549 282.24 271.995L281.488 270.127C281.391 269.906 281.324 269.673 281.289 269.434Z" fill="#263238"/>
<path d="M285.703 286.84C284.898 285.273 284.001 283.756 283.017 282.295C281.935 280.907 280.77 279.586 279.527 278.34C279.985 278.595 280.405 278.912 280.774 279.284C282.654 280.978 284.158 283.047 285.189 285.357C285.43 285.825 285.603 286.324 285.703 286.84Z" fill="#263238"/>
<path d="M324.342 286.606C324.265 286.507 324.202 286.396 324.156 286.279C324.034 286.016 323.879 285.695 323.687 285.297C323.494 284.899 323.243 284.347 322.992 283.724C322.742 283.101 322.427 282.408 322.138 281.612C321.527 280.039 320.885 278.132 320.261 275.988C319.638 273.843 319.091 271.442 318.635 268.926C318.179 266.409 317.928 263.944 317.761 261.716C317.594 259.488 317.568 257.472 317.613 255.784C317.613 254.943 317.665 254.179 317.697 253.511C317.729 252.844 317.768 252.266 317.819 251.797C317.87 251.329 317.896 251.001 317.922 250.712C317.929 250.586 317.95 250.461 317.986 250.34C318.002 250.466 318.002 250.593 317.986 250.719C317.986 251.008 317.986 251.361 317.948 251.804C317.909 252.247 317.89 252.85 317.883 253.518C317.877 254.185 317.838 254.949 317.851 255.79C317.851 257.472 317.915 259.475 318.076 261.69C318.237 263.905 318.539 266.338 318.976 268.868C319.413 271.397 319.985 273.773 320.563 275.93C321.142 278.087 321.784 279.981 322.363 281.56C322.633 282.356 322.928 283.056 323.166 283.685C323.404 284.314 323.622 284.841 323.809 285.277L324.22 286.279C324.274 286.383 324.315 286.493 324.342 286.606Z" fill="#0956A3"/>
<path d="M320.389 275.866C321.218 270.845 322.882 259.444 327.895 252.664C325.339 254.246 323.265 256.498 321.899 259.174C320.55 261.841 319.474 264.637 318.686 267.52C318.686 267.52 320.35 276.103 320.389 275.866Z" fill="#0956A3"/>
<path d="M321.192 278.424C320.911 276.339 321.336 274.22 322.399 272.404C323.462 270.588 325.103 269.18 327.059 268.402C325.247 270.63 323.345 273.076 323.203 275.946C323.092 278.411 322.981 280.876 322.869 283.342C322.278 281.749 321.77 280.023 321.179 278.424" fill="#0956A3"/>
<path d="M319.992 274.122C318.773 272.423 317.426 270.819 315.962 269.326C314.657 267.829 313.014 266.665 311.168 265.93C315.242 269.953 318.706 274.549 321.451 279.572" fill="#0956A3"/>
<path d="M317.67 258.284C316.816 255.144 314.919 252.387 312.291 250.465C312.509 251.046 312.778 251.607 313.094 252.14C314.752 255.145 316.179 258.156 317.837 261.161" fill="#0956A3"/>
<path d="M317.883 252.132C318.402 249.737 319.382 247.465 320.769 245.443C322.17 243.401 324.201 241.872 326.553 241.09C322.409 244.839 319.366 249.644 317.748 254.989" fill="#0956A3"/>
<path d="M318.262 251.305C318.217 248.699 317.343 245.97 315.338 244.301C314.957 243.947 314.473 243.722 313.956 243.659C313.696 243.631 313.434 243.691 313.213 243.831C312.993 243.971 312.826 244.182 312.741 244.43C312.712 244.63 312.733 244.834 312.801 245.024C312.869 245.215 312.984 245.385 313.134 245.521C313.436 245.79 313.77 246.021 314.13 246.208C315.16 246.86 316.027 247.74 316.663 248.779C317.3 249.819 317.688 250.991 317.799 252.204" fill="#0956A3"/>
<path d="M118.284 260.035C118.943 260.211 119.56 260.519 120.096 260.939C120.633 261.359 121.079 261.884 121.407 262.481C122.061 263.678 122.431 265.009 122.487 266.372C122.674 268.997 121.69 271.861 120.501 274.204C117.982 272.715 116.877 269.517 116.414 267.855C115.688 265.235 115.964 260.054 118.284 260.035Z" fill="#0956A3"/>
<path d="M123.804 277.98C123.522 277.271 123.433 276.5 123.546 275.746C123.658 274.991 123.969 274.28 124.446 273.685C124.929 273.097 125.525 272.612 126.198 272.257C126.871 271.902 127.608 271.685 128.367 271.618C128.712 271.548 129.068 271.555 129.41 271.638C129.752 271.722 130.071 271.879 130.346 272.099C130.567 272.344 130.718 272.643 130.783 272.966C130.849 273.289 130.827 273.624 130.719 273.935C130.494 274.556 130.108 275.105 129.601 275.527C127.942 277.049 126.059 278.224 123.817 277.98" fill="#0956A3"/>
<path d="M122.487 286.365C122.471 286.186 122.471 286.006 122.487 285.826C122.487 285.441 122.487 284.947 122.487 284.35C122.441 282.716 122.658 281.086 123.13 279.522C123.631 277.953 124.537 276.545 125.758 275.439C126.135 275.116 126.547 274.836 126.986 274.604C127.14 274.521 127.268 274.476 127.352 274.437C127.435 274.399 127.48 274.386 127.487 274.392C126.901 274.716 126.352 275.101 125.848 275.541C124.673 276.653 123.8 278.045 123.31 279.586C122.851 281.134 122.624 282.742 122.635 284.356C122.635 284.998 122.635 285.48 122.577 285.826C122.565 286.008 122.535 286.189 122.487 286.365Z" fill="#263238"/>
<path d="M118.425 263.996C118.453 264.071 118.475 264.149 118.489 264.227C118.534 264.394 118.586 264.612 118.657 264.869C118.792 265.434 118.978 266.262 119.203 267.283C119.653 269.331 120.231 272.169 120.803 275.308C121.375 278.448 121.818 281.317 122.121 283.385C122.268 284.425 122.378 285.266 122.448 285.843L122.525 286.517C122.534 286.594 122.534 286.672 122.525 286.749C122.499 286.674 122.482 286.596 122.474 286.517C122.474 286.351 122.403 286.126 122.358 285.875C122.262 285.272 122.127 284.444 121.966 283.429C121.632 281.362 121.163 278.505 120.597 275.366C120.032 272.227 119.466 269.382 119.055 267.335L118.56 264.901C118.509 264.632 118.47 264.407 118.438 264.259C118.419 264.173 118.415 264.084 118.425 263.996Z" fill="#263238"/>
<path d="M120.346 280.231C119.795 278.723 118.894 277.367 117.714 276.277C116.535 275.186 115.113 274.391 113.566 273.959C112.781 273.747 111.792 273.696 111.297 274.344C110.802 274.993 111.111 275.936 111.541 276.63C112.465 278.063 113.793 279.19 115.358 279.87C116.922 280.55 118.654 280.752 120.333 280.45" fill="#0956A3"/>
<path d="M114.394 276.336C114.563 276.356 114.729 276.395 114.889 276.451C115.084 276.496 115.275 276.556 115.461 276.631C115.679 276.715 115.937 276.792 116.2 276.92C116.495 277.048 116.782 277.192 117.061 277.35C117.383 277.527 117.697 277.72 117.999 277.928C118.702 278.416 119.349 278.98 119.927 279.61C120.48 280.25 120.958 280.95 121.354 281.697C121.523 282.026 121.674 282.365 121.804 282.711C121.926 283.007 122.027 283.312 122.106 283.623C122.182 283.876 122.242 284.133 122.286 284.393C122.332 284.587 122.364 284.785 122.382 284.984C122.398 285.152 122.398 285.322 122.382 285.491C122.344 285.491 122.286 284.772 121.945 283.661C121.856 283.358 121.749 283.06 121.624 282.769C121.492 282.43 121.34 282.1 121.168 281.78C120.773 281.048 120.296 280.364 119.748 279.739C119.194 279.118 118.573 278.56 117.897 278.076C117.582 277.857 117.254 277.652 116.984 277.485C116.711 277.323 116.43 277.175 116.142 277.042C115.037 276.548 114.356 276.374 114.394 276.336Z" fill="#263238"/>
<path d="M221.342 235.08C221.654 233.971 221.852 232.833 221.933 231.684C221.902 230.53 221.749 229.383 221.477 228.262C222.019 229.321 222.291 230.498 222.267 231.688C222.244 232.877 221.926 234.043 221.342 235.08Z" fill="#455A64"/>
<path d="M223.34 233.74C223.415 232.774 223.43 231.805 223.385 230.838C223.229 229.886 223.015 228.945 222.742 228.02C223.339 228.832 223.685 229.8 223.738 230.806C223.897 231.802 223.758 232.822 223.34 233.74Z" fill="#455A64"/>
<path d="M188.777 248.115C189.182 248.34 197.132 254.317 199.208 259.202C200.802 262.932 202.383 273.474 202.383 273.474L200.731 283.836C200.731 283.836 196.534 284.318 196.232 286.905L203.147 286.77C203.147 286.77 206.406 274.424 207.993 273.359C207.993 273.359 205.782 258.804 207.273 253.546C207.959 250.913 208.848 248.338 209.934 245.842L191.297 244.918L188.777 248.115Z" fill="#455A64"/>
<path d="M147.21 248.78C147.615 249.011 148.103 255.2 148.675 259.2C149.247 263.199 149.96 273.118 149.96 273.118L148.907 282.601C148.907 282.601 144.549 284.353 144.279 286.812L152.634 286.703C152.634 286.703 153.868 278.742 155.455 277.676C155.455 277.676 155.295 258.802 156.779 253.544C157.468 250.911 158.36 248.335 159.446 245.84L145.115 244.254L147.21 248.78Z" fill="#455A64"/>
<path d="M150.025 250.622C150.456 250.808 153.277 255.45 154.286 259.379C155.295 263.308 157.094 273.047 157.094 273.047V282.613C157.094 282.613 153.046 284.295 153.046 286.766H161.085C161.085 286.766 161.593 278.234 163.052 277.001C163.052 277.001 160.803 258.255 161.702 252.869C162.097 250.181 162.698 247.528 163.502 244.934H149.1L150.025 250.622Z" fill="#455A64"/>
<path d="M122.299 210.948C123.69 210.292 125.129 209.744 126.605 209.311C128.057 208.99 131.155 207.854 131.662 207.224C132.062 206.652 132.4 206.038 132.671 205.395C132.671 205.395 135.641 203.559 137.479 203.244C139.915 202.96 142.375 202.96 144.811 203.244C146.013 203.494 147.086 205.33 147.086 205.33C147.086 205.33 150.563 208.739 151.45 211.327C152.337 213.914 155.75 220.109 155.75 220.109L143.738 232.307C143.738 232.307 141.206 227.12 141.168 225.412C141.129 223.705 139.053 219.288 139.053 219.288V218.344L133.456 217.573C132.823 217.892 132.136 218.088 131.431 218.151C130.737 218.087 129.535 217.079 129.535 217.079C129.535 217.079 128.398 217.939 127.447 217.573C126.495 217.207 124.137 216.386 123.314 214.492C122.492 212.598 121.791 211.179 122.299 210.948Z" fill="#455A64"/>
<path d="M123.065 213.899C123.184 213.871 123.296 213.818 123.394 213.744C123.492 213.67 123.573 213.577 123.634 213.471C123.694 213.364 123.732 213.246 123.744 213.125C123.757 213.003 123.745 212.88 123.708 212.763C123.676 212.673 123.624 212.57 123.676 212.487C123.72 212.433 123.781 212.394 123.849 212.378C124.064 212.293 124.249 212.146 124.38 211.957C124.512 211.767 124.584 211.543 124.588 211.312C124.58 211.081 124.492 210.86 124.34 210.686C124.188 210.512 123.981 210.395 123.753 210.356C123.394 210.353 123.041 210.453 122.737 210.644C122.403 210.811 122.037 211.036 121.979 211.402C121.966 211.603 122.006 211.805 122.095 211.986C122.367 212.651 122.69 213.295 123.059 213.912" fill="#263238"/>
<path d="M135.52 208.535C135.488 208.574 135.327 208.471 135.077 208.311C134.785 208.092 134.442 207.952 134.081 207.906C133.907 207.905 133.735 207.941 133.576 208.012C133.418 208.083 133.276 208.187 133.162 208.317C132.956 208.516 132.827 208.657 132.789 208.632C132.75 208.606 132.789 208.426 132.982 208.163C133.09 208.002 133.23 207.864 133.393 207.758C133.603 207.623 133.85 207.558 134.1 207.572C134.529 207.616 134.928 207.812 135.225 208.124C135.449 208.343 135.552 208.503 135.52 208.535Z" fill="#263238"/>
<path d="M143.72 232.209C143.92 232.91 143.92 233.653 143.72 234.354C143.354 235.188 143.354 239.361 143.72 241.03C144.086 242.7 145.648 247.714 147.949 249.486C150.25 251.258 158.186 253.338 159.96 253.768C161.734 254.198 184.382 249.068 188.064 248.856C191.747 248.645 196.946 249.498 199.664 253.241C202.383 256.984 204.889 262.871 209.169 263.995C213.449 265.118 220.872 271.506 221.708 273.805C222.543 276.103 222.961 283.319 222.961 283.319C222.961 283.319 219.747 284.526 220.12 286.831L227.357 286.786L226.219 268.9C226.219 268.9 218.276 263.263 216.502 259.27C214.728 255.276 212.845 249.775 212.845 249.775C212.845 249.775 212.633 236.935 210.236 235.163C207.839 233.391 202.903 229.134 190.872 229.969C178.842 230.803 171.592 228.3 171.143 228.107C170.693 227.914 164.767 225.815 161.631 224.897C158.495 223.979 155.712 220.082 155.712 220.082L143.72 232.209Z" fill="#455A64"/>
<path d="M208.502 234.977C210.916 235.243 213.343 234.601 215.309 233.177C217.275 231.752 218.64 229.648 219.138 227.273C220.751 228.429 220.835 229.841 219.697 232.095C218.958 233.624 217.796 234.909 216.349 235.799C214.195 236.972 211.931 237.929 209.588 238.656" fill="#455A64"/>
<path d="M142.59 230.595L155.964 220.047L157.198 221.787L143.785 232.521L142.59 230.595Z" fill="#263238"/>
<path d="M133.451 208C133.448 208.222 133.497 208.442 133.593 208.642C133.63 208.726 133.687 208.799 133.76 208.854C133.834 208.909 133.92 208.945 134.011 208.957C134.088 208.955 134.163 208.932 134.227 208.888C134.291 208.845 134.341 208.784 134.371 208.713C134.486 208.456 134.64 208.007 134.371 207.84C134.217 207.751 134.036 207.721 133.862 207.757C133.687 207.792 133.532 207.89 133.426 208.032" fill="#263238"/>
<path d="M134.794 215.909C134.794 216.012 133.573 216.012 132.127 216.307C130.681 216.603 129.557 217.058 129.512 216.949C130.278 216.421 131.159 216.082 132.082 215.961C132.97 215.735 133.899 215.717 134.794 215.909Z" fill="#263238"/>
<path d="M163.715 247.203C163.656 247.602 163.537 247.989 163.361 248.352C163.104 249.052 162.718 249.996 162.371 251.055C162.058 251.957 161.828 252.885 161.684 253.829C161.659 254.228 161.604 254.625 161.517 255.016C161.413 254.623 161.389 254.212 161.446 253.809C161.528 252.836 161.731 251.876 162.05 250.952C162.368 250.038 162.733 249.14 163.143 248.262C163.286 247.886 163.478 247.53 163.715 247.203Z" fill="#263238"/>
<path d="M143.444 238.863C143.444 238.863 143.515 239.3 143.675 240.09C143.909 241.202 144.213 242.297 144.588 243.37C145.102 244.966 145.819 246.489 146.722 247.903C147.315 248.694 147.975 249.433 148.695 250.111C149.489 250.846 150.223 251.643 150.893 252.493C152.072 254.216 153.009 256.093 153.675 258.072C154.227 259.676 154.682 261.312 155.038 262.97C155.346 264.383 155.552 265.538 155.68 266.328C155.738 266.694 155.79 266.97 155.828 267.246C155.847 267.352 155.847 267.461 155.828 267.567C155.788 267.468 155.758 267.364 155.738 267.259L155.526 266.354C155.353 265.564 155.108 264.428 154.774 263.022C154.389 261.382 153.915 259.764 153.354 258.175C152.679 256.233 151.75 254.39 150.591 252.692C149.305 250.959 147.531 249.694 146.439 248.082C145.53 246.637 144.821 245.076 144.331 243.441C143.974 242.355 143.701 241.243 143.515 240.115C143.462 239.807 143.427 239.496 143.412 239.184C143.406 239.076 143.416 238.968 143.444 238.863Z" fill="#263238"/>
<path d="M215.326 267.38C215.326 267.38 214.908 267.111 214.162 266.623C213.104 265.939 212.001 265.327 210.859 264.793C209.128 264.054 207.474 263.144 205.923 262.077C205.041 261.381 204.275 260.549 203.655 259.612C203.017 258.603 202.436 257.559 201.913 256.486C200.814 254.328 199.818 252.152 198.057 250.977C196.524 249.931 194.76 249.27 192.916 249.051C191.669 248.888 190.414 248.803 189.156 248.794H188.122C188.002 248.809 187.881 248.809 187.762 248.794C187.879 248.766 188 248.753 188.122 248.756L189.156 248.717C190.422 248.676 191.689 248.725 192.948 248.865C194.845 249.061 196.664 249.723 198.244 250.791C199.169 251.441 199.945 252.282 200.519 253.256C201.161 254.239 201.669 255.311 202.222 256.396C202.735 257.459 203.306 258.494 203.931 259.497C204.531 260.407 205.271 261.217 206.123 261.898C207.648 262.967 209.273 263.887 210.975 264.645C212.112 265.2 213.204 265.844 214.24 266.571C214.612 266.822 214.882 267.053 215.062 267.213C215.155 267.261 215.243 267.317 215.326 267.38Z" fill="#263238"/>
<path d="M135.315 215.441C135.315 215.441 135.443 215.441 135.533 215.563C135.588 215.649 135.622 215.747 135.634 215.848C135.647 215.949 135.636 216.051 135.604 216.148C135.572 216.246 135.517 216.336 135.443 216.408C135.369 216.481 135.279 216.535 135.18 216.565C135.032 216.603 134.942 216.565 134.936 216.526C134.929 216.488 135.193 216.315 135.289 216.038C135.386 215.762 135.251 215.499 135.315 215.441Z" fill="#263238"/>
<path d="M145.784 233.953C145.901 233.937 146.013 233.894 146.11 233.827C146.207 233.76 146.287 233.671 146.343 233.567C146.389 233.464 146.407 233.35 146.394 233.237C146.382 233.124 146.34 233.017 146.272 232.925C146.167 232.815 146.032 232.739 145.883 232.706C145.734 232.673 145.579 232.684 145.437 232.739C145.241 232.807 145.074 232.938 144.961 233.112H142.879C142.739 232.958 142.555 232.851 142.352 232.804C142.209 232.75 142.053 232.741 141.904 232.776C141.755 232.812 141.62 232.89 141.517 233.003C141.453 233.096 141.416 233.205 141.408 233.317C141.4 233.43 141.422 233.543 141.472 233.645C141.551 233.636 141.632 233.644 141.708 233.669C141.785 233.694 141.855 233.734 141.915 233.788C141.974 233.841 142.022 233.907 142.055 233.98C142.087 234.053 142.104 234.133 142.104 234.213C142.104 234.293 142.087 234.372 142.055 234.445C142.022 234.518 141.974 234.584 141.915 234.638C141.855 234.691 141.785 234.732 141.708 234.756C141.632 234.781 141.551 234.789 141.472 234.781C141.486 234.944 141.556 235.098 141.671 235.215C141.786 235.333 141.937 235.407 142.1 235.426C142.263 235.445 142.428 235.407 142.566 235.319C142.705 235.231 142.808 235.097 142.86 234.941H144.949C145.016 235.085 145.128 235.202 145.269 235.275C145.41 235.347 145.571 235.372 145.727 235.344C145.883 235.316 146.025 235.238 146.132 235.121C146.239 235.004 146.304 234.855 146.317 234.697C146.324 234.532 146.275 234.368 146.179 234.233C146.082 234.099 145.943 234 145.784 233.953Z" fill="#0956A3"/>
<path d="M144.201 233.147C144.15 233.147 144.118 233.07 144.079 232.986C144.063 232.958 144.038 232.935 144.009 232.922C143.971 232.901 143.929 232.888 143.887 232.883C143.7 232.883 143.623 233.069 143.552 233.102C143.482 233.134 143.43 233.044 143.456 232.883C143.476 232.781 143.534 232.689 143.619 232.628C143.703 232.566 143.808 232.538 143.912 232.549C144.026 232.56 144.133 232.61 144.214 232.691C144.249 232.724 144.276 232.766 144.293 232.811C144.309 232.857 144.316 232.906 144.311 232.954C144.298 233.089 144.246 233.14 144.201 233.147Z" fill="#263238"/>
<path d="M148.374 211.739C147.934 211.703 147.493 211.784 147.094 211.973C146.696 212.163 146.355 212.454 146.105 212.818C145.903 213.145 145.805 213.527 145.826 213.911C145.847 214.296 145.984 214.665 146.221 214.969C145.989 215.026 145.774 215.138 145.593 215.294C145.412 215.45 145.271 215.647 145.18 215.867C145.003 216.319 145.003 216.822 145.18 217.273C145.255 217.499 145.381 217.705 145.548 217.874C145.715 218.043 145.919 218.172 146.144 218.249C146.383 218.288 146.628 218.272 146.861 218.203C147.093 218.134 147.307 218.014 147.487 217.851C148.169 217.357 148.67 216.653 148.914 215.847C149.158 215.042 149.131 214.178 148.837 213.389C148.618 212.747 148.316 211.772 148.297 211.727" fill="white"/>
<path d="M145.242 206.043C145.242 206.043 145.358 206.108 145.545 206.274C145.818 206.519 146.072 206.785 146.303 207.071C147.118 208.148 147.742 209.358 148.147 210.646C148.424 211.455 148.694 212.335 148.97 213.304C149.333 214.346 149.317 215.483 148.925 216.514C148.64 217.037 148.25 217.496 147.781 217.863C147.333 218.235 146.962 218.691 146.688 219.204C146.393 219.724 146.161 220.302 145.827 220.861C145.501 221.458 144.986 221.929 144.362 222.202C144.032 222.342 143.669 222.386 143.314 222.331C142.967 222.259 142.651 222.082 142.408 221.824C141.997 221.324 141.699 220.741 141.534 220.116C141.175 218.992 140.896 217.844 140.699 216.681C140.473 215.626 140.434 214.54 140.583 213.471C140.669 212.983 140.834 212.513 141.072 212.078C141.306 211.694 141.566 211.325 141.849 210.974C142.333 210.402 142.614 209.687 142.646 208.939C142.662 208.371 142.584 207.805 142.415 207.263C142.138 206.364 141.901 205.896 141.933 205.883C142.008 205.986 142.07 206.098 142.119 206.217C142.282 206.543 142.424 206.88 142.543 207.225C142.737 207.777 142.835 208.359 142.832 208.945C142.826 209.317 142.761 209.685 142.64 210.037C142.495 210.424 142.294 210.787 142.042 211.115C141.77 211.459 141.523 211.821 141.303 212.2C141.083 212.611 140.933 213.056 140.859 213.516C140.729 214.555 140.777 215.608 141.001 216.63C141.205 217.775 141.487 218.906 141.843 220.013C141.995 220.592 142.272 221.131 142.653 221.593C142.85 221.804 143.108 221.948 143.392 222.006C143.675 222.064 143.969 222.031 144.233 221.914C144.783 221.663 145.234 221.239 145.519 220.707C145.834 220.187 146.071 219.615 146.374 219.07C146.671 218.528 147.068 218.047 147.543 217.651C147.984 217.315 148.349 216.89 148.616 216.405C148.988 215.439 149.009 214.374 148.674 213.394C148.417 212.438 148.154 211.545 147.897 210.743C147.519 209.467 146.935 208.261 146.168 207.173C145.88 206.78 145.571 206.403 145.242 206.043Z" fill="#263238"/>
<path d="M130.637 207.887C129.466 208.415 128.262 208.863 127.031 209.228C127.251 209.642 127.608 209.966 128.04 210.145C128.473 210.324 128.955 210.347 129.403 210.211C129.843 210.022 130.205 209.688 130.429 209.266C130.654 208.843 130.727 208.357 130.637 207.887Z" fill="white"/>
<path d="M161.836 264.409C161.075 264.012 160.429 263.425 159.962 262.705C159.494 261.985 159.221 261.157 159.169 260.3C159.15 259.405 159.352 258.518 159.758 257.72C160.164 256.921 160.761 256.235 161.496 255.723L161.836 264.409Z" fill="#EBEBEB"/>
<path d="M182.467 230.034C182.809 230.86 183.312 231.61 183.947 232.24C184.581 232.87 185.334 233.369 186.162 233.707C186.984 233.989 187.855 234.1 188.721 234.034C189.588 233.968 190.431 233.725 191.201 233.321C191.93 232.81 192.734 232.416 193.585 232.153C194.607 231.967 195.699 232.403 196.676 232.063C197.106 231.962 197.484 231.705 197.735 231.342C197.987 230.98 198.095 230.536 198.039 230.099C195.444 229.818 192.829 229.797 190.23 230.034C188.257 230.368 182.467 230.034 182.467 230.034Z" fill="white"/>
<path d="M167.581 178.03L163.77 174.685L163.924 168.227L168.904 170.249C168.904 170.249 170.074 175.5 169.958 175.539C169.843 175.577 167.581 178.03 167.581 178.03Z" fill="#723C31"/>
<path d="M200.511 142.456C199.266 143.092 198.179 143.999 197.332 145.11C196.484 146.221 195.897 147.508 195.614 148.876C194.875 153.101 192.529 171.513 192.529 171.513L172.684 173.728L171.398 179.416C171.398 179.416 187.42 184.109 192.516 183.769C197.613 183.429 196.854 183.91 198.615 182.434C199.753 181.426 200.634 180.163 201.186 178.748L202.844 141.012L200.511 142.456Z" fill="#FFBE9D"/>
<path d="M172.652 173.735L168.861 168.163L162.556 167.238C162.556 167.238 162.196 167.88 163.366 168.773C164.35 169.393 165.439 169.828 166.579 170.057L167.563 172.195L168.077 174.942C167.566 175.803 167.263 176.77 167.19 177.767C167.228 179.019 171.361 179.417 171.361 179.417L172.652 173.735Z" fill="#FFBE9D"/>
<path d="M162.505 165.937C162.428 166.123 163.893 171.407 163.687 173.891C163.482 176.376 162.794 177.159 162.794 177.159H167.229V165.488C167.229 165.488 163.199 164.306 162.505 165.937Z" fill="#263238"/>
<path d="M165.686 177.156H164.863V285.109H165.686V177.156Z" fill="#263238"/>
<path d="M202.44 140.094C202.44 140.094 195.814 143.946 195.037 146.514C194.259 149.082 192.363 162.429 192.363 162.429L201.714 165.523C201.714 165.523 202.665 139.728 202.44 140.094Z" fill="#0956A3"/>
<path d="M162.504 168.246C162.504 168.246 161.63 168.323 161.508 168.773C161.443 169.187 161.443 169.61 161.508 170.024L162.794 171.032C162.551 171.041 162.321 171.142 162.151 171.315C162.012 171.762 162.012 172.241 162.151 172.689C162.254 172.844 162.382 172.98 162.53 173.093C162.33 173.289 162.197 173.543 162.151 173.819C162.151 174.178 162.151 174.506 162.151 174.506H162.794C162.794 174.506 162.151 174.705 162.151 174.987C162.131 175.228 162.131 175.471 162.151 175.713C162.151 175.835 163.147 176.117 163.147 176.117L166.669 175.713C166.669 175.713 167.273 175.109 166.907 174.743C166.907 174.743 168.051 174.583 167.98 174.204C167.909 173.825 167.749 172.965 167.749 172.965H166.463C166.833 172.82 167.185 172.633 167.511 172.406C167.697 172.175 167.164 171.231 167.164 171.231L165.878 171.27C165.878 171.27 166.399 170.024 165.878 169.864C165.358 169.703 162.504 168.246 162.504 168.246Z" fill="#FFBE9D"/>
<path d="M194.927 176.459C194.751 174.551 193.891 172.77 192.504 171.445C193.356 171.951 194.039 172.697 194.47 173.588C194.901 174.48 195.06 175.478 194.927 176.459Z" fill="#723C31"/>
<path d="M165.974 170.622C166.013 170.622 166.071 170.859 165.974 171.264C165.948 171.396 165.895 171.521 165.817 171.632C165.74 171.743 165.64 171.836 165.524 171.906C165.376 171.969 165.217 172.002 165.055 172.002C164.894 172.002 164.734 171.969 164.586 171.906C163.894 171.685 163.243 171.354 162.658 170.923C163.365 171.038 164.051 171.254 164.695 171.565C164.911 171.666 165.157 171.68 165.383 171.604C165.553 171.512 165.684 171.362 165.749 171.18C165.884 170.866 165.923 170.609 165.974 170.622Z" fill="#723C31"/>
<path d="M166.733 172.896C166.109 173.281 165.385 173.477 164.651 173.461C163.922 173.553 163.182 173.435 162.518 173.12C162.518 173.024 163.475 173.191 164.632 173.12C165.789 173.05 166.701 172.78 166.733 172.896Z" fill="#723C31"/>
<path d="M167.048 174.623C166.304 174.839 165.524 174.909 164.754 174.828C163.978 174.856 163.205 174.73 162.479 174.456C163.241 174.4 164.006 174.413 164.766 174.494C165.529 174.464 166.293 174.507 167.048 174.623Z" fill="#723C31"/>
<path d="M172.234 177.767C172.084 176.728 172.257 175.668 172.729 174.73C172.763 175.247 172.71 175.765 172.575 176.265C172.546 176.781 172.431 177.289 172.234 177.767Z" fill="#723C31"/>
<path d="M167.581 178.03L163.77 174.685L163.924 168.227L168.904 170.249C168.904 170.249 170.074 175.5 169.958 175.539C169.843 175.577 167.581 178.03 167.581 178.03Z" fill="#723C31"/>
<path d="M200.511 142.456C199.266 143.092 198.179 143.999 197.332 145.11C196.484 146.221 195.897 147.508 195.614 148.876C194.875 153.101 192.529 171.513 192.529 171.513L172.684 173.728L171.398 179.416C171.398 179.416 187.42 184.109 192.516 183.769C197.613 183.429 196.854 183.91 198.615 182.434C199.753 181.426 200.634 180.163 201.186 178.748L202.844 141.012L200.511 142.456Z" fill="#FFBE9D"/>
<path d="M172.652 173.735L168.861 168.163L162.556 167.238C162.556 167.238 162.196 167.88 163.366 168.773C164.35 169.393 165.439 169.828 166.579 170.057L167.563 172.195L168.077 174.942C167.566 175.803 167.263 176.77 167.19 177.767C167.228 179.019 171.361 179.417 171.361 179.417L172.652 173.735Z" fill="#FFBE9D"/>
<path d="M162.505 165.937C162.428 166.123 163.893 171.407 163.687 173.891C163.482 176.376 162.794 177.159 162.794 177.159H167.229V165.488C167.229 165.488 163.199 164.306 162.505 165.937Z" fill="#263238"/>
<path d="M165.686 177.156H164.863V285.109H165.686V177.156Z" fill="#263238"/>
<path d="M202.44 140.094C202.44 140.094 195.814 143.946 195.037 146.514C194.259 149.082 192.363 162.429 192.363 162.429L201.714 165.523C201.714 165.523 202.665 139.728 202.44 140.094Z" fill="#0956A3"/>
<path d="M162.504 168.246C162.504 168.246 161.63 168.323 161.508 168.773C161.443 169.187 161.443 169.61 161.508 170.024L162.794 171.032C162.551 171.041 162.321 171.142 162.151 171.315C162.012 171.762 162.012 172.241 162.151 172.689C162.254 172.844 162.382 172.98 162.53 173.093C162.33 173.289 162.197 173.543 162.151 173.819C162.151 174.178 162.151 174.506 162.151 174.506H162.794C162.794 174.506 162.151 174.705 162.151 174.987C162.131 175.228 162.131 175.471 162.151 175.713C162.151 175.835 163.147 176.117 163.147 176.117L166.669 175.713C166.669 175.713 167.273 175.109 166.907 174.743C166.907 174.743 168.051 174.583 167.98 174.204C167.909 173.825 167.749 172.965 167.749 172.965H166.463C166.833 172.82 167.185 172.633 167.511 172.406C167.697 172.175 167.164 171.231 167.164 171.231L165.878 171.27C165.878 171.27 166.399 170.024 165.878 169.864C165.358 169.703 162.504 168.246 162.504 168.246Z" fill="#FFBE9D"/>
<path d="M194.927 176.459C194.751 174.551 193.891 172.77 192.504 171.445C193.356 171.951 194.039 172.697 194.47 173.588C194.901 174.48 195.06 175.478 194.927 176.459Z" fill="#723C31"/>
<path d="M165.974 170.622C166.013 170.622 166.071 170.859 165.974 171.264C165.948 171.396 165.895 171.521 165.817 171.632C165.74 171.743 165.64 171.836 165.524 171.906C165.376 171.969 165.217 172.002 165.055 172.002C164.894 172.002 164.734 171.969 164.586 171.906C163.894 171.685 163.243 171.354 162.658 170.923C163.365 171.038 164.051 171.254 164.695 171.565C164.911 171.666 165.157 171.68 165.383 171.604C165.553 171.512 165.684 171.362 165.749 171.18C165.884 170.866 165.923 170.609 165.974 170.622Z" fill="#723C31"/>
<path d="M166.733 172.896C166.109 173.281 165.385 173.477 164.651 173.461C163.922 173.553 163.182 173.435 162.518 173.12C162.518 173.024 163.475 173.191 164.632 173.12C165.789 173.05 166.701 172.78 166.733 172.896Z" fill="#723C31"/>
<path d="M167.048 174.623C166.304 174.839 165.524 174.909 164.754 174.828C163.978 174.856 163.205 174.73 162.479 174.456C163.241 174.4 164.006 174.413 164.766 174.494C165.529 174.464 166.293 174.507 167.048 174.623Z" fill="#723C31"/>
<path d="M172.234 177.767C172.084 176.728 172.257 175.668 172.729 174.73C172.763 175.247 172.71 175.765 172.575 176.265C172.546 176.781 172.431 177.289 172.234 177.767Z" fill="#723C31"/>
<path d="M231.462 190.262C231.462 190.262 237.291 193.196 241.5 192.086C245.71 190.975 247.066 188.125 247.066 188.125C248.361 179.783 247.953 171.266 245.864 163.087L243.82 155.068C243.82 155.068 236.687 141.708 231.462 138.376C226.237 135.044 220.948 136.026 221.391 136.578C221.835 137.131 227.355 184.337 227.355 184.337L231.462 190.262Z" fill="#455A64"/>
<path d="M232.518 176.407C232.518 176.407 232.762 176.407 233.257 176.375L235.422 176.343L243.269 176.266H243.404V176.4C243.475 178.095 243.552 179.938 243.636 181.902C243.674 182.885 243.719 183.893 243.758 184.926C243.856 185.997 243.812 187.076 243.629 188.136C243.48 188.939 243.018 189.651 242.344 190.114C241.659 190.491 240.872 190.644 240.095 190.55C239.372 190.489 238.654 190.391 237.942 190.255C237.241 190.138 236.57 189.89 235.962 189.523C235.396 189.139 234.951 188.602 234.677 187.976C234.432 187.399 234.239 186.802 234.099 186.191C233.809 185.023 233.61 183.931 233.456 182.93C233.115 180.92 232.897 179.289 232.749 178.166C232.678 177.627 232.62 177.197 232.582 176.882C232.561 176.733 232.548 176.583 232.543 176.433C232.543 176.433 232.588 176.606 232.646 176.882L232.877 178.166C233.07 179.283 233.321 180.907 233.687 182.904C233.874 183.899 234.086 184.99 234.381 186.114C234.519 186.707 234.712 187.285 234.96 187.841C235.213 188.417 235.629 188.908 236.155 189.253C236.73 189.6 237.368 189.832 238.032 189.934C238.728 190.068 239.432 190.163 240.14 190.216C240.849 190.303 241.568 190.166 242.196 189.825C242.494 189.619 242.748 189.357 242.943 189.053C243.138 188.749 243.271 188.409 243.334 188.053C243.511 187.025 243.555 185.978 243.462 184.939C243.424 183.903 243.385 182.895 243.347 181.915C243.276 179.951 243.212 178.102 243.154 176.413L243.295 176.548L235.545 176.477L233.347 176.439H232.762C232.679 176.44 232.597 176.429 232.518 176.407Z" fill="#263238"/>
<path d="M234.167 140.75C234.219 140.859 232.297 141.097 230.016 141.559C229.04 141.74 228.08 141.995 227.143 142.323C226.762 142.476 226.391 142.652 226.031 142.849C225.986 142.849 226.327 142.425 227.047 142.104C227.979 141.705 228.953 141.412 229.952 141.231C230.937 141.03 231.932 140.882 232.934 140.788C233.341 140.716 233.756 140.703 234.167 140.75Z" fill="#263238"/>
<path d="M238.467 169.19C238.41 168.81 238.384 168.425 238.39 168.041C238.39 167.668 238.352 167.219 238.307 166.692C238.262 166.166 238.217 165.575 238.12 164.92C237.972 163.604 237.677 162.057 237.304 160.349C236.931 158.642 236.391 156.799 235.774 154.873C234.692 151.597 233.43 148.382 231.996 145.243C231.449 144.036 230.993 143.067 230.672 142.399C230.485 142.061 230.33 141.707 230.209 141.34C230.425 141.66 230.618 141.995 230.787 142.341C231.141 142.983 231.636 143.946 232.208 145.14C233.704 148.262 234.992 151.479 236.064 154.77C236.706 156.696 237.195 158.571 237.58 160.285C237.913 161.807 238.164 163.346 238.332 164.895C238.409 165.537 238.448 166.179 238.467 166.68C238.487 167.18 238.512 167.662 238.467 168.034C238.422 168.407 238.467 168.676 238.467 168.894C238.481 168.992 238.481 169.092 238.467 169.19Z" fill="#263238"/>
<path d="M241.5 172.766H235.434V176.406H241.5V172.766Z" fill="#EBEBEB"/>
<path d="M241.699 172.009C241.616 171.367 239.09 170.571 239.09 170.571V169.531H237.612V170.571C237.612 170.571 235.568 171.483 235.311 171.855C235.054 172.228 235.44 173.55 235.44 173.55H241.699C241.751 173.038 241.751 172.522 241.699 172.009Z" fill="#263238"/>
<path d="M241.534 175.315C239.503 175.547 237.453 175.547 235.422 175.315C237.453 175.093 239.502 175.093 241.534 175.315Z" fill="#E0E0E0"/>
<path d="M241.641 171.983C240.591 172.238 239.508 172.342 238.428 172.292C237.35 172.351 236.268 172.26 235.215 172.022C236.283 171.929 237.357 171.907 238.428 171.958C239.499 171.892 240.572 171.9 241.641 171.983Z" fill="#455A64"/>
<path d="M239.111 170.545C239.182 170.603 238.899 170.969 238.379 170.988C237.858 171.007 237.55 170.667 237.614 170.603C237.678 170.539 237.98 170.674 238.366 170.654C238.751 170.635 239.073 170.475 239.111 170.545Z" fill="#455A64"/>
<path d="M243.975 155.08C243.975 155.176 242.292 155.318 240.229 155.619C238.166 155.921 236.508 156.261 236.488 156.171C237.675 155.714 238.918 155.418 240.184 155.292C241.433 155.056 242.708 154.985 243.975 155.08Z" fill="#263238"/>
<path d="M247.112 168.034C246.614 167.416 246.148 166.774 245.717 166.108C244.862 164.927 243.641 163.334 242.169 161.672C240.698 160.009 239.252 158.609 238.179 157.627C237.105 156.645 236.424 156.054 236.456 156.016C236.646 156.108 236.823 156.225 236.983 156.362C237.317 156.606 237.78 157.004 238.339 157.447C241.246 159.925 243.793 162.795 245.91 165.973C246.315 166.583 246.623 167.084 246.829 167.443C246.95 167.626 247.045 167.825 247.112 168.034Z" fill="#263238"/>
<path d="M247.067 167.905C245.843 168.491 244.546 168.909 243.211 169.15C241.906 169.505 240.56 169.687 239.207 169.69C239.207 169.593 240.974 169.324 243.134 168.829C245.293 168.335 247.035 167.815 247.067 167.905Z" fill="#263238"/>
<path d="M244.174 155.078C244.218 155.289 244.234 155.505 244.219 155.72C244.228 156.282 244.205 156.843 244.148 157.402C243.972 159.25 243.558 161.067 242.915 162.808C242.276 164.55 241.412 166.201 240.344 167.719C240.024 168.181 239.677 168.622 239.303 169.042C239.039 169.343 238.885 169.497 238.866 169.485C238.846 169.472 239.38 168.766 240.151 167.591C241.148 166.052 241.976 164.409 242.619 162.692C243.24 160.973 243.671 159.19 243.904 157.376C244.097 155.951 244.116 155.078 244.174 155.078Z" fill="#263238"/>
<path d="M193.57 234.168L185.936 273.118L194.142 275.044C194.142 275.044 203.037 251.932 204.168 248.234C205.299 244.536 206.572 234.694 206.572 234.694L193.57 234.168Z" fill="#FFBE9D"/>
<path d="M185.731 272.816L183.803 281.503C183.803 281.503 174.51 281.881 174.002 283.429L190.551 288.308L194.407 274.986L185.731 272.816Z" fill="#0956A3"/>
<g opacity="0.6">
<path opacity="0.6" d="M189.175 282.093C189.324 282.183 189.434 282.324 189.485 282.49C189.536 282.655 189.524 282.834 189.452 282.992C189.366 283.143 189.226 283.256 189.06 283.307C188.894 283.358 188.715 283.344 188.559 283.268C188.402 283.173 188.286 283.023 188.234 282.847C188.182 282.672 188.196 282.483 188.276 282.318C188.38 282.169 188.538 282.065 188.716 282.03C188.894 281.994 189.08 282.028 189.233 282.125" fill="white"/>
</g>
<g opacity="0.6">
<path opacity="0.6" d="M190.57 288.326L190.924 286.972L174.806 282.824C174.612 282.862 174.43 282.948 174.277 283.073C174.125 283.199 174.006 283.36 173.932 283.543L190.57 288.326Z" fill="white"/>
</g>
<path d="M183.572 281.348C183.572 281.425 183.958 281.566 184.292 281.932C184.626 282.298 184.748 282.696 184.832 282.684C184.915 282.671 184.915 282.163 184.504 281.733C184.093 281.303 183.572 281.265 183.572 281.348Z" fill="#263238"/>
<path d="M181.636 281.624C181.597 281.701 181.912 281.926 182.105 282.343C182.298 282.761 182.279 283.146 182.362 283.159C182.446 283.171 182.613 282.728 182.362 282.215C182.112 281.701 181.655 281.547 181.636 281.624Z" fill="#263238"/>
<path d="M180.108 283.466C180.172 283.505 180.391 283.126 180.294 282.625C180.198 282.124 179.864 281.848 179.812 281.906C179.761 281.964 179.934 282.266 180.005 282.676C180.076 283.087 180.024 283.44 180.108 283.466Z" fill="#263238"/>
<path d="M184.219 279.416C184.219 279.5 184.637 279.48 185.093 279.628C185.55 279.776 185.871 280.013 185.929 279.956C185.987 279.898 185.717 279.519 185.183 279.352C184.65 279.185 184.2 279.339 184.219 279.416Z" fill="#263238"/>
<path d="M184.631 277.67C184.888 277.814 185.178 277.887 185.473 277.882C185.788 277.904 186.105 277.889 186.417 277.837C186.602 277.803 186.784 277.758 186.964 277.702C187.071 277.673 187.172 277.627 187.266 277.567C187.334 277.523 187.386 277.458 187.412 277.381C187.439 277.304 187.44 277.221 187.414 277.144C187.387 277.077 187.345 277.018 187.292 276.97C187.238 276.922 187.174 276.887 187.105 276.868C186.999 276.837 186.888 276.824 186.777 276.829C186.588 276.831 186.399 276.846 186.212 276.874C185.897 276.931 185.594 277.038 185.312 277.189C184.83 277.445 184.624 277.715 184.669 277.741C184.714 277.766 184.952 277.567 185.428 277.375C185.86 277.19 186.327 277.103 186.797 277.118C186.989 277.118 187.137 277.157 187.163 277.246C187.189 277.336 187.163 277.291 187.118 277.33C187.052 277.375 186.978 277.408 186.899 277.426C186.734 277.486 186.564 277.534 186.392 277.567C186.101 277.632 185.803 277.667 185.505 277.67C185.214 277.649 184.922 277.649 184.631 277.67Z" fill="#263238"/>
<path d="M184.708 277.818C184.708 277.818 184.971 277.587 185.138 277.067C185.231 276.759 185.27 276.438 185.254 276.117C185.248 275.928 185.219 275.74 185.171 275.558C185.156 275.436 185.109 275.319 185.034 275.221C184.96 275.123 184.86 275.047 184.746 274.999C184.672 274.981 184.593 274.985 184.52 275.01C184.447 275.035 184.383 275.081 184.335 275.141C184.268 275.229 184.214 275.326 184.174 275.43C184.096 275.607 184.046 275.795 184.027 275.988C183.992 276.314 184.04 276.643 184.168 276.945C184.38 277.465 184.695 277.645 184.714 277.619C184.577 277.38 184.459 277.131 184.361 276.874C184.279 276.6 184.257 276.31 184.297 276.027C184.319 275.86 184.367 275.698 184.438 275.545C184.509 275.372 184.612 275.25 184.669 275.282C184.727 275.314 184.862 275.475 184.894 275.629C184.939 275.795 184.969 275.965 184.984 276.136C185.011 276.43 184.994 276.726 184.933 277.015C184.836 277.542 184.669 277.792 184.708 277.818Z" fill="#263238"/>
<path d="M222.465 236.929L236.481 277.375L243.962 276.514C243.962 276.514 243.962 250.924 242.034 246.212C240.106 241.5 235.113 232.602 235.113 232.602L222.465 236.929Z" fill="#FFBE9D"/>
<path d="M235.158 274.446L237.144 283.107C237.144 283.107 228.886 287.395 229.098 289.026L246.141 286.426L243.95 272.738L235.158 274.446Z" fill="#0956A3"/>
<g opacity="0.6">
<path opacity="0.6" d="M242.24 281.391C242.415 281.406 242.578 281.485 242.697 281.613C242.816 281.742 242.882 281.91 242.883 282.085C242.883 282.173 242.865 282.26 242.83 282.341C242.795 282.422 242.744 282.495 242.679 282.555C242.615 282.616 242.538 282.662 242.455 282.691C242.372 282.721 242.284 282.733 242.195 282.727C242.017 282.702 241.854 282.614 241.736 282.478C241.618 282.342 241.553 282.168 241.553 281.989C241.58 281.816 241.669 281.66 241.804 281.55C241.94 281.439 242.111 281.383 242.285 281.391" fill="white"/>
</g>
<g opacity="0.6">
<path opacity="0.6" d="M246.141 286.425L245.884 285.051L229.502 288.139C229.342 288.256 229.214 288.411 229.129 288.591C229.045 288.77 229.007 288.968 229.02 289.166L246.141 286.425Z" fill="white"/>
</g>
<path d="M236.847 283.073C236.847 283.157 237.291 283.112 237.747 283.298C238.203 283.484 238.492 283.792 238.557 283.747C238.621 283.702 238.415 283.247 237.856 283.028C237.297 282.81 236.815 282.996 236.847 283.073Z" fill="#263238"/>
<path d="M235.215 284.145C235.215 284.229 235.594 284.3 235.941 284.595C236.288 284.89 236.442 285.237 236.526 285.237C236.609 285.237 236.571 284.736 236.127 284.377C235.684 284.017 235.215 284.068 235.215 284.145Z" fill="#263238"/>
<path d="M234.612 286.463C234.689 286.463 234.728 286.033 234.426 285.622C234.124 285.211 233.706 285.102 233.686 285.179C233.667 285.256 233.95 285.449 234.188 285.821C234.426 286.194 234.528 286.47 234.612 286.463Z" fill="#263238"/>
<path d="M236.617 281.054C236.668 281.118 237.028 280.932 237.497 280.874C237.966 280.816 238.365 280.874 238.397 280.816C238.429 280.758 238.018 280.508 237.458 280.585C236.899 280.662 236.565 280.996 236.617 281.054Z" fill="#263238"/>
<path d="M236.25 279.294C236.25 279.332 236.591 279.294 237.098 279.127C237.395 279.016 237.676 278.867 237.934 278.684C238.088 278.58 238.234 278.464 238.371 278.337C238.458 278.267 238.532 278.182 238.589 278.087C238.632 278.017 238.651 277.936 238.643 277.855C238.635 277.773 238.6 277.697 238.544 277.638C238.491 277.59 238.427 277.555 238.358 277.535C238.289 277.515 238.217 277.51 238.146 277.522C238.038 277.54 237.934 277.575 237.837 277.625C237.665 277.704 237.499 277.799 237.343 277.907C237.082 278.085 236.85 278.301 236.655 278.549C236.334 278.992 236.256 279.326 236.289 279.332C236.321 279.339 236.475 279.056 236.816 278.69C237.016 278.473 237.243 278.281 237.49 278.119C237.638 278.025 237.792 277.943 237.953 277.875C238.12 277.792 238.274 277.766 238.332 277.837C238.39 277.907 238.332 277.875 238.332 277.933C238.291 278.002 238.236 278.063 238.172 278.113C238.048 278.237 237.915 278.35 237.773 278.453C237.537 278.636 237.283 278.795 237.015 278.928C236.75 279.029 236.495 279.151 236.25 279.294Z" fill="#263238"/>
<path d="M236.379 279.398C236.496 279.124 236.52 278.82 236.45 278.531C236.402 278.215 236.302 277.909 236.154 277.626C236.067 277.457 235.961 277.297 235.839 277.151C235.771 277.045 235.675 276.959 235.562 276.903C235.449 276.846 235.323 276.821 235.197 276.83C235.122 276.845 235.053 276.882 234.998 276.935C234.943 276.989 234.905 277.057 234.888 277.132C234.873 277.24 234.873 277.35 234.888 277.459C234.894 277.654 234.93 277.847 234.997 278.03C235.105 278.339 235.286 278.616 235.524 278.839C235.942 279.212 236.302 279.244 236.309 279.218C236.315 279.192 236.006 279.064 235.666 278.692C235.471 278.479 235.329 278.224 235.248 277.947C235.197 277.787 235.169 277.62 235.165 277.453C235.165 277.273 235.197 277.112 235.267 277.119C235.338 277.125 235.524 277.209 235.621 277.337C235.733 277.468 235.832 277.61 235.916 277.761C236.065 278.013 236.176 278.285 236.244 278.57C236.36 279.064 236.334 279.391 236.379 279.398Z" fill="#263238"/>
<path d="M199.046 194.345L221.25 193.484C221.25 193.484 221.797 206.966 221.765 210.51C221.733 214.054 214.74 224.461 214.74 224.461L208.185 239.946L190.312 234.63L193.744 210.388C193.744 210.388 198.243 197.381 198.944 194.762C198.998 194.618 199.026 194.466 199.027 194.313" fill="#263238"/>
<path d="M210.64 216.713L221.764 240.467L239.116 235.857L232.002 214.177C232.002 214.177 231.359 203.16 230.986 200.625C230.614 198.089 230.517 197.626 230.517 197.626L220.363 192.086L204.367 195.553C204.367 195.553 208.313 211.731 210.64 216.713Z" fill="#263238"/>
<path d="M208.223 211.504C208.633 212.152 208.993 212.83 209.302 213.533C209.945 214.817 210.774 216.563 211.687 218.521C212.599 220.479 213.409 222.257 213.981 223.548C214.319 224.237 214.609 224.95 214.849 225.679C214.439 225.033 214.079 224.357 213.769 223.657C213.126 222.373 212.297 220.62 211.385 218.662C210.472 216.704 209.656 214.926 209.084 213.629C208.746 212.942 208.459 212.232 208.223 211.504Z" fill="#455A64"/>
<path d="M233.475 218.648C232.158 219.35 230.776 219.922 229.349 220.356C227.955 220.895 226.513 221.301 225.043 221.57C226.413 220.984 227.814 220.474 229.24 220.042C230.626 219.504 232.04 219.039 233.475 218.648Z" fill="#455A64"/>
<path d="M234.309 222.188C233.825 222.547 233.298 222.844 232.741 223.074C231.426 223.697 230.064 224.215 228.666 224.621C228.255 224.743 227.85 224.846 227.458 224.942L226.886 225.077C226.676 225.135 226.454 225.135 226.243 225.077C226.041 224.997 225.874 224.847 225.774 224.653C225.69 224.499 225.619 224.338 225.562 224.172C225.455 223.884 225.365 223.59 225.292 223.292C225.113 222.709 225.045 222.097 225.093 221.488C225.151 221.488 225.196 222.175 225.517 223.228C225.601 223.491 225.697 223.774 225.819 224.069C225.941 224.364 226.083 224.711 226.34 224.782C226.694 224.799 227.048 224.744 227.381 224.621C227.767 224.519 228.165 224.416 228.57 224.294C229.953 223.888 231.313 223.408 232.644 222.856C233.183 222.596 233.74 222.373 234.309 222.188Z" fill="#455A64"/>
<path d="M237.195 231.511C237.072 231.664 236.927 231.799 236.765 231.909C236.348 232.242 235.907 232.544 235.447 232.814C234.758 233.232 233.994 233.513 233.198 233.643C232.198 233.78 231.183 233.552 230.338 233.001C229.508 232.454 228.825 231.711 228.352 230.837C227.974 230.136 227.681 229.392 227.478 228.622C227.298 227.98 227.196 227.435 227.131 227.069C227.083 226.878 227.059 226.681 227.061 226.484C227.311 227.164 227.526 227.856 227.703 228.558C227.933 229.297 228.241 230.009 228.622 230.683C229.082 231.503 229.732 232.201 230.518 232.718C231.299 233.227 232.235 233.44 233.16 233.322C233.921 233.212 234.657 232.966 235.332 232.596C236.501 231.961 237.144 231.46 237.195 231.511Z" fill="#455A64"/>
<path d="M206.785 207.648C206.575 207.182 206.422 206.693 206.328 206.191C206.04 204.996 205.825 203.785 205.686 202.563C205.541 201.343 205.476 200.114 205.493 198.885C205.465 198.375 205.504 197.863 205.609 197.363C205.696 197.863 205.735 198.371 205.724 198.878C205.776 199.816 205.853 201.106 206.014 202.525C206.174 203.944 206.386 205.215 206.547 206.139C206.677 206.633 206.757 207.138 206.785 207.648Z" fill="#263238"/>
<path d="M229.22 199.274C229.288 199.695 229.232 200.128 229.06 200.519C228.721 201.513 228.005 202.334 227.066 202.805C226.128 203.277 225.041 203.362 224.04 203.042C223.623 202.949 223.241 202.737 222.941 202.432C222.974 202.381 223.372 202.644 224.105 202.817C225.048 203.056 226.046 202.946 226.915 202.508C227.783 202.071 228.465 201.335 228.835 200.436C229.137 199.749 229.162 199.267 229.22 199.274Z" fill="#455A64"/>
<path d="M201.155 197.363C201.162 197.902 201.079 198.438 200.911 198.949C200.208 201.473 198.696 203.697 196.605 205.279C196.188 205.623 195.72 205.898 195.217 206.095C196.665 205.023 197.942 203.737 199.002 202.281C199.968 200.762 200.694 199.103 201.155 197.363Z" fill="#455A64"/>
<path d="M208.018 197.934C208.018 197.934 208.102 197.889 208.262 197.934C208.492 197.981 208.696 198.111 208.834 198.3C208.948 198.44 209.025 198.606 209.058 198.783C209.09 198.961 209.078 199.143 209.021 199.314C208.937 199.523 208.795 199.703 208.611 199.832C208.428 199.962 208.211 200.037 207.986 200.046C207.761 200.038 207.543 199.961 207.363 199.825C207.182 199.69 207.048 199.503 206.977 199.289C206.919 199.117 206.908 198.933 206.946 198.756C206.983 198.579 207.067 198.415 207.189 198.281C207.607 197.831 208.037 197.921 208.018 197.953C207.999 197.985 207.658 198.03 207.376 198.428C207.297 198.535 207.245 198.659 207.226 198.79C207.207 198.921 207.221 199.055 207.266 199.18C207.322 199.328 207.419 199.458 207.547 199.552C207.675 199.647 207.827 199.703 207.986 199.712C208.146 199.7 208.299 199.646 208.43 199.554C208.561 199.463 208.665 199.338 208.732 199.192C208.775 199.068 208.79 198.934 208.775 198.803C208.759 198.672 208.713 198.546 208.642 198.435C208.385 197.979 207.999 197.973 208.018 197.934Z" fill="#455A64"/>
<path d="M206.385 107.469H205.903C203.561 107.558 201.338 108.527 199.681 110.183C198.023 111.839 197.053 114.059 196.964 116.399C196.771 120.893 196.617 125.881 196.739 128.289C196.996 133.271 202.015 133.855 202.015 133.855L202.111 137.623L202.163 139.639C202.246 143.235 206.565 145.161 209.194 142.715C209.263 142.655 209.327 142.591 209.386 142.522L210.98 140.866L214.027 134.446L214.161 117.266C214.412 112.046 211.591 107.571 206.385 107.469Z" fill="#FFBE9D"/>
<path d="M202.01 133.842C204.313 133.794 206.55 133.063 208.436 131.742C208.436 131.742 207.035 135.389 202.01 135.132V133.842Z" fill="#723C31"/>
<path d="M198.295 119.858C198.3 120.043 198.377 120.22 198.511 120.349C198.644 120.479 198.822 120.551 199.008 120.551C199.188 120.558 199.362 120.495 199.496 120.375C199.629 120.255 199.71 120.088 199.722 119.909C199.717 119.723 199.639 119.547 199.506 119.418C199.373 119.288 199.194 119.216 199.008 119.216C198.829 119.207 198.653 119.269 198.519 119.39C198.385 119.51 198.305 119.678 198.295 119.858Z" fill="#263238"/>
<path d="M198.044 118.532C198.134 118.615 198.687 118.198 199.426 118.172C200.165 118.147 200.769 118.506 200.852 118.41C200.936 118.314 200.795 118.198 200.544 118.031C200.204 117.813 199.804 117.708 199.4 117.729C199.001 117.742 198.616 117.882 198.301 118.127C198.07 118.326 197.999 118.487 198.044 118.532Z" fill="#263238"/>
<path d="M205.744 119.608C205.749 119.793 205.827 119.97 205.96 120.099C206.093 120.229 206.272 120.301 206.457 120.301C206.636 120.308 206.81 120.245 206.942 120.125C207.075 120.004 207.154 119.837 207.164 119.659C207.159 119.473 207.082 119.297 206.949 119.168C206.816 119.038 206.637 118.966 206.451 118.966C206.362 118.961 206.274 118.975 206.19 119.004C206.107 119.034 206.03 119.081 205.964 119.14C205.899 119.2 205.845 119.272 205.808 119.352C205.77 119.432 205.748 119.519 205.744 119.608Z" fill="#263238"/>
<path d="M205.652 118.017C205.736 118.12 206.295 117.761 207.066 117.812C207.837 117.863 208.352 118.293 208.454 118.204C208.557 118.114 208.454 117.992 208.191 117.799C207.877 117.543 207.49 117.393 207.085 117.369C206.688 117.338 206.291 117.437 205.954 117.651C205.729 117.812 205.652 117.972 205.652 118.017Z" fill="#263238"/>
<path d="M203.083 124.432C202.664 124.316 202.232 124.256 201.797 124.252C201.598 124.252 201.412 124.207 201.373 124.079C201.35 123.878 201.389 123.674 201.482 123.495L202.003 121.98C202.496 120.698 202.881 119.377 203.153 118.031C202.567 119.276 202.077 120.564 201.688 121.883C201.515 122.416 201.348 122.923 201.193 123.405C201.078 123.645 201.053 123.918 201.123 124.175C201.153 124.243 201.198 124.303 201.255 124.351C201.312 124.398 201.378 124.433 201.45 124.451C201.562 124.477 201.677 124.487 201.791 124.483C202.222 124.523 202.656 124.506 203.083 124.432Z" fill="#263238"/>
<path d="M205.447 114.715C205.531 114.921 206.289 114.792 207.195 114.869C208.101 114.946 208.834 115.158 208.95 114.966C209.001 114.876 208.866 114.683 208.564 114.491C208.172 114.261 207.732 114.125 207.279 114.093C206.816 114.053 206.351 114.126 205.923 114.304C205.569 114.471 205.408 114.619 205.447 114.715Z" fill="#263238"/>
<path d="M198.154 117.04C198.295 117.207 198.797 117.008 199.439 116.976C200.082 116.944 200.615 117.047 200.725 116.86C200.834 116.674 200.686 116.597 200.448 116.443C200.125 116.259 199.754 116.175 199.383 116.2C199.011 116.225 198.655 116.359 198.36 116.584C198.16 116.751 198.09 116.931 198.154 117.04Z" fill="#263238"/>
<path d="M213.899 120.951C213.982 120.912 217.286 119.808 217.311 123.217C217.337 126.626 213.899 125.952 213.892 125.849C213.886 125.746 213.899 120.951 213.899 120.951Z" fill="#FFBE9D"/>
<path d="M214.927 124.553C214.927 124.553 214.985 124.591 215.088 124.636C215.158 124.666 215.234 124.681 215.31 124.681C215.386 124.681 215.461 124.666 215.531 124.636C215.751 124.495 215.93 124.298 216.048 124.066C216.167 123.834 216.221 123.574 216.206 123.314C216.211 123.022 216.152 122.732 216.033 122.466C215.999 122.36 215.941 122.263 215.863 122.184C215.785 122.104 215.689 122.045 215.583 122.01C215.514 121.994 215.441 122.002 215.377 122.032C215.313 122.063 215.261 122.114 215.229 122.177C215.184 122.273 215.229 122.338 215.191 122.344C215.152 122.351 215.114 122.286 215.146 122.145C215.164 122.062 215.209 121.987 215.274 121.933C215.32 121.897 215.373 121.871 215.429 121.856C215.485 121.84 215.544 121.836 215.602 121.843C215.745 121.869 215.88 121.93 215.992 122.023C216.105 122.115 216.192 122.234 216.245 122.37C216.391 122.665 216.464 122.991 216.457 123.32C216.476 123.624 216.404 123.926 216.251 124.189C216.098 124.452 215.87 124.663 215.596 124.797C215.504 124.824 215.408 124.831 215.313 124.816C215.219 124.802 215.129 124.767 215.049 124.713C214.934 124.636 214.914 124.559 214.927 124.553Z" fill="#723C31"/>
<path d="M196.7 125.549C196.828 125.454 196.975 125.389 197.131 125.358C197.287 125.327 197.448 125.332 197.602 125.371C197.756 125.411 197.899 125.484 198.021 125.586C198.143 125.687 198.241 125.815 198.307 125.959C198.437 125.746 198.626 125.574 198.85 125.464C199.075 125.353 199.326 125.308 199.575 125.334C199.824 125.361 200.06 125.457 200.257 125.612C200.453 125.767 200.601 125.974 200.685 126.21C200.745 126.036 200.849 125.88 200.985 125.757C201.122 125.633 201.288 125.546 201.467 125.503C201.646 125.461 201.833 125.463 202.011 125.512C202.189 125.56 202.351 125.652 202.484 125.78C202.569 125.623 202.701 125.498 202.861 125.421C203.022 125.343 203.202 125.319 203.377 125.35C203.35 125.183 203.371 125.012 203.439 124.857C203.506 124.703 203.616 124.57 203.757 124.476C203.897 124.385 204.061 124.337 204.229 124.337C204.397 124.337 204.561 124.385 204.701 124.476C204.793 124.305 204.92 124.154 205.075 124.035C205.23 123.917 205.408 123.832 205.598 123.788C205.787 123.744 205.985 123.74 206.176 123.778C206.367 123.816 206.548 123.894 206.706 124.008C206.746 123.846 206.837 123.701 206.967 123.596C207.096 123.491 207.256 123.431 207.423 123.425C207.59 123.419 207.754 123.468 207.89 123.564C208.026 123.66 208.128 123.798 208.178 123.956C208.331 123.741 208.549 123.58 208.8 123.497C209.05 123.414 209.321 123.413 209.573 123.494C209.571 123.372 209.596 123.251 209.646 123.14C209.697 123.028 209.772 122.93 209.865 122.851C209.959 122.772 210.069 122.715 210.187 122.684C210.306 122.654 210.429 122.649 210.55 122.672C210.402 122.262 211.006 122.03 211.302 121.703C211.43 121.562 211.514 121.369 211.655 121.241C211.796 121.112 212.06 121.061 212.176 121.241C212.127 121.074 212.14 120.896 212.212 120.738C212.284 120.58 212.41 120.453 212.568 120.38C212.731 120.318 212.91 120.316 213.075 120.373C213.24 120.431 213.379 120.545 213.467 120.695C213.545 120.884 213.597 121.083 213.622 121.286C213.757 121.928 214.181 122.685 213.737 123.173C213.66 123.257 213.551 123.334 213.525 123.449C213.499 123.565 213.673 123.809 213.699 124.008C213.724 124.207 213.532 124.425 213.454 124.65C213.397 124.987 213.424 125.333 213.532 125.658C213.583 125.998 213.416 126.447 213.075 126.435C213.213 126.679 213.26 126.963 213.21 127.239C213.159 127.514 213.014 127.763 212.799 127.943C212.867 128.085 212.907 128.239 212.914 128.396C212.922 128.553 212.898 128.71 212.843 128.857C212.788 129.005 212.704 129.14 212.596 129.254C212.488 129.368 212.358 129.46 212.214 129.523C212.323 129.62 212.393 129.754 212.411 129.899C212.429 130.045 212.393 130.191 212.311 130.312C212.143 130.545 211.923 130.734 211.668 130.864C211.725 130.898 211.774 130.943 211.813 130.995C211.852 131.048 211.881 131.109 211.896 131.173C211.912 131.237 211.914 131.303 211.904 131.368C211.893 131.433 211.87 131.495 211.835 131.551C211.681 131.774 211.454 131.935 211.192 132.007C211.081 132.031 210.981 132.092 210.91 132.18C210.8 132.367 210.98 132.598 210.961 132.822C210.929 133.15 210.479 133.278 210.363 133.58C210.248 133.882 210.44 134.222 210.241 134.434C210.042 134.646 209.894 134.562 209.714 134.639C209.406 134.774 209.29 135.14 209.071 135.423C208.669 135.927 208.107 136.28 207.478 136.424C207.169 136.527 206.835 136.617 206.539 136.7C205.897 136.861 205.254 136.983 204.611 137.098C204.29 137.162 203.898 137.194 203.712 136.931C203.601 137.063 203.46 137.168 203.302 137.237C203.144 137.306 202.972 137.337 202.799 137.328C202.627 137.319 202.459 137.271 202.308 137.186C202.158 137.102 202.029 136.984 201.931 136.841C201.343 136.966 200.731 136.891 200.19 136.629L199.605 136.424C199.027 136.212 198.377 135.943 198.172 135.365C197.99 135.339 197.817 135.273 197.663 135.172C197.51 135.072 197.381 134.938 197.285 134.782C197.189 134.625 197.129 134.45 197.109 134.268C197.089 134.085 197.11 133.901 197.169 133.728C196.919 133.824 196.655 133.58 196.597 133.317C196.571 133.051 196.586 132.782 196.642 132.521C196.764 131.442 196.128 130.396 196.199 129.311C196.257 128.553 196.655 127.783 196.385 127.07C196.315 126.929 196.27 126.777 196.25 126.621C196.25 126.467 196.385 126.293 196.539 126.332C196.493 126.226 196.475 126.11 196.485 125.995C196.495 125.88 196.534 125.769 196.597 125.673C196.661 125.577 196.748 125.498 196.85 125.443C196.952 125.389 197.067 125.361 197.182 125.362" fill="#263238"/>
<path d="M205.383 124.875C205.261 124.875 205.293 125.703 204.599 126.32C203.905 126.936 203.024 126.885 203.018 127C203.011 127.116 203.223 127.154 203.596 127.148C204.085 127.137 204.554 126.952 204.92 126.628C205.27 126.319 205.487 125.886 205.524 125.421C205.543 125.068 205.441 124.869 205.383 124.875Z" fill="white"/>
<path d="M198.617 134.413C198.426 134.381 198.252 134.286 198.122 134.143C197.799 133.816 197.564 133.411 197.441 132.968C197.304 132.534 197.237 132.081 197.242 131.626C197.229 131.439 197.253 131.252 197.312 131.074C197.312 131.699 197.399 132.322 197.57 132.923C197.698 133.348 197.918 133.74 198.212 134.072C198.336 134.198 198.472 134.312 198.617 134.413Z" fill="#455A64"/>
<path d="M199.329 134.182C199.177 134.133 199.039 134.049 198.924 133.938C198.631 133.695 198.394 133.39 198.23 133.046C198.068 132.698 197.982 132.319 197.98 131.935C197.968 131.778 197.99 131.62 198.044 131.473C198.053 131.627 198.053 131.781 198.044 131.935C198.079 132.299 198.175 132.655 198.327 132.988C198.489 133.315 198.706 133.613 198.969 133.867C199.226 134.066 199.342 134.163 199.329 134.182Z" fill="#455A64"/>
<path d="M203.005 134.839C202.849 134.721 202.716 134.575 202.613 134.409C202.348 134.019 202.156 133.584 202.048 133.125C201.942 132.663 201.927 132.186 202.003 131.719C202.027 131.524 202.083 131.336 202.17 131.16C202.16 131.352 202.136 131.543 202.099 131.732C202.051 132.187 202.079 132.647 202.183 133.093C202.279 133.547 202.453 133.981 202.697 134.377C202.808 134.525 202.911 134.679 203.005 134.839Z" fill="#455A64"/>
<path d="M203.879 134.73C203.496 134.421 203.214 134.006 203.069 133.536C202.885 133.08 202.836 132.581 202.928 132.098C202.966 132.57 203.054 133.037 203.191 133.491C203.374 133.928 203.605 134.343 203.879 134.73Z" fill="#455A64"/>
<path d="M215.067 120.938L216.668 115.487C216.668 115.487 216.25 112.72 215.736 110.043C215.222 107.366 213.57 106.416 213.57 106.416C214.011 106.243 214.377 105.922 214.606 105.508C214.834 105.095 214.911 104.614 214.823 104.15C214.611 102.365 210.048 102.538 207.895 102.57C207.255 102.589 206.626 102.748 206.054 103.037C205.482 103.325 204.981 103.736 204.586 104.239C203.144 104.625 201.798 105.305 200.634 106.236C199.469 107.168 198.51 108.331 197.818 109.652C197.611 109.651 197.407 109.699 197.222 109.792C197.037 109.884 196.875 110.019 196.751 110.184C196.751 110.184 196.109 111.013 196.803 111.552C196.803 111.552 203.397 110.961 208.589 113.08C213.782 115.198 214.335 118.042 214.335 118.042L215.067 120.938Z" fill="#455A64"/>
<path d="M213.012 104.373C212.691 104.69 212.288 104.913 211.849 105.015C210.804 105.306 209.713 105.394 208.635 105.272C207.583 105.158 206.522 105.145 205.467 105.233C204.664 105.33 204.182 105.542 204.182 105.49C204.548 105.217 204.981 105.046 205.435 104.996C206.499 104.838 207.579 104.819 208.648 104.938C209.695 105.049 210.753 105 211.784 104.79C212.562 104.617 212.98 104.322 213.012 104.373Z" fill="#263238"/>
<path d="M214.425 105.799C214.489 105.864 214.129 106.23 213.544 106.197C212.96 106.165 212.638 105.78 212.709 105.722C212.78 105.665 213.114 105.844 213.564 105.864C214.014 105.883 214.367 105.722 214.425 105.799Z" fill="#263238"/>
<path d="M196.605 110.989C196.21 111.055 195.851 111.257 195.589 111.56C195.462 111.712 195.385 111.901 195.37 112.099C195.355 112.297 195.402 112.494 195.506 112.664C195.689 112.857 195.887 113.035 196.097 113.197C196.54 113.659 196.54 114.481 197.087 114.808C197.206 114.875 197.339 114.912 197.475 114.918C197.612 114.924 197.747 114.898 197.872 114.843C197.997 114.788 198.107 114.704 198.194 114.599C198.28 114.494 198.341 114.37 198.372 114.237C198.621 114.465 198.942 114.598 199.279 114.613C199.616 114.628 199.948 114.525 200.217 114.32C200.74 113.892 201.119 113.314 201.303 112.664C201.754 112.754 202.223 112.705 202.646 112.523C202.747 112.473 202.836 112.402 202.907 112.314C202.978 112.227 203.029 112.125 203.057 112.016C203.085 111.907 203.089 111.793 203.069 111.682C203.049 111.571 203.006 111.466 202.941 111.374C202.782 111.238 202.585 111.153 202.376 111.13C200.432 110.7 198.421 110.667 196.463 111.033" fill="#263238"/>
<path d="M212.022 114.917C211.45 115.27 211.379 115.7 211.514 116.361C211.688 117.01 211.992 117.617 212.407 118.146C212.236 118.174 212.074 118.243 211.936 118.349C211.798 118.454 211.688 118.591 211.617 118.749C211.473 119.065 211.386 119.404 211.36 119.751C211.226 120.408 211.273 121.089 211.495 121.722C211.558 121.982 211.704 122.215 211.911 122.385C212.119 122.555 212.376 122.653 212.644 122.664C212.912 122.675 213.176 122.598 213.397 122.446C213.617 122.293 213.782 122.073 213.866 121.818C214 121.47 214.086 121.105 214.123 120.733C214.137 120.797 214.165 120.858 214.204 120.91C214.244 120.962 214.295 121.005 214.353 121.036C214.411 121.067 214.476 121.084 214.541 121.087C214.607 121.09 214.673 121.079 214.734 121.054C214.855 120.996 214.958 120.905 215.03 120.791C215.103 120.678 215.143 120.547 215.145 120.412C215.146 120.143 215.098 119.875 215.003 119.622C214.749 118.701 214.405 117.806 213.975 116.952C213.544 116.099 212.874 115.39 212.047 114.91" fill="#263238"/>
<path d="M216.116 117.361C216.116 117.361 216.064 117.053 215.929 116.514C215.741 115.753 215.4 115.039 214.927 114.415C214.195 113.506 213.349 112.697 212.407 112.007C211.83 111.635 211.226 111.305 210.602 111.018C209.952 110.669 209.267 110.389 208.558 110.184C206.056 109.455 203.448 109.158 200.846 109.304C199.85 109.356 199.04 109.458 198.487 109.535C198.2 109.598 197.907 109.632 197.613 109.638C197.887 109.531 198.171 109.454 198.462 109.407C199.244 109.245 200.036 109.131 200.833 109.067C203.471 108.846 206.127 109.116 208.667 109.863C209.396 110.075 210.101 110.363 210.769 110.723C211.407 111.02 212.021 111.366 212.607 111.757C213.565 112.472 214.418 113.319 215.139 114.273C215.61 114.934 215.93 115.69 216.077 116.488C216.116 116.7 216.14 116.915 216.148 117.13C216.135 117.284 216.128 117.361 216.116 117.361Z" fill="#263238"/>
<path d="M211.777 114.852C211.932 114.338 212.042 113.812 212.105 113.279C212.163 112.393 212.009 111.674 212.105 111.648C212.42 112.139 212.541 112.73 212.446 113.305C212.428 113.715 212.32 114.116 212.131 114.48C211.97 114.756 211.809 114.878 211.777 114.852Z" fill="#263238"/>
<path d="M214.007 116.958C213.975 116.92 214.097 116.791 214.213 116.547C214.359 116.224 214.452 115.879 214.489 115.526C214.541 115.09 214.637 114.705 214.663 114.435C214.688 114.165 214.708 113.979 214.753 113.973C214.798 113.966 214.875 114.133 214.9 114.435C214.913 114.816 214.885 115.197 214.817 115.571C214.781 115.968 214.641 116.349 214.412 116.676C214.187 116.926 214.007 116.997 214.007 116.958Z" fill="#263238"/>
<path d="M208.763 113.188C208.612 112.699 208.635 112.173 208.827 111.698C209.058 110.896 209.47 110.357 209.566 110.414C209.476 110.89 209.336 111.355 209.148 111.801C209.067 112.275 208.938 112.74 208.763 113.188Z" fill="#263238"/>
<path d="M204.322 111.822C204.232 111.822 204.219 111.18 204.521 110.468C204.823 109.755 205.292 109.318 205.356 109.376C205.421 109.434 205.112 109.935 204.829 110.596C204.547 111.257 204.418 111.835 204.322 111.822Z" fill="#263238"/>
<path d="M200.26 111.469C200.17 111.469 200.125 110.904 200.324 110.243C200.524 109.582 200.864 109.126 200.967 109.171C201.07 109.216 200.851 109.717 200.671 110.333C200.491 110.949 200.356 111.476 200.26 111.469Z" fill="#263238"/>
<path d="M202.37 140.322C202.37 140.322 199.272 150.844 199.079 155.036C198.886 159.228 199.651 176.023 199.651 176.023C199.651 176.023 200.898 183.085 200.416 184.414C199.934 185.743 197.363 192.619 197.46 196.432H206.335C206.335 196.432 214.632 195.726 222.569 195.476C227.067 195.335 231.347 198.147 231.347 198.147C232.274 193.938 232.274 189.579 231.347 185.371C230.407 180.38 230.024 175.301 230.204 170.226C230.371 171.131 232.614 161.283 229.503 144.032C228.687 139.538 226.463 134.704 221.977 134.402L213.623 134.531L202.37 140.322Z" fill="#0956A3"/>
<path d="M221.308 132.098C221.308 132.098 216.757 132.098 214.54 135.346C212.323 138.595 211.186 141.946 212.137 147.66C212.606 150.618 214.024 153.345 216.179 155.428L214.489 144.983C214.489 144.983 214.611 135.398 220.973 134.897L226.867 136.598C226.584 135.147 224.932 132.778 221.308 132.098Z" fill="#455A64"/>
<path d="M200.138 179.059C200.138 179.059 198.853 179.771 199.052 181.89C199.117 183.029 199.469 184.133 200.074 185.1C200.074 185.1 201.012 183.617 203.75 182.885C206.2 182.301 208.722 182.071 211.237 182.205C212.844 182.288 218.673 183.803 218.673 183.803L220.151 173.801C220.151 173.801 210.113 176.253 206.816 177.261C203.519 178.269 200.138 179.059 200.138 179.059Z" fill="#263238"/>
<path d="M200.897 141.059C198.371 139.936 196.899 141.65 196.713 142.061C196.539 142.481 196.443 142.929 196.43 143.383C196.109 147.518 197.716 157.636 198.943 161.597L199.425 141.791L200.897 141.059Z" fill="#455A64"/>
<path d="M199.168 152.491C203.345 149.692 212.176 149.442 212.664 149.923L212.086 147.355C209.694 147.394 207.307 147.557 204.933 147.843C200.608 148.286 199.676 149.127 199.406 149.525C199.326 149.653 199.266 149.791 199.226 149.936L199.168 152.491Z" fill="#263238"/>
<path d="M199.047 157.441C199.094 157.723 199.114 158.009 199.105 158.295C199.105 158.912 199.124 159.688 199.162 160.626C199.207 162.59 199.285 165.306 199.432 168.33C199.58 171.354 199.76 174.044 199.889 176.034C199.947 176.965 199.992 177.741 200.03 178.358C200.061 178.644 200.061 178.932 200.03 179.218C199.959 178.94 199.914 178.657 199.895 178.371C199.824 177.825 199.741 177.029 199.644 176.047C199.458 174.088 199.24 171.373 199.092 168.375C198.944 165.377 198.899 162.648 198.918 160.671C198.918 159.688 198.918 158.886 198.97 158.34C198.957 158.039 198.983 157.737 199.047 157.441Z" fill="#263238"/>
<path d="M203.725 190.905C203.616 190.503 203.573 190.087 203.596 189.672C203.586 187.672 203.968 185.689 204.721 183.836C204.85 183.441 205.043 183.07 205.293 182.738C205.389 182.777 204.65 184.497 204.2 186.764C203.75 189.03 203.84 190.872 203.725 190.905Z" fill="#263238"/>
<path d="M206.854 193.983C206.641 193.443 206.491 192.881 206.404 192.308C206.127 190.94 205.933 189.558 205.826 188.167C205.713 186.774 205.689 185.376 205.755 183.981C205.753 183.4 205.815 182.821 205.941 182.254C206.007 182.829 206.024 183.409 205.993 183.987C205.993 185.053 206.031 186.555 206.16 188.141C206.289 189.727 206.475 191.216 206.636 192.269C206.757 192.833 206.831 193.407 206.854 193.983Z" fill="#263238"/>
<path d="M208.957 165.363C209.158 165.867 209.317 166.387 209.433 166.917C209.703 167.88 210.075 169.196 210.615 170.634C211.155 172.072 211.669 173.337 212.074 174.249C212.333 174.729 212.548 175.232 212.717 175.751C212.384 175.32 212.106 174.85 211.888 174.351C211.29 173.183 210.769 171.978 210.326 170.743C209.882 169.511 209.515 168.252 209.227 166.975C209.07 166.451 208.979 165.91 208.957 165.363Z" fill="#263238"/>
<path d="M215.054 164.965C215.191 165.44 215.273 165.929 215.299 166.422C215.395 167.327 215.485 168.586 215.504 169.979C215.524 171.372 215.466 172.637 215.389 173.542C215.381 174.037 215.31 174.529 215.176 175.006C215.126 174.515 215.126 174.02 215.176 173.529C215.176 172.624 215.215 171.366 215.176 169.985C215.138 168.605 215.106 167.347 215.067 166.441C215.008 165.951 215.004 165.456 215.054 164.965Z" fill="#263238"/>
<path d="M202.439 156.882C202.105 155.979 201.948 155.02 201.976 154.058C201.898 153.096 202.003 152.129 202.285 151.207C202.388 151.207 202.285 152.491 202.285 154.045C202.285 155.598 202.548 156.844 202.439 156.882Z" fill="#263238"/>
<g opacity="0.3">
<path opacity="0.3" d="M209.696 166.379C209.612 169.749 211.868 174.083 212.671 175.714L214.291 175.258C213.657 171.914 212.06 168.828 209.696 166.379Z" fill="black"/>
</g>
<g opacity="0.3">
<path opacity="0.3" d="M205.948 182.449L205.414 182.52C204.184 184.89 203.676 187.569 203.956 190.224C204.007 190.545 204.123 190.917 204.431 191.014C204.74 191.11 205.125 190.757 205.26 190.372C205.483 189.616 205.548 188.823 205.453 188.041C205.306 186.163 205.473 184.273 205.948 182.449Z" fill="black"/>
</g>
<g opacity="0.3">
<path opacity="0.3" d="M212.156 149.61C212.444 151.825 213.475 153.878 215.08 155.433C215.768 156.075 215.794 157.173 215.819 158.129C215.854 159.797 216.01 161.46 216.289 163.105C216.318 163.624 216.532 164.116 216.893 164.492C217.6 165.076 218.66 164.626 219.463 164.158C219.351 162.212 219.073 160.279 218.634 158.38C218.191 156.47 217.271 154.703 215.961 153.244L212.452 149.559" fill="black"/>
</g>
<path d="M217.285 149.694C217.33 150.041 220.37 172.312 220.37 172.312L216.18 202.839L222.677 203.834C222.677 203.834 232.96 179.329 232.741 174.944C232.523 170.559 230.228 149.701 230.228 149.701C230.228 149.701 227.921 135.249 223.519 135.352C219.117 135.455 216.103 140.398 217.285 149.694Z" fill="#FFBE9D"/>
<path d="M220.768 134.728C220.768 134.728 216.816 136.654 215.556 140.685C214.296 144.717 217.715 163.341 217.715 163.341L233.519 159.997C233.519 159.997 229.99 131.473 220.768 134.728Z" fill="#0956A3"/>
<path d="M216.257 202.316L212.645 208.794L212.041 215.304C212.041 215.304 213.77 215.863 213.802 214.476C213.802 214.476 214.515 215.413 215.087 215.189C215.463 215.011 215.776 214.725 215.987 214.367C215.987 214.367 216.328 215.413 217.189 215.111C218.05 214.81 218.121 214.469 218.159 214.29C218.198 214.11 218.725 214.476 219.322 214.219C219.491 214.148 219.634 214.027 219.733 213.874C219.833 213.721 219.885 213.542 219.882 213.359C219.882 213.359 220.858 213.545 221.167 213.282C221.404 213.008 221.583 212.689 221.694 212.344C221.694 212.344 222.253 210.701 222.067 210.418C221.88 210.136 221.36 210.155 221.36 210.155L221.43 209.295C221.954 208.404 222.385 207.462 222.716 206.483C222.831 205.745 222.716 202.49 222.716 202.49L216.257 202.316Z" fill="#FFBE9D"/>
<path d="M212.324 211.543C212.721 211.975 213.033 212.478 213.243 213.026C213.56 213.523 213.779 214.077 213.886 214.657C213.489 214.225 213.177 213.721 212.967 213.174C212.65 212.676 212.431 212.123 212.324 211.543Z" fill="#723C31"/>
<path d="M214.457 211.133C214.782 211.693 215.066 212.277 215.305 212.879C215.638 213.435 215.93 214.015 216.179 214.612C215.655 214.196 215.249 213.649 215.003 213.027C214.66 212.453 214.472 211.801 214.457 211.133Z" fill="#723C31"/>
<path d="M216.469 211.414C216.826 211.882 217.125 212.391 217.362 212.929C217.697 213.418 217.969 213.946 218.172 214.502C217.694 214.13 217.316 213.644 217.073 213.09C216.731 212.592 216.523 212.015 216.469 211.414Z" fill="#723C31"/>
<path d="M218.172 210.402C218.803 211.393 219.372 212.423 219.875 213.484C218.993 212.664 218.396 211.585 218.172 210.402Z" fill="#723C31"/>
<path d="M220.537 212.02C220.447 212.02 220.492 211.493 220.73 210.915C220.968 210.337 221.302 209.959 221.373 210.004C221.443 210.049 221.263 210.504 221.032 211.05C220.801 211.596 220.627 212.058 220.537 212.02Z" fill="#723C31"/>
<path d="M214.651 146.816C214.697 146.92 214.725 147.031 214.734 147.144L214.908 148.088C215.075 148.954 215.293 150.129 215.55 151.554C216.129 154.527 216.913 158.539 217.781 162.982C217.781 163.091 217.826 163.207 217.845 163.303L217.652 163.175C222.054 162.353 226.007 161.563 228.873 160.972L232.247 160.247L233.166 160.048C233.271 160.019 233.379 160.002 233.487 159.997C233.391 160.051 233.287 160.09 233.179 160.112C232.973 160.176 232.671 160.266 232.279 160.369C231.489 160.587 230.351 160.87 228.924 161.197C226.077 161.839 222.119 162.674 217.71 163.502L217.549 163.534L217.517 163.374L217.453 163.046C216.566 158.552 215.814 154.54 215.319 151.593C215.068 150.123 214.882 148.935 214.773 148.107C214.715 147.69 214.683 147.369 214.664 147.15C214.647 147.04 214.642 146.928 214.651 146.816Z" fill="#263238"/>
<path d="M260.923 42.717C260.923 42.717 260.679 42.9995 260.242 43.5003C259.628 44.2023 259.073 44.9538 258.583 45.7473C256.956 48.3726 256.103 51.4034 256.122 54.4913V54.6004H255.82C255.35 51.5702 253.941 48.7635 251.791 46.5754C250.886 45.6936 249.903 44.8963 248.854 44.1936L249.091 44.3028C249.246 44.3926 249.477 44.5018 249.734 44.688C250.527 45.1853 251.261 45.7688 251.925 46.4278C254.162 48.6136 255.628 51.4658 256.103 54.5555H255.801V54.4399C255.771 51.2991 256.665 48.2186 258.371 45.5803C258.883 44.7866 259.47 44.0448 260.126 43.3654C260.351 43.1215 260.55 42.9546 260.679 42.8326C260.807 42.7106 260.923 42.7106 260.923 42.717Z" fill="#263238"/>
<path d="M299.676 79.3049C299.676 79.3049 299.149 79.1187 298.172 78.9005C296.788 78.6038 295.364 78.5495 293.962 78.74C291.883 79.016 289.921 79.8627 288.294 81.186C286.301 82.8063 284.895 85.0343 284.29 87.5289V87.5996L284.168 88.0554L283.994 87.6252C283.021 85.2595 281.351 83.2447 279.207 81.8472C277.452 80.7156 275.436 80.0525 273.352 79.9212C271.948 79.8226 270.537 79.9527 269.175 80.3064C268.211 80.5568 267.696 80.7815 267.684 80.7558C267.799 80.6847 267.922 80.6265 268.05 80.5825C268.405 80.428 268.77 80.2972 269.142 80.1909C270.85 79.6924 272.643 79.5635 274.404 79.8126C276.165 80.0616 277.853 80.6831 279.354 81.6354C281.563 83.0501 283.282 85.1102 284.277 87.5354H283.988V87.4647C284.607 84.9049 286.055 82.621 288.108 80.9677C289.78 79.6243 291.798 78.7789 293.93 78.5281C295.354 78.3489 296.799 78.436 298.191 78.7849C298.569 78.8793 298.94 78.9973 299.303 79.138C299.434 79.1762 299.56 79.2323 299.676 79.3049Z" fill="#263238"/>
<path d="M329.302 65.4883C329.049 65.8063 328.779 66.1106 328.493 66.3999C327.765 67.2337 327.105 68.1247 326.52 69.0642C324.584 72.1731 323.568 75.7652 323.589 79.4261V79.5609H323.287C322.975 77.5909 322.323 75.6901 321.359 73.9434C320.048 71.5512 318.203 69.4928 315.967 67.9279C315.324 67.4849 314.958 67.2859 314.971 67.2409C314.984 67.196 315.074 67.2795 315.254 67.3758C315.434 67.4721 315.704 67.6069 316.031 67.8316C316.959 68.4281 317.821 69.1211 318.602 69.8988C319.781 71.0506 320.785 72.3677 321.584 73.8086C322.558 75.5827 323.211 77.5149 323.512 79.516H323.204V79.3811C323.174 75.6636 324.235 72.0188 326.256 68.8973C326.886 67.9711 327.605 67.1089 328.403 66.3229C328.666 66.0276 328.904 65.835 329.045 65.6809C329.122 65.6054 329.208 65.5406 329.302 65.4883Z" fill="#263238"/>
</svg>
