<svg width="0" height="0" class="hidden">
  <symbol xmlns="http://www.w3.org/2000/svg" viewBox="0 0 16 16" id="ic_arrow">
    <path d="M6.45747 8.00338L12.443 2.01756C12.6078 1.85314 12.6985 1.6333 12.6985 1.39889C12.6985 1.16436 12.6078 0.94465 12.443 0.779967L11.9185 0.25574C11.754 0.0907967 11.534 0 11.2996 0C11.0652 0 10.8455 0.0907967 10.6808 0.25574L3.55405 7.38237C3.38872 7.54758 3.29818 7.76832 3.29883 8.00299C3.29818 8.2387 3.38859 8.45919 3.55405 8.62452L10.6742 15.7443C10.8389 15.9092 11.0586 16 11.2931 16C11.5275 16 11.7472 15.9092 11.912 15.7443L12.4364 15.22C12.7776 14.8788 12.7776 14.3234 12.4364 13.9823L6.45747 8.00338Z" fill="currentColor"></path>
  </symbol>
  <symbol xmlns="http://www.w3.org/2000/svg" viewBox="0 0 12 11" id="ic_clock">
    <path d="M10.3425 2.89435C10.1147 3.00457 10.0194 3.27872 10.1296 3.50643C10.4307 4.12847 10.5833 4.79896 10.5833 5.5C10.5833 8.02721 8.52721 10.0833 6 10.0833C3.47279 10.0833 1.41667 8.02721 1.41667 5.5C1.41667 2.97279 3.47279 0.916667 6 0.916667C7.04725 0.916667 8.03106 1.25863 8.84534 1.90551C9.04284 2.06317 9.33165 2.03016 9.48931 1.83199C9.64697 1.63393 9.61396 1.34546 9.41568 1.18802C8.45168 0.421855 7.2386 0 6 0C2.96746 0 0.5 2.46746 0.5 5.5C0.5 8.53254 2.96746 11 6 11C9.03254 11 11.5 8.53254 11.5 5.5C11.5 4.65965 11.3165 3.85432 10.9546 3.10729C10.8446 2.87902 10.5696 2.78391 10.3425 2.89435Z" fill="currentColor"></path>
    <path d="M5.99935 1.83203C5.74635 1.83203 5.54102 2.03736 5.54102 2.29036V5.4987C5.54102 5.7517 5.74635 5.95703 5.99935 5.95703H8.29101C8.54402 5.95703 8.74935 5.7517 8.74935 5.4987C8.74935 5.2457 8.54402 5.04037 8.29101 5.04037H6.45768V2.29036C6.45768 2.03736 6.25235 1.83203 5.99935 1.83203Z" fill="currentColor"></path>
  </symbol>
  <symbol xmlns="http://www.w3.org/2000/svg" viewBox="0 0 10 10" id="ic_close">
    <path fill-rule="evenodd" clip-rule="evenodd" d="M5.00037 4.52344L9.52381 0L10 0.47619L5.47656 4.99963L10.0007 9.52381L9.52455 10L5.00037 5.47582L0.47619 10L0 9.52381L4.52418 4.99963L0.000743971 0.47619L0.476934 0L5.00037 4.52344Z" fill="currentColor"></path>
  </symbol>
  <symbol xmlns="http://www.w3.org/2000/svg" viewBox="0 0 24 16" id="ic_double_arrow">
    <path d="M9.54253 8.00338L3.55697 2.01756C3.39216 1.85314 3.30149 1.6333 3.30149 1.39889C3.30149 1.16436 3.39216 0.94465 3.55697 0.779967L4.08146 0.25574C4.24601 0.0907967 4.46598 0 4.70039 0C4.93479 0 5.1545 0.0907967 5.31918 0.25574L12.4459 7.38237C12.6113 7.54758 12.7018 7.76832 12.7012 8.00299C12.7018 8.2387 12.6114 8.45919 12.4459 8.62452L5.32582 15.7443C5.16114 15.9092 4.94143 16 4.70689 16C4.47249 16 4.25278 15.9092 4.08797 15.7443L3.56361 15.22C3.2224 14.8788 3.2224 14.3234 3.56361 13.9823L9.54253 8.00338Z" fill="currentColor"></path>
    <path d="M17.5425 8.00338L11.557 2.01756C11.3922 1.85314 11.3015 1.6333 11.3015 1.39889C11.3015 1.16436 11.3922 0.94465 11.557 0.779967L12.0815 0.25574C12.246 0.0907967 12.466 0 12.7004 0C12.9348 0 13.1545 0.0907967 13.3192 0.25574L20.4459 7.38237C20.6113 7.54758 20.7018 7.76832 20.7012 8.00299C20.7018 8.2387 20.6114 8.45919 20.4459 8.62452L13.3258 15.7443C13.1611 15.9092 12.9414 16 12.7069 16C12.4725 16 12.2528 15.9092 12.088 15.7443L11.5636 15.22C11.2224 14.8788 11.2224 14.3234 11.5636 13.9823L17.5425 8.00338Z" fill="currentColor"></path>
  </symbol>
  <symbol xmlns="http://www.w3.org/2000/svg" viewBox="0 0 16 16" id="ic_download">
    <path d="M11.9551 7.293C11.8741 7.114 11.6961 7 11.5001 7H9.50006V0.5C9.50006 0.224 9.27606 0 9.00006 0H7.00006C6.72406 0 6.50006 0.224 6.50006 0.5V7H4.50006C4.30406 7 4.12606 7.115 4.04506 7.293C3.96306 7.472 3.99506 7.681 4.12406 7.829L7.62406 11.829C7.71906 11.938 7.85606 12 8.00006 12C8.14406 12 8.28106 11.937 8.37606 11.829L11.8761 7.829C12.0061 7.682 12.0361 7.472 11.9551 7.293Z" fill="currentColor"></path>
    <path d="M13.5 11V14H2.5V11H0.5V15C0.5 15.553 0.948 16 1.5 16H14.5C15.053 16 15.5 15.553 15.5 15V11H13.5Z" fill="currentColor"></path>
  </symbol>
  <symbol xmlns="http://www.w3.org/2000/svg" viewBox="0 0 26 35" id="ic_download2">
    <path d="M15.1667 9.29688V0H1.625C0.724479 0 0 0.731445 0 1.64062V33.3594C0 34.2686 0.724479 35 1.625 35H24.375C25.2755 35 26 34.2686 26 33.3594V10.9375H16.7917C15.8979 10.9375 15.1667 10.1992 15.1667 9.29688ZM20.343 23.7453L13.8145 30.2873C13.3643 30.7392 12.6371 30.7392 12.1868 30.2873L5.65839 23.7453C4.97115 23.0569 5.45323 21.875 6.4201 21.875H10.8333V16.4062C10.8333 15.802 11.3181 15.3125 11.9167 15.3125H14.0833C14.6819 15.3125 15.1667 15.802 15.1667 16.4062V21.875H19.5799C20.5468 21.875 21.0289 23.0569 20.343 23.7453ZM25.526 7.17773L18.8974 0.478516C18.5927 0.170898 18.1797 0 17.7464 0H17.3333V8.75H26V8.33301C26 7.90234 25.8307 7.48535 25.526 7.17773Z" fill="currentColor"></path>
  </symbol>
  <symbol fill="none" xmlns="http://www.w3.org/2000/svg" viewBox="0 0 23 23" id="ic_eco">
    <path d="M22.998 11.547C22.9983 11.5415 22.9985 11.5359 22.9987 11.5305C23.0141 11.0375 22.6284 10.6246 22.1356 10.6065C21.9104 10.5982 16.5884 10.4385 13.4783 13.5479C12.2905 14.7354 11.6926 16.0247 11.7011 17.38C11.7069 18.2849 11.9829 19.0249 12.223 19.5391C11.7084 20.1852 11.221 20.8735 10.7624 21.6038C10.4991 22.0232 10.6255 22.5766 11.0449 22.84C11.1931 22.9331 11.358 22.9774 11.521 22.9774C11.8192 22.9774 12.1108 22.8288 12.2812 22.5575C13.9331 19.9271 15.887 17.971 18.2542 16.5776C18.681 16.3264 18.8233 15.7768 18.5721 15.35C18.3208 14.9233 17.7713 14.781 17.3445 15.0321C15.9815 15.8344 14.7214 16.8288 13.5732 18.0059C13.5267 17.8073 13.4959 17.5935 13.4945 17.3686C13.4889 16.4986 13.8984 15.6637 14.7463 14.8161C16.6253 12.9375 19.6825 12.5138 21.1825 12.4216C21.0929 13.9189 20.6728 16.97 18.7858 18.8565C18.0999 19.5423 17.4 19.9503 16.7054 20.0695C16.2173 20.1532 15.8895 20.6168 15.9732 21.1048C16.0481 21.5416 16.4271 21.85 16.8559 21.85C16.9062 21.85 16.9572 21.8457 17.0085 21.837C18.0758 21.6539 19.1004 21.0778 20.0537 20.1248C22.9989 17.1804 23.012 12.2525 22.998 11.547Z" fill="currentColor"></path>
    <path d="M9.21649 15.9748C8.68272 16.013 8.1588 16.0652 7.64898 16.1303C7.35223 14.9808 7.1636 13.7114 7.10426 12.398H11.4325C11.8845 12.398 12.2573 12.0633 12.3191 11.6284C12.354 11.5327 12.374 11.4298 12.374 11.3221V7.05032C13.3803 7.02211 14.3628 6.94687 15.2971 6.82823C15.4839 7.53728 15.6305 8.29911 15.7278 9.09907C15.7876 9.59065 16.2345 9.94082 16.7262 9.8809C17.2178 9.8211 17.5678 9.37404 17.508 8.88251C17.4093 8.07158 17.2632 7.2849 17.0748 6.53803C17.9303 6.36499 18.7224 6.15166 19.4272 5.9019C19.9575 6.65038 20.3874 7.48261 20.6934 8.38271C20.8202 8.75596 21.1688 8.99099 21.5422 8.99099C21.638 8.99099 21.7353 8.97558 21.8309 8.94302C22.2998 8.78363 22.5506 8.27431 22.3912 7.80546C20.8089 3.15115 16.441 0.0240479 11.5222 0.0240479C11.5179 0.0240479 11.5137 0.0246318 11.5095 0.0246768C11.4988 0.0245869 11.4881 0.0240479 11.4774 0.0240479C8.41167 0.0240479 5.52943 1.21789 3.36164 3.38564C1.19389 5.55348 0 8.43567 0 11.5014C0 13.9647 0.768928 16.313 2.22377 18.2923C3.64878 20.2311 5.60423 21.6525 7.87871 22.403C7.96357 22.431 8.06119 22.4479 8.1646 22.4479C8.42631 22.4479 8.72486 22.3394 8.94579 22.0272C9.06371 21.8605 9.192 21.5769 9.32713 21.1843C9.4826 20.7326 9.64338 20.2654 9.31738 19.8437C8.89983 19.3035 8.53057 18.6328 8.21814 17.8676C8.58619 17.8258 8.96209 17.7908 9.34447 17.7635C9.83843 17.7282 10.2102 17.2991 10.1748 16.8052C10.1395 16.3111 9.71067 15.9393 9.21649 15.9748ZM18.1454 4.43282C17.647 4.57944 17.1092 4.7085 16.5395 4.81847C16.25 4.05004 15.9109 3.34988 15.529 2.74196C15.5117 2.71424 15.4939 2.68729 15.4763 2.66002C16.4593 3.0994 17.3615 3.69911 18.1454 4.43282ZM12.374 2.04329C13.2666 2.49264 14.0933 3.58712 14.718 5.09308C13.9656 5.17758 13.1795 5.23274 12.374 5.25632V2.04329ZM8.53853 4.42073C9.12839 3.24095 9.84234 2.42036 10.5807 2.04634V5.25628C9.77361 5.23265 8.98599 5.17735 8.23216 5.09258C8.3287 4.86083 8.43067 4.63636 8.53853 4.42073ZM10.5807 7.05032V10.6048H7.10336C7.16127 9.26771 7.34841 7.98874 7.65276 6.8276C8.58848 6.94655 9.57263 7.02207 10.5807 7.05032ZM7.45676 2.69187C7.27402 2.97923 7.09968 3.28834 6.9345 3.6187C6.74502 3.99761 6.57108 4.39859 6.41264 4.81793C5.86001 4.7112 5.33712 4.58663 4.85156 4.44535C5.61461 3.72849 6.49337 3.13327 7.45676 2.69187ZM3.56981 5.91672C4.26331 6.15984 5.03979 6.36791 5.87735 6.53745C5.55962 7.80191 5.36592 9.17764 5.3086 10.6047H1.83452C1.99453 8.86988 2.61396 7.26617 3.56981 5.91672ZM1.83443 12.398H5.30891C5.36637 13.8112 5.55872 15.1731 5.86927 16.4224C5.01854 16.5952 4.23213 16.8073 3.53589 17.0532C2.59078 15.7 1.99107 14.1032 1.83443 12.398ZM4.80444 18.5272C5.29759 18.3824 5.83221 18.254 6.39944 18.144C6.69974 18.9484 7.05556 19.6807 7.46175 20.3176C6.46727 19.8659 5.57314 19.2572 4.80444 18.5272Z" fill="currentColor"></path>
  </symbol>
  <symbol xmlns="http://www.w3.org/2000/svg" viewBox="0 0 19 20" id="ic_email">
    <path d="M17.2188 3.46875H1.78125C1.45283 3.46875 1.1875 3.73408 1.1875 4.0625V15.9375C1.1875 16.2659 1.45283 16.5312 1.78125 16.5312H17.2188C17.5472 16.5312 17.8125 16.2659 17.8125 15.9375V4.0625C17.8125 3.73408 17.5472 3.46875 17.2188 3.46875ZM16.4766 5.52461V15.1953H2.52344V5.52461L2.01133 5.12568L2.74053 4.18867L3.53467 4.80654H15.4672L16.2613 4.18867L16.9905 5.12568L16.4766 5.52461ZM15.4672 4.80469L9.5 9.44336L3.53281 4.80469L2.73867 4.18682L2.00947 5.12383L2.52158 5.52275L8.85986 10.4509C9.04214 10.5925 9.26639 10.6694 9.49722 10.6694C9.72804 10.6694 9.95229 10.5925 10.1346 10.4509L16.4766 5.52461L16.9887 5.12568L16.2595 4.18867L15.4672 4.80469Z" fill="currentColor"></path>
  </symbol>
  <symbol xmlns="http://www.w3.org/2000/svg" viewBox="0 0 38 38" id="ic_events">
    <path d="M34.0665 4.12202C33.9888 4.11887 33.9111 4.11834 33.8334 4.12053H30.9032V1.60243C30.9033 0.595194 29.9418 0 28.9346 0H26.2334C25.2262 0 24.4937 0.595194 24.4937 1.60243V4.12044H13.5057V1.60243C13.5057 0.595194 12.7732 0 11.766 0H9.06471C8.05756 0 7.09606 0.595194 7.09606 1.60243V4.12044H4.16601C2.2956 4.0683 0.737065 5.54235 0.684925 7.41268C0.682734 7.49032 0.68326 7.56814 0.686414 7.64578V34.1084C0.686414 36.1228 2.15144 37.9999 4.16592 37.9999H33.8335C35.8479 37.9999 37.313 36.1228 37.313 34.1084V7.64578C37.3895 5.77624 35.936 4.19861 34.0665 4.12202ZM26.2334 1.83133H29.072V6.86743H26.2334V1.83133ZM9.06479 1.83133H11.6745V6.86743H9.06479V1.83133ZM35.4816 34.1084C35.4816 35.1156 34.8407 36.1686 33.8335 36.1686H4.16601C3.15877 36.1686 2.51783 35.1156 2.51783 34.1084V14.6506H35.4816V34.1084ZM35.4816 7.64578V12.8193H2.51774V7.64578C2.44019 6.78962 3.0714 6.03265 3.92756 5.9551C4.00678 5.94791 4.08652 5.94686 4.16592 5.95186H7.09606V6.9591C7.09606 7.96634 8.05747 8.69885 9.06471 8.69885H11.766C12.7012 8.72453 13.48 7.9871 13.5057 7.0519C13.5066 7.02097 13.5066 6.99003 13.5057 6.9591V5.95177H24.4937V6.95901C24.468 7.89422 25.2054 8.67309 26.1406 8.69876C26.1716 8.69964 26.2025 8.69964 26.2334 8.69876H28.9347C29.9419 8.69876 30.9033 7.96625 30.9033 6.95901V5.95177H33.8335C34.6915 5.8977 35.4308 6.54942 35.4849 7.40742C35.4899 7.48681 35.4888 7.56656 35.4816 7.64578Z" fill="currentColor"></path>
    <path d="M13.9187 27.1497L13.0946 31.7281C13.062 31.9244 13.0942 32.1262 13.1865 32.3026C13.4209 32.7506 13.9742 32.9239 14.4223 32.6895L18.5427 30.5377L22.6632 32.6895L23.0752 32.781C23.2739 32.7845 23.4678 32.7199 23.6246 32.5979C23.8983 32.398 24.0391 32.0634 23.9909 31.728L23.1668 27.1496L26.509 23.9449C26.7481 23.6864 26.8349 23.3219 26.7379 22.9835C26.6146 22.6706 26.3368 22.445 26.0054 22.3883L21.427 21.7015L19.3668 17.5352C19.277 17.3498 19.1273 17.2 18.9419 17.1103C18.4867 16.8899 17.9391 17.0802 17.7186 17.5352L15.6584 21.7015L11.0801 22.3883C10.7487 22.4449 10.4709 22.6706 10.3476 22.9835C10.2506 23.3219 10.3374 23.6864 10.5765 23.9449L13.9187 27.1497ZM16.4368 23.4413C16.7243 23.3983 16.9679 23.2069 17.0777 22.9377L18.5427 20.0076L20.0078 22.9377C20.1177 23.2069 20.3612 23.3983 20.6487 23.4413L23.8993 23.8991L21.5644 26.1425C21.3469 26.3578 21.2449 26.6638 21.2896 26.9666L21.839 30.2172L18.9547 28.6606L18.5426 28.569L18.1306 28.6606L15.2463 30.2172L15.7957 26.9666C15.8405 26.6638 15.7384 26.3578 15.5209 26.1425L13.186 23.8991L16.4368 23.4413Z" fill="currentColor"></path>
  </symbol>
  <symbol xmlns="http://www.w3.org/2000/svg" viewBox="0 0 15 15" id="ic_facebook">
    <path d="M14.3184 2.39937C14.3184 1.16621 13.2303 0.078125 11.9971 0.078125H2.6396C1.40644 0.078125 0.318359 1.16621 0.318359 2.39937V11.7569C0.318359 12.99 1.40644 14.0781 2.6396 14.0781H7.35463V8.78279H5.6137V6.46155H7.35463V5.51854C7.35463 3.92268 8.51525 2.54444 9.96603 2.54444H11.852V4.86568H9.96603C9.74841 4.86568 9.53079 5.08331 9.53079 5.51854V6.46155H11.852V8.78279H9.53079V14.0781H11.9971C13.2303 14.0781 14.3184 12.99 14.3184 11.7569V2.39937Z" fill="currentColor"></path>
  </symbol>
  <symbol xmlns="http://www.w3.org/2000/svg" viewBox="0 0 16 15" id="ic_heart">
    <path d="M8.00098 12.7734C7.6943 12.7737 7.39401 12.6858 7.13584 12.5203C6.40342 12.0495 4.99482 11.0833 3.80332 9.9035C2.34111 8.45448 1.59961 7.08983 1.59961 5.84647C1.59961 4.9825 1.85508 4.1909 2.33848 3.5575C2.79688 2.95523 3.44441 2.52453 4.17706 2.33458C4.90971 2.14463 5.68494 2.20646 6.37822 2.51014C6.99873 2.77791 7.55215 3.22938 8.00098 3.8285C8.4498 3.22791 9.00322 2.77645 9.62373 2.51014C10.317 2.20646 11.0922 2.14463 11.8249 2.33458C12.5575 2.52453 13.2051 2.95523 13.6635 3.5575C14.1469 4.1909 14.4023 4.9825 14.4023 5.84647C14.4023 7.08983 13.6608 8.45389 12.1986 9.90233C11.0071 11.0821 9.59912 12.0483 8.86611 12.5191C8.60807 12.6851 8.30777 12.7733 8.00098 12.7734ZM5.01738 2.96073C4.78566 2.96052 4.55494 2.99106 4.33125 3.05155C3.76981 3.20568 3.27433 3.5395 2.92061 4.00194C2.53564 4.50643 2.33203 5.14451 2.33203 5.84764C2.33203 6.88827 3.00029 8.07772 4.31865 9.38319C5.46123 10.5158 6.82266 11.4486 7.53164 11.9027C7.67163 11.9921 7.83428 12.0397 8.00039 12.0397C8.1665 12.0397 8.32915 11.9921 8.46914 11.9027C9.17813 11.4474 10.5384 10.5146 11.6821 9.38319C13.0005 8.07772 13.6687 6.88827 13.6687 5.84764C13.6687 5.14451 13.4651 4.5076 13.0802 4.00194C12.7264 3.5395 12.231 3.20568 11.6695 3.05155C10.6685 2.77967 9.26191 3.06385 8.31562 4.67694C8.28337 4.73206 8.23724 4.77778 8.18184 4.80956C8.12643 4.84133 8.06367 4.85805 7.9998 4.85805C7.93594 4.85805 7.87318 4.84133 7.81777 4.80956C7.76237 4.77778 7.71624 4.73206 7.68398 4.67694C6.94043 3.40721 5.91035 2.96073 5.01738 2.96073Z" fill="currentColor"></path>
  </symbol>
  <symbol xmlns="http://www.w3.org/2000/svg" viewBox="0 0 15 15" id="ic_instagram">
    <path d="M12.5928 0.199219H2.25556C1.08845 0.199219 0.199219 1.08845 0.199219 2.25556V12.5928C0.199219 13.7599 1.08845 14.6492 2.25556 14.6492H12.5928C13.7599 14.6492 14.6492 13.7599 14.6492 12.5928V2.25556C14.6492 1.08845 13.7599 0.199219 12.5928 0.199219ZM7.4242 11.7592C9.814 11.7592 11.7592 9.86956 11.7592 7.59092C11.7592 7.20188 11.7036 6.75727 11.5925 6.42381H12.8151V12.3149C12.8151 12.5928 12.5928 12.8707 12.2594 12.8707H2.58902C2.31114 12.8707 2.03325 12.6484 2.03325 12.3149V6.36823H3.31152C3.20037 6.75727 3.14479 7.14631 3.14479 7.53534C3.08921 9.86957 5.0344 11.7592 7.4242 11.7592ZM7.4242 10.0919C5.86805 10.0919 4.64536 8.86918 4.64536 7.36861C4.64536 5.86804 5.86805 4.64535 7.4242 4.64535C8.98035 4.64535 10.203 5.86804 10.203 7.36861C10.203 8.92476 8.98035 10.0919 7.4242 10.0919ZM12.7596 4.14516C12.7596 4.47862 12.4817 4.75651 12.1482 4.75651H10.5921C10.2586 4.75651 9.98073 4.47862 9.98073 4.14516V2.64459C9.98073 2.31113 10.2586 2.03325 10.5921 2.03325H12.1482C12.4817 2.03325 12.7596 2.31113 12.7596 2.64459V4.14516Z" fill="currentColor"></path>
  </symbol>
  <symbol xmlns="http://www.w3.org/2000/svg" viewBox="0 0 31 7" id="ic_link_arrow">
    <path d="M29.0894 3.95412H0.496681V3.9458H0V3.03755H29.0894L26.4696 0.642232L26.6627 0.465712L26.988 0.168231L27.172 0L31 3.5L27.172 7L26.9602 6.80633L26.6723 6.54308L26.4696 6.35777L29.0894 3.95412Z" fill="currentColor"></path>
  </symbol>
  <symbol xmlns="http://www.w3.org/2000/svg" viewBox="0 0 22 32" id="ic_location">
    <path d="M11.0672 0.0078125H10.9328C8.66403 0.0460443 0 1.22358 0 11.4773C0 20.8671 10.3874 24.1627 10.3874 31.5108C10.3874 31.8014 10.6482 31.9543 10.9328 31.9925H11.0672C11.3597 31.9925 11.6126 31.8014 11.6126 31.5108C11.6126 24.1627 22 20.8671 22 11.4773C22 1.22358 13.336 0.0460443 11.0672 0.0078125Z" fill="currentColor"></path>
    <path d="M5.19366 13.3951C4.9761 12.7878 4.86651 12.1492 4.86955 11.5065C4.86987 10.1231 5.37904 8.785 6.30597 7.73151C7.2329 6.67803 8.51711 5.97791 9.92884 5.75643V6.88809L11.8498 4.93827L9.92884 2.99609V4.14305C8.78224 4.28358 7.68318 4.67249 6.71351 5.28083C5.74384 5.88917 4.92854 6.70126 4.32832 7.65662C3.72811 8.61199 3.35844 9.68601 3.24684 10.7987C3.13524 11.9114 3.2846 13.0342 3.68378 14.0833L4.21342 13.0128L5.19366 13.3951Z" fill="var(--color2)"></path>
    <path d="M18.5759 11.5091C18.5746 9.76695 17.9407 8.08054 16.7848 6.74445C15.6289 5.40836 14.0245 4.50751 12.2518 4.19922L12.9474 5.17031L12.1016 5.78966C12.963 5.95247 13.7772 6.29541 14.4873 6.79447C15.1974 7.29354 15.7861 7.93667 16.2123 8.67886C16.6385 9.42105 16.8919 10.2444 16.9547 11.0912C17.0175 11.938 16.8882 12.7879 16.5759 13.5813L15.564 13.0155L16.3545 15.5999L19.0581 14.9653L18.0304 14.3842C18.4105 13.4711 18.596 12.4932 18.5759 11.5091Z" fill="var(--color2)"></path>
    <path d="M15.4143 15.3379C14.8395 15.9787 14.1266 16.4899 13.3257 16.8358C12.5248 17.1816 11.6554 17.3537 10.7785 17.3398C9.90152 17.326 9.03835 17.1266 8.24958 16.7556C7.46081 16.3847 6.76556 15.8512 6.21268 15.1927L7.22454 14.6268L4.52098 13.9922L3.73047 16.5767L4.75814 15.9955C5.45373 16.8865 6.34849 17.6139 7.37556 18.1233C8.40263 18.6328 9.53545 18.9112 10.6894 18.9376C11.8433 18.9641 12.9885 18.738 14.0394 18.2762C15.0903 17.8144 16.0197 17.1289 16.7581 16.2708L15.5407 16.3626L15.4143 15.3379Z" fill="var(--color2)"></path>
  </symbol>
  <symbol xmlns="http://www.w3.org/2000/svg" viewBox="0 0 19 19" id="ic_location2">
    <path d="M9.03684 18.7521C9.14008 18.907 9.3139 19 9.5 19C9.6861 19 9.85992 18.907 9.96316 18.7521C11.2805 16.7761 13.2208 14.3358 14.573 11.8539C15.6541 9.86942 16.1797 8.1769 16.1797 6.67969C16.1797 2.99651 13.1832 0 9.5 0C5.81682 0 2.82031 2.99651 2.82031 6.67969C2.82031 8.1769 3.34589 9.86942 4.42704 11.8539C5.77815 14.3339 7.7222 16.7802 9.03684 18.7521ZM9.5 1.11328C12.5693 1.11328 15.0664 3.61037 15.0664 6.67969C15.0664 7.98609 14.5852 9.50438 13.5954 11.3213C12.4299 13.4606 10.7667 15.6307 9.5 17.4551C8.23349 15.631 6.57021 13.4607 5.40465 11.3213C4.41479 9.50438 3.93359 7.98609 3.93359 6.67969C3.93359 3.61037 6.43068 1.11328 9.5 1.11328Z" fill="currentColor"></path>
    <path d="M9.5 10.0195C11.3416 10.0195 12.8398 8.52128 12.8398 6.67969C12.8398 4.8381 11.3416 3.33984 9.5 3.33984C7.65841 3.33984 6.16016 4.8381 6.16016 6.67969C6.16016 8.52128 7.65841 10.0195 9.5 10.0195ZM9.5 4.45312C10.7277 4.45312 11.7266 5.45196 11.7266 6.67969C11.7266 7.90741 10.7277 8.90625 9.5 8.90625C8.27227 8.90625 7.27344 7.90741 7.27344 6.67969C7.27344 5.45196 8.27227 4.45312 9.5 4.45312Z" fill="currentColor"></path>
  </symbol>
  <symbol xmlns="http://www.w3.org/2000/svg" viewBox="0 0 22 32" id="ic_location3">
    <path d="M11.0672 0.0078125H10.9328C8.66403 0.0460443 0 1.22358 0 11.4773C0 20.8671 10.3874 24.1627 10.3874 31.5108C10.3874 31.8014 10.6482 31.9543 10.9328 31.9925H11.0672C11.3597 31.9925 11.6126 31.8014 11.6126 31.5108C11.6126 24.1627 22 20.8671 22 11.4773C22 1.22358 13.336 0.0460443 11.0672 0.0078125Z" fill="currentColor"></path>
    <path d="M5.19366 13.3961C4.9761 12.7888 4.86651 12.1502 4.86955 11.5075C4.86987 10.1241 5.37904 8.78598 6.30597 7.73249C7.2329 6.679 8.51711 5.97889 9.92884 5.75741V6.88907L11.8498 4.93925L9.92884 2.99707V4.14402C8.78224 4.28455 7.68318 4.67347 6.71351 5.28181C5.74384 5.89015 4.92854 6.70223 4.32832 7.6576C3.72811 8.61296 3.35844 9.68699 3.24684 10.7997C3.13524 11.9124 3.2846 13.0351 3.68378 14.0843L4.21342 13.0138L5.19366 13.3961Z" fill="var(--color2)"></path>
    <path d="M18.5759 11.5082C18.5746 9.76597 17.9407 8.07957 16.7848 6.74348C15.6289 5.40739 14.0245 4.50653 12.2518 4.19824L12.9474 5.16933L12.1016 5.78868C12.963 5.95149 13.7772 6.29443 14.4873 6.7935C15.1974 7.29256 15.7861 7.93569 16.2123 8.67788C16.6385 9.42007 16.8919 10.2434 16.9547 11.0902C17.0175 11.937 16.8882 12.7869 16.5759 13.5803L15.564 13.0145L16.3545 15.599L19.0581 14.9643L18.0304 14.3832C18.4105 13.4701 18.596 12.4922 18.5759 11.5082Z" fill="var(--color2)"></path>
    <path d="M15.4143 15.3389C14.8395 15.9797 14.1266 16.4909 13.3257 16.8368C12.5248 17.1826 11.6554 17.3546 10.7785 17.3408C9.90152 17.3269 9.03835 17.1275 8.24958 16.7566C7.46081 16.3857 6.76556 15.8522 6.21268 15.1936L7.22454 14.6278L4.52098 13.9932L3.73047 16.5776L4.75814 15.9965C5.45373 16.8875 6.34849 17.6148 7.37556 18.1243C8.40263 18.6338 9.53545 18.9121 10.6894 18.9386C11.8433 18.9651 12.9885 18.739 14.0394 18.2772C15.0903 17.8154 16.0197 17.1298 16.7581 16.2718L15.5407 16.3635L15.4143 15.3389Z" fill="var(--color2)"></path>
  </symbol>
  <symbol xmlns="http://www.w3.org/2000/svg" viewBox="0 0 22 32" id="ic_location4">
    <path d="M11.0672 0.0078125H10.9328C8.66403 0.0460443 0 1.22358 0 11.4773C0 20.8671 10.3874 24.1627 10.3874 31.5108C10.3874 31.8014 10.6482 31.9543 10.9328 31.9925H11.0672C11.3597 31.9925 11.6126 31.8014 11.6126 31.5108C11.6126 24.1627 22 20.8671 22 11.4773C22 1.22358 13.336 0.0460443 11.0672 0.0078125Z" fill="currentColor"></path>
    <path d="M5.19366 13.3961C4.9761 12.7888 4.86651 12.1502 4.86955 11.5075C4.86987 10.1241 5.37904 8.78598 6.30597 7.73249C7.2329 6.679 8.51711 5.97889 9.92884 5.75741V6.88907L11.8498 4.93925L9.92884 2.99707V4.14402C8.78224 4.28455 7.68318 4.67347 6.71351 5.28181C5.74384 5.89015 4.92854 6.70223 4.32832 7.6576C3.72811 8.61296 3.35844 9.68699 3.24684 10.7997C3.13524 11.9124 3.2846 13.0351 3.68378 14.0843L4.21342 13.0138L5.19366 13.3961Z" fill="var(--color2)"></path>
    <path d="M18.5759 11.5082C18.5746 9.76597 17.9407 8.07957 16.7848 6.74348C15.6289 5.40739 14.0245 4.50653 12.2518 4.19824L12.9474 5.16933L12.1016 5.78868C12.963 5.95149 13.7772 6.29443 14.4873 6.7935C15.1974 7.29256 15.7861 7.93569 16.2123 8.67788C16.6385 9.42007 16.8919 10.2434 16.9547 11.0902C17.0175 11.937 16.8882 12.7869 16.5759 13.5803L15.564 13.0145L16.3545 15.599L19.0581 14.9643L18.0304 14.3832C18.4105 13.4701 18.596 12.4922 18.5759 11.5082Z" fill="var(--color2)"></path>
    <path d="M15.4143 15.3389C14.8395 15.9797 14.1266 16.4909 13.3257 16.8368C12.5248 17.1826 11.6554 17.3546 10.7785 17.3408C9.90152 17.3269 9.03835 17.1275 8.24958 16.7566C7.46081 16.3857 6.76556 15.8522 6.21268 15.1936L7.22454 14.6278L4.52098 13.9932L3.73047 16.5776L4.75814 15.9965C5.45373 16.8875 6.34849 17.6148 7.37556 18.1243C8.40263 18.6338 9.53545 18.9121 10.6894 18.9386C11.8433 18.9651 12.9885 18.739 14.0394 18.2772C15.0903 17.8154 16.0197 17.1298 16.7581 16.2718L15.5407 16.3635L15.4143 15.3389Z" fill="var(--color2)"></path>
  </symbol>
  <symbol xmlns="http://www.w3.org/2000/svg" viewBox="0 0 19 20" id="ic_phone">
    <path d="M17.8333 13.9152C17.8018 13.8891 14.2458 11.3442 13.281 11.5111C12.8173 11.593 12.5519 11.9089 12.0205 12.5424C11.935 12.6446 11.7289 12.8886 11.5698 13.0626C11.2339 12.9531 10.9063 12.8198 10.5895 12.6636C8.95406 11.8673 7.63265 10.5459 6.83644 8.91047C6.6802 8.59365 6.54686 8.26606 6.43744 7.93019C6.612 7.77047 6.85663 7.56444 6.96112 7.47656C7.59109 6.94812 7.90697 6.68272 7.98891 6.21841C8.15694 5.25712 5.61094 1.69819 5.58481 1.66612C5.46887 1.50169 5.31786 1.36505 5.14269 1.26607C4.96752 1.16708 4.77256 1.10823 4.57187 1.09375C3.53994 1.09375 0.59375 4.91512 0.59375 5.55934C0.59375 5.59675 0.647781 9.39913 5.33663 14.1687C10.1009 18.8522 13.9032 18.9062 13.9407 18.9062C14.5849 18.9062 18.4062 15.9601 18.4062 14.9281C18.3918 14.7274 18.3329 14.5324 18.2338 14.3572C18.1347 14.182 17.9979 14.031 17.8333 13.9152ZM13.8753 17.7152C13.3564 17.6724 10.1656 17.2515 6.17619 13.3321C2.23666 9.32134 1.82638 6.12163 1.78541 5.62584C2.56368 4.40429 3.5036 3.29361 4.57959 2.324C4.60334 2.34775 4.63481 2.38338 4.67519 2.42969C5.5004 3.55617 6.21126 4.7621 6.79725 6.02959C6.60669 6.2213 6.40528 6.4019 6.194 6.5705C5.86636 6.82014 5.56551 7.10309 5.29625 7.41481L5.15197 7.61669L5.19472 7.86072C5.32037 8.40503 5.51282 8.93172 5.76769 9.42881C6.68081 11.3039 8.19599 12.8189 10.0712 13.7317C10.5682 13.987 11.0949 14.1796 11.6393 14.3053L11.8833 14.348L12.0852 14.2037C12.3981 13.9333 12.6822 13.6313 12.9331 13.3024C13.1189 13.0804 13.3677 12.7841 13.4615 12.7004C14.7326 13.2858 15.9416 13.9975 17.0703 14.8248C17.1196 14.8664 17.154 14.8984 17.1772 14.9192C16.2077 15.9955 15.097 16.9357 13.8753 17.714V17.7152Z" fill="currentColor"></path>
  </symbol>
  <symbol xmlns="http://www.w3.org/2000/svg" viewBox="0 0 14 14" id="ic_search">
    <path fill-rule="evenodd" clip-rule="evenodd" d="M1.4 5.95C1.4 3.4371 3.4371 1.4 5.95 1.4C8.4629 1.4 10.5 3.4371 10.5 5.95C10.5 8.4629 8.4629 10.5 5.95 10.5C3.4371 10.5 1.4 8.4629 1.4 5.95ZM5.95 0C2.66391 0 0 2.66391 0 5.95C0 9.23609 2.66391 11.9 5.95 11.9C7.34081 11.9 8.62016 11.4228 9.63327 10.6232L12.805 13.795C13.0784 14.0683 13.5216 14.0683 13.795 13.795C14.0683 13.5216 14.0683 13.0784 13.795 12.805L10.6232 9.63327C11.4228 8.62016 11.9 7.34081 11.9 5.95C11.9 2.66391 9.23609 0 5.95 0Z" fill="currentColor"></path>
  </symbol>
  <symbol xmlns="http://www.w3.org/2000/svg" viewBox="0 0 18 18" id="ic_telegram">
    <path d="M0.616455 8.46846L4.52484 10.1391L6.04843 15.7587C6.11468 16.1384 6.51214 16.2143 6.77712 15.9865L8.96314 13.9361C9.16187 13.7083 9.4931 13.7083 9.75807 13.9361L13.6664 17.2016C13.9314 17.4294 14.3289 17.2775 14.3951 16.8978L17.3098 0.9504C17.3761 0.570701 17.0449 0.191004 16.7136 0.342884L0.616455 7.48124C0.218994 7.63312 0.218994 8.31658 0.616455 8.46846ZM5.84971 9.3038L13.5339 3.91206C13.6664 3.83612 13.7989 4.06394 13.6664 4.13988L7.3733 10.8985C7.17457 11.1264 6.97584 11.4301 6.97584 11.8098L6.77712 13.6324C6.77712 13.8602 6.44589 13.9361 6.37965 13.6324L5.58472 10.291C5.38599 9.91132 5.51849 9.45568 5.84971 9.3038Z" fill="currentColor"></path>
  </symbol>
  <symbol xmlns="http://www.w3.org/2000/svg" viewBox="0 0 9 13" id="ic_time">
    <path d="M1.23318 10.1843C1.23318 9.89568 1.23783 9.62055 1.23195 9.34614C1.22119 8.85168 1.416 8.46328 1.81737 8.16242C2.51487 7.63983 3.20479 7.10737 3.89764 6.579C3.92995 6.55495 3.96078 6.52754 4.00166 6.49411C3.69059 6.24784 3.38687 6.00951 3.08364 5.77094C2.64311 5.42511 2.20552 5.07639 1.76206 4.73536C1.37659 4.43907 1.19353 4.05452 1.20112 3.57642C1.20503 3.32726 1.20112 3.07811 1.20112 2.82319C1.11668 2.81477 1.04106 2.8126 0.967882 2.79914C0.702586 2.74935 0.510956 2.53988 0.506796 2.27726C0.500269 1.86505 0.500269 1.45276 0.506796 1.04039C0.510711 0.772 0.70846 0.55844 0.977427 0.514189C1.03592 0.504768 1.0951 0.500023 1.15437 0.5C3.38394 0.5 5.61342 0.5 7.84282 0.5C8.18301 0.5 8.44757 0.645981 8.46837 0.928082C8.50227 1.41305 8.50276 1.89972 8.46984 2.38476C8.45295 2.63897 8.20332 2.79986 7.93337 2.8126C7.89201 2.81477 7.85041 2.8126 7.79534 2.8126C7.79534 3.09134 7.79412 3.35709 7.79534 3.62283C7.79779 3.98935 7.6786 4.30945 7.41893 4.57471C7.34981 4.64233 7.27623 4.70539 7.19867 4.7635C6.50786 5.30782 5.81647 5.85142 5.12451 6.3943C5.08585 6.4246 5.04865 6.45731 5.00215 6.49675C5.31076 6.72739 5.60983 6.95081 5.90768 7.17471C6.36289 7.51493 6.81802 7.85531 7.27307 8.19585C7.64214 8.47218 7.82251 8.84182 7.82765 9.29468C7.83083 9.58592 7.82765 9.8774 7.82765 10.1903C7.8739 10.1903 7.91404 10.1884 7.95418 10.1903C8.09775 10.1963 8.23359 10.2559 8.33397 10.3569C8.43435 10.458 8.4917 10.5929 8.49431 10.734C8.4997 11.1381 8.4997 11.542 8.49431 11.9459C8.49089 12.248 8.253 12.4808 7.94684 12.494C7.91306 12.4954 7.87904 12.494 7.84502 12.494C5.6157 12.494 3.38614 12.4889 1.15658 12.4988C0.768176 12.5007 0.47963 12.2472 0.498964 11.8514C0.51634 11.5108 0.502146 11.1686 0.502635 10.8271C0.502635 10.4103 0.715394 10.1979 1.14091 10.19C1.16661 10.1884 1.19108 10.1864 1.23318 10.1843ZM7.21751 10.1843C7.21751 9.88702 7.21605 9.60444 7.21751 9.32185C7.21898 9.03927 7.10396 8.81946 6.87317 8.64847C6.11236 8.08474 5.35367 7.5179 4.5971 6.94792C4.52221 6.89165 4.47596 6.89405 4.40352 6.94985C3.66278 7.51886 2.91991 8.08539 2.17493 8.64943C1.94879 8.81994 1.83719 9.03422 1.8416 9.31416C1.84576 9.56812 1.8416 9.82208 1.8416 10.076C1.8416 10.1119 1.84747 10.1482 1.85065 10.1843H7.21751ZM1.82055 2.8191C1.81786 2.8571 1.81321 2.89293 1.81296 2.929C1.81296 3.15796 1.81296 3.38595 1.81296 3.6161C1.81296 3.87896 1.91575 4.08843 2.1277 4.25293C2.63969 4.65023 3.14776 5.05234 3.65755 5.45252L4.49358 6.10956C4.50572 6.10543 4.51743 6.1002 4.52858 6.09392C5.32593 5.46864 6.12721 4.84575 6.91649 4.20964C7.02956 4.11849 7.14116 3.96386 7.15511 3.8287C7.18937 3.49705 7.16636 3.15988 7.16636 2.81862L1.82055 2.8191ZM1.12329 1.10749V2.20511H7.88051V1.10749H1.12329ZM7.88173 10.7961H1.12182V11.8851H7.88173V10.7961Z" fill="currentColor"></path>
  </symbol>
  <symbol xmlns="http://www.w3.org/2000/svg" viewBox="0 0 22 22" id="ic_tooltip">
    <circle cx="11" cy="11" r="10.5" stroke="currentColor" fill="none"></circle>
    <path d="M12.0609 16H10.9509V9.25H12.0609V16ZM10.7409 7.045C10.7209 6.735 10.8409 6.52 11.1009 6.4C11.3709 6.27 11.6359 6.27 11.8959 6.4C12.1659 6.52 12.2859 6.735 12.2559 7.045C12.2559 7.265 12.1859 7.45 12.0459 7.6C11.9059 7.74 11.7259 7.81 11.5059 7.81C11.2859 7.81 11.1009 7.74 10.9509 7.6C10.8109 7.46 10.7409 7.275 10.7409 7.045Z" fill="currentColor"></path>
  </symbol>
  <symbol xmlns="http://www.w3.org/2000/svg" viewBox="0 0 20 15" id="ic_video">
    <path d="M19.5881 2.19109C19.3574 1.33443 18.682 0.658976 17.8253 0.428334C16.2602 0 9.99996 0 9.99996 0C9.99996 0 3.73969 0 2.17462 0.41186C1.33443 0.642501 0.642501 1.33443 0.41186 2.19109C0 3.75616 0 7.00162 0 7.00162C0 7.00162 0 10.2635 0.41186 11.8121C0.642501 12.6688 1.31795 13.3443 2.17462 13.5749C3.75616 14.0032 9.99996 14.0032 9.99996 14.0032C9.99996 14.0032 16.2602 14.0032 17.8253 13.5914C18.682 13.3607 19.3574 12.6853 19.5881 11.8286C19.9999 10.2635 19.9999 7.01809 19.9999 7.01809C19.9999 7.01809 20.0164 3.75616 19.5881 2.19109Z" fill="currentColor"></path>
    <path d="M8.00781 4.00391V10.0006L13.2137 7.00224L8.00781 4.00391Z" fill="white"></path>
  </symbol>
  <symbol xmlns="http://www.w3.org/2000/svg" viewBox="0 0 48 48" id="ic_video_play">
    <circle cx="24" cy="24" r="23.5" stroke="currentColor" fill="none"></circle>
    <path d="M20.9769 17.3087C19.7147 16.5847 18.6914 17.1778 18.6914 18.6324V29.3666C18.6914 30.8226 19.7147 31.415 20.9769 30.6917L30.3591 25.311C31.6217 24.5867 31.6217 23.4133 30.3591 22.6892L20.9769 17.3087Z" fill="currentColor"></path>
  </symbol>
  <symbol xmlns="http://www.w3.org/2000/svg" viewBox="0 0 15 15" id="ic_view">
    <path d="M14.411 7.20722C14.286 7.02391 11.3059 2.71875 7.49993 2.71875C3.69392 2.71875 0.713774 7.02391 0.58884 7.20704C0.470387 7.38095 0.470387 7.61682 0.58884 7.79073C0.713774 7.97404 3.69392 12.2792 7.49993 12.2792C11.3059 12.2792 14.286 7.97401 14.411 7.79087C14.5296 7.617 14.5296 7.38095 14.411 7.20722ZM7.49993 11.2902C4.6964 11.2902 2.26824 8.43277 1.54946 7.49864C2.26731 6.56368 4.69038 3.70776 7.49993 3.70776C10.3033 3.70776 12.7313 6.56468 13.4504 7.49931C12.7326 8.43423 10.3095 11.2902 7.49993 11.2902Z" fill="currentColor"></path>
    <path d="M7.49971 4.53125C5.97278 4.53125 4.73047 5.8623 4.73047 7.4983C4.73047 9.1343 5.97278 10.4653 7.49971 10.4653C9.02664 10.4653 10.2689 9.1343 10.2689 7.4983C10.2689 5.8623 9.02664 4.53125 7.49971 4.53125ZM7.49971 9.47631C6.4817 9.47631 5.65357 8.58899 5.65357 7.4983C5.65357 6.4076 6.48173 5.52028 7.49971 5.52028C8.51769 5.52028 9.34585 6.4076 9.34585 7.4983C9.34585 8.58899 8.51771 9.47631 7.49971 9.47631Z" fill="currentColor"></path>
  </symbol>
  <symbol xmlns="http://www.w3.org/2000/svg" viewBox="0 0 19 13" id="ic_vkontakte">
    <path d="M18.055 11.396C18.055 11.3155 17.9838 11.3155 17.9838 11.235C17.6989 10.5908 17.0578 9.78557 16.203 8.89983C15.7756 8.49722 15.5619 8.17513 15.4194 8.01408C15.2057 7.692 15.2058 7.45044 15.277 7.12835C15.3482 6.88679 15.6331 6.48417 16.1318 5.75947C16.4167 5.35687 16.5591 5.11531 16.7728 4.87374C17.8413 3.26331 18.3399 2.21652 18.1975 1.73339L18.1263 1.65287C18.055 1.57235 17.9838 1.49183 17.8413 1.49183C17.6988 1.41131 17.4852 1.41131 17.2715 1.49183H14.5647C14.4934 1.49183 14.4934 1.49183 14.351 1.49183C14.2797 1.49183 14.2085 1.49183 14.2085 1.49183H14.1373H14.066L13.9948 1.57235C13.9236 1.65287 13.9236 1.65287 13.9236 1.73339C13.6387 2.61913 13.2825 3.34382 12.9263 4.14904C12.7126 4.55165 12.499 4.95426 12.2853 5.27635C12.0716 5.59844 11.9291 5.84 11.7866 6.00104C11.6442 6.16209 11.5017 6.24261 11.4305 6.40365C11.3592 6.48417 11.2168 6.5647 11.2168 6.48418C11.1456 6.48418 11.0743 6.48417 11.0743 6.40365C11.0031 6.32313 10.9319 6.2426 10.8606 6.16208C10.7894 6.08156 10.7894 5.92052 10.7182 5.75947C10.7182 5.59843 10.7182 5.43739 10.7182 5.35687C10.7182 5.27634 10.7182 5.03479 10.7182 4.87374C10.7182 4.63218 10.7182 4.47113 10.7182 4.39061C10.7182 4.14904 10.7182 3.82696 10.7182 3.50488C10.7182 3.18279 10.7182 2.94122 10.7182 2.78017C10.7182 2.61913 10.7182 2.37757 10.7182 2.21652C10.7182 1.97496 10.7182 1.81391 10.7182 1.73339C10.7182 1.65287 10.6469 1.49183 10.6469 1.41131C10.5757 1.33078 10.5045 1.25026 10.4332 1.16974C10.362 1.08922 10.2195 1.08922 10.1483 1.0087C9.79216 0.928176 9.36478 0.847656 8.86616 0.847656C7.72645 0.847656 6.9429 0.92818 6.65797 1.08922C6.51551 1.16975 6.37305 1.25026 6.30182 1.41131C6.15935 1.57235 6.15935 1.65287 6.23058 1.65287C6.58674 1.7334 6.87167 1.89443 7.01413 2.136L7.08537 2.29705C7.1566 2.37757 7.15659 2.53861 7.22782 2.78017C7.29905 3.02174 7.29905 3.2633 7.29905 3.58539C7.29905 4.06852 7.29905 4.55166 7.29905 4.87374C7.29905 5.27635 7.22782 5.51791 7.22782 5.75947C7.22782 6.00104 7.1566 6.16209 7.08537 6.24261C7.01414 6.40365 7.01413 6.48418 6.94289 6.48418C6.94289 6.48418 6.94289 6.56469 6.87166 6.56469C6.80043 6.56469 6.7292 6.64522 6.58674 6.64522C6.51551 6.64522 6.37305 6.5647 6.30182 6.48418C6.15935 6.40366 6.01689 6.24261 5.94566 6.08157C5.80319 5.92053 5.66073 5.67895 5.51826 5.35687C5.3758 5.03478 5.1621 4.7127 5.01963 4.22957L4.87718 3.90748C4.80595 3.74644 4.66349 3.42435 4.52103 3.02174C4.37856 2.61913 4.2361 2.29705 4.09363 1.89444C4.0224 1.7334 3.95118 1.65287 3.87995 1.57235H3.80871C3.80871 1.57235 3.73747 1.49183 3.66624 1.49183C3.59501 1.49183 3.52379 1.41131 3.45255 1.41131H0.888214C0.603288 1.41131 0.460827 1.49183 0.389595 1.57235L0.318359 1.65287C0.318359 1.65287 0.318359 1.73339 0.318359 1.81391C0.318359 1.89444 0.318364 1.97495 0.389595 2.136C0.745753 3.10226 1.17314 4.06852 1.60053 5.03478C2.02792 5.92052 2.45531 6.72574 2.74024 7.28939C3.0964 7.85305 3.38132 8.4167 3.73748 8.89983C4.09363 9.38296 4.30732 9.70504 4.37856 9.86609C4.52102 10.0271 4.59225 10.1076 4.66348 10.1882L4.87718 10.4297C5.01965 10.5908 5.23334 10.8323 5.51826 11.0739C5.80319 11.3155 6.15934 11.557 6.5155 11.7986C6.87166 12.0402 7.29906 12.2012 7.72645 12.3623C8.22507 12.5233 8.65245 12.6038 9.07984 12.5233H10.1483C10.362 12.5233 10.5045 12.4428 10.6469 12.2817L10.7182 12.2012C10.7182 12.1207 10.7894 12.1207 10.7894 12.0402C10.7894 11.9597 10.7894 11.8791 10.7894 11.7181C10.7894 11.396 10.7894 11.1544 10.8606 10.9129C10.9319 10.6713 10.9319 10.5103 11.0031 10.3492C11.0743 10.1882 11.1456 10.1076 11.2168 10.0271C11.288 9.94661 11.3593 9.86609 11.3593 9.86609H11.4305C11.5729 9.78557 11.7866 9.86609 11.9291 10.0271C12.1428 10.1882 12.3565 10.4297 12.4989 10.6713C12.6414 10.9129 12.8551 11.1544 13.14 11.4765C13.425 11.7986 13.6387 12.0402 13.7811 12.1207L13.9948 12.2817C14.1373 12.3623 14.2797 12.4428 14.4934 12.5233C14.7071 12.6038 14.8496 12.6038 14.9921 12.6038L17.4139 12.5233C17.6276 12.5233 17.8413 12.4428 17.9838 12.3623C18.1262 12.2817 18.1975 12.2012 18.1975 12.0402C18.1975 11.9597 18.1975 11.7986 18.1975 11.7181C18.055 11.557 18.055 11.4765 18.055 11.396Z" fill="currentColor"></path>
  </symbol>
  <symbol xmlns="http://www.w3.org/2000/svg" viewBox="0 0 19 20" id="ic_wallet">
    <path d="M18.1826 5.41821C18.1 5.33491 18.0017 5.26885 17.8934 5.22388C17.7851 5.17891 17.669 5.15592 17.5517 5.15625H16.9219V3.67188C16.9216 3.43575 16.8277 3.20937 16.6607 3.0424C16.4938 2.87543 16.2674 2.78152 16.0312 2.78125H3.21467C2.51956 2.78126 1.85293 3.0574 1.36141 3.54891C0.869895 4.04043 0.59376 4.70706 0.59375 5.40217V15.5978C0.59376 16.2929 0.869895 16.9596 1.36141 17.4511C1.85293 17.9426 2.51956 18.2187 3.21467 18.2188H17.5166C17.7522 18.2183 17.978 18.1247 18.1449 17.9584C18.3117 17.7921 18.406 17.5666 18.4073 17.331L18.4423 6.04992C18.443 5.93266 18.4204 5.81643 18.3758 5.70798C18.3313 5.59953 18.2656 5.50103 18.1826 5.41821ZM17.2207 17.0312H3.21467C2.83451 17.0312 2.46991 16.8802 2.20109 16.6114C1.93227 16.3426 1.78125 15.978 1.78125 15.5978V5.40217C1.78125 5.02201 1.93227 4.65741 2.20109 4.38859C2.46991 4.11977 2.83451 3.96875 3.21467 3.96875H15.7344V5.15625H3.26562V6.34375H17.2539L17.2207 17.0312Z" fill="currentColor"></path>
    <path d="M14.5469 10.7969H15.7344V11.9844H14.5469V10.7969Z" fill="currentColor"></path>
  </symbol>
  <symbol xmlns="http://www.w3.org/2000/svg" viewBox="0 0 16 12" id="ic_youtube">
    <path d="M15.4058 5.07462C15.4058 4.74492 15.3509 4.36028 15.3509 3.92068C15.2959 3.48108 15.241 3.04148 15.186 2.65683C15.0761 2.21723 14.9113 1.88754 14.5816 1.61279C14.3068 1.33804 13.9222 1.17318 13.5375 1.11823C12.2737 0.953384 10.4054 0.898438 7.87772 0.898438C5.35004 0.898438 3.42679 0.953384 2.21789 1.11823C1.83325 1.17318 1.4486 1.33804 1.17385 1.61279C0.899106 1.88754 0.679304 2.21723 0.569405 2.65683C0.459505 3.04148 0.404562 3.42613 0.404562 3.92068C0.349613 4.36028 0.349609 4.74492 0.349609 5.07462C0.349609 5.40432 0.349609 5.78897 0.349609 6.33847C0.349609 6.88796 0.349609 7.32756 0.349609 7.60231C0.349609 7.93201 0.404562 8.31666 0.404562 8.75626C0.459512 9.19586 0.514455 9.63545 0.569405 10.0201C0.679304 10.4597 0.844156 10.7894 1.17385 11.0642C1.4486 11.3389 1.83325 11.5037 2.21789 11.5587C3.48174 11.7235 5.35004 11.7785 7.87772 11.7785C10.4054 11.7785 12.3286 11.7235 13.5375 11.5587C13.9222 11.5037 14.3068 11.3389 14.5816 11.0642C14.8563 10.7894 15.0761 10.4597 15.186 10.0201C15.2959 9.63545 15.3509 9.25081 15.3509 8.75626C15.4058 8.31666 15.4058 7.93201 15.4058 7.60231C15.4058 7.27261 15.4058 6.88796 15.4058 6.33847C15.4058 5.78897 15.4058 5.34937 15.4058 5.07462ZM10.79 6.77807L6.44903 9.4706C6.39408 9.52555 6.28418 9.58051 6.17428 9.58051C6.06438 9.58051 6.00943 9.58051 5.89953 9.52556C5.73468 9.41566 5.62478 9.25081 5.62478 9.03101V3.59097C5.62478 3.37118 5.73468 3.20633 5.89953 3.09643C6.06438 2.98653 6.28418 2.98653 6.44903 3.09643L10.79 5.78897C10.9549 5.89887 11.0648 6.06372 11.0648 6.22857C11.0648 6.39342 10.9549 6.66817 10.79 6.77807Z" fill="currentColor"></path>
  </symbol>
</svg>